<?xml version="1.0" standalone="no"?>
<!DOCTYPE svg PUBLIC "-//W3C//DTD SVG 1.1//EN" "http://www.w3.org/Graphics/SVG/1.1/DTD/svg11.dtd" >
<svg xmlns="http://www.w3.org/2000/svg" xmlns:xlink="http://www.w3.org/1999/xlink" version="1.1">
<metadata>
Created by FontForge 20190801 at Sun Apr 14 18:27:58 2019
 By root
Copyright (c) 2019 Monotype Imaging Inc. All rights reserved.
</metadata>
<defs>
<font id="HelveticaNowText-Black" horiz-adv-x="755" >
  <font-face 
    font-family="HelveticaNowText Black"
    font-weight="900"
    font-stretch="normal"
    units-per-em="1000"
    panose-1="2 11 10 4 3 2 2 2 2 4"
    ascent="875"
    descent="-125"
    x-height="516"
    cap-height="712"
    bbox="-492 -366 1679 1109"
    underline-thickness="50"
    underline-position="-250"
    unicode-range="U+000D-FEFF"
  />
<missing-glyph horiz-adv-x="769" 
d="M709 0h-649v712h649v-712zM284 520v-328h201v328h-201z" />
    <glyph glyph-name="fi" unicode="fi" horiz-adv-x="725" 
d="M97 514v22q0 79 44 128q43 48 162 48h100v-131h-56q-27 0 -37.5 -10t-10.5 -34v-23l104 2v-124l-104 2v-394h-202v394l-82 -2v124zM473 581v131h202v-131h-202zM675 0h-202v516h202v-516z" />
    <glyph glyph-name="fl" unicode="fl" horiz-adv-x="725" 
d="M97 514v22q0 79 44 128q43 48 162 48h100v-131h-56q-27 0 -37.5 -10t-10.5 -34v-23l104 2v-124l-104 2v-394h-202v394l-82 -2v124zM473 0v712h202v-712h-202z" />
    <glyph glyph-name=".notdef" horiz-adv-x="769" 
d="M709 0h-649v712h649v-712zM284 520v-328h201v328h-201z" />
    <glyph glyph-name=".null" horiz-adv-x="0" 
 />
    <glyph glyph-name="nonmarkingreturn" horiz-adv-x="333" 
 />
    <glyph glyph-name="NULL" horiz-adv-x="0" 
 />
    <glyph glyph-name="NULL" horiz-adv-x="0" 
 />
    <glyph glyph-name="CR" unicode="&#xd;" horiz-adv-x="262" 
 />
    <glyph glyph-name="space" unicode=" " horiz-adv-x="262" 
 />
    <glyph glyph-name="exclam" unicode="!" horiz-adv-x="322" 
d="M209 256h-96l-53 261v195h202v-195zM262 0h-202v183h202v-183z" />
    <glyph glyph-name="quotedbl" unicode="&#x22;" horiz-adv-x="540" 
d="M220 354h-170v358h170v-358zM490 354h-170v358h170v-358z" />
    <glyph glyph-name="numbersign" unicode="#" horiz-adv-x="706" 
d="M676 556v-136l-125 3l-17 -123l102 2v-136l-120 3l-24 -169h-132l24 171h-113l-24 -171h-133l24 169l-108 -3v136l126 -3l17 123l-104 -2v136l123 -3l22 159h133l-23 -161h113l23 161h132l-22 -159zM307 424l-18 -126h113l18 126h-113z" />
    <glyph glyph-name="dollar" unicode="$" 
d="M702 221q0 -102 -68 -165t-191 -76v-120h-141v122q-113 16 -176.5 80.5t-71.5 173.5h225q7 -81 109 -81q88 0 88 54q0 43 -63 56l-149 33q-192 42 -192 207q0 92 57.5 149t172.5 71v127h141v-127q214 -25 225 -217h-217q-9 55 -82 55q-74 0 -74 -42q0 -32 54 -44l150 -33
q203 -45 203 -223z" />
    <glyph glyph-name="percent" unicode="%" horiz-adv-x="1240" 
d="M273 277q-102 0 -157.5 59.5t-55.5 166.5q0 108 55.5 167t157.5 59q101 0 156 -59t55 -167t-55 -167t-156 -59zM441 -15h-140l492 742h138zM273 385q83 0 83 118q0 117 -83 117q-84 0 -84 -117q0 -118 84 -118zM969 -16q-102 0 -157.5 59.5t-55.5 166.5q0 108 55.5 167
t157.5 59q101 0 156 -59t55 -167t-55 -167t-156 -59zM969 92q83 0 83 118q0 117 -83 117q-84 0 -84 -117q0 -118 84 -118z" />
    <glyph glyph-name="ampersand" unicode="&#x26;" horiz-adv-x="820" 
d="M671 146l136 -147h-259l-32 35q-82 -54 -193 -54q-129 0 -201 59.5t-72 161.5q0 142 142 193q-52 71 -52 142q0 92 68 143q68 50 174 50q112 0 173 -54q62 -54 62 -135q0 -62 -37.5 -110.5t-102.5 -75.5l76 -82q26 39 39 91h178q-17 -120 -99 -217zM429 579
q-26 24 -64.5 11t-33.5 -46q0 -36 37 -73l15 -16q61 31 61 84q0 25 -15 40zM351 126q35 0 66 17l-129 141q-37 -28 -37 -72q0 -39 27.5 -62.5t72.5 -23.5z" />
    <glyph glyph-name="quotesingle" unicode="'" horiz-adv-x="270" 
d="M220 354h-170v358h170v-358z" />
    <glyph glyph-name="parenleft" unicode="(" horiz-adv-x="416" 
d="M386 -204h-207q-134 217 -134 478t134 473h207q-115 -226 -115 -477q0 -250 115 -474z" />
    <glyph glyph-name="parenright" unicode=")" horiz-adv-x="416" 
d="M237 -204h-207q115 224 115 474q0 251 -115 477h207q134 -212 134 -473t-134 -478z" />
    <glyph glyph-name="asterisk" unicode="*" horiz-adv-x="602" 
d="M301 385l-82 -160l-122 95l122 124l-169 32l47 143l152 -78l-22 171h148l-22 -171l152 78l47 -143l-172 -32l125 -124l-125 -95z" />
    <glyph glyph-name="plus" unicode="+" 
d="M452 392h203v-142h-203v-207h-151v207h-201v142h201v207h151v-207z" />
    <glyph glyph-name="comma" unicode="," horiz-adv-x="330" 
d="M89 -204h-34v98h25q87 0 87 77v29h-112v192h220v-220q0 -176 -186 -176z" />
    <glyph glyph-name="hyphen" unicode="-" horiz-adv-x="347" 
d="M319 197h-291v153h291v-153z" />
    <glyph glyph-name="period" unicode="." horiz-adv-x="330" 
d="M275 0h-220v192h220v-192z" />
    <glyph glyph-name="slash" unicode="/" horiz-adv-x="572" 
d="M246 0h-216l296 712h216z" />
    <glyph glyph-name="zero" unicode="0" 
d="M379 -16q-146 0 -237 103q-92 104 -92 269t92 269q91 103 237 103q144 0 235 -103t91 -269t-91 -269t-235 -103zM379 148q119 0 119 208q0 108 -29 158t-90 50q-63 0 -92.5 -50t-29.5 -158q0 -107 30 -157.5t92 -50.5z" />
    <glyph glyph-name="one" unicode="1" horiz-adv-x="516" 
d="M426 0h-224v407h-172v150h7q89 0 138 30q52 31 73 117l2 8h176v-712z" />
    <glyph glyph-name="two" unicode="2" 
d="M678 0h-602q0 107 46 169q46 63 186 154l84 55q43 29 60 51.5t17 49.5q0 36 -23 56t-65 20q-98 0 -98 -115v-9h-195v30q0 127 77.5 197.5t221.5 70.5q135 0 213 -60.5t78 -173.5q0 -72 -34 -121q-35 -51 -119 -103l-124 -77q-14 -9 -15 -13h292v-181z" />
    <glyph glyph-name="three" unicode="3" 
d="M539 379q66 -13 104 -58.5t38 -111.5q0 -99 -78 -164q-79 -65 -218 -65q-144 0 -223.5 69.5t-87.5 195.5h196q6 -106 104 -106q46 0 72.5 20.5t26.5 58.5q0 76 -105 76h-48v137h59q89 0 89 73q0 72 -88 72q-41 0 -62 -18.5t-26 -61.5h-190q14 233 283 233q131 0 201 -55
q71 -56 71 -141q0 -55 -31 -97t-87 -57z" />
    <glyph glyph-name="four" unicode="4" 
d="M594 713v-399l101 5v-163l-103 5v-162h-202v162l-329 -5v171l326 386h207zM220 314h171v194h-4z" />
    <glyph glyph-name="five" unicode="5" 
d="M377 -20q-132 0 -212 57t-95 167l209 15q14 -73 96 -73q47 0 73.5 26t26.5 71q0 46 -26 72.5t-70 26.5q-57 0 -84 -42l-198 10l64 402h471v-167h-313l-21 -105l3 -3q55 43 147 43q110 0 173.5 -62.5t63.5 -172.5q0 -124 -81 -194.5t-227 -70.5z" />
    <glyph glyph-name="six" unicode="6" 
d="M431 497q113 0 187 -65q73 -64 73 -180q0 -123 -83 -197q-84 -75 -220 -75q-121 0 -207 68q-117 94 -117 301q0 175 81 278q81 102 246 102q205 0 273 -167l-200 -21q-19 37 -76 37q-52 0 -79 -32t-35 -108q56 59 157 59zM378 143q50 0 77.5 28t27.5 74t-28.5 73.5
t-77.5 27.5q-48 0 -75 -28.5t-31 -80.5q1 -30 22 -55q32 -39 85 -39z" />
    <glyph glyph-name="seven" unicode="7" 
d="M433 0h-232q0 128 65 279q64 149 168 244h-342v189h570v-166q-229 -229 -229 -546z" />
    <glyph glyph-name="eight" unicode="8" 
d="M609 41q-86 -61 -232 -61t-231 61q-87 61 -87 169q0 67 37 109t106 53v3q-53 15 -82 55t-29 98q0 96 74.5 148.5t211.5 52.5q139 0 215 -52.5t76 -148.5q0 -119 -112 -153v-3q67 -13 103.5 -54.5t36.5 -107.5q0 -108 -87 -169zM301 452q26 -22 78 -22t78 22q27 21 27 60
q0 77 -105 77q-106 0 -106 -77q0 -39 28 -60zM379 132q54 0 83.5 23t29.5 64q0 42 -29.5 65t-83.5 23q-55 0 -85.5 -23t-30.5 -65q0 -41 30.5 -64t85.5 -23z" />
    <glyph glyph-name="nine" unicode="9" 
d="M574 661q117 -95 117 -301q0 -175 -81 -277q-81 -103 -246 -103q-205 0 -273 167l200 21q19 -37 76 -37q52 0 79 32t35 108q-56 -59 -157 -59q-113 0 -187 65q-73 64 -73 180q0 123 84 198q83 74 219 74q121 0 207 -68zM378 363q48 0 75 28.5t31 80.5q-1 30 -22 55
q-32 39 -85 39q-50 0 -77.5 -28t-27.5 -74t28.5 -73.5t77.5 -27.5z" />
    <glyph glyph-name="colon" unicode=":" horiz-adv-x="330" 
d="M275 318h-220v192h220v-192zM275 0h-220v192h220v-192z" />
    <glyph glyph-name="semicolon" unicode=";" horiz-adv-x="330" 
d="M275 318h-220v192h220v-192zM89 -204h-34v98h25q87 0 87 77v29h-112v192h220v-220q0 -176 -186 -176z" />
    <glyph glyph-name="less" unicode="&#x3c;" 
d="M120 409l516 177v-153l-396 -118l396 -119v-153l-516 177v189z" />
    <glyph glyph-name="equal" unicode="=" 
d="M656 386h-556v141h556v-141zM656 113h-556v142h556v-142z" />
    <glyph glyph-name="greater" unicode="&#x3e;" 
d="M120 433v153l516 -177v-189l-516 -177v153l396 119z" />
    <glyph glyph-name="question" unicode="?" horiz-adv-x="690" 
d="M417 240h-202v24q0 80 33.5 124t115.5 65q43 12 59 23.5t16 34.5q0 54 -98 54q-52 0 -76 -14.5t-29 -50.5h-200q13 229 306 229q148 0 225.5 -55t77.5 -155q0 -133 -133 -185l-31 -12q-37 -15 -50.5 -30t-13.5 -45v-7zM417 0h-202v183h202v-183z" />
    <glyph glyph-name="at" unicode="@" horiz-adv-x="1048" 
d="M532 729q213 0 335 -113q121 -114 121 -287q0 -124 -61 -201q-61 -79 -172 -79q-112 0 -148 87q-37 -85 -132 -85q-78 0 -126.5 59t-48.5 166t48.5 167t126.5 60q85 0 123 -68l17 54h130v-267q0 -51 48 -51q40 0 62.5 38.5t22.5 109.5q0 146 -91.5 227t-254.5 81
q-171 0 -262 -90.5t-91 -259.5q0 -166 91.5 -256.5t259.5 -90.5q106 0 209 38v-102q-96 -37 -206 -37q-219 0 -346 119q-127 120 -127 329q0 206 127 329t345 123zM527 184q51 0 64 57v82q-13 58 -64 58q-68 0 -68 -99q0 -98 68 -98z" />
    <glyph glyph-name="A" unicode="A" horiz-adv-x="786" 
d="M771 0h-235l-32 97h-223l-32 -97h-234l268 712h222zM366 355l-35 -107h124l-35 107l-27 93z" />
    <glyph glyph-name="B" unicode="B" horiz-adv-x="746" 
d="M587 390q52 -19 84.5 -67t32.5 -110q0 -95 -71 -154t-189 -59h-384v712h381q102 0 167 -50q64 -49 64 -134q0 -102 -85 -138zM409 539h-125v-99h125q25 0 39.5 14t14.5 36t-14.5 35.5t-39.5 13.5zM284 178h137q34 0 53 15.5t19 43.5t-18 44t-50 16h-141v-119z" />
    <glyph glyph-name="C" unicode="C" horiz-adv-x="772" 
d="M400 -23q-157 0 -256 102t-99 274t99 274t256 102q139 0 231 -77q90 -76 107 -210h-221q-15 109 -115 109q-64 0 -98.5 -50t-34.5 -146q0 -200 133 -200q103 0 115 122h223q-10 -138 -104 -219q-93 -81 -236 -81z" />
    <glyph glyph-name="D" unicode="D" horiz-adv-x="778" 
d="M60 712h335q162 0 252 -93t90 -263q0 -163 -83 -260q-84 -96 -249 -96h-345v712zM284 187h75q72 0 113 45t41 124t-41 124t-113 45h-75v-338z" />
    <glyph glyph-name="E" unicode="E" horiz-adv-x="716" 
d="M284 271v-81h392v-190h-616v712h606v-185h-382v-81h327v-175h-327z" />
    <glyph glyph-name="F" unicode="F" horiz-adv-x="643" 
d="M638 712v-185h-354v-101h293v-175h-293v-251h-224v712h578z" />
    <glyph glyph-name="G" unicode="G" horiz-adv-x="811" 
d="M448 392h303v-392h-149l-10 67q-30 -39 -85.5 -64.5t-126.5 -25.5q-145 0 -239 103q-96 104 -96 273q0 172 99 274t256 102q123 0 212 -62q88 -63 115 -171l-215 -15q-30 70 -110 70q-64 0 -98.5 -50t-34.5 -146q0 -104 36.5 -152t112.5 -48q97 0 122 82h-92v155z" />
    <glyph glyph-name="H" unicode="H" horiz-adv-x="769" 
d="M485 470v242h224v-712h-224v278h-201v-278h-224v712h224v-242h201z" />
    <glyph glyph-name="I" unicode="I" horiz-adv-x="344" 
d="M284 0h-224v712h224v-712z" />
    <glyph glyph-name="J" unicode="J" horiz-adv-x="648" 
d="M516 43q-74 -66 -197 -66t-196 65q-73 64 -73 174v74h206v-60q0 -61 54 -61t54 61v482h224v-495q0 -109 -72 -174z" />
    <glyph glyph-name="K" unicode="K" horiz-adv-x="792" 
d="M792 0h-277l-172 279l-59 -64v-215h-224v712h224v-225l204 225h276l-266 -284z" />
    <glyph glyph-name="L" unicode="L" horiz-adv-x="612" 
d="M284 712v-520h318v-192h-542v712h224z" />
    <glyph glyph-name="M" unicode="M" horiz-adv-x="904" 
d="M483 454l64 258h297v-712h-204v299l10 171l-38 -171l-77 -299h-162l-78 299l-35 164l9 -164v-299h-209v712h296l66 -258l31 -145z" />
    <glyph glyph-name="N" unicode="N" horiz-adv-x="781" 
d="M501 342v370h220v-712h-227l-214 366v-366h-220v712h222z" />
    <glyph glyph-name="O" unicode="O" horiz-adv-x="820" 
d="M675 79q-101 -102 -265 -102t-264 102q-101 103 -101 274t101 274q100 102 264 102t265 -102q100 -101 100 -274t-100 -274zM306 206q36 -51 104 -51t105 51q36 50 36 148q0 96 -36.5 146.5t-104.5 50.5t-104.5 -50.5t-36.5 -146.5q0 -99 37 -148z" />
    <glyph glyph-name="P" unicode="P" horiz-adv-x="724" 
d="M60 712h370q118 0 192 -69q72 -69 72 -179t-73 -179q-73 -70 -195 -70h-142v-215h-224v712zM284 385h99q87 0 87 76q0 74 -87 74h-99v-150z" />
    <glyph glyph-name="Q" unicode="Q" horiz-adv-x="800" 
d="M775 353q0 -183 -112 -286l82 -87l-122 -95l-74 115q-66 -23 -139 -23q-164 0 -264 102q-101 103 -101 274t101 274q100 102 264 102t265 -102q100 -101 100 -274zM269 354q0 -98 36 -148.5t105 -50.5q6 0 24 2l-89 87l122 95l62 -108q22 48 22 123q0 96 -36.5 146.5
t-104.5 50.5t-104.5 -50.5t-36.5 -146.5z" />
    <glyph glyph-name="R" unicode="R" horiz-adv-x="766" 
d="M699 170l17 -170h-222l-14 150q-9 99 -99 99h-97v-249h-224v712h415q104 0 170 -57q66 -59 66 -151q0 -126 -121 -174q96 -34 109 -160zM284 407h127q35 0 55.5 18.5t20.5 49.5q0 30 -20 48.5t-56 18.5h-127v-135z" />
    <glyph glyph-name="S" unicode="S" horiz-adv-x="720" 
d="M361 -23q-148 0 -231.5 66.5t-93.5 192.5h225q7 -81 109 -81q88 0 88 54q0 43 -63 56l-149 33q-192 42 -192 207q0 106 75 165t225 59q284 0 296 -221h-217q-9 55 -82 55q-74 0 -74 -42q0 -32 54 -44l150 -33q203 -45 203 -223q0 -116 -85.5 -180t-237.5 -64z" />
    <glyph glyph-name="T" unicode="T" horiz-adv-x="675" 
d="M20 712h635v-192h-205v-520h-224v520h-206v192z" />
    <glyph glyph-name="U" unicode="U" horiz-adv-x="786" 
d="M642 52q-86 -75 -249 -75q-164 0 -248 75q-85 73 -85 217v443h224v-443q0 -114 109 -114t109 114v443h224v-443q0 -143 -84 -217z" />
    <glyph glyph-name="V" unicode="V" horiz-adv-x="723" 
d="M411 440l75 272h222l-220 -712h-253l-220 712h226l74 -271l49 -205z" />
    <glyph glyph-name="W" unicode="W" horiz-adv-x="1035" 
d="M733 441l66 271h221l-206 -712h-216l-80 420l-75 -420h-222l-206 712h220l67 -271l32 -184l29 183l55 272h198l60 -272l28 -179z" />
    <glyph glyph-name="X" unicode="X" horiz-adv-x="817" 
d="M782 712l-242 -337l262 -375h-268l-86 141l-39 75l-39 -74l-89 -142h-266l265 376l-243 336h260l68 -112l46 -83l45 83l69 112h257z" />
    <glyph glyph-name="Y" unicode="Y" horiz-adv-x="768" 
d="M414 523l95 189h248l-261 -452v-260h-224v260l-261 452h250l91 -189l31 -81z" />
    <glyph glyph-name="Z" unicode="Z" horiz-adv-x="715" 
d="M651 553l-325 -361h347v-192h-631v184l310 336h-286v192h585v-159z" />
    <glyph glyph-name="bracketleft" unicode="[" horiz-adv-x="451" 
d="M421 -204h-361v950h361v-178h-159v-594h159v-178z" />
    <glyph glyph-name="backslash" unicode="\" horiz-adv-x="572" 
d="M542 0h-216l-296 712h216z" />
    <glyph glyph-name="bracketright" unicode="]" horiz-adv-x="451" 
d="M391 -204h-361v178h159v594h-159v178h361v-950z" />
    <glyph glyph-name="asciicircum" unicode="^" 
d="M256 712h233l182 -516h-212l-42 137q-23 73 -46 165q-17 -74 -45 -165l-42 -137h-201z" />
    <glyph glyph-name="underscore" unicode="_" horiz-adv-x="500" 
d="M500 -154h-500v79h500v-79z" />
    <glyph glyph-name="grave" unicode="`" horiz-adv-x="500" 
d="M428 611h-183l-172 182h238z" />
    <glyph glyph-name="a" unicode="a" horiz-adv-x="642" 
d="M607 0h-200q-15 32 -19 61q-51 -81 -166 -81q-87 0 -138 42.5t-51 116.5q0 63 38.5 101t123.5 52l181 28v37q0 46 -65 46q-31 0 -46 -13t-17 -43l-192 7q11 93 73 136.5t190 43.5q131 0 195 -44.5t64 -141.5v-218q0 -80 29 -130zM292 107q41 0 66 22t25 66v23l-88 -16
q-64 -10 -64 -50q0 -45 61 -45z" />
    <glyph glyph-name="b" unicode="b" horiz-adv-x="646" 
d="M403 534q96 0 157 -72q61 -73 61 -204q0 -130 -60 -203q-61 -75 -162 -75q-99 0 -155 75l-6 -55h-188v712h202v-242q64 64 151 64zM337 144q78 0 78 117q0 118 -78 118q-40 0 -63.5 -32.5t-23.5 -85.5q0 -54 23.5 -85.5t63.5 -31.5z" />
    <glyph glyph-name="c" unicode="c" horiz-adv-x="612" 
d="M315 -20q-135 0 -212 76q-78 75 -78 201q0 125 78 202q78 75 212 75q115 0 191 -59q74 -59 83 -155l-199 -10q-4 84 -73 84q-86 0 -86 -137t86 -137q34 0 51 20.5t21 66.5l199 -10q-12 -99 -85 -157q-73 -60 -188 -60z" />
    <glyph glyph-name="d" unicode="d" horiz-adv-x="646" 
d="M394 470v242h202v-712h-188l-6 55q-56 -75 -155 -75q-101 0 -161 75q-61 73 -61 203t62 204q61 72 156 72q87 0 151 -64zM309 144q40 0 63.5 31.5t23.5 85.5q0 53 -23.5 85.5t-63.5 32.5q-78 0 -78 -118q0 -117 78 -117z" />
    <glyph glyph-name="e" unicode="e" horiz-adv-x="624" 
d="M599 237v-29h-377q13 -88 95 -88q58 0 81 44l189 -12q-28 -82 -98.5 -127t-173.5 -45q-135 0 -212 76q-78 75 -78 201q0 124 80 201q79 76 208 76q92 0 159 -43t98 -111q29 -67 29 -143zM311 394q-70 0 -87 -77h171q-11 77 -84 77z" />
    <glyph glyph-name="f" unicode="f" horiz-adv-x="423" 
d="M403 581h-56q-27 0 -37.5 -10t-10.5 -34v-23l104 2v-124l-104 2v-394h-202v394l-82 -2v124l82 -2v22q0 79 44 128q43 48 162 48h100v-131z" />
    <glyph glyph-name="g" unicode="g" horiz-adv-x="646" 
d="M401 466l7 50h188v-482q0 -118 -77.5 -184t-218.5 -66q-221 0 -262 167l192 17q20 -44 79 -44q45 0 65 19t20 58v68q-55 -61 -147 -61q-101 0 -161 71q-61 70 -61 193q0 124 62 194q62 68 156 68q93 0 158 -68zM309 164q40 0 63.5 30t23.5 81q0 50 -23.5 81t-63.5 31
q-78 0 -78 -112q0 -111 78 -111z" />
    <glyph glyph-name="h" unicode="h" horiz-adv-x="648" 
d="M403 531q93 0 144 -50t51 -142v-339h-202v290q0 36 -17.5 56t-48.5 20q-35 0 -56.5 -25.5t-21.5 -66.5v-274h-202v712h202v-248q57 67 151 67z" />
    <glyph glyph-name="i" unicode="i" horiz-adv-x="302" 
d="M252 581h-202v131h202v-131zM252 0h-202v516h202v-516z" />
    <glyph glyph-name="j" unicode="j" horiz-adv-x="302" 
d="M252 581h-202v131h202v-131zM30 -215h-68v143h35q53 0 53 57v531h202v-531q0 -104 -54 -152t-168 -48z" />
    <glyph glyph-name="k" unicode="k" horiz-adv-x="651" 
d="M631 0h-240l-109 186l-30 -30v-156h-202v712h202v-344l123 148h239l-198 -206z" />
    <glyph glyph-name="l" unicode="l" horiz-adv-x="302" 
d="M252 0h-202v712h202v-712z" />
    <glyph glyph-name="m" unicode="m" horiz-adv-x="966" 
d="M718 534q91 0 144.5 -52t53.5 -146v-336h-202v300q0 36 -16 55t-44 19q-31 0 -50.5 -22t-19.5 -57v-295h-202v300q0 36 -16 55t-44 19q-31 0 -50.5 -22t-19.5 -57v-295h-202v516h185l7 -65q54 83 152 83q105 0 156 -83q62 83 168 83z" />
    <glyph glyph-name="n" unicode="n" horiz-adv-x="648" 
d="M403 531q93 0 144 -50t51 -142v-339h-202v290q0 36 -17.5 56t-48.5 20q-35 0 -56.5 -25.5t-21.5 -66.5v-274h-202v516h185l7 -65q56 80 161 80z" />
    <glyph glyph-name="o" unicode="o" horiz-adv-x="630" 
d="M526 56q-79 -76 -211 -76q-131 0 -210 76q-80 77 -80 201t80 201q79 76 210 76q132 0 211 -76t79 -201t-79 -201zM252 153q20 -33 63 -33t64 33q20 32 20 104q0 71 -20 105q-21 32 -64 32t-63 -32q-21 -33 -21 -105q0 -73 21 -104z" />
    <glyph glyph-name="p" unicode="p" horiz-adv-x="646" 
d="M403 534q96 0 157 -72q61 -73 61 -204q0 -130 -60 -203q-61 -75 -162 -75q-92 0 -147 64v-248h-202v720h188l6 -54q66 72 159 72zM337 144q78 0 78 117q0 118 -78 118q-40 0 -63.5 -32.5t-23.5 -85.5q0 -54 23.5 -85.5t63.5 -31.5z" />
    <glyph glyph-name="q" unicode="q" horiz-adv-x="646" 
d="M402 462l6 54h188v-720h-202v248q-55 -64 -147 -64q-101 0 -161 75q-61 73 -61 203t62 204q61 72 156 72q93 0 159 -72zM309 144q40 0 63.5 31.5t23.5 85.5q0 53 -23.5 85.5t-63.5 32.5q-78 0 -78 -118q0 -117 78 -117z" />
    <glyph glyph-name="r" unicode="r" horiz-adv-x="465" 
d="M387 534q26 0 53 -7v-174q-24 3 -46 3q-142 0 -142 -126v-230h-202v516h188l6 -72q46 90 143 90z" />
    <glyph glyph-name="s" unicode="s" horiz-adv-x="606" 
d="M301 -20q-119 0 -187.5 48t-78.5 134h190q9 -61 84 -61q35 0 54.5 14t19.5 38q0 40 -57 46l-78 7q-202 18 -202 155q0 83 66.5 128t187.5 45q230 0 255 -163h-184q-9 51 -78 51q-66 0 -66 -43q0 -39 59 -45l77 -8q208 -22 208 -162q0 -90 -71 -137t-199 -47z" />
    <glyph glyph-name="t" unicode="t" horiz-adv-x="431" 
d="M391 396l-95 2v-191q0 -56 50 -56h45v-151h-117q-102 0 -141 39t-39 141v218l-79 -2v120l79 -2v158h202v-158l95 2v-120z" />
    <glyph glyph-name="u" unicode="u" horiz-adv-x="648" 
d="M396 242v274h202v-516h-185l-7 65q-56 -80 -161 -80q-93 0 -144 50t-51 142v339h202v-290q0 -36 17.5 -56t48.5 -20q35 0 56.5 25.5t21.5 66.5z" />
    <glyph glyph-name="v" unicode="v" horiz-adv-x="598" 
d="M350 379l42 137h201l-173 -516h-233l-182 516h212l42 -137l46 -183z" />
    <glyph glyph-name="w" unicode="w" horiz-adv-x="893" 
d="M633 293l63 223h192l-170 -516h-196l-67 249l-8 37l-9 -38l-67 -248h-196l-170 516h204l64 -225l15 -69l14 68l54 226h177l58 -221l20 -89z" />
    <glyph glyph-name="x" unicode="x" horiz-adv-x="600" 
d="M410 270l185 -270h-224l-69 123l-68 -123h-229l186 270l-163 246h220l54 -102l54 102h223z" />
    <glyph glyph-name="y" unicode="y" horiz-adv-x="604" 
d="M302 204l86 312h211l-205 -588q-25 -71 -70.5 -101.5t-125.5 -30.5h-118v159h71q43 0 57 35l5 13l-208 513h215l62 -206z" />
    <glyph glyph-name="z" unicode="z" horiz-adv-x="551" 
d="M509 373l-229 -218h246v-155h-501v147l225 214h-207v155h466v-143z" />
    <glyph glyph-name="braceleft" unicode="{" horiz-adv-x="500" 
d="M470 -204h-144q-85 0 -124 34t-39 108v130q0 63 -29 88t-104 27v178q75 0 104 25.5t29 90.5v129q0 73 39 107t124 34h144v-178h-40q-37 0 -51 -13.5t-14 -48.5v-70q0 -74 -39 -116t-111 -49v-2q72 -7 111 -46t39 -107v-80q0 -35 15 -49t52 -14h38v-178z" />
    <glyph glyph-name="bar" unicode="|" horiz-adv-x="323" 
d="M263 -204h-203v951h203v-951z" />
    <glyph glyph-name="braceright" unicode="}" horiz-adv-x="484" 
d="M158 -204h-128v171h38q38 0 52.5 14.5t14.5 52.5v97q0 144 170 167v2q-170 23 -170 180v87q0 37 -14 51t-51 14h-40v171h128q85 0 124 -36t39 -114v-146q0 -69 29 -95.5t104 -26.5v-171q-75 -2 -104 -28.5t-29 -93.5v-146q0 -78 -39 -114t-124 -36z" />
    <glyph glyph-name="asciitilde" unicode="~" 
d="M242 238h-159q0 105 43 162t129 57q41 0 85 -16t78 -32t50 -16q45 0 45 64h159q0 -105 -43 -162t-129 -57q-54 0 -126 32t-87 32q-45 0 -45 -64z" />
    <glyph glyph-name="uni00A0" unicode="&#xa0;" horiz-adv-x="262" 
 />
    <glyph glyph-name="exclamdown" unicode="&#xa1;" horiz-adv-x="322" 
d="M262 333h-202v183h202v-183zM262 -196h-202v195l53 261h96l53 -261v-195z" />
    <glyph glyph-name="cent" unicode="&#xa2;" 
d="M388 120q34 0 51 20.5t21 66.5l199 -10q-10 -81 -63 -137t-138 -73v-131h-140v130q-104 18 -163 90t-59 181t59 181t163 90v138h140v-139q87 -17 140.5 -72.5t61.5 -134.5l-199 -10q-5 84 -73 84q-86 0 -86 -137t86 -137z" />
    <glyph glyph-name="sterling" unicode="&#xa3;" 
d="M439 135h249v-135h-620v135h74q92 0 140.5 26.5t48.5 67.5q0 17 -9 32l-254 -6v135l144 -7q-102 49 -102 154q0 87 69 139t197 52q141 0 217.5 -62t79.5 -170h-189q-4 81 -93 81q-85 0 -85 -70q0 -29 23.5 -57t84.5 -65l223 5v-135l-132 7q4 -11 4 -27q0 -62 -70 -100z
" />
    <glyph glyph-name="currency" unicode="&#xa4;" 
d="M713 595l-114 -107q30 -57 30 -125t-30 -125l114 -108l-103 -103l-108 114q-57 -30 -125 -30t-125 30l-107 -114l-103 103l114 107q-30 58 -30 126t30 125l-114 107l103 103l107 -114q57 30 125 30t125 -30l108 114zM297 279q31 -33 81 -33t81 33q31 32 31 84
q0 50 -31.5 83t-80.5 33t-81 -33t-32 -83t32 -84z" />
    <glyph glyph-name="yen" unicode="&#xa5;" 
d="M503 712h248l-197 -342h108v-110h-172v-73h172v-110h-172v-77h-224v77h-171v110h171v73h-171v110h107l-197 342h250l91 -189l31 -81l31 81z" />
    <glyph glyph-name="brokenbar" unicode="&#xa6;" horiz-adv-x="323" 
d="M263 411h-203v336h203v-336zM263 -204h-203v336h203v-336z" />
    <glyph glyph-name="section" unicode="&#xa7;" horiz-adv-x="685" 
d="M551 177q53 -44 53 -121q0 -89 -67.5 -138.5t-194.5 -49.5q-118 0 -183.5 44t-73.5 127h185q10 -51 78 -51t68 49q0 39 -54 52l-157 38q-160 39 -160 164q0 93 91 141q-55 46 -55 122q0 86 70.5 136.5t194.5 50.5q114 0 180 -44.5t74 -126.5h-185q-11 51 -79 51
q-67 0 -67 -49q0 -39 55 -52l156 -39q160 -40 160 -164q0 -93 -89 -140zM295 264l114 -29q43 12 43 51q0 44 -63 59l-111 28q-46 -13 -46 -51q0 -43 63 -58z" />
    <glyph glyph-name="dieresis" unicode="&#xa8;" horiz-adv-x="500" 
d="M198 580h-195v132h195v-132zM497 580h-195v132h195v-132z" />
    <glyph glyph-name="copyright" unicode="&#xa9;" horiz-adv-x="861" 
d="M430 -22q-167 0 -276 109q-109 108 -109 274t109 274q110 107 276 107q167 0 277 -107q109 -108 109 -274q0 -167 -109 -275t-277 -108zM430 67q126 0 207 83q80 83 80 211q0 127 -81 210q-81 82 -206 82q-126 0 -205 -82q-81 -83 -81 -210q0 -129 81 -211
q80 -83 205 -83zM433 165q-87 0 -139.5 53.5t-52.5 143.5q0 91 51 143.5t141 52.5q70 0 118.5 -33t66.5 -94l-119 -25q-19 51 -63 51q-63 0 -63 -95q0 -94 63 -94q44 0 63 54l119 -19q-15 -64 -64.5 -101t-120.5 -37z" />
    <glyph glyph-name="ordfeminine" unicode="&#xaa;" horiz-adv-x="554" 
d="M276 729q117 0 172.5 -40t55.5 -126v-225h-137l-12 50q-64 -53 -159 -53q-69 0 -107.5 29t-38.5 84q0 49 32.5 76t102.5 35l156 19v15q0 26 -16.5 37.5t-53.5 11.5q-57 0 -65 -36l-146 13q17 57 69 83.5t147 26.5zM211 463q0 -39 54 -39q41 0 76 29v60l-88 -11
q-42 -4 -42 -39z" />
    <glyph glyph-name="guillemotleft" unicode="&#xab;" horiz-adv-x="674" 
d="M308 165v-180l-258 173v197l258 173v-179l-144 -92zM624 165v-180l-258 173v197l258 173v-179l-144 -92z" />
    <glyph glyph-name="logicalnot" unicode="&#xac;" 
d="M638 153h-146v188h-375v141h521v-329z" />
    <glyph glyph-name="uni00AD" unicode="&#xad;" horiz-adv-x="347" 
d="M319 197h-291v153h291v-153z" />
    <glyph glyph-name="registered" unicode="&#xae;" horiz-adv-x="628" 
d="M123 652q78 75 191 75t191 -75q78 -76 78 -186q0 -109 -78 -184q-77 -76 -191 -76t-191 76q-78 75 -78 184q0 110 78 186zM170 324q58 -57 144 -57t145 57q58 57 58 142q0 86 -58 143t-145 57q-86 0 -145 -57q-58 -57 -58 -143q0 -85 59 -142zM427 402l2 -34
q1 -22 10 -29h-81q-6 11 -7 29l-2 28q-1 17 -7.5 23t-22.5 6h-33v-86h-78v258h127q46 0 71.5 -20.5t25.5 -57.5q0 -38 -35 -58q28 -15 30 -59zM286 534v-50h38q27 0 27 25t-27 25h-38z" />
    <glyph glyph-name="overscore" unicode="&#xaf;" horiz-adv-x="500" 
d="M439 614h-378v118h378v-118z" />
    <glyph glyph-name="degree" unicode="&#xb0;" horiz-adv-x="486" 
d="M400 355q-62 -62 -157 -62q-94 0 -156 62t-62 156q0 95 62 157q61 61 156 61q96 0 157 -61t61 -157q0 -95 -61 -156zM178 444q26 -26 65 -26q41 0 66 27q26 26 26 66t-26 66t-66 26q-39 0 -65 -26t-26 -66q0 -41 26 -67z" />
    <glyph glyph-name="plusminus" unicode="&#xb1;" 
d="M453 612v-141h203v-142h-203v-141h-151v141h-203v142h203v141h151zM655 -15h-556v142h556v-142z" />
    <glyph glyph-name="two.sups" unicode="&#xb2;" horiz-adv-x="510" 
d="M460 338h-410q0 158 137 202l89 29q57 18 57 55q0 46 -70 46q-71 0 -84 -54l-117 17q26 141 200 141q90 0 141 -37.5t51 -106.5q0 -107 -130 -140l-73 -19q-42 -10 -47 -30h256v-103z" />
    <glyph glyph-name="three.sups" unicode="&#xb3;" horiz-adv-x="504" 
d="M247 330q-173 0 -197 137l118 15q16 -55 81 -55q74 0 74 47q0 42 -70 42h-55v94h51q66 0 66 39q0 43 -69 43q-32 0 -49.5 -11t-27.5 -37l-116 16q17 59 68.5 90.5t130.5 31.5q82 0 133 -33t51 -89q0 -61 -67 -89v-2q85 -27 85 -103q0 -64 -54.5 -100t-152.5 -36z" />
    <glyph glyph-name="acute" unicode="&#xb4;" horiz-adv-x="500" 
d="M256 611h-183l117 182h238z" />
    <glyph glyph-name="uni00B5" unicode="&#xb5;" horiz-adv-x="648" 
d="M252 -204h-202v720h202v-290q0 -36 17.5 -56t48.5 -20q35 0 56.5 25.5t21.5 66.5v274h202v-516h-185l-7 65q-48 -74 -147 -74q-20 0 -55 5l-1 -3l49 -103v-94z" />
    <glyph glyph-name="paragraph" unicode="&#xb6;" horiz-adv-x="751" 
d="M437 -105h-141v407q-138 0 -202 49.5t-64 155.5t64 155.5t202 49.5h395v-817h-141v676h-113v-676z" />
    <glyph glyph-name="middot" unicode="&#xb7;" horiz-adv-x="347" 
d="M264 266h-181v176h181v-176z" />
    <glyph glyph-name="cedilla" unicode="&#xb8;" horiz-adv-x="500" 
d="M177 -259h-38v70h12q74 0 74 34q0 30 -43 30h-18l-40 49l67 76h91l-60 -62h21q125 0 125 -89q0 -108 -191 -108z" />
    <glyph glyph-name="one.sups" unicode="&#xb9;" horiz-adv-x="313" 
d="M263 338h-126v254h-112v94h20q48 0 70 16.5t22 52.5v10h126v-427z" />
    <glyph glyph-name="ordmasculine" unicode="&#xba;" horiz-adv-x="500" 
d="M415 382q-59 -52 -166 -52t-165 52q-59 53 -59 144q0 93 59 145.5t165 52.5t166 -52.5t60 -145.5q0 -92 -60 -144zM249 435q69 0 69 91q0 94 -69 94q-67 0 -67 -94q0 -91 67 -91z" />
    <glyph glyph-name="guillemotright" unicode="&#xbb;" horiz-adv-x="673" 
d="M308 158l-258 -173v180l144 92l-144 92v179l258 -173v-197zM623 158l-258 -173v180l144 92l-144 92v179l258 -173v-197z" />
    <glyph glyph-name="onequarter" unicode="&#xbc;" horiz-adv-x="1179" 
d="M377 -15h-140l492 742h138zM298 285h-126v254h-112v94h20q48 0 70 16.5t22 52.5v10h126v-427zM1046 0h-123v96l-232 -10v101l209 240h146v-251l73 11v-101l-73 10v-96zM921 307l-111 -124l113 -7v131h-2z" />
    <glyph glyph-name="onehalf" unicode="&#xbd;" horiz-adv-x="1201" 
d="M377 -15h-140l492 742h138zM298 285h-126v254h-112v94h20q48 0 70 16.5t22 52.5v10h126v-427zM1141 0h-410q0 158 137 202l89 29q57 18 57 55q0 46 -70 46t-84 -54l-117 17q25 141 200 141q90 0 141 -37.5t51 -106.5q0 -107 -130 -140l-73 -19q-42 -10 -47 -30h256v-103z
" />
    <glyph glyph-name="threequarters" unicode="&#xbe;" horiz-adv-x="1272" 
d="M247 277q-173 0 -197 137l118 15q16 -55 81 -55q74 0 74 47q0 42 -70 42h-55v94h51q66 0 66 39q0 43 -69 43q-32 0 -49.5 -11t-27.5 -37l-116 16q17 59 68.5 90.5t130.5 31.5q82 0 133 -33t51 -89q0 -61 -67 -89v-2q85 -27 85 -103q0 -64 -54.5 -100t-152.5 -36zM480 -15
h-140l492 742h138zM1149 0h-123v96l-232 -10v101l209 240h146v-251l73 11v-101l-73 10v-96zM1024 307l-111 -124l113 -7v131h-2z" />
    <glyph glyph-name="questiondown" unicode="&#xbf;" horiz-adv-x="690" 
d="M475 342h-202v174h202v-174zM348 -204q-148 0 -225.5 55t-77.5 155q0 133 133 185l31 12q37 15 50.5 30.5t13.5 45.5v6h202v-24q0 -80 -33.5 -124t-115.5 -65q-43 -12 -59 -23.5t-16 -34.5q0 -54 98 -54q52 0 76 14.5t29 50.5h200q-13 -229 -306 -229z" />
    <glyph glyph-name="Agrave" unicode="&#xc0;" horiz-adv-x="786" 
d="M384 989l117 -182h-183l-172 182h238zM771 0h-235l-32 97h-223l-32 -97h-234l268 712h222zM366 355l-35 -107h124l-35 107l-27 93z" />
    <glyph glyph-name="Aacute" unicode="&#xc1;" horiz-adv-x="786" 
d="M412 989h238l-172 -182h-183zM771 0h-235l-32 97h-223l-32 -97h-234l268 712h222zM366 355l-35 -107h124l-35 107l-27 93z" />
    <glyph glyph-name="Acircumflex" unicode="&#xc2;" horiz-adv-x="786" 
d="M484 802l-86 96l-85 -96h-164l159 179h181l159 -179h-164zM771 0h-235l-32 97h-223l-32 -97h-234l268 712h222zM366 355l-35 -107h124l-35 107l-27 93z" />
    <glyph glyph-name="Atilde" unicode="&#xc3;" horiz-adv-x="786" 
d="M322 861q-41 0 -41 -64h-126q0 92 36 144t106 52q37 1 73 -18t62 -37.5t39 -17.5q41 0 41 64h126q0 -91 -37 -143.5t-107 -52.5q-33 0 -61 11.5t-44 25t-34 25t-33 11.5zM771 0h-235l-32 97h-223l-32 -97h-234l268 712h222zM366 355l-35 -107h124l-35 107l-27 93z" />
    <glyph glyph-name="Adieresis" unicode="&#xc4;" horiz-adv-x="786" 
d="M151 959h195v-143h-195v143zM450 959h195v-143h-195v143zM771 0h-235l-32 97h-223l-32 -97h-234l268 712h222zM366 355l-35 -107h124l-35 107l-27 93z" />
    <glyph glyph-name="Aring" unicode="&#xc5;" horiz-adv-x="786" 
d="M771 0h-235l-32 97h-223l-32 -97h-234l259 687q-27 37 -27 88q0 66 43 109q44 42 108 42t108 -42q43 -43 43 -109q0 -54 -32 -95zM443 822q-27 29 -69 12.5t-38 -59.5q0 -28 17.5 -45.5t44.5 -17.5t44.5 17.5t17.5 45.5t-17 47zM366 355l-35 -107h124l-35 107l-27 93z
" />
    <glyph glyph-name="AE" unicode="&#xc6;" horiz-adv-x="1207" 
d="M775 271v-81h392v-190h-616v131h-237l-64 -131h-235l355 712h787v-185h-382v-81h327v-175h-327zM507 527l-110 -226h154v226h-44z" />
    <glyph glyph-name="Ccedilla" unicode="&#xc7;" horiz-adv-x="772" 
d="M517 277h223q-11 -128 -91 -207q-84 -81 -209 -91l-49 -51h21q125 0 125 -89q0 -108 -191 -108h-38v70h12q74 0 74 34q0 30 -43 30h-18l-40 49l58 66q-139 17 -222 116q-84 100 -84 257q0 172 99 274t256 102q139 0 231 -77q90 -76 107 -210h-221q-15 109 -115 109
q-64 0 -98.5 -50t-34.5 -146q0 -200 133 -200q103 0 115 122z" />
    <glyph glyph-name="Egrave" unicode="&#xc8;" horiz-adv-x="716" 
d="M347 989l117 -182h-183l-172 182h238zM284 271v-81h392v-190h-616v712h606v-185h-382v-81h327v-175h-327z" />
    <glyph glyph-name="Eacute" unicode="&#xc9;" horiz-adv-x="716" 
d="M375 989h238l-172 -182h-183zM284 271v-81h392v-190h-616v712h606v-185h-382v-81h327v-175h-327z" />
    <glyph glyph-name="Ecircumflex" unicode="&#xca;" horiz-adv-x="716" 
d="M447 802l-86 96l-85 -96h-164l159 179h181l159 -179h-164zM284 271v-81h392v-190h-616v712h606v-185h-382v-81h327v-175h-327z" />
    <glyph glyph-name="Edieresis" unicode="&#xcb;" horiz-adv-x="716" 
d="M114 959h195v-143h-195v143zM413 959h195v-143h-195v143zM284 271v-81h392v-190h-616v712h606v-185h-382v-81h327v-175h-327z" />
    <glyph glyph-name="Igrave" unicode="&#xcc;" horiz-adv-x="344" 
d="M275 807h-183l-172 182h238zM284 0h-224v712h224v-712z" />
    <glyph glyph-name="Iacute" unicode="&#xcd;" horiz-adv-x="344" 
d="M252 807h-183l117 182h238zM284 0h-224v712h224v-712z" />
    <glyph glyph-name="Icircumflex" unicode="&#xce;" horiz-adv-x="344" 
d="M87 802h-164l159 179h181l159 -179h-164l-86 96zM284 0h-224v712h224v-712z" />
    <glyph glyph-name="Idieresis" unicode="&#xcf;" horiz-adv-x="344" 
d="M120 816h-195v143h195v-143zM419 816h-195v143h195v-143zM284 0h-224v712h224v-712z" />
    <glyph glyph-name="Eth" unicode="&#xd0;" horiz-adv-x="873" 
d="M155 712h335q162 0 252 -93t90 -263q0 -163 -83 -260q-84 -96 -249 -96h-345v292l-140 -6v141l140 -6v291zM379 187h75q72 0 113 45t41 124t-41 124t-113 45h-75v-103l109 5v-141l-109 5v-104z" />
    <glyph glyph-name="Ntilde" unicode="&#xd1;" horiz-adv-x="781" 
d="M324 861q-41 0 -41 -64h-126q0 92 36 144t106 52q37 1 73 -18t62 -37.5t39 -17.5q41 0 41 64h126q0 -91 -37 -143.5t-107 -52.5q-33 0 -61 11.5t-44 25t-34 25t-33 11.5zM501 342v370h220v-712h-227l-214 366v-366h-220v712h222z" />
    <glyph glyph-name="Ograve" unicode="&#xd2;" horiz-adv-x="820" 
d="M510 807h-183l-172 182h238zM675 79q-101 -102 -265 -102t-264 102q-101 103 -101 274t101 274q100 102 264 102t265 -102q100 -101 100 -274t-100 -274zM306 206q36 -51 104 -51t105 51q36 50 36 148q0 96 -36.5 146.5t-104.5 50.5t-104.5 -50.5t-36.5 -146.5
q0 -99 37 -148z" />
    <glyph glyph-name="Oacute" unicode="&#xd3;" horiz-adv-x="820" 
d="M487 807h-183l117 182h238zM675 79q-101 -102 -265 -102t-264 102q-101 103 -101 274t101 274q100 102 264 102t265 -102q100 -101 100 -274t-100 -274zM306 206q36 -51 104 -51t105 51q36 50 36 148q0 96 -36.5 146.5t-104.5 50.5t-104.5 -50.5t-36.5 -146.5
q0 -99 37 -148z" />
    <glyph glyph-name="Ocircumflex" unicode="&#xd4;" horiz-adv-x="820" 
d="M322 802h-164l159 179h181l159 -179h-164l-86 96zM675 79q-101 -102 -265 -102t-264 102q-101 103 -101 274t101 274q100 102 264 102t265 -102q100 -101 100 -274t-100 -274zM306 206q36 -51 104 -51t105 51q36 50 36 148q0 96 -36.5 146.5t-104.5 50.5t-104.5 -50.5
t-36.5 -146.5q0 -99 37 -148z" />
    <glyph glyph-name="Otilde" unicode="&#xd5;" horiz-adv-x="820" 
d="M290 797h-126q0 92 36 144t106 52q37 1 73 -18t62 -37.5t39 -17.5q41 0 41 64h126q0 -91 -37 -143.5t-107 -52.5q-33 0 -61 11.5t-44 25t-34 25t-33 11.5q-41 0 -41 -64zM675 79q-101 -102 -265 -102t-264 102q-101 103 -101 274t101 274q100 102 264 102t265 -102
q100 -101 100 -274t-100 -274zM306 206q36 -51 104 -51t105 51q36 50 36 148q0 96 -36.5 146.5t-104.5 50.5t-104.5 -50.5t-36.5 -146.5q0 -99 37 -148z" />
    <glyph glyph-name="Odieresis" unicode="&#xd6;" horiz-adv-x="820" 
d="M355 816h-195v143h195v-143zM654 816h-195v143h195v-143zM675 79q-101 -102 -265 -102t-264 102q-101 103 -101 274t101 274q100 102 264 102t265 -102q100 -101 100 -274t-100 -274zM306 206q36 -51 104 -51t105 51q36 50 36 148q0 96 -36.5 146.5t-104.5 50.5
t-104.5 -50.5t-36.5 -146.5q0 -99 37 -148z" />
    <glyph glyph-name="multiply" unicode="&#xd7;" 
d="M378 228l-177 -177l-95 95l177 178l-177 176l95 95l177 -176l177 176l95 -95l-176 -176l176 -178l-95 -95z" />
    <glyph glyph-name="Oslash" unicode="&#xd8;" horiz-adv-x="820" 
d="M739 715l-65 -87q101 -104 101 -275q0 -173 -100 -274q-101 -102 -265 -102q-108 0 -188 44l-65 -87l-75 57l65 87q-102 102 -102 275q0 171 101 274q100 102 264 102q105 0 189 -45l65 88zM269 354q0 -56 12 -96l203 272q-32 21 -74 21q-68 0 -104.5 -50.5t-36.5 -146.5
zM410 155q69 0 105 50.5t36 148.5q0 54 -12 93l-202 -272q32 -20 73 -20z" />
    <glyph glyph-name="Ugrave" unicode="&#xd9;" horiz-adv-x="786" 
d="M496 807h-183l-172 182h238zM642 52q-86 -75 -249 -75q-164 0 -248 75q-85 73 -85 217v443h224v-443q0 -114 109 -114t109 114v443h224v-443q0 -143 -84 -217z" />
    <glyph glyph-name="Uacute" unicode="&#xda;" horiz-adv-x="786" 
d="M473 807h-183l117 182h238zM642 52q-86 -75 -249 -75q-164 0 -248 75q-85 73 -85 217v443h224v-443q0 -114 109 -114t109 114v443h224v-443q0 -143 -84 -217z" />
    <glyph glyph-name="Ucircumflex" unicode="&#xdb;" horiz-adv-x="786" 
d="M308 802h-164l159 179h181l159 -179h-164l-86 96zM642 52q-86 -75 -249 -75q-164 0 -248 75q-85 73 -85 217v443h224v-443q0 -114 109 -114t109 114v443h224v-443q0 -143 -84 -217z" />
    <glyph glyph-name="Udieresis" unicode="&#xdc;" horiz-adv-x="786" 
d="M341 816h-195v143h195v-143zM640 816h-195v143h195v-143zM642 52q-86 -75 -249 -75q-164 0 -248 75q-85 73 -85 217v443h224v-443q0 -114 109 -114t109 114v443h224v-443q0 -143 -84 -217z" />
    <glyph glyph-name="Yacute" unicode="&#xdd;" horiz-adv-x="768" 
d="M404 989h238l-172 -182h-183zM414 523l95 189h248l-261 -452v-260h-224v260l-261 452h250l91 -189l31 -81z" />
    <glyph glyph-name="Thorn" unicode="&#xde;" horiz-adv-x="724" 
d="M284 618h146q118 0 192 -69q72 -69 72 -179t-73 -179q-73 -70 -195 -70h-142v-121h-224v712h224v-94zM284 291h99q87 0 87 76q0 74 -87 74h-99v-150z" />
    <glyph glyph-name="germandbls" unicode="&#xdf;" horiz-adv-x="670" 
d="M252 0h-202v522q0 101 70.5 154t205.5 53q129 0 199 -48.5t70 -136.5q0 -121 -121 -152v-2q171 -26 171 -186q0 -98 -62 -151t-188 -53h-69v140h20q93 0 93 89q0 43 -21.5 63t-71.5 20h-20v140h21q66 0 66 66q0 71 -78 71q-83 0 -83 -87v-502z" />
    <glyph glyph-name="agrave" unicode="&#xe0;" horiz-adv-x="642" 
d="M297 793l117 -182h-183l-172 182h238zM607 0h-200q-15 32 -19 61q-51 -81 -166 -81q-87 0 -138 42.5t-51 116.5q0 63 38.5 101t123.5 52l181 28v37q0 46 -65 46q-31 0 -46 -13t-17 -43l-192 7q11 93 73 136.5t190 43.5q131 0 195 -44.5t64 -141.5v-218q0 -80 29 -130z
M292 107q41 0 66 22t25 66v23l-88 -16q-64 -10 -64 -50q0 -45 61 -45z" />
    <glyph glyph-name="aacute" unicode="&#xe1;" horiz-adv-x="642" 
d="M325 793h238l-172 -182h-183zM607 0h-200q-15 32 -19 61q-51 -81 -166 -81q-87 0 -138 42.5t-51 116.5q0 63 38.5 101t123.5 52l181 28v37q0 46 -65 46q-31 0 -46 -13t-17 -43l-192 7q11 93 73 136.5t190 43.5q131 0 195 -44.5t64 -141.5v-218q0 -80 29 -130zM292 107
q41 0 66 22t25 66v23l-88 -16q-64 -10 -64 -50q0 -45 61 -45z" />
    <glyph glyph-name="acircumflex" unicode="&#xe2;" horiz-adv-x="642" 
d="M397 606l-86 96l-85 -96h-164l159 179h181l159 -179h-164zM607 0h-200q-15 32 -19 61q-51 -81 -166 -81q-87 0 -138 42.5t-51 116.5q0 63 38.5 101t123.5 52l181 28v37q0 46 -65 46q-31 0 -46 -13t-17 -43l-192 7q11 93 73 136.5t190 43.5q131 0 195 -44.5t64 -141.5
v-218q0 -80 29 -130zM292 107q41 0 66 22t25 66v23l-88 -16q-64 -10 -64 -50q0 -45 61 -45z" />
    <glyph glyph-name="atilde" unicode="&#xe3;" horiz-adv-x="642" 
d="M235 665q-41 0 -41 -64h-126q0 92 36 144t106 52q37 1 73 -18t62 -37.5t39 -17.5q41 0 41 64h126q0 -91 -37 -143.5t-107 -52.5q-33 0 -61 11.5t-44 25t-34 25t-33 11.5zM607 0h-200q-15 32 -19 61q-51 -81 -166 -81q-87 0 -138 42.5t-51 116.5q0 63 38.5 101t123.5 52
l181 28v37q0 46 -65 46q-31 0 -46 -13t-17 -43l-192 7q11 93 73 136.5t190 43.5q131 0 195 -44.5t64 -141.5v-218q0 -80 29 -130zM292 107q41 0 66 22t25 66v23l-88 -16q-64 -10 -64 -50q0 -45 61 -45z" />
    <glyph glyph-name="adieresis" unicode="&#xe4;" horiz-adv-x="642" 
d="M64 712h195v-132h-195v132zM363 712h195v-132h-195v132zM607 0h-200q-15 32 -19 61q-51 -81 -166 -81q-87 0 -138 42.5t-51 116.5q0 63 38.5 101t123.5 52l181 28v37q0 46 -65 46q-31 0 -46 -13t-17 -43l-192 7q11 93 73 136.5t190 43.5q131 0 195 -44.5t64 -141.5v-218
q0 -80 29 -130zM292 107q41 0 66 22t25 66v23l-88 -16q-64 -10 -64 -50q0 -45 61 -45z" />
    <glyph glyph-name="aring" unicode="&#xe5;" horiz-adv-x="642" 
d="M419 624q-43 -43 -108 -43t-108 43q-43 42 -43 106q0 66 43 109q43 42 108 42t108 -42q43 -43 43 -109q0 -64 -43 -106zM356 777q-27 28 -69 12t-38 -59q0 -28 17.5 -45.5t44.5 -17.5t44.5 17.5t17.5 45.5t-17 47zM607 0h-200q-15 32 -19 61q-51 -81 -166 -81
q-87 0 -138 42.5t-51 116.5q0 63 38.5 101t123.5 52l181 28v37q0 46 -65 46q-31 0 -46 -13t-17 -43l-192 7q11 93 73 136.5t190 43.5q131 0 195 -44.5t64 -141.5v-218q0 -80 29 -130zM292 107q41 0 66 22t25 66v23l-88 -16q-64 -10 -64 -50q0 -45 61 -45z" />
    <glyph glyph-name="ae" unicode="&#xe6;" horiz-adv-x="1022" 
d="M997 236v-28h-377q13 -88 95 -88q58 0 81 44l189 -12q-29 -81 -99.5 -126.5t-168.5 -45.5q-159 0 -227 117q-62 -117 -235 -117q-106 0 -164 45t-58 127q0 155 232 155h118v40q0 30 -16 43t-52 13q-33 0 -48.5 -11.5t-18.5 -38.5l-191 7q13 89 71 131.5t173 42.5
q163 0 219 -83q74 83 202 83q134 0 205 -87q70 -88 70 -211zM709 394q-75 0 -89 -87h173q-5 46 -25.5 66.5t-58.5 20.5zM292 108q40 0 65.5 24t25.5 63v13h-78q-76 0 -76 -51q0 -23 17 -36t46 -13z" />
    <glyph glyph-name="ccedilla" unicode="&#xe7;" horiz-adv-x="612" 
d="M317 120q34 0 51 20.5t21 66.5l199 -10q-11 -91 -75.5 -149.5t-165.5 -66.5l-50 -51h21q125 0 125 -89q0 -108 -191 -108h-38v70h12q74 0 74 34q0 30 -43 30h-18l-40 49l60 68q-110 16 -172 88.5t-62 184.5q0 125 78 202q78 75 212 75q115 0 191 -59q74 -59 83 -155
l-199 -10q-4 84 -73 84q-86 0 -86 -137t86 -137z" />
    <glyph glyph-name="egrave" unicode="&#xe8;" horiz-adv-x="624" 
d="M298 793l117 -182h-183l-172 182h238zM599 237v-29h-377q13 -88 95 -88q58 0 81 44l189 -12q-28 -82 -98.5 -127t-173.5 -45q-135 0 -212 76q-78 75 -78 201q0 124 80 201q79 76 208 76q92 0 159 -43t98 -111q29 -67 29 -143zM311 394q-70 0 -87 -77h171q-11 77 -84 77z
" />
    <glyph glyph-name="eacute" unicode="&#xe9;" horiz-adv-x="624" 
d="M326 793h238l-172 -182h-183zM599 237v-29h-377q13 -88 95 -88q58 0 81 44l189 -12q-28 -82 -98.5 -127t-173.5 -45q-135 0 -212 76q-78 75 -78 201q0 124 80 201q79 76 208 76q92 0 159 -43t98 -111q29 -67 29 -143zM311 394q-70 0 -87 -77h171q-11 77 -84 77z" />
    <glyph glyph-name="ecircumflex" unicode="&#xea;" horiz-adv-x="624" 
d="M398 606l-86 96l-85 -96h-164l159 179h181l159 -179h-164zM599 237v-29h-377q13 -88 95 -88q58 0 81 44l189 -12q-28 -82 -98.5 -127t-173.5 -45q-135 0 -212 76q-78 75 -78 201q0 124 80 201q79 76 208 76q92 0 159 -43t98 -111q29 -67 29 -143zM311 394q-70 0 -87 -77
h171q-11 77 -84 77z" />
    <glyph glyph-name="edieresis" unicode="&#xeb;" horiz-adv-x="624" 
d="M65 712h195v-132h-195v132zM364 712h195v-132h-195v132zM599 237v-29h-377q13 -88 95 -88q58 0 81 44l189 -12q-28 -82 -98.5 -127t-173.5 -45q-135 0 -212 76q-78 75 -78 201q0 124 80 201q79 76 208 76q92 0 159 -43t98 -111q29 -67 29 -143zM311 394q-70 0 -87 -77
h171q-11 77 -84 77z" />
    <glyph glyph-name="igrave" unicode="&#xec;" horiz-adv-x="302" 
d="M254 611h-183l-172 182h238zM252 0h-202v516h202v-516z" />
    <glyph glyph-name="iacute" unicode="&#xed;" horiz-adv-x="302" 
d="M231 611h-183l117 182h238zM252 0h-202v516h202v-516z" />
    <glyph glyph-name="icircumflex" unicode="&#xee;" horiz-adv-x="302" 
d="M66 606h-164l159 179h181l159 -179h-164l-86 96zM252 0h-202v516h202v-516z" />
    <glyph glyph-name="idieresis" unicode="&#xef;" horiz-adv-x="302" 
d="M104 580h-175v132h175v-132zM373 580h-175v132h175v-132zM252 0h-202v516h202v-516z" />
    <glyph glyph-name="eth" unicode="&#xf0;" horiz-adv-x="627" 
d="M534 783l-119 -87q187 -135 187 -389q0 -161 -78 -242t-216 -81q-129 0 -206 68t-77 187q0 109 64 173q65 63 165 63q98 0 144 -55q-1 111 -112 178l-86 -73l-51 56l69 49q-41 17 -109 33l45 141q115 -24 199 -69l134 109zM315 125q43 0 63 33.5t20 105.5q-9 35 -33 55.5
t-56 20.5q-38 0 -58 -28.5t-20 -79.5q0 -107 84 -107z" />
    <glyph glyph-name="ntilde" unicode="&#xf1;" horiz-adv-x="648" 
d="M248 665q-41 0 -41 -64h-126q0 92 36 144t106 52q37 1 73 -18t62 -37.5t39 -17.5q41 0 41 64h126q0 -91 -37 -143.5t-107 -52.5q-33 0 -61 11.5t-44 25t-34 25t-33 11.5zM403 531q93 0 144 -50t51 -142v-339h-202v290q0 36 -17.5 56t-48.5 20q-35 0 -56.5 -25.5
t-21.5 -66.5v-274h-202v516h185l7 -65q56 80 161 80z" />
    <glyph glyph-name="ograve" unicode="&#xf2;" horiz-adv-x="630" 
d="M418 611h-183l-172 182h238zM526 56q-79 -76 -211 -76q-131 0 -210 76q-80 77 -80 201t80 201q79 76 210 76q132 0 211 -76t79 -201t-79 -201zM252 153q20 -33 63 -33t64 33q20 32 20 104q0 71 -20 105q-21 32 -64 32t-63 -32q-21 -33 -21 -105q0 -73 21 -104z" />
    <glyph glyph-name="oacute" unicode="&#xf3;" horiz-adv-x="630" 
d="M395 611h-183l117 182h238zM526 56q-79 -76 -211 -76q-131 0 -210 76q-80 77 -80 201t80 201q79 76 210 76q132 0 211 -76t79 -201t-79 -201zM252 153q20 -33 63 -33t64 33q20 32 20 104q0 71 -20 105q-21 32 -64 32t-63 -32q-21 -33 -21 -105q0 -73 21 -104z" />
    <glyph glyph-name="ocircumflex" unicode="&#xf4;" horiz-adv-x="630" 
d="M230 606h-164l159 179h181l159 -179h-164l-86 96zM526 56q-79 -76 -211 -76q-131 0 -210 76q-80 77 -80 201t80 201q79 76 210 76q132 0 211 -76t79 -201t-79 -201zM252 153q20 -33 63 -33t64 33q20 32 20 104q0 71 -20 105q-21 32 -64 32t-63 -32q-21 -33 -21 -105
q0 -73 21 -104z" />
    <glyph glyph-name="otilde" unicode="&#xf5;" horiz-adv-x="630" 
d="M198 601h-126q0 92 36 144t106 52q37 1 73 -18t62 -37.5t39 -17.5q41 0 41 64h126q0 -91 -37 -143.5t-107 -52.5q-33 0 -61 11.5t-44 25t-34 25t-33 11.5q-41 0 -41 -64zM526 56q-79 -76 -211 -76q-131 0 -210 76q-80 77 -80 201t80 201q79 76 210 76q132 0 211 -76
t79 -201t-79 -201zM252 153q20 -33 63 -33t64 33q20 32 20 104q0 71 -20 105q-21 32 -64 32t-63 -32q-21 -33 -21 -105q0 -73 21 -104z" />
    <glyph glyph-name="odieresis" unicode="&#xf6;" horiz-adv-x="630" 
d="M263 580h-195v132h195v-132zM562 580h-195v132h195v-132zM526 56q-79 -76 -211 -76q-131 0 -210 76q-80 77 -80 201t80 201q79 76 210 76q132 0 211 -76t79 -201t-79 -201zM252 153q20 -33 63 -33t64 33q20 32 20 104q0 71 -20 105q-21 32 -64 32t-63 -32
q-21 -33 -21 -105q0 -73 21 -104z" />
    <glyph glyph-name="divide" unicode="&#xf7;" 
d="M452 490h-148v150h148v-150zM685 250h-614v142h614v-142zM452 0h-148v150h148v-150z" />
    <glyph glyph-name="oslash" unicode="&#xf8;" horiz-adv-x="630" 
d="M583 500l-46 -53q68 -77 68 -190q0 -125 -79 -201t-211 -76q-89 0 -154 35l-51 -58l-62 54l47 54q-70 74 -70 192q0 124 80 201q79 76 210 76q90 0 157 -37l49 57zM231 257q0 -27 1 -34l134 153q-20 18 -51 18q-43 0 -63.5 -33t-20.5 -104zM315 120q43 0 63.5 33
t20.5 104q0 24 -1 31l-132 -152q19 -16 49 -16z" />
    <glyph glyph-name="ugrave" unicode="&#xf9;" horiz-adv-x="648" 
d="M310 793l117 -182h-183l-172 182h238zM396 242v274h202v-516h-185l-7 65q-56 -80 -161 -80q-93 0 -144 50t-51 142v339h202v-290q0 -36 17.5 -56t48.5 -20q35 0 56.5 25.5t21.5 66.5z" />
    <glyph glyph-name="uacute" unicode="&#xfa;" horiz-adv-x="648" 
d="M338 793h238l-172 -182h-183zM396 242v274h202v-516h-185l-7 65q-56 -80 -161 -80q-93 0 -144 50t-51 142v339h202v-290q0 -36 17.5 -56t48.5 -20q35 0 56.5 25.5t21.5 66.5z" />
    <glyph glyph-name="ucircumflex" unicode="&#xfb;" horiz-adv-x="648" 
d="M410 606l-86 96l-85 -96h-164l159 179h181l159 -179h-164zM396 242v274h202v-516h-185l-7 65q-56 -80 -161 -80q-93 0 -144 50t-51 142v339h202v-290q0 -36 17.5 -56t48.5 -20q35 0 56.5 25.5t21.5 66.5z" />
    <glyph glyph-name="udieresis" unicode="&#xfc;" horiz-adv-x="648" 
d="M77 712h195v-132h-195v132zM376 712h195v-132h-195v132zM396 242v274h202v-516h-185l-7 65q-56 -80 -161 -80q-93 0 -144 50t-51 142v339h202v-290q0 -36 17.5 -56t48.5 -20q35 0 56.5 25.5t21.5 66.5z" />
    <glyph glyph-name="yacute" unicode="&#xfd;" horiz-adv-x="604" 
d="M316 793h238l-172 -182h-183zM302 204l86 312h211l-205 -588q-25 -71 -70.5 -101.5t-125.5 -30.5h-118v159h71q43 0 57 35l5 13l-208 513h215l62 -206z" />
    <glyph glyph-name="thorn" unicode="&#xfe;" horiz-adv-x="646" 
d="M403 534q96 0 157 -72q61 -73 61 -204q0 -130 -60 -203q-61 -75 -162 -75q-92 0 -147 64v-248h-202v916h202v-242q64 64 151 64zM337 144q78 0 78 117q0 118 -78 118q-40 0 -63.5 -32.5t-23.5 -85.5q0 -54 23.5 -85.5t63.5 -31.5z" />
    <glyph glyph-name="ydieresis" unicode="&#xff;" horiz-adv-x="604" 
d="M55 712h195v-132h-195v132zM354 712h195v-132h-195v132zM302 204l86 312h211l-205 -588q-25 -71 -70.5 -101.5t-125.5 -30.5h-118v159h71q43 0 57 35l5 13l-208 513h215l62 -206z" />
    <glyph glyph-name="Amacron" unicode="&#x100;" horiz-adv-x="786" 
d="M209 928h378v-118h-378v118zM771 0h-235l-32 97h-223l-32 -97h-234l268 712h222zM366 355l-35 -107h124l-35 107l-27 93z" />
    <glyph glyph-name="amacron" unicode="&#x101;" horiz-adv-x="642" 
d="M122 732h378v-118h-378v118zM607 0h-200q-15 32 -19 61q-51 -81 -166 -81q-87 0 -138 42.5t-51 116.5q0 63 38.5 101t123.5 52l181 28v37q0 46 -65 46q-31 0 -46 -13t-17 -43l-192 7q11 93 73 136.5t190 43.5q131 0 195 -44.5t64 -141.5v-218q0 -80 29 -130zM292 107
q41 0 66 22t25 66v23l-88 -16q-64 -10 -64 -50q0 -45 61 -45z" />
    <glyph glyph-name="Abreve" unicode="&#x102;" horiz-adv-x="786" 
d="M563 841q-49 -42 -165 -42t-165 42t-49 141h118q0 -42 22.5 -60t73.5 -18t73.5 18t22.5 60h118q0 -99 -49 -141zM771 0h-235l-32 97h-223l-32 -97h-234l268 712h222zM366 355l-35 -107h124l-35 107l-27 93z" />
    <glyph glyph-name="abreve" unicode="&#x103;" horiz-adv-x="642" 
d="M476 645q-50 -42 -165 -42t-165 42q-49 42 -49 141h118q0 -42 22.5 -60t73.5 -18t73.5 18t22.5 60h118q0 -99 -49 -141zM607 0h-200q-15 32 -19 61q-51 -81 -166 -81q-87 0 -138 42.5t-51 116.5q0 63 38.5 101t123.5 52l181 28v37q0 46 -65 46q-31 0 -46 -13t-17 -43
l-192 7q11 93 73 136.5t190 43.5q131 0 195 -44.5t64 -141.5v-218q0 -80 29 -130zM292 107q41 0 66 22t25 66v23l-88 -16q-64 -10 -64 -50q0 -45 61 -45z" />
    <glyph glyph-name="Aogonek" unicode="&#x104;" horiz-adv-x="786" 
d="M624 -99q0 -47 58 -47h34v-89h-85q-78 0 -119.5 30.5t-41.5 84.5q0 69 70 105l30 15h-34l-32 97h-223l-32 -97h-234l268 712h222l266 -712l-111 -51q-36 -17 -36 -48zM366 355l-35 -107h124l-35 107l-27 93z" />
    <glyph glyph-name="aogonek" unicode="&#x105;" horiz-adv-x="642" 
d="M460 -99q0 -47 58 -47h34v-89h-85q-78 0 -119.5 30.5t-41.5 84.5q0 69 70 105l30 15q-14 35 -18 61q-52 -81 -166 -81q-87 0 -138 42.5t-51 116.5q0 63 38.5 101t123.5 52l181 28v37q0 46 -65 46q-31 0 -46 -13t-17 -43l-192 7q11 93 73 136.5t190 43.5q131 0 195 -44.5
t64 -141.5v-218q0 -80 29 -130l-111 -51q-36 -17 -36 -48zM292 107q41 0 66 22t25 66v23l-88 -16q-64 -10 -64 -50q0 -45 61 -45z" />
    <glyph glyph-name="Cacute" unicode="&#x106;" horiz-adv-x="772" 
d="M467 807h-183l117 182h238zM400 -23q-157 0 -256 102t-99 274t99 274t256 102q139 0 231 -77q90 -76 107 -210h-221q-15 109 -115 109q-64 0 -98.5 -50t-34.5 -146q0 -200 133 -200q103 0 115 122h223q-10 -138 -104 -219q-93 -81 -236 -81z" />
    <glyph glyph-name="cacute" unicode="&#x107;" horiz-adv-x="612" 
d="M397 611h-183l117 182h238zM315 -20q-135 0 -212 76q-78 75 -78 201q0 125 78 202q78 75 212 75q115 0 191 -59q74 -59 83 -155l-199 -10q-4 84 -73 84q-86 0 -86 -137t86 -137q34 0 51 20.5t21 66.5l199 -10q-12 -99 -85 -157q-73 -60 -188 -60z" />
    <glyph glyph-name="Ccircumflex" unicode="&#x108;" horiz-adv-x="772" 
d="M302 802h-164l159 179h181l159 -179h-164l-86 96zM400 -23q-157 0 -256 102t-99 274t99 274t256 102q139 0 231 -77q90 -76 107 -210h-221q-15 109 -115 109q-64 0 -98.5 -50t-34.5 -146q0 -200 133 -200q103 0 115 122h223q-10 -138 -104 -219q-93 -81 -236 -81z" />
    <glyph glyph-name="ccircumflex" unicode="&#x109;" horiz-adv-x="612" 
d="M232 606h-164l159 179h181l159 -179h-164l-86 96zM315 -20q-135 0 -212 76q-78 75 -78 201q0 125 78 202q78 75 212 75q115 0 191 -59q74 -59 83 -155l-199 -10q-4 84 -73 84q-86 0 -86 -137t86 -137q34 0 51 20.5t21 66.5l199 -10q-12 -99 -85 -157q-73 -60 -188 -60z
" />
    <glyph glyph-name="Cdotaccent" unicode="&#x10a;" horiz-adv-x="772" 
d="M485 816h-195v143h195v-143zM400 -23q-157 0 -256 102t-99 274t99 274t256 102q139 0 231 -77q90 -76 107 -210h-221q-15 109 -115 109q-64 0 -98.5 -50t-34.5 -146q0 -200 133 -200q103 0 115 122h223q-10 -138 -104 -219q-93 -81 -236 -81z" />
    <glyph glyph-name="cdotaccent" unicode="&#x10b;" horiz-adv-x="612" 
d="M415 580h-195v132h195v-132zM315 -20q-135 0 -212 76q-78 75 -78 201q0 125 78 202q78 75 212 75q115 0 191 -59q74 -59 83 -155l-199 -10q-4 84 -73 84q-86 0 -86 -137t86 -137q34 0 51 20.5t21 66.5l199 -10q-12 -99 -85 -157q-73 -60 -188 -60z" />
    <glyph glyph-name="Ccaron" unicode="&#x10c;" horiz-adv-x="772" 
d="M478 802h-181l-159 179h164l85 -96l86 96h164zM400 -23q-157 0 -256 102t-99 274t99 274t256 102q139 0 231 -77q90 -76 107 -210h-221q-15 109 -115 109q-64 0 -98.5 -50t-34.5 -146q0 -200 133 -200q103 0 115 122h223q-10 -138 -104 -219q-93 -81 -236 -81z" />
    <glyph glyph-name="ccaron" unicode="&#x10d;" horiz-adv-x="612" 
d="M408 606h-181l-159 179h164l85 -96l86 96h164zM315 -20q-135 0 -212 76q-78 75 -78 201q0 125 78 202q78 75 212 75q115 0 191 -59q74 -59 83 -155l-199 -10q-4 84 -73 84q-86 0 -86 -137t86 -137q34 0 51 20.5t21 66.5l199 -10q-12 -99 -85 -157q-73 -60 -188 -60z" />
    <glyph glyph-name="Dcaron" unicode="&#x10e;" horiz-adv-x="778" 
d="M616 981l-159 -179h-181l-159 179h164l85 -96l86 96h164zM60 712h335q162 0 252 -93t90 -263q0 -163 -83 -260q-84 -96 -249 -96h-345v712zM284 187h75q72 0 113 45t41 124t-41 124t-113 45h-75v-338z" />
    <glyph glyph-name="dcaron" unicode="&#x10f;" horiz-adv-x="902" 
d="M394 470v242h202v-712h-188l-6 55q-56 -75 -155 -75q-101 0 -161 75q-61 73 -61 203t62 204q61 72 156 72q87 0 151 -64zM673 452l33 260h196l-90 -260h-139zM309 144q40 0 63.5 31.5t23.5 85.5q0 53 -23.5 85.5t-63.5 32.5q-78 0 -78 -118q0 -117 78 -117z" />
    <glyph glyph-name="Dcroat" unicode="&#x110;" horiz-adv-x="873" 
d="M155 712h335q162 0 252 -93t90 -263q0 -163 -83 -260q-84 -96 -249 -96h-345v292l-140 -6v141l140 -6v291zM379 187h75q72 0 113 45t41 124t-41 124t-113 45h-75v-103l109 5v-141l-109 5v-104z" />
    <glyph glyph-name="dslash" unicode="&#x111;" horiz-adv-x="669" 
d="M596 692l63 2v-131l-63 2v-565h-188l-6 55q-56 -75 -155 -75q-101 0 -161 75q-61 73 -61 203t62 204q61 72 156 72q87 0 151 -64v96l-121 -3v131l121 -3v51h202v-50zM309 144q40 0 63.5 31.5t23.5 85.5q0 53 -23.5 85.5t-63.5 32.5q-78 0 -78 -118q0 -117 78 -117z" />
    <glyph glyph-name="Emacron" unicode="&#x112;" horiz-adv-x="716" 
d="M172 928h378v-118h-378v118zM284 271v-81h392v-190h-616v712h606v-185h-382v-81h327v-175h-327z" />
    <glyph glyph-name="emacron" unicode="&#x113;" horiz-adv-x="624" 
d="M123 732h378v-118h-378v118zM599 237v-29h-377q13 -88 95 -88q58 0 81 44l189 -12q-28 -82 -98.5 -127t-173.5 -45q-135 0 -212 76q-78 75 -78 201q0 124 80 201q79 76 208 76q92 0 159 -43t98 -111q29 -67 29 -143zM311 394q-70 0 -87 -77h171q-11 77 -84 77z" />
    <glyph glyph-name="Ebreve" unicode="&#x114;" horiz-adv-x="716" 
d="M526 841q-50 -42 -165 -42t-165 42q-49 42 -49 141h118q0 -42 22.5 -60t73.5 -18t73.5 18t22.5 60h118q0 -99 -49 -141zM284 271v-81h392v-190h-616v712h606v-185h-382v-81h327v-175h-327z" />
    <glyph glyph-name="ebreve" unicode="&#x115;" horiz-adv-x="624" 
d="M477 645q-49 -42 -165 -42t-165 42t-49 141h118q0 -42 22.5 -60t73.5 -18t73.5 18t22.5 60h118q0 -99 -49 -141zM599 237v-29h-377q13 -88 95 -88q58 0 81 44l189 -12q-28 -82 -98.5 -127t-173.5 -45q-135 0 -212 76q-78 75 -78 201q0 124 80 201q79 76 208 76
q92 0 159 -43t98 -111q29 -67 29 -143zM311 394q-70 0 -87 -77h171q-11 77 -84 77z" />
    <glyph glyph-name="Edotaccent" unicode="&#x116;" horiz-adv-x="716" 
d="M264 959h195v-143h-195v143zM284 271v-81h392v-190h-616v712h606v-185h-382v-81h327v-175h-327z" />
    <glyph glyph-name="edotaccent" unicode="&#x117;" horiz-adv-x="624" 
d="M215 712h195v-132h-195v132zM599 237v-29h-377q13 -88 95 -88q58 0 81 44l189 -12q-28 -82 -98.5 -127t-173.5 -45q-135 0 -212 76q-78 75 -78 201q0 124 80 201q79 76 208 76q92 0 159 -43t98 -111q29 -67 29 -143zM311 394q-70 0 -87 -77h171q-11 77 -84 77z" />
    <glyph glyph-name="Eogonek" unicode="&#x118;" horiz-adv-x="716" 
d="M676 0l-111 -51q-36 -17 -36 -48q0 -47 58 -47h34v-89h-85q-78 0 -119.5 30.5t-41.5 84.5q0 69 70 105l30 15h-415v712h606v-185h-382v-81h327v-175h-327v-81h392v-190z" />
    <glyph glyph-name="eogonek" unicode="&#x119;" horiz-adv-x="624" 
d="M599 237v-29h-377q13 -88 95 -88q58 0 81 44l189 -12q-40 -115 -155 -154l-83 -38q-36 -16 -36 -48q0 -47 58 -47h34v-89h-85q-78 0 -119.5 30.5t-41.5 84.5q0 65 62 100q-93 25 -144.5 95t-51.5 171q0 124 80 201q79 76 208 76q92 0 159 -43t98 -111q29 -67 29 -143z
M311 394q-70 0 -87 -77h171q-11 77 -84 77z" />
    <glyph glyph-name="Ecaron" unicode="&#x11a;" horiz-adv-x="716" 
d="M611 981l-159 -179h-181l-159 179h164l85 -96l86 96h164zM284 271v-81h392v-190h-616v712h606v-185h-382v-81h327v-175h-327z" />
    <glyph glyph-name="ecaron" unicode="&#x11b;" horiz-adv-x="624" 
d="M562 785l-159 -179h-181l-159 179h164l85 -96l86 96h164zM599 237v-29h-377q13 -88 95 -88q58 0 81 44l189 -12q-28 -82 -98.5 -127t-173.5 -45q-135 0 -212 76q-78 75 -78 201q0 124 80 201q79 76 208 76q92 0 159 -43t98 -111q29 -67 29 -143zM311 394q-70 0 -87 -77
h171q-11 77 -84 77z" />
    <glyph glyph-name="Gcircumflex" unicode="&#x11c;" horiz-adv-x="811" 
d="M495 802l-86 96l-85 -96h-164l159 179h181l159 -179h-164zM448 392h303v-392h-149l-10 67q-30 -39 -85.5 -64.5t-126.5 -25.5q-145 0 -239 103q-96 104 -96 273q0 172 99 274t256 102q123 0 212 -62q88 -63 115 -171l-215 -15q-30 70 -110 70q-64 0 -98.5 -50t-34.5 -146
q0 -104 36.5 -152t112.5 -48q97 0 122 82h-92v155z" />
    <glyph glyph-name="gcircumflex" unicode="&#x11d;" horiz-adv-x="646" 
d="M409 606l-86 96l-85 -96h-164l159 179h181l159 -179h-164zM401 466l7 50h188v-482q0 -118 -77.5 -184t-218.5 -66q-221 0 -262 167l192 17q20 -44 79 -44q45 0 65 19t20 58v68q-55 -61 -147 -61q-101 0 -161 71q-61 70 -61 193q0 124 62 194q62 68 156 68q93 0 158 -68z
M309 164q40 0 63.5 30t23.5 81q0 50 -23.5 81t-63.5 31q-78 0 -78 -112q0 -111 78 -111z" />
    <glyph glyph-name="Gbreve" unicode="&#x11e;" horiz-adv-x="811" 
d="M574 841q-50 -42 -165 -42t-165 42q-49 42 -49 141h118q0 -42 22.5 -60t73.5 -18t73.5 18t22.5 60h118q0 -99 -49 -141zM448 392h303v-392h-149l-10 67q-30 -39 -85.5 -64.5t-126.5 -25.5q-145 0 -239 103q-96 104 -96 273q0 172 99 274t256 102q123 0 212 -62
q88 -63 115 -171l-215 -15q-30 70 -110 70q-64 0 -98.5 -50t-34.5 -146q0 -104 36.5 -152t112.5 -48q97 0 122 82h-92v155z" />
    <glyph glyph-name="gbreve" unicode="&#x11f;" horiz-adv-x="646" 
d="M488 645q-50 -42 -165 -42t-165 42q-49 42 -49 141h118q0 -42 22.5 -60t73.5 -18t73.5 18t22.5 60h118q0 -99 -49 -141zM401 466l7 50h188v-482q0 -118 -77.5 -184t-218.5 -66q-221 0 -262 167l192 17q20 -44 79 -44q45 0 65 19t20 58v68q-55 -61 -147 -61
q-101 0 -161 71q-61 70 -61 193q0 124 62 194q62 68 156 68q93 0 158 -68zM309 164q40 0 63.5 30t23.5 81q0 50 -23.5 81t-63.5 31q-78 0 -78 -112q0 -111 78 -111z" />
    <glyph glyph-name="Gdotaccent" unicode="&#x120;" horiz-adv-x="811" 
d="M312 959h195v-143h-195v143zM448 392h303v-392h-149l-10 67q-30 -39 -85.5 -64.5t-126.5 -25.5q-145 0 -239 103q-96 104 -96 273q0 172 99 274t256 102q123 0 212 -62q88 -63 115 -171l-215 -15q-30 70 -110 70q-64 0 -98.5 -50t-34.5 -146q0 -104 36.5 -152t112.5 -48
q97 0 122 82h-92v155z" />
    <glyph glyph-name="gdotaccent" unicode="&#x121;" horiz-adv-x="646" 
d="M226 712h195v-132h-195v132zM401 466l7 50h188v-482q0 -118 -77.5 -184t-218.5 -66q-221 0 -262 167l192 17q20 -44 79 -44q45 0 65 19t20 58v68q-55 -61 -147 -61q-101 0 -161 71q-61 70 -61 193q0 124 62 194q62 68 156 68q93 0 158 -68zM309 164q40 0 63.5 30t23.5 81
q0 50 -23.5 81t-63.5 31q-78 0 -78 -112q0 -111 78 -111z" />
    <glyph glyph-name="uni0122" unicode="&#x122;" horiz-adv-x="811" 
d="M448 392h303v-392h-149l-10 67q-30 -39 -85.5 -64.5t-126.5 -25.5q-145 0 -239 103q-96 104 -96 273q0 172 99 274t256 102q123 0 212 -62q88 -63 115 -171l-215 -15q-30 70 -110 70q-64 0 -98.5 -50t-34.5 -146q0 -104 36.5 -152t112.5 -48q97 0 122 82h-92v155z
M437 -201l-140 -13v129h225v-136q0 -137 -145 -137h-80v77h72q68 0 68 60v20z" />
    <glyph glyph-name="uni0123" unicode="&#x123;" horiz-adv-x="646" 
d="M295 696l140 13v-129h-225v136q0 137 145 137h80v-77h-72q-68 0 -68 -60v-20zM401 466l7 50h188v-482q0 -118 -77.5 -184t-218.5 -66q-221 0 -262 167l192 17q20 -44 79 -44q45 0 65 19t20 58v68q-55 -61 -147 -61q-101 0 -161 71q-61 70 -61 193q0 124 62 194
q62 68 156 68q93 0 158 -68zM309 164q40 0 63.5 30t23.5 81q0 50 -23.5 81t-63.5 31q-78 0 -78 -112q0 -111 78 -111z" />
    <glyph glyph-name="Hcircumflex" unicode="&#x124;" horiz-adv-x="769" 
d="M471 802l-86 96l-85 -96h-164l159 179h181l159 -179h-164zM485 470v242h224v-712h-224v278h-201v-278h-224v712h224v-242h201z" />
    <glyph glyph-name="hcircumflex" unicode="&#x125;" horiz-adv-x="648" 
d="M237 802l-86 96l-85 -96h-164l159 179h181l159 -179h-164zM403 531q93 0 144 -50t51 -142v-339h-202v290q0 36 -17.5 56t-48.5 20q-35 0 -56.5 -25.5t-21.5 -66.5v-274h-202v712h202v-248q57 67 151 67z" />
    <glyph glyph-name="Hbar" unicode="&#x126;" horiz-adv-x="769" 
d="M485 630v82h224v-712h-224v218h-201v-218h-224v712h224v-82h201zM284 470v-92h201v92h-201z" />
    <glyph glyph-name="hbar" unicode="&#x127;" horiz-adv-x="671" 
d="M426 521q93 0 144 -50t51 -142v-329h-202v280q0 36 -17.5 56t-48.5 20q-35 0 -56.5 -25.5t-21.5 -66.5v-264h-202v565l-63 -2v131l63 -2v50h202v-51l121 3v-131l-121 3v-112q57 67 151 67z" />
    <glyph glyph-name="Itilde" unicode="&#x128;" horiz-adv-x="344" 
d="M55 797h-126q0 92 36 144t106 52q37 1 73 -18t62 -37.5t39 -17.5q41 0 41 64h126q0 -91 -37 -143.5t-107 -52.5q-33 0 -61 11.5t-44 25t-34 25t-33 11.5q-41 0 -41 -64zM284 0h-224v712h224v-712z" />
    <glyph glyph-name="itilde" unicode="&#x129;" horiz-adv-x="302" 
d="M34 601h-126q0 92 36 144t106 52q37 1 73 -18t62 -37.5t39 -17.5q41 0 41 64h126q0 -91 -37 -143.5t-107 -52.5q-33 0 -61 11.5t-44 25t-34 25t-33 11.5q-41 0 -41 -64zM252 0h-202v516h202v-516z" />
    <glyph glyph-name="Imacron" unicode="&#x12a;" horiz-adv-x="344" 
d="M361 810h-378v118h378v-118zM284 0h-224v712h224v-712z" />
    <glyph glyph-name="imacron" unicode="&#x12b;" horiz-adv-x="302" 
d="M340 614h-378v118h378v-118zM252 0h-202v516h202v-516z" />
    <glyph glyph-name="Ibreve" unicode="&#x12c;" horiz-adv-x="344" 
d="M337 841q-49 -42 -165 -42t-165 42t-49 141h118q0 -42 22.5 -60t73.5 -18t73.5 18t22.5 60h118q0 -99 -49 -141zM284 0h-224v712h224v-712z" />
    <glyph glyph-name="ibreve" unicode="&#x12d;" horiz-adv-x="302" 
d="M316 645q-50 -42 -165 -42t-165 42q-49 42 -49 141h118q0 -42 22.5 -60t73.5 -18t73.5 18t22.5 60h118q0 -99 -49 -141zM252 0h-202v516h202v-516z" />
    <glyph glyph-name="Iogonek" unicode="&#x12e;" horiz-adv-x="344" 
d="M284 0l-66 -60q-26 -23 -26 -45q0 -41 58 -41h34v-89h-85q-78 0 -119.5 28t-41.5 79q0 58 50 97l40 31h-68v712h224v-712z" />
    <glyph glyph-name="iogonek" unicode="&#x12f;" horiz-adv-x="302" 
d="M54 712h195v-132h-195v132zM252 0l-66 -60q-26 -23 -26 -45q0 -41 58 -41h34v-89h-85q-78 0 -119.5 28t-41.5 79q0 58 50 97l40 31h-46v516h202v-516z" />
    <glyph glyph-name="Idot" unicode="&#x130;" horiz-adv-x="344" 
d="M270 816h-195v143h195v-143zM284 0h-224v712h224v-712z" />
    <glyph glyph-name="dotlessi" unicode="&#x131;" horiz-adv-x="302" 
d="M252 0h-202v516h202v-516z" />
    <glyph glyph-name="IJ" unicode="&#x132;" horiz-adv-x="972" 
d="M284 0h-224v712h224v-712zM840 43q-74 -66 -197 -66t-196 65q-73 64 -73 174v74h206v-60q0 -61 54 -61t54 61v482h224v-495q0 -109 -72 -174z" />
    <glyph glyph-name="ij" unicode="&#x133;" horiz-adv-x="604" 
d="M252 581h-202v131h202v-131zM554 581h-202v131h202v-131zM252 0h-202v516h202v-516zM332 -215h-68v143h35q53 0 53 57v531h202v-531q0 -104 -54 -152t-168 -48z" />
    <glyph glyph-name="Jcircumflex" unicode="&#x134;" horiz-adv-x="648" 
d="M391 802h-164l159 179h181l159 -179h-164l-86 96zM516 43q-74 -66 -197 -66t-196 65q-73 64 -73 174v74h206v-60q0 -61 54 -61t54 61v482h224v-495q0 -109 -72 -174z" />
    <glyph glyph-name="jcircumflex" unicode="&#x135;" horiz-adv-x="302" 
d="M66 606h-164l159 179h181l159 -179h-164l-86 96zM30 -215h-68v143h35q53 0 53 57v531h202v-531q0 -104 -54 -152t-168 -48z" />
    <glyph glyph-name="uni0136" unicode="&#x136;" horiz-adv-x="792" 
d="M764 712l-266 -284l294 -428h-277l-172 279l-59 -64v-215h-224v712h224v-225l204 225h276zM427 -201l-140 -13v129h225v-136q0 -137 -145 -137h-80v77h72q68 0 68 60v20z" />
    <glyph glyph-name="uni0137" unicode="&#x137;" horiz-adv-x="651" 
d="M282 186l-30 -30v-156h-202v712h202v-344l123 148h239l-198 -206l215 -310h-240zM338 -201l-140 -13v129h225v-136q0 -137 -145 -137h-80v77h72q68 0 68 60v20z" />
    <glyph glyph-name="kgreenlandic" unicode="&#x138;" horiz-adv-x="651" 
d="M631 0h-240l-109 186l-30 -30v-156h-202v516h202v-148l123 148h239l-198 -206z" />
    <glyph glyph-name="Lacute" unicode="&#x139;" horiz-adv-x="612" 
d="M195 989h238l-172 -182h-183zM284 712v-520h318v-192h-542v712h224z" />
    <glyph glyph-name="lacute" unicode="&#x13a;" horiz-adv-x="302" 
d="M229 807h-183l117 182h238zM252 0h-202v712h202v-712z" />
    <glyph glyph-name="uni013B" unicode="&#x13b;" horiz-adv-x="612" 
d="M284 712v-520h318v-192h-542v712h224zM349 -201l-140 -13v129h225v-136q0 -137 -145 -137h-80v77h72q68 0 68 60v20z" />
    <glyph glyph-name="uni013C" unicode="&#x13c;" horiz-adv-x="302" 
d="M50 712h202v-712h-202v712zM37 -214v129h225v-136q0 -137 -145 -137h-80v77h72q68 0 68 60v20z" />
    <glyph glyph-name="Lcaron" unicode="&#x13d;" horiz-adv-x="612" 
d="M60 712h224v-520h318v-192h-542v712zM427 712h196l-90 -260h-139z" />
    <glyph glyph-name="lcaron" unicode="&#x13e;" horiz-adv-x="547" 
d="M252 0h-202v712h202v-712zM457 452h-139l33 260h196z" />
    <glyph glyph-name="Ldot" unicode="&#x13f;" horiz-adv-x="612" 
d="M284 712v-520h318v-192h-542v712h224zM389 524h181v-176h-181v176z" />
    <glyph glyph-name="ldot" unicode="&#x140;" horiz-adv-x="521" 
d="M252 0h-202v712h202v-712zM508 258h-199v194h199v-194z" />
    <glyph glyph-name="Lslash" unicode="&#x141;" horiz-adv-x="730" 
d="M402 360v-168h318v-192h-542v252l-153 -78v167l153 63v308h224v-202l206 104v-167z" />
    <glyph glyph-name="lslash" unicode="&#x142;" horiz-adv-x="430" 
d="M316 491l89 43v-158l-89 -31v-345h-202v256l-89 -45v158l89 33v310h202v-221z" />
    <glyph glyph-name="Nacute" unicode="&#x143;" horiz-adv-x="781" 
d="M414 989h238l-172 -182h-183zM501 342v370h220v-712h-227l-214 366v-366h-220v712h222z" />
    <glyph glyph-name="nacute" unicode="&#x144;" horiz-adv-x="648" 
d="M338 793h238l-172 -182h-183zM403 531q93 0 144 -50t51 -142v-339h-202v290q0 36 -17.5 56t-48.5 20q-35 0 -56.5 -25.5t-21.5 -66.5v-274h-202v516h185l7 -65q56 80 161 80z" />
    <glyph glyph-name="uni0145" unicode="&#x145;" horiz-adv-x="781" 
d="M501 342v370h220v-712h-227l-214 366v-366h-220v712h222zM428 -201l-140 -13v129h225v-136q0 -137 -145 -137h-80v77h72q68 0 68 60v20z" />
    <glyph glyph-name="uni0146" unicode="&#x146;" horiz-adv-x="648" 
d="M403 531q93 0 144 -50t51 -142v-339h-202v290q0 36 -17.5 56t-48.5 20q-35 0 -56.5 -25.5t-21.5 -66.5v-274h-202v516h185l7 -65q56 80 161 80zM352 -201l-140 -13v129h225v-136q0 -137 -145 -137h-80v77h72q68 0 68 60v20z" />
    <glyph glyph-name="Ncaron" unicode="&#x147;" horiz-adv-x="781" 
d="M650 981l-159 -179h-181l-159 179h164l85 -96l86 96h164zM501 342v370h220v-712h-227l-214 366v-366h-220v712h222z" />
    <glyph glyph-name="ncaron" unicode="&#x148;" horiz-adv-x="648" 
d="M574 785l-159 -179h-181l-159 179h164l85 -96l86 96h164zM403 531q93 0 144 -50t51 -142v-339h-202v290q0 36 -17.5 56t-48.5 20q-35 0 -56.5 -25.5t-21.5 -66.5v-274h-202v516h185l7 -65q56 80 161 80z" />
    <glyph glyph-name="napostrophe" unicode="&#x149;" horiz-adv-x="919" 
d="M137 520h-112v192h220v-220q0 -176 -186 -176h-34v98h25q87 0 87 77v29zM674 531q93 0 144 -50t51 -142v-339h-202v290q0 36 -17.5 56t-48.5 20q-35 0 -56.5 -25.5t-21.5 -66.5v-274h-202v516h185l7 -65q56 80 161 80z" />
    <glyph glyph-name="Eng" unicode="&#x14a;" horiz-adv-x="781" 
d="M501 348v364h220v-727q0 -200 -240 -200h-68v143h35q53 0 53 57v15l-221 372v-372h-220v712h222z" />
    <glyph glyph-name="eng" unicode="&#x14b;" horiz-adv-x="648" 
d="M403 531q93 0 144 -50t51 -142v-354q0 -104 -54 -152t-168 -48h-68v143h35q53 0 53 57v305q0 36 -17.5 56t-48.5 20q-35 0 -56.5 -25.5t-21.5 -66.5v-274h-202v516h185l7 -65q56 80 161 80z" />
    <glyph glyph-name="Omacron" unicode="&#x14c;" horiz-adv-x="820" 
d="M596 810h-378v118h378v-118zM675 79q-101 -102 -265 -102t-264 102q-101 103 -101 274t101 274q100 102 264 102t265 -102q100 -101 100 -274t-100 -274zM306 206q36 -51 104 -51t105 51q36 50 36 148q0 96 -36.5 146.5t-104.5 50.5t-104.5 -50.5t-36.5 -146.5
q0 -99 37 -148z" />
    <glyph glyph-name="omacron" unicode="&#x14d;" horiz-adv-x="630" 
d="M504 614h-378v118h378v-118zM526 56q-79 -76 -211 -76q-131 0 -210 76q-80 77 -80 201t80 201q79 76 210 76q132 0 211 -76t79 -201t-79 -201zM252 153q20 -33 63 -33t64 33q20 32 20 104q0 71 -20 105q-21 32 -64 32t-63 -32q-21 -33 -21 -105q0 -73 21 -104z" />
    <glyph glyph-name="Obreve" unicode="&#x14e;" horiz-adv-x="820" 
d="M572 841q-50 -42 -165 -42t-165 42q-49 42 -49 141h118q0 -42 22.5 -60t73.5 -18t73.5 18t22.5 60h118q0 -99 -49 -141zM675 79q-101 -102 -265 -102t-264 102q-101 103 -101 274t101 274q100 102 264 102t265 -102q100 -101 100 -274t-100 -274zM306 206q36 -51 104 -51
t105 51q36 50 36 148q0 96 -36.5 146.5t-104.5 50.5t-104.5 -50.5t-36.5 -146.5q0 -99 37 -148z" />
    <glyph glyph-name="obreve" unicode="&#x14f;" horiz-adv-x="630" 
d="M480 645q-50 -42 -165 -42t-165 42q-49 42 -49 141h118q0 -42 22.5 -60t73.5 -18t73.5 18t22.5 60h118q0 -99 -49 -141zM526 56q-79 -76 -211 -76q-131 0 -210 76q-80 77 -80 201t80 201q79 76 210 76q132 0 211 -76t79 -201t-79 -201zM252 153q20 -33 63 -33t64 33
q20 32 20 104q0 71 -20 105q-21 32 -64 32t-63 -32q-21 -33 -21 -105q0 -73 21 -104z" />
    <glyph glyph-name="Ohungarumlaut" unicode="&#x150;" horiz-adv-x="820" 
d="M319 796h-173l101 190h215zM618 796h-172l110 190h214zM675 79q-101 -102 -265 -102t-264 102q-101 103 -101 274t101 274q100 102 264 102t265 -102q100 -101 100 -274t-100 -274zM306 206q36 -51 104 -51t105 51q36 50 36 148q0 96 -36.5 146.5t-104.5 50.5
t-104.5 -50.5t-36.5 -146.5q0 -99 37 -148z" />
    <glyph glyph-name="ohungarumlaut" unicode="&#x151;" horiz-adv-x="630" 
d="M227 600h-173l101 190h215zM526 600h-172l110 190h214zM526 56q-79 -76 -211 -76q-131 0 -210 76q-80 77 -80 201t80 201q79 76 210 76q132 0 211 -76t79 -201t-79 -201zM252 153q20 -33 63 -33t64 33q20 32 20 104q0 71 -20 105q-21 32 -64 32t-63 -32q-21 -33 -21 -105
q0 -73 21 -104z" />
    <glyph glyph-name="OE" unicode="&#x152;" horiz-adv-x="1207" 
d="M775 271v-81h392v-190h-616v41q-69 -54 -171 -54q-145 0 -239 100q-96 101 -96 266t96 266q94 100 239 100q102 0 171 -54v47h606v-185h-382v-81h327v-175h-327zM306 206q36 -51 104 -51t105 51q36 50 36 148q0 96 -36.5 146.5t-104.5 50.5t-104.5 -50.5t-36.5 -146.5
q0 -99 37 -148z" />
    <glyph glyph-name="oe" unicode="&#x153;" horiz-adv-x="1007" 
d="M982 237v-29h-377q13 -88 95 -88q58 0 81 44l189 -12q-29 -81 -98.5 -126.5t-165.5 -45.5q-134 0 -211 89q-68 -89 -196 -89q-120 0 -197 77t-77 200q0 124 77 201q76 76 197 76q129 0 197 -90q76 90 208 90t205 -88t73 -209zM313 120q86 0 86 137t-86 137
q-42 0 -62 -32.5t-20 -104.5t20 -104.5t62 -32.5zM694 394q-70 0 -87 -77h171q-11 77 -84 77z" />
    <glyph glyph-name="Racute" unicode="&#x154;" horiz-adv-x="766" 
d="M382 989h238l-172 -182h-183zM699 170l17 -170h-222l-14 150q-9 99 -99 99h-97v-249h-224v712h415q104 0 170 -57q66 -59 66 -151q0 -126 -121 -174q96 -34 109 -160zM284 407h127q35 0 55.5 18.5t20.5 49.5q0 30 -20 48.5t-56 18.5h-127v-135z" />
    <glyph glyph-name="racute" unicode="&#x155;" horiz-adv-x="465" 
d="M239 793h238l-172 -182h-183zM238 516l6 -72q46 90 143 90q26 0 53 -7v-174q-24 3 -46 3q-142 0 -142 -126v-230h-202v516h188z" />
    <glyph glyph-name="uni0156" unicode="&#x156;" horiz-adv-x="766" 
d="M699 170l17 -170h-222l-14 150q-9 99 -99 99h-97v-249h-224v712h415q104 0 170 -57q66 -59 66 -151q0 -126 -121 -174q96 -34 109 -160zM284 407h127q35 0 55.5 18.5t20.5 49.5q0 30 -20 48.5t-56 18.5h-127v-135zM396 -201l-140 -13v129h225v-136q0 -137 -145 -137h-80
v77h72q68 0 68 60v20z" />
    <glyph glyph-name="uni0157" unicode="&#x157;" horiz-adv-x="465" 
d="M387 534q26 0 53 -7v-174q-24 3 -46 3q-142 0 -142 -126v-230h-202v516h188l6 -72q46 90 143 90zM179 -201l-140 -13v129h225v-136q0 -137 -145 -137h-80v77h72q68 0 68 60v20z" />
    <glyph glyph-name="Rcaron" unicode="&#x158;" horiz-adv-x="766" 
d="M618 981l-159 -179h-181l-159 179h164l85 -96l86 96h164zM699 170l17 -170h-222l-14 150q-9 99 -99 99h-97v-249h-224v712h415q104 0 170 -57q66 -59 66 -151q0 -126 -121 -174q96 -34 109 -160zM284 407h127q35 0 55.5 18.5t20.5 49.5q0 30 -20 48.5t-56 18.5h-127v-135
z" />
    <glyph glyph-name="rcaron" unicode="&#x159;" horiz-adv-x="465" 
d="M475 785l-159 -179h-181l-159 179h164l85 -96l86 96h164zM238 516l6 -72q46 90 143 90q26 0 53 -7v-174q-24 3 -46 3q-142 0 -142 -126v-230h-202v516h188z" />
    <glyph glyph-name="Sacute" unicode="&#x15a;" horiz-adv-x="720" 
d="M440 807h-183l117 182h238zM361 -23q-148 0 -231.5 66.5t-93.5 192.5h225q7 -81 109 -81q88 0 88 54q0 43 -63 56l-149 33q-192 42 -192 207q0 106 75 165t225 59q284 0 296 -221h-217q-9 55 -82 55q-74 0 -74 -42q0 -32 54 -44l150 -33q203 -45 203 -223
q0 -116 -85.5 -180t-237.5 -64z" />
    <glyph glyph-name="sacute" unicode="&#x15b;" horiz-adv-x="606" 
d="M391 611h-183l117 182h238zM301 -20q-119 0 -187.5 48t-78.5 134h190q9 -61 84 -61q35 0 54.5 14t19.5 38q0 40 -57 46l-78 7q-202 18 -202 155q0 83 66.5 128t187.5 45q230 0 255 -163h-184q-9 51 -78 51q-66 0 -66 -43q0 -39 59 -45l77 -8q208 -22 208 -162
q0 -90 -71 -137t-199 -47z" />
    <glyph glyph-name="Scircumflex" unicode="&#x15c;" horiz-adv-x="720" 
d="M275 802h-164l159 179h181l159 -179h-164l-86 96zM361 -23q-148 0 -231.5 66.5t-93.5 192.5h225q7 -81 109 -81q88 0 88 54q0 43 -63 56l-149 33q-192 42 -192 207q0 106 75 165t225 59q284 0 296 -221h-217q-9 55 -82 55q-74 0 -74 -42q0 -32 54 -44l150 -33
q203 -45 203 -223q0 -116 -85.5 -180t-237.5 -64z" />
    <glyph glyph-name="scircumflex" unicode="&#x15d;" horiz-adv-x="606" 
d="M226 606h-164l159 179h181l159 -179h-164l-86 96zM301 -20q-119 0 -187.5 48t-78.5 134h190q9 -61 84 -61q35 0 54.5 14t19.5 38q0 40 -57 46l-78 7q-202 18 -202 155q0 83 66.5 128t187.5 45q230 0 255 -163h-184q-9 51 -78 51q-66 0 -66 -43q0 -39 59 -45l77 -8
q208 -22 208 -162q0 -90 -71 -137t-199 -47z" />
    <glyph glyph-name="Scedilla" unicode="&#x15e;" horiz-adv-x="720" 
d="M684 221q0 -110 -76 -173t-213 -70l-41 -42h21q125 0 125 -89q0 -108 -191 -108h-38v70h12q74 0 74 34q0 30 -43 30h-18l-40 49l51 57q-124 12 -193 77t-78 180h225q7 -81 109 -81q88 0 88 54q0 43 -63 56l-149 33q-192 42 -192 207q0 106 75 165t225 59q284 0 296 -221
h-217q-9 55 -82 55q-74 0 -74 -42q0 -32 54 -44l150 -33q203 -45 203 -223z" />
    <glyph glyph-name="scedilla" unicode="&#x15f;" horiz-adv-x="606" 
d="M571 164q0 -82 -59.5 -128.5t-169.5 -54.5l-50 -51h21q125 0 125 -89q0 -108 -191 -108h-38v70h12q74 0 74 34q0 30 -43 30h-18l-40 49l58 66q-97 10 -152.5 56.5t-64.5 123.5h190q9 -61 84 -61q35 0 54.5 14t19.5 38q0 40 -57 46l-78 7q-202 18 -202 155q0 83 66.5 128
t187.5 45q230 0 255 -163h-184q-9 51 -78 51q-66 0 -66 -43q0 -39 59 -45l77 -8q208 -22 208 -162z" />
    <glyph glyph-name="Scaron" unicode="&#x160;" horiz-adv-x="720" 
d="M451 802h-181l-159 179h164l85 -96l86 96h164zM361 -23q-148 0 -231.5 66.5t-93.5 192.5h225q7 -81 109 -81q88 0 88 54q0 43 -63 56l-149 33q-192 42 -192 207q0 106 75 165t225 59q284 0 296 -221h-217q-9 55 -82 55q-74 0 -74 -42q0 -32 54 -44l150 -33
q203 -45 203 -223q0 -116 -85.5 -180t-237.5 -64z" />
    <glyph glyph-name="scaron" unicode="&#x161;" horiz-adv-x="606" 
d="M402 606h-181l-159 179h164l85 -96l86 96h164zM301 -20q-119 0 -187.5 48t-78.5 134h190q9 -61 84 -61q35 0 54.5 14t19.5 38q0 40 -57 46l-78 7q-202 18 -202 155q0 83 66.5 128t187.5 45q230 0 255 -163h-184q-9 51 -78 51q-66 0 -66 -43q0 -39 59 -45l77 -8
q208 -22 208 -162q0 -90 -71 -137t-199 -47z" />
    <glyph glyph-name="uni0162" unicode="&#x162;" horiz-adv-x="675" 
d="M450 520v-520h-61l-60 -62h21q125 0 125 -89q0 -108 -191 -108h-38v70h12q74 0 74 34q0 30 -43 30h-18l-40 49l67 76h-72v520h-206v192h635v-192h-205z" />
    <glyph glyph-name="uni0163" unicode="&#x163;" horiz-adv-x="431" 
d="M391 396l-95 2v-191q0 -56 50 -56h45v-151h-117h-10l-49 -51h21q125 0 125 -89q0 -108 -191 -108h-38v70h12q74 0 74 34q0 30 -43 30h-18l-40 49l66 75q-48 15 -68.5 54.5t-20.5 115.5v218l-79 -2v120l79 -2v158h202v-158l95 2v-120z" />
    <glyph glyph-name="Tcaron" unicode="&#x164;" horiz-adv-x="675" 
d="M588 981l-159 -179h-181l-159 179h164l85 -96l86 96h164zM20 712h635v-192h-205v-520h-224v520h-206v192z" />
    <glyph glyph-name="tcaron" unicode="&#x165;" horiz-adv-x="521" 
d="M372 594l33 260h196l-90 -260h-139zM296 672v-158l95 2v-120l-95 2v-191q0 -56 50 -56h45v-151h-117q-102 0 -141 39t-39 141v218l-79 -2v120l79 -2v158h202z" />
    <glyph glyph-name="Tbar" unicode="&#x166;" horiz-adv-x="675" 
d="M655 712v-192h-205v-134l153 3v-151l-153 3v-241h-224v241l-153 -3v151l153 -3v134h-206v192h635z" />
    <glyph glyph-name="tbar" unicode="&#x167;" horiz-adv-x="456" 
d="M416 516v-120l-110 3v-67l110 3v-120l-110 3v-11q0 -56 50 -56h60v-151h-117q-102 0 -141 39t-39 141v15l4 22l-83 -2v120l94 -3v67l-94 -3v120l86 -2l-7 45v113h202v-113l-7 -46z" />
    <glyph glyph-name="Utilde" unicode="&#x168;" horiz-adv-x="786" 
d="M276 797h-126q0 92 36 144t106 52q37 1 73 -18t62 -37.5t39 -17.5q41 0 41 64h126q0 -91 -37 -143.5t-107 -52.5q-33 0 -61 11.5t-44 25t-34 25t-33 11.5q-41 0 -41 -64zM642 52q-86 -75 -249 -75q-164 0 -248 75q-85 73 -85 217v443h224v-443q0 -114 109 -114t109 114
v443h224v-443q0 -143 -84 -217z" />
    <glyph glyph-name="utilde" unicode="&#x169;" horiz-adv-x="648" 
d="M248 665q-41 0 -41 -64h-126q0 92 36 144t106 52q37 1 73 -18t62 -37.5t39 -17.5q41 0 41 64h126q0 -91 -37 -143.5t-107 -52.5q-33 0 -61 11.5t-44 25t-34 25t-33 11.5zM396 242v274h202v-516h-185l-7 65q-56 -80 -161 -80q-93 0 -144 50t-51 142v339h202v-290
q0 -36 17.5 -56t48.5 -20q35 0 56.5 25.5t21.5 66.5z" />
    <glyph glyph-name="Umacron" unicode="&#x16a;" horiz-adv-x="786" 
d="M582 810h-378v118h378v-118zM642 52q-86 -75 -249 -75q-164 0 -248 75q-85 73 -85 217v443h224v-443q0 -114 109 -114t109 114v443h224v-443q0 -143 -84 -217z" />
    <glyph glyph-name="umacron" unicode="&#x16b;" horiz-adv-x="648" 
d="M135 732h378v-118h-378v118zM396 242v274h202v-516h-185l-7 65q-56 -80 -161 -80q-93 0 -144 50t-51 142v339h202v-290q0 -36 17.5 -56t48.5 -20q35 0 56.5 25.5t21.5 66.5z" />
    <glyph glyph-name="Ubreve" unicode="&#x16c;" horiz-adv-x="786" 
d="M558 841q-50 -42 -165 -42t-165 42q-49 42 -49 141h118q0 -42 22.5 -60t73.5 -18t73.5 18t22.5 60h118q0 -99 -49 -141zM642 52q-86 -75 -249 -75q-164 0 -248 75q-85 73 -85 217v443h224v-443q0 -114 109 -114t109 114v443h224v-443q0 -143 -84 -217z" />
    <glyph glyph-name="ubreve" unicode="&#x16d;" horiz-adv-x="648" 
d="M489 645q-49 -42 -165 -42t-165 42t-49 141h118q0 -42 22.5 -60t73.5 -18t73.5 18t22.5 60h118q0 -99 -49 -141zM396 242v274h202v-516h-185l-7 65q-56 -80 -161 -80q-93 0 -144 50t-51 142v339h202v-290q0 -36 17.5 -56t48.5 -20q35 0 56.5 25.5t21.5 66.5z" />
    <glyph glyph-name="Uring" unicode="&#x16e;" horiz-adv-x="786" 
d="M501 820q-43 -43 -108 -43t-108 43q-43 42 -43 106q0 66 43 109q43 42 108 42t108 -42q43 -43 43 -109q0 -64 -43 -106zM349 881q26 -29 68 -13t38 58q0 29 -17.5 46.5t-44.5 17.5t-44.5 -17.5t-17.5 -46.5q0 -28 18 -45zM642 52q-86 -75 -249 -75q-164 0 -248 75
q-85 73 -85 217v443h224v-443q0 -114 109 -114t109 114v443h224v-443q0 -143 -84 -217z" />
    <glyph glyph-name="uring" unicode="&#x16f;" horiz-adv-x="648" 
d="M432 624q-43 -43 -108 -43t-108 43q-43 42 -43 106q0 66 43 109q44 42 108 42t108 -42q43 -43 43 -109q0 -64 -43 -106zM369 777q-27 28 -69 12t-38 -59q0 -28 17.5 -45.5t44.5 -17.5t44.5 17.5t17.5 45.5t-17 47zM396 242v274h202v-516h-185l-7 65q-56 -80 -161 -80
q-93 0 -144 50t-51 142v339h202v-290q0 -36 17.5 -56t48.5 -20q35 0 56.5 25.5t21.5 66.5z" />
    <glyph glyph-name="Uhungarumlaut" unicode="&#x170;" horiz-adv-x="786" 
d="M305 796h-173l101 190h215zM604 796h-172l110 190h214zM642 52q-86 -75 -249 -75q-164 0 -248 75q-85 73 -85 217v443h224v-443q0 -114 109 -114t109 114v443h224v-443q0 -143 -84 -217z" />
    <glyph glyph-name="uhungarumlaut" unicode="&#x171;" horiz-adv-x="648" 
d="M164 790h215l-143 -190h-173zM687 790l-152 -190h-172l110 190h214zM396 242v274h202v-516h-185l-7 65q-56 -80 -161 -80q-93 0 -144 50t-51 142v339h202v-290q0 -36 17.5 -56t48.5 -20q35 0 56.5 25.5t21.5 66.5z" />
    <glyph glyph-name="Uogonek" unicode="&#x172;" horiz-adv-x="786" 
d="M502 269v443h224v-443q0 -221 -195 -275l-89 -41q-36 -17 -36 -48q0 -47 58 -47h34v-89h-85q-78 0 -119.5 30.5t-41.5 84.5q0 64 58 98q-124 18 -187 90.5t-63 196.5v443h224v-443q0 -114 109 -114t109 114z" />
    <glyph glyph-name="uogonek" unicode="&#x173;" horiz-adv-x="648" 
d="M598 0l-111 -51q-36 -17 -36 -48q0 -47 58 -47h34v-89h-85q-78 0 -119.5 30.5t-41.5 84.5q0 69 70 105l57 29l-13 68q-59 -87 -166 -87q-83 0 -135 42q-60 49 -60 150v329h202v-280q0 -39 19 -58q18 -18 47 -18q35 0 56.5 25.5t21.5 66.5v264h202v-516z" />
    <glyph glyph-name="Wcircumflex" unicode="&#x174;" horiz-adv-x="1035" 
d="M604 802l-86 96l-85 -96h-164l159 179h181l159 -179h-164zM733 441l66 271h221l-206 -712h-216l-80 420l-75 -420h-222l-206 712h220l67 -271l32 -184l29 183l55 272h198l60 -272l28 -179z" />
    <glyph glyph-name="wcircumflex" unicode="&#x175;" horiz-adv-x="893" 
d="M532 606l-86 96l-85 -96h-164l159 179h181l159 -179h-164zM633 293l63 223h192l-170 -516h-196l-67 249l-8 37l-9 -38l-67 -248h-196l-170 516h204l64 -225l15 -69l14 68l54 226h177l58 -221l20 -89z" />
    <glyph glyph-name="Ycircumflex" unicode="&#x176;" horiz-adv-x="768" 
d="M476 802l-86 96l-85 -96h-164l159 179h181l159 -179h-164zM414 523l95 189h248l-261 -452v-260h-224v260l-261 452h250l91 -189l31 -81z" />
    <glyph glyph-name="ycircumflex" unicode="&#x177;" horiz-adv-x="604" 
d="M388 606l-86 96l-85 -96h-164l159 179h181l159 -179h-164zM302 204l86 312h211l-205 -588q-25 -71 -70.5 -101.5t-125.5 -30.5h-118v159h71q43 0 57 35l5 13l-208 513h215l62 -206z" />
    <glyph glyph-name="Ydieresis" unicode="&#x178;" horiz-adv-x="768" 
d="M143 959h195v-143h-195v143zM442 959h195v-143h-195v143zM414 523l95 189h248l-261 -452v-260h-224v260l-261 452h250l91 -189l31 -81z" />
    <glyph glyph-name="Zacute" unicode="&#x179;" horiz-adv-x="715" 
d="M372 989h238l-172 -182h-183zM651 553l-325 -361h347v-192h-631v184l310 336h-286v192h585v-159z" />
    <glyph glyph-name="zacute" unicode="&#x17a;" horiz-adv-x="551" 
d="M290 793h238l-172 -182h-183zM509 516v-143l-229 -218h246v-155h-501v147l225 214h-207v155h466z" />
    <glyph glyph-name="Zdotaccent" unicode="&#x17b;" horiz-adv-x="715" 
d="M261 959h195v-143h-195v143zM651 553l-325 -361h347v-192h-631v184l310 336h-286v192h585v-159z" />
    <glyph glyph-name="zdotaccent" unicode="&#x17c;" horiz-adv-x="551" 
d="M179 712h195v-132h-195v132zM509 373l-229 -218h246v-155h-501v147l225 214h-207v155h466v-143z" />
    <glyph glyph-name="Zcaron" unicode="&#x17d;" horiz-adv-x="715" 
d="M608 981l-159 -179h-181l-159 179h164l85 -96l86 96h164zM651 553l-325 -361h347v-192h-631v184l310 336h-286v192h585v-159z" />
    <glyph glyph-name="zcaron" unicode="&#x17e;" horiz-adv-x="551" 
d="M526 785l-159 -179h-181l-159 179h164l85 -96l86 96h164zM509 516v-143l-229 -218h246v-155h-501v147l225 214h-207v155h466z" />
    <glyph glyph-name="uni018F" unicode="&#x18f;" horiz-adv-x="799" 
d="M389 729q168 0 267 -101q98 -101 98 -275q0 -171 -98 -274q-99 -102 -259 -102q-164 0 -258 103q-94 101 -94 289q0 19 2 43h480q-17 152 -131 152q-81 0 -114 -78h-229q26 115 114.5 179t221.5 64zM393 140q56 0 88 30.5t43 97.5h-263q14 -128 132 -128z" />
    <glyph glyph-name="florin" unicode="&#x192;" 
d="M645 574h-62q-27 0 -40 -10.5t-18 -35.5l-18 -91l114 2l-24 -124l-113 2l-62 -318q-17 -84 -72 -128t-163 -44h-101l25 139h60q27 0 40 10.5t18 35.5l60 305l-112 -2l22 124l113 -2l20 103q17 84 72 128t163 44h103z" />
    <glyph glyph-name="uni01F4" unicode="&#x1f4;" horiz-adv-x="811" 
d="M423 989h238l-172 -182h-183zM448 392h303v-392h-149l-10 67q-30 -39 -85.5 -64.5t-126.5 -25.5q-145 0 -239 103q-96 104 -96 273q0 172 99 274t256 102q123 0 212 -62q88 -63 115 -171l-215 -15q-30 70 -110 70q-64 0 -98.5 -50t-34.5 -146q0 -104 36.5 -152t112.5 -48
q97 0 122 82h-92v155z" />
    <glyph glyph-name="uni01F5" unicode="&#x1f5;" horiz-adv-x="646" 
d="M337 793h238l-172 -182h-183zM401 466l7 50h188v-482q0 -118 -77.5 -184t-218.5 -66q-221 0 -262 167l192 17q20 -44 79 -44q45 0 65 19t20 58v68q-55 -61 -147 -61q-101 0 -161 71q-61 70 -61 193q0 124 62 194q62 68 156 68q93 0 158 -68zM309 164q40 0 63.5 30
t23.5 81q0 50 -23.5 81t-63.5 31q-78 0 -78 -112q0 -111 78 -111z" />
    <glyph glyph-name="Aringacute" unicode="&#x1fa;" horiz-adv-x="786" 
d="M406 1109h238l-172 -182h-183zM771 0h-235l-32 97h-223l-32 -97h-234l250 653q-24 37 -24 84q0 66 43 109q44 42 108 42t108 -42q43 -43 43 -109q0 -45 -22 -80zM437 784q-27 28 -69 12t-38 -59q0 -28 17.5 -45.5t44.5 -17.5t44.5 17.5t17.5 45.5t-17 47zM366 356
l-35 -108h124l-35 108l-27 93z" />
    <glyph glyph-name="aringacute" unicode="&#x1fb;" horiz-adv-x="642" 
d="M325 1097h238l-172 -182h-183zM419 617q-43 -43 -108 -43t-108 43q-43 42 -43 106q0 66 43 109q43 42 108 42t108 -42q43 -43 43 -109q0 -64 -43 -106zM356 770q-27 28 -69 12t-38 -59q0 -28 17.5 -45.5t44.5 -17.5t44.5 17.5t17.5 45.5t-17 47zM607 0h-200
q-15 32 -19 61q-51 -81 -166 -81q-87 0 -138 42.5t-51 116.5q0 63 38.5 101t123.5 52l181 28v37q0 46 -65 46q-31 0 -46 -13t-17 -43l-192 7q11 93 73 136.5t190 43.5q131 0 195 -44.5t64 -141.5v-218q0 -80 29 -130zM292 107q41 0 66 22t25 66v23l-88 -16q-64 -10 -64 -50
q0 -45 61 -45z" />
    <glyph glyph-name="AEacute" unicode="&#x1fc;" horiz-adv-x="1207" 
d="M690 989h238l-172 -182h-183zM775 271v-81h392v-190h-616v131h-237l-64 -131h-235l355 712h787v-185h-382v-81h327v-175h-327zM507 527l-110 -226h154v226h-44z" />
    <glyph glyph-name="aeacute" unicode="&#x1fd;" horiz-adv-x="1022" 
d="M524 793h238l-172 -182h-183zM997 236v-28h-377q13 -88 95 -88q58 0 81 44l189 -12q-29 -81 -99.5 -126.5t-168.5 -45.5q-159 0 -227 117q-62 -117 -235 -117q-106 0 -164 45t-58 127q0 155 232 155h118v40q0 30 -16 43t-52 13q-33 0 -48.5 -11.5t-18.5 -38.5l-191 7
q13 89 71 131.5t173 42.5q163 0 219 -83q74 83 202 83q134 0 205 -87q70 -88 70 -211zM709 394q-75 0 -89 -87h173q-5 46 -25.5 66.5t-58.5 20.5zM292 108q40 0 65.5 24t25.5 63v13h-78q-76 0 -76 -51q0 -23 17 -36t46 -13z" />
    <glyph glyph-name="Oslashacute" unicode="&#x1fe;" horiz-adv-x="820" 
d="M421 989h238l-172 -182h-183zM739 715l-65 -87q101 -104 101 -275q0 -173 -100 -274q-101 -102 -265 -102q-108 0 -188 44l-65 -87l-75 57l65 87q-102 102 -102 275q0 171 101 274q100 102 264 102q105 0 189 -45l65 88zM269 354q0 -56 12 -96l203 272q-32 21 -74 21
q-68 0 -104.5 -50.5t-36.5 -146.5zM410 155q69 0 105 50.5t36 148.5q0 54 -12 93l-202 -272q32 -20 73 -20z" />
    <glyph glyph-name="oslashacute" unicode="&#x1ff;" horiz-adv-x="630" 
d="M329 793h238l-172 -182h-183zM583 500l-46 -53q68 -77 68 -190q0 -125 -79 -201t-211 -76q-89 0 -154 35l-51 -58l-62 54l47 54q-70 74 -70 192q0 124 80 201q79 76 210 76q90 0 157 -37l49 57zM231 257q0 -27 1 -34l134 153q-20 18 -51 18q-43 0 -63.5 -33t-20.5 -104z
M315 120q43 0 63.5 33t20.5 104q0 24 -1 31l-132 -152q19 -16 49 -16z" />
    <glyph glyph-name="uni0218" unicode="&#x218;" horiz-adv-x="720" 
d="M331 477l150 -33q203 -45 203 -223q0 -116 -85.5 -180t-237.5 -64q-148 0 -231.5 66.5t-93.5 192.5h225q7 -81 109 -81q88 0 88 54q0 43 -63 56l-149 33q-192 42 -192 207q0 106 75 165t225 59q284 0 296 -221h-217q-9 55 -82 55q-74 0 -74 -42q0 -32 54 -44zM391 -203
l-140 -13v129h225v-136q0 -137 -145 -137h-80v77h72q68 0 68 60v20z" />
    <glyph glyph-name="uni0219" unicode="&#x219;" horiz-adv-x="606" 
d="M286 334l77 -8q208 -22 208 -162q0 -90 -71 -137t-199 -47q-119 0 -187.5 48t-78.5 134h190q9 -61 84 -61q35 0 54.5 14t19.5 38q0 40 -57 46l-78 7q-202 18 -202 155q0 83 66.5 128t187.5 45q230 0 255 -163h-184q-9 51 -78 51q-66 0 -66 -43q0 -39 59 -45zM329 -209
l-140 -13v129h225v-136q0 -137 -145 -137h-80v77h72q68 0 68 60v20z" />
    <glyph glyph-name="uni021A" unicode="&#x21a;" horiz-adv-x="675" 
d="M20 712h635v-192h-205v-520h-224v520h-206v192zM366 -201l-140 -13v129h225v-136q0 -137 -145 -137h-80v77h72q68 0 68 60v20z" />
    <glyph glyph-name="uni021B" unicode="&#x21b;" horiz-adv-x="431" 
d="M391 396l-95 2v-191q0 -56 50 -56h45v-151h-117q-102 0 -141 39t-39 141v218l-79 -2v120l79 -2v158h202v-158l95 2v-120zM233 -201l-140 -13v129h225v-136q0 -137 -145 -137h-80v77h72q68 0 68 60v20z" />
    <glyph glyph-name="uni0237" unicode="&#x237;" horiz-adv-x="302" 
d="M30 -215h-68v143h35q53 0 53 57v531h202v-531q0 -104 -54 -152t-168 -48z" />
    <glyph glyph-name="uni0259" unicode="&#x259;" horiz-adv-x="624" 
d="M309 536q134 0 212 -75q78 -77 78 -202t-79 -201t-209 -76q-92 0 -159 43t-98 112q-29 66 -29 142v29h377q-13 88 -95 88q-58 0 -81 -44l-189 12q28 82 98.5 127t173.5 45zM313 122q70 0 87 77h-171q11 -77 84 -77z" />
    <glyph glyph-name="h.sups" unicode="&#x2b0;" horiz-adv-x="538" 
d="M334 723q73 0 113.5 -37.5t40.5 -108.5v-239h-161v194q0 53 -52 53q-28 0 -46 -17t-18 -36v-194h-161v516h161v-184q44 53 123 53z" />
    <glyph glyph-name="r.sups" unicode="&#x2b3;" horiz-adv-x="379" 
d="M325 722h29v-145h-42q-54 0 -77.5 -23.5t-23.5 -76.5v-139h-161v374h142l9 -56q35 66 124 66z" />
    <glyph glyph-name="circumflex" unicode="&#x2c6;" horiz-adv-x="500" 
d="M165 606h-164l159 179h181l159 -179h-164l-86 96z" />
    <glyph glyph-name="caron" unicode="&#x2c7;" horiz-adv-x="500" 
d="M341 606h-181l-159 179h164l85 -96l86 96h164z" />
    <glyph glyph-name="uni02C9" unicode="&#x2c9;" horiz-adv-x="500" 
d="M439 614h-378v118h378v-118z" />
    <glyph glyph-name="breve" unicode="&#x2d8;" horiz-adv-x="500" 
d="M415 645q-49 -42 -165 -42t-165 42t-49 141h118q0 -42 22.5 -60t73.5 -18t73.5 18t22.5 60h118q0 -99 -49 -141z" />
    <glyph glyph-name="dotaccent" unicode="&#x2d9;" horiz-adv-x="500" 
d="M348 580h-195v132h195v-132z" />
    <glyph glyph-name="ring" unicode="&#x2da;" horiz-adv-x="500" 
d="M358 624q-43 -43 -108 -43t-108 43q-43 42 -43 106q0 66 43 109q44 42 108 42t108 -42q43 -43 43 -109q0 -64 -43 -106zM206 685q26 -29 68 -13t38 58q0 29 -17.5 46.5t-44.5 17.5t-44.5 -17.5t-17.5 -46.5q0 -28 18 -45z" />
    <glyph glyph-name="ogonek" unicode="&#x2db;" horiz-adv-x="500" 
d="M290 -235h-85q-78 0 -119.5 30.5t-41.5 84.5q0 69 70 105l67 34l164 -19l-111 -51q-36 -17 -36 -48q0 -47 58 -47h34v-89z" />
    <glyph glyph-name="tilde" unicode="&#x2dc;" horiz-adv-x="500" 
d="M135 601h-126q0 92 36 144t106 52q37 1 73 -18t62 -37.5t39 -17.5q41 0 41 64h126q0 -91 -37 -143.5t-107 -52.5q-33 0 -61 11.5t-44 25t-34 25t-33 11.5q-41 0 -41 -64z" />
    <glyph glyph-name="hungarumlaut" unicode="&#x2dd;" horiz-adv-x="500" 
d="M111 600h-173l101 190h215zM410 600h-172l110 190h214z" />
    <glyph glyph-name="s.sups" unicode="&#x2e2;" horiz-adv-x="489" 
d="M244 321q-182 0 -219 106l149 22q13 -37 79 -37q68 0 68 30q0 23 -46 27l-82 7q-79 7 -116.5 35t-37.5 82q0 63 52 97.5t151 34.5q170 0 207 -102l-142 -16q-10 28 -71 28t-61 -27q0 -21 38 -23l105 -8q146 -12 146 -118q0 -68 -57.5 -103t-162.5 -35z" />
    <glyph glyph-name="gravecomb" unicode="&#x300;" horiz-adv-x="0" 
d="M103 611h-183l-172 182h238z" />
    <glyph glyph-name="acutecomb" unicode="&#x301;" horiz-adv-x="0" 
d="M80 611h-183l117 182h238z" />
    <glyph glyph-name="uni0302" unicode="&#x302;" horiz-adv-x="0" 
d="M-85 606h-164l159 179h181l159 -179h-164l-86 96z" />
    <glyph glyph-name="tildecomb" unicode="&#x303;" horiz-adv-x="0" 
d="M-117 601h-126q0 92 36 144t106 52q37 1 73 -18t62 -37.5t39 -17.5q41 0 41 64h126q0 -91 -37 -143.5t-107 -52.5q-33 0 -61 11.5t-44 25t-34 25t-33 11.5q-41 0 -41 -64z" />
    <glyph glyph-name="uni0304" unicode="&#x304;" horiz-adv-x="0" 
d="M189 614h-378v118h378v-118z" />
    <glyph glyph-name="uni0306" unicode="&#x306;" horiz-adv-x="0" 
d="M165 645q-49 -42 -165 -42t-165 42t-49 141h118q0 -42 22.5 -60t73.5 -18t73.5 18t22.5 60h118q0 -99 -49 -141z" />
    <glyph glyph-name="uni0307" unicode="&#x307;" horiz-adv-x="0" 
d="M98 580h-195v132h195v-132z" />
    <glyph glyph-name="uni0308" unicode="&#x308;" horiz-adv-x="0" 
d="M-52 580h-195v132h195v-132zM247 580h-195v132h195v-132z" />
    <glyph glyph-name="uni030A" unicode="&#x30a;" horiz-adv-x="0" 
d="M108 624q-43 -43 -108 -43t-108 43q-43 42 -43 106q0 66 43 109q44 42 108 42t108 -42q43 -43 43 -109q0 -64 -43 -106zM-45 685q27 -29 69 -13t38 58q0 29 -17.5 46.5t-44.5 17.5t-44.5 -17.5t-17.5 -46.5q0 -28 17 -45z" />
    <glyph glyph-name="uni030B" unicode="&#x30b;" horiz-adv-x="0" 
d="M-85 600h-173l101 190h215zM214 600h-172l110 190h214z" />
    <glyph glyph-name="uni030C" unicode="&#x30c;" horiz-adv-x="0" 
d="M91 606h-181l-159 179h164l85 -96l86 96h164z" />
    <glyph glyph-name="uni0312" unicode="&#x312;" horiz-adv-x="0" 
d="M112 776h-72q-68 0 -68 -60v-20l140 13v-129h-225v136q0 137 145 137h80v-77z" />
    <glyph glyph-name="uni0313" unicode="&#x313;" horiz-adv-x="0" 
d="M-113 724v129h225v-136q0 -137 -145 -137h-80v77h72q68 0 68 60v20z" />
    <glyph glyph-name="dotbelowcomb" unicode="&#x323;" horiz-adv-x="0" 
d="M98 -247h-195v143h195v-143z" />
    <glyph glyph-name="uni0324" unicode="&#x324;" horiz-adv-x="0" 
d="M-52 -247h-195v143h195v-143zM247 -247h-195v143h195v-143z" />
    <glyph glyph-name="uni0325" unicode="&#x325;" horiz-adv-x="0" 
d="M101 -306q-40 -40 -101 -40t-101 40t-40 101q0 60 40 99.5t101 39.5t101 -39.5t40 -99.5q0 -61 -40 -101zM-42 -249q26 -27 64.5 -11.5t35.5 55.5q0 26 -16.5 42.5t-41.5 16.5t-41.5 -16.5t-16.5 -42.5q0 -28 16 -44z" />
    <glyph glyph-name="uni0326" unicode="&#x326;" horiz-adv-x="0" 
d="M-112 -214v129h225v-136q0 -137 -145 -137h-80v77h72q68 0 68 60v20z" />
    <glyph glyph-name="uni0327" unicode="&#x327;" horiz-adv-x="0" 
d="M-54 -259h-38v70h12q74 0 74 34q0 30 -43 30h-18l-40 49l67 76h91l-60 -62h21q125 0 125 -89q0 -108 -191 -108z" />
    <glyph glyph-name="uni0328" unicode="&#x328;" horiz-adv-x="0" 
d="M-55 -235h-85q-78 0 -119.5 30.5t-41.5 84.5q0 69 70 105l67 34l164 -19l-111 -51q-36 -17 -36 -48q0 -47 58 -47h34v-89z" />
    <glyph glyph-name="uni032E" unicode="&#x32e;" horiz-adv-x="0" 
d="M165 -228q-49 -42 -165 -42t-165 42t-49 141h118q0 -42 22.5 -60t73.5 -18t73.5 18t22.5 60h118q0 -99 -49 -141z" />
    <glyph glyph-name="uni0331" unicode="&#x331;" horiz-adv-x="0" 
d="M189 -216h-378v118h378v-118z" />
    <glyph glyph-name="uni0335" unicode="&#x335;" horiz-adv-x="0" 
d="M-188 318l-188 -5v120l188 -5l188 5v-120z" />
    <glyph glyph-name="uni0337" unicode="&#x337;" horiz-adv-x="0" 
d="M254 516l-434 -582l-75 57l434 582z" />
    <glyph glyph-name="uni0338" unicode="&#x338;" horiz-adv-x="0" 
d="M329 715l-583 -781l-75 57l583 781z" />
    <glyph glyph-name="uni0394" unicode="&#x394;" horiz-adv-x="786" 
d="M283 712h222l266 -712h-756zM361 375l-69 -204h202l-69 204l-32 110z" />
    <glyph glyph-name="uni03A9" unicode="&#x3a9;" horiz-adv-x="849" 
d="M389 0h-344v182h136v3q-130 94 -130 244q0 136 97 218t277 82q179 0 276 -82t97 -218q0 -149 -129 -244v-3h135v-182h-342v163q58 30 85.5 79t27.5 130q0 195 -150 195t-150 -195q0 -81 27.5 -130t86.5 -79v-163z" />
    <glyph glyph-name="uni03BC" unicode="&#x3bc;" horiz-adv-x="648" 
d="M252 -204h-202v720h202v-290q0 -36 17.5 -56t48.5 -20q35 0 56.5 25.5t21.5 66.5v274h202v-516h-185l-7 65q-48 -74 -147 -74q-20 0 -55 5l-1 -3l49 -103v-94z" />
    <glyph glyph-name="pi" unicode="&#x3c0;" horiz-adv-x="806" 
d="M766 516v-190h-121v-126q0 -44 43 -44h41v-156h-132q-74 0 -114 42t-40 119v165h-100v-326h-202v326h-126v190h751z" />
    <glyph glyph-name="d.sups" unicode="&#x1d48;" horiz-adv-x="543" 
d="M332 685v169h161v-516h-147l-7 47q-40 -61 -127 -61q-86 0 -136.5 53.5t-50.5 147.5q0 96 51 148t138 52q78 0 118 -40zM259 455q77 0 77 72q0 73 -78 73q-35 0 -52.5 -16.5t-17.5 -55.5t17.5 -56t53.5 -17z" />
    <glyph glyph-name="t.sups" unicode="&#x1d57;" horiz-adv-x="364" 
d="M324 712v-100l-76 1v-113q0 -39 42 -39h34v-123h-89q-81 0 -114.5 30t-33.5 111v134l-72 -1v100l72 -2v116h161v-116z" />
    <glyph glyph-name="Wgrave" unicode="&#x1e80;" horiz-adv-x="1035" 
d="M504 989l117 -182h-183l-172 182h238zM733 441l66 271h221l-206 -712h-216l-80 420l-75 -420h-222l-206 712h220l67 -271l32 -184l29 183l55 272h198l60 -272l28 -179z" />
    <glyph glyph-name="wgrave" unicode="&#x1e81;" horiz-adv-x="893" 
d="M432 793l117 -182h-183l-172 182h238zM633 293l63 223h192l-170 -516h-196l-67 249l-8 37l-9 -38l-67 -248h-196l-170 516h204l64 -225l15 -69l14 68l54 226h177l58 -221l20 -89z" />
    <glyph glyph-name="Wacute" unicode="&#x1e82;" horiz-adv-x="1035" 
d="M532 989h238l-172 -182h-183zM733 441l66 271h221l-206 -712h-216l-80 420l-75 -420h-222l-206 712h220l67 -271l32 -184l29 183l55 272h198l60 -272l28 -179z" />
    <glyph glyph-name="wacute" unicode="&#x1e83;" horiz-adv-x="893" 
d="M460 793h238l-172 -182h-183zM633 293l63 223h192l-170 -516h-196l-67 249l-8 37l-9 -38l-67 -248h-196l-170 516h204l64 -225l15 -69l14 68l54 226h177l58 -221l20 -89z" />
    <glyph glyph-name="Wdieresis" unicode="&#x1e84;" horiz-adv-x="1035" 
d="M271 959h195v-143h-195v143zM570 959h195v-143h-195v143zM733 441l66 271h221l-206 -712h-216l-80 420l-75 -420h-222l-206 712h220l67 -271l32 -184l29 183l55 272h198l60 -272l28 -179z" />
    <glyph glyph-name="wdieresis" unicode="&#x1e85;" horiz-adv-x="893" 
d="M199 712h195v-132h-195v132zM498 712h195v-132h-195v132zM633 293l63 223h192l-170 -516h-196l-67 249l-8 37l-9 -38l-67 -248h-196l-170 516h204l64 -225l15 -69l14 68l54 226h177l58 -221l20 -89z" />
    <glyph glyph-name="uni1E9E" unicode="&#x1e9e;" horiz-adv-x="774" 
d="M712 544l-110 -128q72 -23 109.5 -72.5t37.5 -118.5q0 -110 -75.5 -169.5t-225.5 -59.5q-20 0 -64 3v171q9 1 47 1q44 0 64.5 12t20.5 41q0 52 -89 52h-56v125l113 142q-35 5 -78 5q-123 0 -123 -108v-440h-223v438q0 144 93 217q92 74 249 74q130 0 310 -22v-163z" />
    <glyph glyph-name="Ygrave" unicode="&#x1ef2;" horiz-adv-x="768" 
d="M376 989l117 -182h-183l-172 182h238zM414 523l95 189h248l-261 -452v-260h-224v260l-261 452h250l91 -189l31 -81z" />
    <glyph glyph-name="ygrave" unicode="&#x1ef3;" horiz-adv-x="604" 
d="M288 793l117 -182h-183l-172 182h238zM302 204l86 312h211l-205 -588q-25 -71 -70.5 -101.5t-125.5 -30.5h-118v159h71q43 0 57 35l5 13l-208 513h215l62 -206z" />
    <glyph glyph-name="thinspace" unicode="&#x2009;" horiz-adv-x="302" 
 />
    <glyph glyph-name="uni2011" unicode="&#x2011;" horiz-adv-x="347" 
d="M319 197h-291v153h291v-153z" />
    <glyph glyph-name="endash" unicode="&#x2013;" horiz-adv-x="526" 
d="M498 197h-470v153h470v-153z" />
    <glyph glyph-name="emdash" unicode="&#x2014;" horiz-adv-x="752" 
d="M724 197h-696v153h696v-153z" />
    <glyph glyph-name="quoteleft" unicode="&#x2018;" horiz-adv-x="300" 
d="M260 321h-220v220q0 176 186 176h34v-98h-25q-87 0 -87 -77v-29h112v-192z" />
    <glyph glyph-name="quoteright" unicode="&#x2019;" horiz-adv-x="300" 
d="M74 316h-34v98h25q87 0 87 77v29h-112v192h220v-220q0 -176 -186 -176z" />
    <glyph glyph-name="quotesinglbase" unicode="&#x201a;" horiz-adv-x="330" 
d="M89 -204h-34v98h25q87 0 87 77v29h-112v192h220v-220q0 -176 -186 -176z" />
    <glyph glyph-name="quotedblleft" unicode="&#x201c;" horiz-adv-x="600" 
d="M260 321h-220v220q0 176 186 176h34v-98h-25q-87 0 -87 -77v-29h112v-192zM560 321h-220v220q0 176 186 176h34v-98h-25q-87 0 -87 -77v-29h112v-192z" />
    <glyph glyph-name="quotedblright" unicode="&#x201d;" horiz-adv-x="600" 
d="M74 316h-34v98h25q87 0 87 77v29h-112v192h220v-220q0 -176 -186 -176zM374 316h-34v98h25q87 0 87 77v29h-112v192h220v-220q0 -176 -186 -176z" />
    <glyph glyph-name="quotedblbase" unicode="&#x201e;" horiz-adv-x="635" 
d="M89 -204h-34v98h25q87 0 87 77v29h-112v192h220v-220q0 -176 -186 -176zM394 -204h-34v98h25q87 0 87 77v29h-112v192h220v-220q0 -176 -186 -176z" />
    <glyph glyph-name="dagger" unicode="&#x2020;" horiz-adv-x="709" 
d="M456 616l193 14v-178l-193 14v-571h-202v571l-194 -14v178l194 -14v234h202v-234z" />
    <glyph glyph-name="daggerdbl" unicode="&#x2021;" horiz-adv-x="709" 
d="M649 630v-178l-193 14v-187l193 14v-178l-193 14v-234h-202v234l-194 -14v178l194 -14v187l-194 -14v178l194 -14v234h202v-234z" />
    <glyph glyph-name="bullet" unicode="&#x2022;" horiz-adv-x="502" 
d="M442 112h-382v333h382v-333z" />
    <glyph glyph-name="ellipsis" unicode="&#x2026;" horiz-adv-x="980" 
d="M270 0h-220v192h220v-192zM600 0h-220v192h220v-192zM930 0h-220v192h220v-192z" />
    <glyph glyph-name="perthousand" unicode="&#x2030;" horiz-adv-x="1739" 
d="M273 277q-102 0 -157.5 59.5t-55.5 166.5q0 108 55.5 167t157.5 59q101 0 156 -59t55 -167t-55 -167t-156 -59zM441 -15h-140l492 742h138zM273 385q83 0 83 118q0 117 -83 117q-84 0 -84 -117q0 -118 84 -118zM969 -16q-102 0 -157.5 59.5t-55.5 166.5q0 108 55.5 167
t157.5 59q101 0 156 -59t55 -167t-55 -167t-156 -59zM1468 -16q-102 0 -157.5 59.5t-55.5 166.5q0 108 55.5 167t157.5 59q101 0 156 -59t55 -167t-55 -167t-156 -59zM969 92q83 0 83 118q0 117 -83 117q-84 0 -84 -117q0 -118 84 -118zM1468 92q83 0 83 118q0 117 -83 117
q-84 0 -84 -117q0 -118 84 -118z" />
    <glyph glyph-name="guilsinglleft" unicode="&#x2039;" horiz-adv-x="358" 
d="M308 165v-180l-258 173v197l258 173v-179l-144 -92z" />
    <glyph glyph-name="guilsinglright" unicode="&#x203a;" horiz-adv-x="358" 
d="M308 158l-258 -173v180l144 92l-144 92v179l258 -173v-197z" />
    <glyph glyph-name="uni203D" unicode="&#x203d;" horiz-adv-x="729" 
d="M353 729q163 0 247 -55t84 -159q0 -119 -121 -167l-32 -13q-60 -24 -85 -44t-33 -51h-116l-23 161v114h162v-83q29 13 40.5 29t11.5 41q0 40 -30.5 56.5t-102.5 16.5t-100.5 -17.5t-31.5 -62.5h-187q5 120 82.5 177t234.5 57zM456 0h-202v183h202v-183z" />
    <glyph glyph-name="fraction" unicode="&#x2044;" horiz-adv-x="380" 
d="M15 -15h-140l492 742h138z" />
    <glyph glyph-name="zero.sups" unicode="&#x2070;" horiz-adv-x="514" 
d="M258 330q-102 0 -157.5 59.5t-55.5 166.5q0 108 55.5 167t157.5 59q101 0 156 -59t55 -167t-55 -167t-156 -59zM258 438q83 0 83 118q0 117 -83 117q-84 0 -84 -117q0 -118 84 -118z" />
    <glyph glyph-name="four.sups" unicode="&#x2074;" horiz-adv-x="468" 
d="M375 337h-123v96l-232 -10v101l209 240h146v-251l73 11v-101l-73 10v-96zM250 644l-111 -124l113 -7v131h-2z" />
    <glyph glyph-name="five.sups" unicode="&#x2075;" horiz-adv-x="497" 
d="M244 321q-137 0 -195 85l114 53q22 -34 80 -34q37 0 59 14t22 38q0 49 -79 49q-45 0 -74 -19l-114 30l48 227h319v-95h-233l-15 -67l2 -1q41 16 97 16q83 0 127.5 -36.5t44.5 -102.5q0 -72 -53.5 -114.5t-149.5 -42.5z" />
    <glyph glyph-name="six.sups" unicode="&#x2076;" horiz-adv-x="512" 
d="M265 329q-103 0 -159 57t-56 163q0 103 53 168q52 64 167 64q121 0 182 -82l-107 -41q-29 30 -74 30q-46 0 -68 -23.5t-26 -76.5q43 30 115 30q81 0 125.5 -36t44.5 -100q0 -70 -52.5 -111.5t-144.5 -41.5zM264 421q35 0 55.5 16.5t20.5 44.5q0 27 -21 42.5t-54 15.5
q-60 0 -86 -44q11 -75 85 -75z" />
    <glyph glyph-name="seven.sups" unicode="&#x2077;" horiz-adv-x="423" 
d="M241 338h-126q3 92 41.5 178.5t100.5 145.5h-237v103h383v-104q-83 -64 -121.5 -138.5t-40.5 -184.5z" />
    <glyph glyph-name="eight.sups" unicode="&#x2078;" horiz-adv-x="519" 
d="M259 329q-97 0 -153 34.5t-56 98.5q0 39 22 66.5t62 37.5v2q-69 24 -69 93q0 57 51 88.5t143 31.5t143.5 -31.5t51.5 -88.5q0 -67 -69 -93v-2q39 -10 61.5 -37.5t22.5 -66.5q0 -64 -57 -98.5t-153 -34.5zM259 606q76 0 76 43q0 42 -76 42q-75 0 -75 -42q0 -43 75 -43z
M195 432q23 -14 64 -14t64 14t23 39q0 49 -87 49t-87 -49q0 -25 23 -39z" />
    <glyph glyph-name="nine.sups" unicode="&#x2079;" horiz-adv-x="512" 
d="M242 330q-121 0 -182 82l107 41q29 -30 74 -30q46 0 68 23.5t26 76.5q-43 -30 -115 -30q-81 0 -125.5 36t-44.5 100q0 70 52.5 111.5t144.5 41.5q103 0 159 -57t56 -163q0 -103 -52 -167q-53 -65 -168 -65zM247 571q60 0 86 44q-11 75 -85 75q-35 0 -55.5 -16.5
t-20.5 -44.5q0 -27 21 -42.5t54 -15.5z" />
    <glyph glyph-name="plus.sups" unicode="&#x207a;" horiz-adv-x="531" 
d="M332 599h169v-119h-169v-142h-133v142h-168v119h168v141h133v-141z" />
    <glyph glyph-name="minus.sups" unicode="&#x207b;" horiz-adv-x="530" 
d="M500 478h-469v119h469v-119z" />
    <glyph glyph-name="parenleft.sups" unicode="&#x207d;" horiz-adv-x="355" 
d="M320 190h-165q-117 160 -117 346q0 187 117 344h165q-109 -166 -109 -347q0 -177 109 -343z" />
    <glyph glyph-name="parenright.sups" unicode="&#x207e;" horiz-adv-x="355" 
d="M199 190h-164q108 163 108 343q0 181 -108 347h164q118 -157 118 -344q0 -185 -118 -346z" />
    <glyph glyph-name="n.sups" unicode="&#x207f;" horiz-adv-x="548" 
d="M339 723q73 0 113.5 -37.5t40.5 -108.5v-239h-161v194q0 53 -52 53q-28 0 -46 -17t-18 -36v-194h-161v374h152l5 -47q43 58 127 58z" />
    <glyph glyph-name="zero.subs" unicode="&#x2080;" horiz-adv-x="514" 
d="M258 -208q-102 0 -157.5 59.5t-55.5 166.5q0 108 55.5 167t157.5 59q101 0 156 -59t55 -167t-55 -167t-156 -59zM258 -100q83 0 83 118q0 117 -83 117q-84 0 -84 -117q0 -118 84 -118z" />
    <glyph glyph-name="one.subs" unicode="&#x2081;" horiz-adv-x="313" 
d="M263 -192h-126v254h-112v94h20q48 0 70 16.5t22 52.5v10h126v-427z" />
    <glyph glyph-name="two.subs" unicode="&#x2082;" horiz-adv-x="510" 
d="M460 -192h-410q0 158 137 202l89 29q57 18 57 55q0 46 -70 46q-71 0 -84 -54l-117 17q26 141 200 141q90 0 141 -37.5t51 -106.5q0 -107 -130 -140l-73 -19q-42 -10 -47 -30h256v-103z" />
    <glyph glyph-name="three.subs" unicode="&#x2083;" horiz-adv-x="504" 
d="M247 -208q-173 0 -197 137l118 15q16 -55 81 -55q74 0 74 47q0 42 -70 42h-55v94h51q66 0 66 39q0 43 -69 43q-32 0 -49.5 -11t-27.5 -37l-116 16q17 59 68.5 90.5t130.5 31.5q82 0 133 -33t51 -89q0 -61 -67 -89v-2q85 -27 85 -103q0 -64 -54.5 -100t-152.5 -36z" />
    <glyph glyph-name="four.subs" unicode="&#x2084;" horiz-adv-x="468" 
d="M375 -192h-123v96l-232 -10v101l209 240h146v-251l73 11v-101l-73 10v-96zM250 115l-111 -124l113 -7v131h-2z" />
    <glyph glyph-name="five.subs" unicode="&#x2085;" horiz-adv-x="497" 
d="M244 -208q-137 0 -195 85l114 53q22 -34 80 -34q37 0 59 14t22 38q0 49 -79 49q-45 0 -74 -19l-114 30l48 227h319v-95h-233l-15 -67l2 -1q41 16 97 16q83 0 127.5 -36.5t44.5 -102.5q0 -72 -53.5 -114.5t-149.5 -42.5z" />
    <glyph glyph-name="six.subs" unicode="&#x2086;" horiz-adv-x="512" 
d="M265 -208q-103 0 -159 57t-56 163q0 103 53 168q52 64 167 64q121 0 182 -82l-107 -41q-29 30 -74 30q-46 0 -68 -23.5t-26 -76.5q43 30 115 30q81 0 125.5 -36t44.5 -100q0 -70 -52.5 -111.5t-144.5 -41.5zM264 -116q35 0 55.5 16.5t20.5 44.5q0 27 -21 42.5t-54 15.5
q-60 0 -86 -44q11 -75 85 -75z" />
    <glyph glyph-name="seven.subs" unicode="&#x2087;" horiz-adv-x="423" 
d="M241 -192h-126q3 92 41.5 178.5t100.5 145.5h-237v103h383v-104q-83 -64 -121.5 -138.5t-40.5 -184.5z" />
    <glyph glyph-name="eight.subs" unicode="&#x2088;" horiz-adv-x="519" 
d="M259 -208q-97 0 -153 34.5t-56 98.5q0 39 22 66.5t62 37.5v2q-69 24 -69 93q0 57 51 88.5t143 31.5t143.5 -31.5t51.5 -88.5q0 -68 -69 -93v-2q39 -10 61.5 -37.5t22.5 -66.5q0 -64 -57 -98.5t-153 -34.5zM259 69q76 0 76 43q0 42 -76 42q-75 0 -75 -42q0 -43 75 -43z
M195 -105q23 -14 64 -14t64 14t23 39q0 49 -87 49t-87 -49q0 -25 23 -39z" />
    <glyph glyph-name="nine.subs" unicode="&#x2089;" horiz-adv-x="512" 
d="M242 -208q-121 0 -182 82l107 41q29 -30 74 -30q46 0 68 23.5t26 76.5q-43 -30 -115 -30q-81 0 -125.5 36t-44.5 100q0 70 52.5 111.5t144.5 41.5q103 0 159 -57t56 -163q0 -104 -52 -168t-168 -64zM247 33q60 0 86 44q-11 75 -85 75q-35 0 -55.5 -16.5t-20.5 -44.5
q0 -27 21 -42.5t54 -15.5z" />
    <glyph glyph-name="plus.subs" unicode="&#x208a;" horiz-adv-x="531" 
d="M332 100h169v-119h-169v-142h-133v142h-168v119h168v141h133v-141z" />
    <glyph glyph-name="minus.subs" unicode="&#x208b;" horiz-adv-x="530" 
d="M500 -21h-469v119h469v-119z" />
    <glyph glyph-name="equal.subs" unicode="&#x208c;" horiz-adv-x="530" 
d="M500 82h-469v118h469v-118zM500 -122h-469v119h469v-119z" />
    <glyph glyph-name="uni208D" unicode="&#x208d;" horiz-adv-x="355" 
d="M320 -340h-165q-117 161 -117 346q0 186 117 344h165q-109 -166 -109 -347q0 -177 109 -343z" />
    <glyph glyph-name="uni208E" unicode="&#x208e;" horiz-adv-x="355" 
d="M199 -340h-164q108 164 108 343q0 181 -108 347h164q118 -157 118 -344q0 -185 -118 -346z" />
    <glyph glyph-name="n.subs" unicode="&#x2099;" horiz-adv-x="548" 
d="M339 193q73 0 113.5 -37.5t40.5 -108.5v-239h-161v194q0 53 -52 53q-28 0 -46 -17t-18 -36v-194h-161v374h152l5 -47q43 58 127 58z" />
    <glyph glyph-name="Euro" unicode="&#x20ac;" 
d="M551 576q-119 0 -160 -84h291v-96h-314q-1 -11 -1 -41t1 -41h314v-96h-293q39 -88 162 -88q56 0 131 15v-151q-70 -14 -149 -14q-130 0 -221.5 62.5t-126.5 175.5h-112v96h94q-4 41 0 82h-94v96h112q35 112 127 174.5t221 62.5q79 0 149 -14v-151q-72 12 -131 12z" />
    <glyph glyph-name="uni20B8" unicode="&#x20b8;" horiz-adv-x="675" 
d="M20 540v172h635v-172h-635zM226 270h-206v172h635v-172h-205v-270h-224v270z" />
    <glyph glyph-name="uni20B9" unicode="&#x20b9;" 
d="M681 712v-95h-182q29 -31 38 -82h144v-96h-146q-24 -91 -155 -126q84 -6 114 -30q30 -27 52 -100l55 -183h-234l-31 140q-15 66 -38 85q-23 18 -92 18h-131v115h112q60 0 89 18.5t37 62.5h-238v96h238q-7 45 -36 63.5t-90 18.5h-112v95h606z" />
    <glyph glyph-name="uni20BA" unicode="&#x20ba;" 
d="M520 321l200 -17q-17 -149 -105 -226.5t-239 -77.5h-247v205l-94 -44v110l94 44v81l-94 -44v110l94 44v206h223v-100l193 91v-110l-193 -91v-81l193 91v-110l-193 -91v-131h14q68 0 105 34t49 107z" />
    <glyph glyph-name="uni20BC" unicode="&#x20bc;" 
d="M465 521h23q114 0 172 -62t58 -182v-277h-175v286q0 48 -18 70.5t-60 26.5v-324h-175v324q-42 -4 -60 -26.5t-18 -70.5v-286h-175v277q0 244 238 244h15v191h175v-191z" />
    <glyph glyph-name="uni20BF" unicode="&#x20bf;" 
d="M689 213q0 -74 -43.5 -127t-119.5 -74v-152h-140v140h-80v-140h-140v140h-81v712h81v140h140v-140h80v140h140v-155q61 -20 96 -64.5t35 -104.5q0 -102 -85 -138q52 -19 84.5 -67t32.5 -110zM458 490q0 22 -14.5 35.5t-39.5 13.5h-115v-99h115q25 0 39.5 14t14.5 36z
M420 297h-131v-119h127q34 0 53 15.5t19 43.5t-18 44t-50 16z" />
    <glyph glyph-name="uni2105" unicode="&#x2105;" horiz-adv-x="1253" 
d="M290 330q-106 0 -167 57q-63 57 -63 146t62 145q61 55 167 55q88 0 149 -40.5t75 -107.5l-158 -12q-13 46 -66 46q-72 0 -72 -88q0 -87 72 -87q53 0 65 48l159 -6q-12 -71 -73 -113.5t-150 -42.5zM458 -15h-140l492 742h138zM1133 36q-59 -52 -166 -52t-165 52
q-59 53 -59 144q0 93 59 145.5t165 52.5t166 -52.5t60 -145.5q0 -92 -60 -144zM967 89q69 0 69 91q0 94 -69 94q-67 0 -67 -94q0 -91 67 -91z" />
    <glyph glyph-name="uni2113" unicode="&#x2113;" horiz-adv-x="627" 
d="M398 128q55 0 129 40l48 -123q-118 -60 -229 -60q-91 0 -144.5 44.5t-53.5 127.5v11l-98 -32l-35 138l133 25v232q0 192 218 192q115 0 170 -54t55 -170q0 -125 -59.5 -190.5t-191.5 -93.5v-35q0 -52 58 -52zM376 585q-36 0 -36 -48v-188q50 22 67 56q16 32 16 97
q0 45 -10.5 64t-36.5 19z" />
    <glyph glyph-name="uni2116" unicode="&#x2116;" horiz-adv-x="1281" 
d="M865 672q58 52 165 52t166 -52q60 -52 60 -146q0 -92 -60 -144t-166 -52t-165 52t-59 144q0 93 59 146zM282 712l219 -370v370h220v-712h-227l-214 366v-366h-220v712h222zM1030 435q69 0 69 91q0 94 -69 94q-67 0 -67 -94q0 -91 67 -91z" />
    <glyph glyph-name="uni2117" unicode="&#x2117;" horiz-adv-x="861" 
d="M430 742q167 0 277 -107q109 -108 109 -274q0 -167 -109 -275t-277 -108q-167 0 -276 109q-109 108 -109 274t109 274q110 107 276 107zM430 67q126 0 207 83q80 83 80 211q0 127 -81 210q-81 82 -206 82q-126 0 -205 -82q-81 -83 -81 -210q0 -129 81 -211
q80 -83 205 -83zM296 557h171q72 0 111.5 -36t39.5 -98q0 -63 -41 -98.5t-113 -35.5h-65v-115h-103v383zM399 374h64q24 0 38 13t14 36q0 47 -52 47h-64v-96z" />
    <glyph glyph-name="trademark" unicode="&#x2122;" horiz-adv-x="1051" 
d="M266 325h-126v290h-115v97h354v-97h-113v-290zM559 325h-100v387h197l64 -281h20l64 281h197v-387h-101v291h-21l-69 -291h-161l-69 291h-21v-291z" />
    <glyph glyph-name="uni2126" unicode="&#x2126;" horiz-adv-x="849" 
d="M389 0h-344v182h136v3q-130 94 -130 244q0 136 97 218t277 82q179 0 276 -82t97 -218q0 -149 -129 -244v-3h135v-182h-342v163q58 30 85.5 79t27.5 130q0 195 -150 195t-150 -195q0 -81 27.5 -130t86.5 -79v-163z" />
    <glyph glyph-name="estimated" unicode="&#x212e;" horiz-adv-x="912" 
d="M160 624q110 105 296 105t296 -111q110 -112 110 -272h-648q-14 0 -14 -13v-176q0 -31 16 -47q99 -96 240 -96q75 0 142.5 31.5t110.5 84.5h73q-44 -63 -128.5 -103t-197.5 -40q-181 0 -294 104q-112 103 -112 265q0 161 110 268zM456 701q-141 0 -240 -99
q-16 -15 -16 -43v-176q0 -13 14 -13h482q14 0 14 13v176q0 28 -16 43q-99 99 -238 99z" />
    <glyph glyph-name="uni2153" unicode="&#x2153;" horiz-adv-x="1213" 
d="M377 -15h-140l492 742h138zM298 285h-126v254h-112v94h20q48 0 70 16.5t22 52.5v10h126v-427zM946 -16q-173 0 -197 137l118 15q9 -30 28 -42.5t53 -12.5q74 0 74 47q0 42 -70 42h-55v94h51q66 0 66 39q0 43 -69 43q-32 0 -49.5 -11t-27.5 -37l-116 16q17 59 68.5 90.5
t130.5 31.5q82 0 133 -33t51 -89q0 -61 -67 -89v-2q85 -27 85 -103q0 -64 -54.5 -100t-152.5 -36z" />
    <glyph glyph-name="uni2154" unicode="&#x2154;" horiz-adv-x="1375" 
d="M539 -15h-140l492 742h138zM470 285h-410q0 158 137 202l89 29q57 18 57 55q0 46 -70 46q-71 0 -84 -54l-117 17q26 141 200 141q90 0 141 -37.5t51 -106.5q0 -107 -130 -140l-73 -19q-42 -10 -47 -30h256v-103zM1108 -16q-173 0 -197 137l118 15q9 -30 28 -42.5
t53 -12.5q74 0 74 47q0 42 -70 42h-55v94h51q66 0 66 39q0 43 -69 43q-32 0 -49.5 -11t-27.5 -37l-116 16q17 59 68.5 90.5t130.5 31.5q82 0 133 -33t51 -89q0 -61 -67 -89v-2q85 -27 85 -103q0 -64 -54.5 -100t-152.5 -36z" />
    <glyph glyph-name="uni2155" unicode="&#x2155;" horiz-adv-x="1214" 
d="M377 -15h-140l492 742h138zM298 285h-126v254h-112v94h20q48 0 70 16.5t22 52.5v10h126v-427zM951 -16q-137 0 -195 85l114 53q22 -34 80 -34q37 0 59 14t22 38q0 49 -79 49q-45 0 -74 -19l-114 30l48 227h319v-95h-233l-15 -67l2 -1q41 16 97 16q83 0 127.5 -36.5
t44.5 -102.5q0 -72 -53.5 -114.5t-149.5 -42.5z" />
    <glyph glyph-name="uni2156" unicode="&#x2156;" horiz-adv-x="1362" 
d="M525 -15h-140l492 742h138zM470 285h-410q0 158 137 202l89 29q57 18 57 55q0 46 -70 46q-71 0 -84 -54l-117 17q26 141 200 141q90 0 141 -37.5t51 -106.5q0 -107 -130 -140l-73 -19q-42 -10 -47 -30h256v-103zM1099 -16q-137 0 -195 85l114 53q22 -34 80 -34
q37 0 59 14t22 38q0 49 -79 49q-45 0 -74 -19l-114 30l48 227h319v-95h-233l-15 -67l2 -1q41 16 97 16q83 0 127.5 -36.5t44.5 -102.5q0 -72 -53.5 -114.5t-149.5 -42.5z" />
    <glyph glyph-name="uni2157" unicode="&#x2157;" horiz-adv-x="1327" 
d="M257 277q-173 0 -197 137l118 15q16 -55 81 -55q74 0 74 47q0 42 -70 42h-55v94h51q66 0 66 39q0 43 -69 43q-32 0 -49.5 -11t-27.5 -37l-116 16q17 59 68.5 90.5t130.5 31.5q82 0 133 -33t51 -89q0 -61 -67 -89v-2q85 -27 85 -103q0 -64 -54.5 -100t-152.5 -36zM490 -15
h-140l492 742h138zM1064 -16q-137 0 -195 85l114 53q22 -34 80 -34q37 0 59 14t22 38q0 49 -79 49q-45 0 -74 -19l-114 30l48 227h319v-95h-233l-15 -67l2 -1q41 16 97 16q83 0 127.5 -36.5t44.5 -102.5q0 -72 -53.5 -114.5t-149.5 -42.5z" />
    <glyph glyph-name="uni2158" unicode="&#x2158;" horiz-adv-x="1362" 
d="M525 -15h-140l492 742h138zM415 284h-123v96l-232 -10v101l209 241h146v-252l73 11v-101l-73 10v-96zM290 592l-111 -125l113 -7v132h-2zM1099 -16q-137 0 -195 85l114 53q22 -34 80 -34q37 0 59 14t22 38q0 49 -79 49q-45 0 -74 -19l-114 30l48 227h319v-95h-233
l-15 -67l2 -1q41 16 97 16q83 0 127.5 -36.5t44.5 -102.5q0 -72 -53.5 -114.5t-149.5 -42.5z" />
    <glyph glyph-name="uni2159" unicode="&#x2159;" horiz-adv-x="1208" 
d="M377 -15h-140l492 742h138zM298 285h-126v254h-112v94h20q48 0 70 16.5t22 52.5v10h126v-427zM951 -16q-103 0 -159 57t-56 163q0 103 53 168q52 64 167 64q121 0 182 -82l-107 -41q-28 30 -74 30t-68 -23.5t-26 -76.5q43 30 115 30q81 0 125.5 -36t44.5 -100
q0 -70 -52.5 -111.5t-144.5 -41.5zM950 76q35 0 55.5 16.5t20.5 44.5q0 27 -21 42.5t-54 15.5q-60 0 -86 -44q11 -75 85 -75z" />
    <glyph glyph-name="uni215A" unicode="&#x215a;" horiz-adv-x="1316" 
d="M485 -15h-140l492 742h138zM255 268q-137 0 -195 85l114 53q22 -34 80 -34q37 0 59 14t22 38q0 49 -79 49q-45 0 -74 -19l-114 30l48 228h319v-95h-233l-15 -68l2 -1q41 16 97 16q83 0 127.5 -36.5t44.5 -102.5q0 -72 -53.5 -114.5t-149.5 -42.5zM1059 -16
q-103 0 -159 57t-56 163q0 103 53 168q52 64 167 64q121 0 182 -82l-107 -41q-29 30 -74 30q-46 0 -68 -23.5t-26 -76.5q43 30 115 30q81 0 125.5 -36t44.5 -100q0 -70 -52.5 -111.5t-144.5 -41.5zM1058 76q35 0 55.5 16.5t20.5 44.5q0 27 -21 42.5t-54 15.5q-60 0 -86 -44
q11 -75 85 -75z" />
    <glyph glyph-name="oneeighth" unicode="&#x215b;" horiz-adv-x="1233" 
d="M377 -15h-140l492 742h138zM298 285h-126v254h-112v94h20q48 0 70 16.5t22 52.5v10h126v-427zM963 -16q-97 0 -153 34.5t-56 98.5q0 39 22 66.5t62 37.5v2q-69 24 -69 93q0 57 51 88.5t143 31.5t143.5 -31.5t51.5 -88.5q0 -68 -69 -93v-2q39 -10 61.5 -37.5t22.5 -66.5
q0 -64 -57 -98.5t-153 -34.5zM963 261q76 0 76 43q0 42 -76 42q-75 0 -75 -42q0 -43 75 -43zM899 87q23 -14 64 -14t64 14t23 39q0 49 -87 49t-87 -49q0 -25 23 -39z" />
    <glyph glyph-name="threeeighths" unicode="&#x215c;" horiz-adv-x="1346" 
d="M257 277q-173 0 -197 137l118 15q16 -55 81 -55q74 0 74 47q0 42 -70 42h-55v94h51q66 0 66 39q0 43 -69 43q-32 0 -49.5 -11t-27.5 -37l-116 16q17 59 68.5 90.5t130.5 31.5q82 0 133 -33t51 -89q0 -61 -67 -89v-2q85 -27 85 -103q0 -64 -54.5 -100t-152.5 -36zM490 -15
h-140l492 742h138zM1076 -16q-97 0 -153 34.5t-56 98.5q0 39 22 66.5t62 37.5v2q-69 24 -69 93q0 57 51 88.5t143 31.5t143.5 -31.5t51.5 -88.5q0 -68 -69 -93v-2q39 -10 61.5 -37.5t22.5 -66.5q0 -64 -57 -98.5t-153 -34.5zM1076 261q76 0 76 43q0 42 -76 42q-75 0 -75 -42
q0 -43 75 -43zM1012 87q23 -14 64 -14t64 14t23 39q0 49 -87 49t-87 -49q0 -25 23 -39z" />
    <glyph glyph-name="fiveeighths" unicode="&#x215d;" horiz-adv-x="1341" 
d="M485 -15h-140l492 742h138zM255 268q-137 0 -195 85l114 53q22 -34 80 -34q37 0 59 14t22 38q0 49 -79 49q-45 0 -74 -19l-114 30l48 228h319v-95h-233l-15 -68l2 -1q41 16 97 16q83 0 127.5 -36.5t44.5 -102.5q0 -72 -53.5 -114.5t-149.5 -42.5zM1071 -16
q-97 0 -153 34.5t-56 98.5q0 39 22 66.5t62 37.5v2q-69 24 -69 93q0 57 51 88.5t143 31.5t143.5 -31.5t51.5 -88.5q0 -68 -69 -93v-2q39 -10 61.5 -37.5t22.5 -66.5q0 -64 -57 -98.5t-153 -34.5zM1071 261q76 0 76 43q0 42 -76 42q-75 0 -75 -42q0 -43 75 -43zM1007 87
q23 -14 64 -14t64 14t23 39q0 49 -87 49t-87 -49q0 -25 23 -39z" />
    <glyph glyph-name="seveneighths" unicode="&#x215e;" horiz-adv-x="1244" 
d="M388 -15h-140l492 742h138zM281 285h-126q3 92 41.5 178.5t100.5 145.5h-237v103h383v-104q-83 -64 -121.5 -138.5t-40.5 -184.5zM974 -16q-97 0 -153 34.5t-56 98.5q0 39 22 66.5t62 37.5v2q-69 24 -69 93q0 57 51 88.5t143 31.5t143.5 -31.5t51.5 -88.5q0 -68 -69 -93
v-2q39 -10 61.5 -37.5t22.5 -66.5q0 -64 -57 -98.5t-153 -34.5zM974 261q76 0 76 43q0 42 -76 42q-75 0 -75 -42q0 -43 75 -43zM910 87q23 -14 64 -14t64 14t23 39q0 49 -87 49t-87 -49q0 -25 23 -39z" />
    <glyph glyph-name="arrowleft" unicode="&#x2190;" horiz-adv-x="819" 
d="M324 451h450v-192h-448l78 -94l124 -165h-214l-269 356l269 356h214l-124 -165z" />
    <glyph glyph-name="arrowup" unicode="&#x2191;" horiz-adv-x="792" 
d="M40 460l356 269l356 -269v-214l-165 124l-91 76v-446h-202v444l-89 -74l-165 -124v214z" />
    <glyph glyph-name="arrowright" unicode="&#x2192;" horiz-adv-x="819" 
d="M291 712h214l269 -356l-269 -356h-214l124 165l78 94h-448v192h450l-80 96z" />
    <glyph glyph-name="arrowdown" unicode="&#x2193;" horiz-adv-x="792" 
d="M496 266l91 76l165 124v-214l-356 -269l-356 269v214l165 -124l89 -74v444h202v-446z" />
    <glyph glyph-name="arrowboth" unicode="&#x2194;" horiz-adv-x="1177" 
d="M649 712h214l269 -356l-269 -356h-214l124 165l78 94h-525l78 -94l124 -165h-214l-269 356l269 356h214l-124 -165l-80 -96h529l-80 96z" />
    <glyph glyph-name="arrowupdn" unicode="&#x2195;" horiz-adv-x="792" 
d="M752 417l-165 124l-96 80v-530l96 80l165 124v-214l-356 -269l-356 269v214l165 -124l94 -78v526l-94 -78l-165 -124v214l356 269l356 -269v-214z" />
    <glyph glyph-name="uni2196" unicode="&#x2196;" horiz-adv-x="729" 
d="M336 500l373 -366l-134 -134l-367 366l7 -169v-132h-175v603h603v-175h-132z" />
    <glyph glyph-name="uni2197" unicode="&#x2197;" horiz-adv-x="729" 
d="M86 493v175h603v-603h-175v132l7 169l-367 -366l-134 134l373 366l-175 -7h-132z" />
    <glyph glyph-name="uni2198" unicode="&#x2198;" horiz-adv-x="729" 
d="M514 471v132h175v-603h-603v175h132l175 -7l-373 366l134 134l367 -366z" />
    <glyph glyph-name="uni2199" unicode="&#x2199;" horiz-adv-x="729" 
d="M709 534l-373 -366l175 7h132v-175h-603v603h175v-132l-7 -169l367 366z" />
    <glyph glyph-name="partialdiff" unicode="&#x2202;" horiz-adv-x="685" 
d="M326 728q314 0 314 -398q0 -158 -83 -253q-83 -96 -232 -96q-131 0 -205 73q-75 72 -75 187q0 111 70 178q69 66 173 66q67 0 136 -28q-11 58 -39.5 83.5t-79.5 25.5q-61 0 -153 -31l-50 155q119 38 224 38zM331 150q48 0 72.5 33t29.5 107q-41 44 -101 44
q-42 0 -65.5 -25t-23.5 -67t23 -67t65 -25z" />
    <glyph glyph-name="uni2206" unicode="&#x2206;" horiz-adv-x="786" 
d="M283 712h222l266 -712h-756zM361 375l-69 -204h202l-69 204l-32 110z" />
    <glyph glyph-name="product" unicode="&#x220f;" horiz-adv-x="769" 
d="M60 712h649v-916h-224v724h-201v-724h-224v916z" />
    <glyph glyph-name="summation" unicode="&#x2211;" horiz-adv-x="770" 
d="M585 260l-242 -272h382v-192h-680v166l273 298l-262 285v167h657v-192h-358z" />
    <glyph glyph-name="minus" unicode="&#x2212;" 
d="M656 250h-556v142h556v-142z" />
    <glyph glyph-name="uni2215" unicode="&#x2215;" horiz-adv-x="380" 
d="M15 -15h-140l492 742h138z" />
    <glyph glyph-name="uni2219" unicode="&#x2219;" horiz-adv-x="482" 
d="M432 112h-382v333h382v-333z" />
    <glyph glyph-name="radical" unicode="&#x221a;" 
d="M562 -204h-260l-89 250l-124 -47l-57 159l286 105l105 -299l160 783h180z" />
    <glyph glyph-name="infinity" unicode="&#x221e;" horiz-adv-x="814" 
d="M211 120q-85 0 -135.5 54.5t-50.5 150.5q0 95 50.5 149.5t135.5 54.5q58 0 101 -27t95 -91q52 64 95 91t101 27q87 0 136.5 -54t49.5 -150t-49.5 -150.5t-136.5 -54.5q-58 0 -101 27t-95 91q-52 -64 -95 -91t-101 -27zM593 251q33 0 52 19.5t19 54.5q0 36 -19 56.5
t-52 20.5q-50 0 -109 -77q56 -74 109 -74zM221 247q51 0 109 78q-55 73 -109 73q-33 0 -51.5 -19t-18.5 -54q0 -37 18.5 -57.5t51.5 -20.5z" />
    <glyph glyph-name="integral" unicode="&#x222b;" 
d="M264 -192h-91v165h39q36 0 50 14t14 50v509q0 110 51.5 161t162.5 51h91v-166h-39q-36 0 -50 -14t-14 -50v-509q0 -110 -51 -160.5t-163 -50.5z" />
    <glyph glyph-name="approxequal" unicode="&#x2248;" 
d="M242 363h-159q0 105 43 162t129 57q41 0 85 -16t78 -32t50 -16q46 0 46 64h158q0 -219 -172 -219q-54 0 -126 32t-87 32q-45 0 -45 -64zM242 81h-159q0 105 43 162t129 57q41 0 85 -16t78 -32t50 -16q46 0 46 64h158q0 -219 -172 -219q-54 0 -126 32t-87 32
q-45 0 -45 -64z" />
    <glyph glyph-name="notequal" unicode="&#x2260;" 
d="M656 527v-141h-215l-51 -131h266v-142h-322l-60 -155l-68 25l50 130h-156v142h212l50 131h-262v141h317l64 165l69 -25l-54 -140h160z" />
    <glyph glyph-name="lessequal" unicode="&#x2264;" 
d="M99 510l556 148v-143l-434 -100l434 -100v-143l-556 148v190zM655 -15h-556v142h556v-142z" />
    <glyph glyph-name="greaterequal" unicode="&#x2265;" 
d="M99 515v143l556 -148v-190l-556 -148v143l434 100zM655 -15h-556v142h556v-142z" />
    <glyph glyph-name="uni2460" unicode="&#x2460;" horiz-adv-x="1098" 
d="M910 31q-141 -140 -361 -140t-361 140q-143 140 -143 351q0 212 143 352q142 139 361 139t361 -139q143 -140 143 -352q0 -211 -143 -351zM303 140q98 -95 246 -95q149 0 247 95q97 94 97 242t-97 242q-98 95 -247 95q-148 0 -246 -95t-98 -242t98 -242zM637 169h-126
v254h-112v94h20q48 0 70 16.5t22 52.5v10h126v-427z" />
    <glyph glyph-name="uni2461" unicode="&#x2461;" horiz-adv-x="1098" 
d="M910 31q-141 -140 -361 -140t-361 140q-143 140 -143 351q0 212 143 352q142 139 361 139t361 -139q143 -140 143 -352q0 -211 -143 -351zM303 140q98 -95 246 -95q149 0 247 95q97 94 97 242t-97 242q-98 95 -247 95q-148 0 -246 -95t-98 -242t98 -242zM750 183h-410
q0 158 137 202l89 29q57 18 57 55q0 46 -70 46q-71 0 -84 -54l-117 17q25 141 200 141q90 0 141 -37.5t51 -106.5q0 -107 -130 -140l-73 -19q-42 -10 -47 -30h256v-103z" />
    <glyph glyph-name="uni2462" unicode="&#x2462;" horiz-adv-x="1098" 
d="M910 31q-141 -140 -361 -140t-361 140q-143 140 -143 351q0 212 143 352q142 139 361 139t361 -139q143 -140 143 -352q0 -211 -143 -351zM303 140q98 -95 246 -95q149 0 247 95q97 94 97 242t-97 242q-98 95 -247 95q-148 0 -246 -95t-98 -242t98 -242zM542 154
q-173 0 -197 137l118 15q9 -30 28 -42.5t53 -12.5q74 0 74 47q0 42 -70 42h-55v94h51q66 0 66 39q0 43 -69 43q-32 0 -49.5 -11t-27.5 -37l-116 16q17 59 68.5 90.5t130.5 31.5q82 0 133 -33t51 -89q0 -61 -67 -89v-2q85 -27 85 -103q0 -64 -54.5 -100t-152.5 -36z" />
    <glyph glyph-name="uni2463" unicode="&#x2463;" horiz-adv-x="1098" 
d="M910 31q-141 -140 -361 -140t-361 140q-143 140 -143 351q0 212 143 352q142 139 361 139t361 -139q143 -140 143 -352q0 -211 -143 -351zM303 140q98 -95 246 -95q149 0 247 95q97 94 97 242t-97 242q-98 95 -247 95q-148 0 -246 -95t-98 -242t98 -242zM672 174h-123v96
l-232 -10v101l209 240h146v-251l73 11v-101l-73 10v-96zM436 357l113 -7v131h-2z" />
    <glyph glyph-name="uni2464" unicode="&#x2464;" horiz-adv-x="1098" 
d="M910 31q-141 -140 -361 -140t-361 140q-143 140 -143 351q0 212 143 352q142 139 361 139t361 -139q143 -140 143 -352q0 -211 -143 -351zM303 140q98 -95 246 -95q149 0 247 95q97 94 97 242t-97 242q-98 95 -247 95q-148 0 -246 -95t-98 -242t98 -242zM549 153
q-137 0 -195 85l114 53q22 -34 80 -34q37 0 59 14t22 38q0 49 -79 49q-45 0 -74 -19l-114 30l48 227h319v-95h-233l-15 -67l2 -1q41 16 97 16q83 0 127.5 -36.5t44.5 -102.5q0 -72 -53.5 -114.5t-149.5 -42.5z" />
    <glyph glyph-name="uni2465" unicode="&#x2465;" horiz-adv-x="1098" 
d="M910 31q-141 -140 -361 -140t-361 140q-143 140 -143 351q0 212 143 352q142 139 361 139t361 -139q143 -140 143 -352q0 -211 -143 -351zM303 140q98 -95 246 -95q149 0 247 95q97 94 97 242t-97 242q-98 95 -247 95q-148 0 -246 -95t-98 -242t98 -242zM555 156
q-103 0 -159 57t-56 163q0 103 53 168q52 64 167 64q121 0 182 -82l-107 -41q-29 30 -74 30q-46 0 -68 -23.5t-26 -76.5q43 30 115 30q81 0 125.5 -36t44.5 -100q0 -70 -52.5 -111.5t-144.5 -41.5zM554 248q35 0 55.5 16.5t20.5 44.5q0 27 -21 42.5t-54 15.5q-60 0 -86 -44
q11 -75 85 -75z" />
    <glyph glyph-name="uni2466" unicode="&#x2466;" horiz-adv-x="1098" 
d="M910 31q-141 -140 -361 -140t-361 140q-143 140 -143 351q0 212 143 352q142 139 361 139t361 -139q143 -140 143 -352q0 -211 -143 -351zM303 140q98 -95 246 -95q149 0 247 95q97 94 97 242t-97 242q-98 95 -247 95q-148 0 -246 -95t-98 -242t98 -242zM584 147h-126
q3 92 41.5 178.5t100.5 145.5h-237v103h383v-104q-83 -64 -121.5 -138.5t-40.5 -184.5z" />
    <glyph glyph-name="uni2467" unicode="&#x2467;" horiz-adv-x="1098" 
d="M910 31q-141 -140 -361 -140t-361 140q-143 140 -143 351q0 212 143 352q142 139 361 139t361 -139q143 -140 143 -352q0 -211 -143 -351zM303 140q98 -95 246 -95q149 0 247 95q97 94 97 242t-97 242q-98 95 -247 95q-148 0 -246 -95t-98 -242t98 -242zM549 157
q-97 0 -153 34.5t-56 98.5q0 39 22 66.5t62 37.5v2q-69 24 -69 93q0 57 51 88.5t143 31.5t143.5 -31.5t51.5 -88.5q0 -67 -69 -93v-2q39 -10 61.5 -37.5t22.5 -66.5q0 -64 -57 -98.5t-153 -34.5zM549 434q76 0 76 43q0 42 -76 42q-75 0 -75 -42q0 -43 75 -43zM485 260
q23 -14 64 -14t64 14t23 39q0 49 -87 49t-87 -49q0 -25 23 -39z" />
    <glyph glyph-name="uni2468" unicode="&#x2468;" horiz-adv-x="1098" 
d="M910 31q-141 -140 -361 -140t-361 140q-143 140 -143 351q0 212 143 352q142 139 361 139t361 -139q143 -140 143 -352q0 -211 -143 -351zM303 140q98 -95 246 -95q149 0 247 95q97 94 97 242t-97 242q-98 95 -247 95q-148 0 -246 -95t-98 -242t98 -242zM544 153
q-121 0 -182 82l107 41q29 -30 74 -30q46 0 68 23.5t26 76.5q-43 -30 -115 -30q-81 0 -125.5 36t-44.5 100q0 70 52.5 111.5t144.5 41.5q103 0 159 -57t56 -163q0 -103 -52 -167q-53 -65 -168 -65zM549 394q60 0 86 44q-11 75 -85 75q-35 0 -55.5 -16.5t-20.5 -44.5
q0 -27 21 -42.5t54 -15.5z" />
    <glyph glyph-name="uni24EA" unicode="&#x24ea;" horiz-adv-x="1098" 
d="M910 31q-141 -140 -361 -140t-361 140q-143 140 -143 351q0 212 143 352q142 139 361 139t361 -139q143 -140 143 -352q0 -211 -143 -351zM303 140q98 -95 246 -95q149 0 247 95q97 94 97 242t-97 242q-98 95 -247 95q-148 0 -246 -95t-98 -242t98 -242zM550 152
q-102 0 -157.5 59.5t-55.5 166.5q0 108 55.5 167t157.5 59q101 0 156 -59t55 -167t-55 -167t-156 -59zM550 260q83 0 83 118q0 117 -83 117q-84 0 -84 -117q0 -118 84 -118z" />
    <glyph glyph-name="uni24FF" unicode="&#x24ff;" horiz-adv-x="1098" 
d="M910 31q-141 -140 -361 -140t-361 140q-143 140 -143 351q0 212 143 352q142 139 361 139t361 -139q143 -140 143 -352q0 -211 -143 -351zM550 152q101 0 156 59t55 167t-55 167t-156 59q-102 0 -157.5 -59t-55.5 -167q0 -107 55.5 -166.5t157.5 -59.5zM550 260
q-84 0 -84 118q0 117 84 117q83 0 83 -117q0 -118 -83 -118z" />
    <glyph glyph-name="filledbox" unicode="&#x25a0;" horiz-adv-x="1028" 
d="M968 -88h-908v888h908v-888z" />
    <glyph glyph-name="uni25A1" unicode="&#x25a1;" horiz-adv-x="1028" 
d="M968 -88h-908v888h908v-888zM220 646v-580h588v580h-588z" />
    <glyph glyph-name="lozenge" unicode="&#x25ca;" horiz-adv-x="663" 
d="M223 712h216l194 -356l-194 -356h-216l-193 356zM189 356l142 -274l143 274l-143 273z" />
    <glyph glyph-name="circle" unicode="&#x25cb;" horiz-adv-x="1098" 
d="M910 31q-141 -140 -361 -140t-361 140q-143 140 -143 351q0 212 143 352q142 139 361 139t361 -139q143 -140 143 -352q0 -211 -143 -351zM303 140q98 -95 246 -95q149 0 247 95q97 94 97 242t-97 242q-98 95 -247 95q-148 0 -246 -95t-98 -242t98 -242z" />
    <glyph glyph-name="uni25CF" unicode="&#x25cf;" horiz-adv-x="1098" 
d="M910 31q-141 -140 -361 -140t-361 140q-143 140 -143 351q0 212 143 352q142 139 361 139t361 -139q143 -140 143 -352q0 -211 -143 -351z" />
    <glyph glyph-name="uni2776" unicode="&#x2776;" horiz-adv-x="1098" 
d="M910 31q-141 -140 -361 -140t-361 140q-143 140 -143 351q0 212 143 352q142 139 361 139t361 -139q143 -140 143 -352q0 -211 -143 -351zM506 423v-254h126v427h-126v-10q0 -36 -22 -52.5t-70 -16.5h-20v-94h112z" />
    <glyph glyph-name="uni2777" unicode="&#x2777;" horiz-adv-x="1098" 
d="M188 734q142 139 361 139t361 -139q143 -140 143 -352q0 -211 -143 -351q-141 -140 -361 -140t-361 140q-143 140 -143 351q0 212 143 352zM339 180h410v103h-256q5 20 47 30l73 19q130 33 130 140q0 69 -51 106.5t-141 37.5q-174 0 -200 -141l117 -17q14 54 84 54
t70 -46q0 -37 -57 -55l-89 -29q-137 -44 -137 -202z" />
    <glyph glyph-name="uni2778" unicode="&#x2778;" horiz-adv-x="1098" 
d="M910 31q-141 -140 -361 -140t-361 140q-143 140 -143 351q0 212 143 352q142 139 361 139t361 -139q143 -140 143 -352q0 -211 -143 -351zM546 155q98 0 152.5 36t54.5 100q0 76 -85 103v2q67 28 67 89q0 56 -51 89t-133 33q-79 0 -130.5 -31.5t-68.5 -90.5l116 -16
q10 26 27.5 37t49.5 11q69 0 69 -43q0 -39 -66 -39h-51v-94h55q70 0 70 -42q0 -47 -74 -47q-34 0 -53 12.5t-28 42.5l-118 -15q24 -137 197 -137z" />
    <glyph glyph-name="uni2779" unicode="&#x2779;" horiz-adv-x="1098" 
d="M910 31q-141 -140 -361 -140t-361 140q-143 140 -143 351q0 212 143 352q142 139 361 139t361 -139q143 -140 143 -352q0 -211 -143 -351zM544 269v-96h123v96l73 -10v101l-73 -11v251h-146l-209 -240v-101zM544 480v-131l-113 7l111 124h2z" />
    <glyph glyph-name="uni277A" unicode="&#x277a;" horiz-adv-x="1098" 
d="M188 734q142 139 361 139t361 -139q143 -140 143 -352q0 -211 -143 -351q-141 -140 -361 -140t-361 140q-143 140 -143 351q0 212 143 352zM545 150q96 0 149.5 42.5t53.5 114.5q0 66 -44.5 102.5t-127.5 36.5q-56 0 -97 -16l-2 1l15 67h233v95h-319l-48 -227l114 -30
q29 19 74 19q79 0 79 -49q0 -24 -22 -38t-59 -14q-58 0 -80 34l-114 -53q58 -85 195 -85z" />
    <glyph glyph-name="uni277B" unicode="&#x277b;" horiz-adv-x="1098" 
d="M910 31q-141 -140 -361 -140t-361 140q-143 140 -143 351q0 212 143 352q142 139 361 139t361 -139q143 -140 143 -352q0 -211 -143 -351zM552 157q92 0 144.5 41.5t52.5 111.5q0 64 -44.5 100t-125.5 36q-72 0 -115 -30q4 53 26 76.5t68 23.5t74 -30l107 41
q-61 82 -182 82q-115 0 -167 -64q-53 -65 -53 -168q0 -106 56 -163t159 -57zM551 249q-75 0 -85 75q26 44 86 44q33 0 54 -15.5t21 -42.5q0 -28 -20.5 -44.5t-55.5 -16.5z" />
    <glyph glyph-name="uni277C" unicode="&#x277c;" horiz-adv-x="1098" 
d="M910 31q-141 -140 -361 -140t-361 140q-143 140 -143 351q0 212 143 352q142 139 361 139t361 -139q143 -140 143 -352q0 -211 -143 -351zM447 147h126q2 110 40.5 184.5t121.5 138.5v104h-383v-103h237q-62 -59 -100.5 -145.5t-41.5 -178.5z" />
    <glyph glyph-name="uni277D" unicode="&#x277d;" horiz-adv-x="1098" 
d="M910 31q-141 -140 -361 -140t-361 140q-143 140 -143 351q0 212 143 352q142 139 361 139t361 -139q143 -140 143 -352q0 -211 -143 -351zM549 161q96 0 153 34.5t57 98.5q0 39 -22.5 66.5t-61.5 37.5v2q69 26 69 93q0 57 -51.5 88.5t-143.5 31.5t-143 -31.5t-51 -88.5
q0 -69 69 -93v-2q-40 -10 -62 -37.5t-22 -66.5q0 -64 56 -98.5t153 -34.5zM549 438q-75 0 -75 43q0 42 75 42q76 0 76 -42q0 -43 -76 -43zM613 264q-23 -14 -64 -14t-64 14t-23 39q0 49 87 49t87 -49q0 -25 -23 -39z" />
    <glyph glyph-name="uni277E" unicode="&#x277e;" horiz-adv-x="1098" 
d="M910 31q-141 -140 -361 -140t-361 140q-143 140 -143 351q0 212 143 352q142 139 361 139t361 -139q143 -140 143 -352q0 -211 -143 -351zM543 153q115 0 168 65q52 64 52 167q0 106 -56 163t-159 57q-92 0 -144.5 -41.5t-52.5 -111.5q0 -64 44.5 -100t125.5 -36
q71 0 115 30q-4 -53 -26 -76.5t-68 -23.5t-74 30l-107 -41q61 -82 182 -82zM548 394q-33 0 -54 15.5t-21 42.5q0 28 20.5 44.5t55.5 16.5q75 0 85 -75q-26 -44 -86 -44z" />
    <glyph glyph-name="uni2E18" unicode="&#x2e18;" horiz-adv-x="729" 
d="M273 516h202v-183h-202v183zM506 21h187q-5 -120 -82.5 -177t-234.5 -57q-163 0 -247 55t-84 159q0 119 121 167l32 13q62 25 86.5 45t31.5 50h116l23 -161v-114h-162v83q-29 -13 -40.5 -29t-11.5 -41q0 -40 30.5 -56.5t102.5 -16.5t100.5 17.5t31.5 62.5z" />
    <glyph glyph-name="uniF8FF" unicode="&#xf8ff;" horiz-adv-x="1136" 
d="M476 449v155q0 21 -10 31q-9 9 -25 9q-19 0 -30.5 -13.5t-11.5 -35.5v-146h-107v380h107v-132q30 35 81 35q47 0 72 -22q32 -27 32 -80v-181h-108zM957 829h107v-380h-107v380zM771 438q-72 0 -113.5 40.5t-41.5 107.5q0 66 42.5 107t111.5 41q74 0 113 -47t39 -112
q0 -12 -1 -15h-199q8 -47 50 -47q30 0 44 23l100 -6q-32 -92 -145 -92zM722 618h92q-8 41 -45 41q-38 0 -47 -41zM924 428q74 0 113 -47t39 -112q0 -12 -1 -15h-199q8 -47 50 -47q30 0 44 23l100 -6q-32 -92 -145 -92q-72 0 -113.5 40.5t-41.5 107.5q0 66 42.5 107t111.5 41
zM559 143l-97 275h113l22 -73q4 -13 25 -89q9 38 24 89l22 73h107l-92 -275h-124zM876 312h92q-8 41 -45 41q-38 0 -47 -41zM410 144h-107v70h107v-70zM210 192v-84l51 1v-64l-51 1v-102q0 -29 27 -29h24v-81h-63q-54 0 -75 20.5t-21 75.5v116l-42 -1v64l42 -1v84h108z
M601 44q-46 0 -46 -73t46 -73q35 0 38 46l107 -5q-7 -53 -46 -84.5t-100 -31.5q-72 0 -113.5 40.5t-41.5 107.5t41.5 107.5t113.5 40.5q62 0 101.5 -31.5t44.5 -82.5l-106 -5q-3 44 -39 44zM1056 19v-116q0 -43 15 -69h-106q-9 17 -10 32q-28 -43 -89 -43q-45 0 -72.5 23
t-27.5 62q0 68 86 82l96 15v19q0 25 -34 25q-33 0 -34 -31l-102 5q5 50 38 73t102 23q138 0 138 -100zM410 -166h-107v275h107v-275zM904 -109q48 0 48 47v12l-47 -8q-34 -6 -34 -27q0 -24 33 -24z" />
    <glyph glyph-name="uniFEFF" unicode="&#xfeff;" horiz-adv-x="0" 
 />
    <glyph glyph-name="null" horiz-adv-x="0" 
 />
    <glyph glyph-name="Adieresis.ss01" horiz-adv-x="786" 
d="M329 813q-27 -27 -69 -27t-69 27q-27 25 -27 69q0 42 27 68.5t69 26.5t69 -26.5t27 -68.5q0 -44 -27 -69zM605 813q-27 -27 -69 -27t-69 27q-27 25 -27 69q0 42 27 68.5t69 26.5t69 -26.5t27 -68.5q0 -44 -27 -69zM771 0h-235l-32 97h-223l-32 -97h-234l268 712h222z
M366 355l-35 -107h124l-35 107l-27 93z" />
    <glyph glyph-name="Cdotaccent.ss01" horiz-adv-x="772" 
d="M456 813q-27 -27 -69 -27t-69 27q-27 25 -27 69q0 42 27 68.5t69 26.5t69 -26.5t27 -68.5q0 -44 -27 -69zM400 -23q-157 0 -256 102t-99 274t99 274t256 102q139 0 231 -77q90 -76 107 -210h-221q-15 109 -115 109q-64 0 -98.5 -50t-34.5 -146q0 -200 133 -200
q103 0 115 122h223q-10 -138 -104 -219q-93 -81 -236 -81z" />
    <glyph glyph-name="Edieresis.ss01" horiz-adv-x="716" 
d="M292 813q-27 -27 -69 -27t-69 27q-27 25 -27 69q0 42 27 68.5t69 26.5t69 -26.5t27 -68.5q0 -44 -27 -69zM568 813q-27 -27 -69 -27t-69 27q-27 25 -27 69q0 42 27 68.5t69 26.5t69 -26.5t27 -68.5q0 -44 -27 -69zM284 271v-81h392v-190h-616v712h606v-185h-382v-81h327
v-175h-327z" />
    <glyph glyph-name="Edotaccent.ss01" horiz-adv-x="716" 
d="M430 813q-27 -27 -69 -27t-69 27q-27 25 -27 69q0 42 27 68.5t69 26.5t69 -26.5t27 -68.5q0 -44 -27 -69zM284 271v-81h392v-190h-616v712h606v-185h-382v-81h327v-175h-327z" />
    <glyph glyph-name="uni0122.ss01" horiz-adv-x="811" 
d="M448 392h303v-392h-149l-10 67q-30 -39 -85.5 -64.5t-126.5 -25.5q-145 0 -239 103q-96 104 -96 273q0 172 99 274t256 102q123 0 212 -62q88 -63 115 -171l-215 -15q-30 70 -110 70q-64 0 -98.5 -50t-34.5 -146q0 -104 36.5 -152t112.5 -48q97 0 122 82h-92v155z
M397 -75q66 0 100.5 -32t34.5 -92v-21q0 -138 -155 -138h-70v66h70q73 0 74 58q-15 -4 -47 -4q-117 0 -117 79q0 40 28.5 62t81.5 22z" />
    <glyph glyph-name="Gdotaccent.ss01" horiz-adv-x="811" 
d="M478 813q-27 -27 -69 -27t-69 27q-27 25 -27 69q0 42 27 68.5t69 26.5t69 -26.5t27 -68.5q0 -44 -27 -69zM448 392h303v-392h-149l-10 67q-30 -39 -85.5 -64.5t-126.5 -25.5q-145 0 -239 103q-96 104 -96 273q0 172 99 274t256 102q123 0 212 -62q88 -63 115 -171
l-215 -15q-30 70 -110 70q-64 0 -98.5 -50t-34.5 -146q0 -104 36.5 -152t112.5 -48q97 0 122 82h-92v155z" />
    <glyph glyph-name="Idieresis.ss01" horiz-adv-x="344" 
d="M103 813q-27 -27 -69 -27t-69 27q-27 25 -27 69q0 42 27 68.5t69 26.5t69 -26.5t27 -68.5q0 -44 -27 -69zM379 813q-27 -27 -69 -27t-69 27q-27 25 -27 69q0 42 27 68.5t69 26.5t69 -26.5t27 -68.5q0 -44 -27 -69zM284 0h-224v712h224v-712z" />
    <glyph glyph-name="Idotaccent.ss01" horiz-adv-x="344" 
d="M241 813q-27 -27 -69 -27t-69 27q-27 25 -27 69q0 42 27 68.5t69 26.5t69 -26.5t27 -68.5q0 -44 -27 -69zM284 0h-224v712h224v-712z" />
    <glyph glyph-name="uni0136.ss01" horiz-adv-x="792" 
d="M343 279l-59 -64v-215h-224v712h224v-225l204 225h276l-266 -284l294 -428h-277zM387 -75q66 0 100.5 -32t34.5 -92v-21q0 -138 -155 -138h-70v66h70q73 0 74 58q-15 -4 -47 -4q-117 0 -117 79q0 40 28.5 62t81.5 22z" />
    <glyph glyph-name="uni013B.ss01" horiz-adv-x="612" 
d="M284 712v-520h318v-192h-542v712h224zM309 -75q66 0 100.5 -32t34.5 -92v-21q0 -138 -155 -138h-70v66h70q73 0 74 58q-15 -4 -47 -4q-117 0 -117 79q0 40 28.5 62t81.5 22z" />
    <glyph glyph-name="Ldot.ss01" horiz-adv-x="612" 
d="M284 712v-520h318v-192h-542v712h224zM567 353q-35 -33 -87 -33t-87 33q-34 31 -34 83q0 51 34 84q35 32 87 32t87 -32q34 -33 34 -84q0 -52 -34 -83z" />
    <glyph glyph-name="uni0145.ss01" horiz-adv-x="781" 
d="M501 342v370h220v-712h-227l-214 366v-366h-220v712h222zM388 -75q66 0 100.5 -32t34.5 -92v-21q0 -138 -155 -138h-70v66h70q73 0 74 58q-15 -4 -47 -4q-117 0 -117 79q0 40 28.5 62t81.5 22z" />
    <glyph glyph-name="Odieresis.ss01" horiz-adv-x="820" 
d="M338 813q-27 -27 -69 -27t-69 27q-27 25 -27 69q0 42 27 68.5t69 26.5t69 -26.5t27 -68.5q0 -44 -27 -69zM614 813q-27 -27 -69 -27t-69 27q-27 25 -27 69q0 42 27 68.5t69 26.5t69 -26.5t27 -68.5q0 -44 -27 -69zM675 79q-101 -102 -265 -102t-264 102
q-101 103 -101 274t101 274q100 102 264 102t265 -102q100 -101 100 -274t-100 -274zM306 206q36 -51 104 -51t105 51q36 50 36 148q0 96 -36.5 146.5t-104.5 50.5t-104.5 -50.5t-36.5 -146.5q0 -99 37 -148z" />
    <glyph glyph-name="uni0156.ss01" horiz-adv-x="766" 
d="M699 170l17 -170h-222l-14 150q-9 99 -99 99h-97v-249h-224v712h415q104 0 170 -57q66 -59 66 -151q0 -126 -121 -174q96 -34 109 -160zM284 407h127q35 0 55.5 18.5t20.5 49.5q0 30 -20 48.5t-56 18.5h-127v-135zM356 -75q66 0 100.5 -32t34.5 -92v-21q0 -138 -155 -138
h-70v66h70q73 0 74 58q-15 -4 -47 -4q-117 0 -117 79q0 40 28.5 62t81.5 22z" />
    <glyph glyph-name="uni0218.ss01" horiz-adv-x="720" 
d="M331 477l150 -33q203 -45 203 -223q0 -116 -85.5 -180t-237.5 -64q-148 0 -231.5 66.5t-93.5 192.5h225q7 -81 109 -81q88 0 88 54q0 43 -63 56l-149 33q-192 42 -192 207q0 106 75 165t225 59q284 0 296 -221h-217q-9 55 -82 55q-74 0 -74 -42q0 -32 54 -44zM351 -77
q66 0 100.5 -32t34.5 -92v-21q0 -138 -155 -138h-70v66h70q73 0 74 58q-15 -4 -47 -4q-117 0 -117 79q0 40 28.5 62t81.5 22z" />
    <glyph glyph-name="uni021A.ss01" horiz-adv-x="675" 
d="M20 712h635v-192h-205v-520h-224v520h-206v192zM326 -75q66 0 100.5 -32t34.5 -92v-21q0 -138 -155 -138h-70v66h70q73 0 74 58q-15 -4 -47 -4q-117 0 -117 79q0 40 28.5 62t81.5 22z" />
    <glyph glyph-name="Udieresis.ss01" horiz-adv-x="786" 
d="M324 813q-27 -27 -69 -27t-69 27q-27 25 -27 69q0 42 27 68.5t69 26.5t69 -26.5t27 -68.5q0 -44 -27 -69zM600 813q-27 -27 -69 -27t-69 27q-27 25 -27 69q0 42 27 68.5t69 26.5t69 -26.5t27 -68.5q0 -44 -27 -69zM642 52q-86 -75 -249 -75q-164 0 -248 75
q-85 73 -85 217v443h224v-443q0 -114 109 -114t109 114v443h224v-443q0 -143 -84 -217z" />
    <glyph glyph-name="Wdieresis.ss01" horiz-adv-x="1035" 
d="M449 813q-27 -27 -69 -27t-69 27q-27 25 -27 69q0 42 27 68.5t69 26.5t69 -26.5t27 -68.5q0 -44 -27 -69zM725 813q-27 -27 -69 -27t-69 27q-27 25 -27 69q0 42 27 68.5t69 26.5t69 -26.5t27 -68.5q0 -44 -27 -69zM733 441l66 271h221l-206 -712h-216l-80 420l-75 -420
h-222l-206 712h220l67 -271l32 -184l29 183l55 272h198l60 -272l28 -179z" />
    <glyph glyph-name="Ydieresis.ss01" horiz-adv-x="768" 
d="M321 813q-27 -27 -69 -27t-69 27q-27 25 -27 69q0 42 27 68.5t69 26.5t69 -26.5t27 -68.5q0 -44 -27 -69zM597 813q-27 -27 -69 -27t-69 27q-27 25 -27 69q0 42 27 68.5t69 26.5t69 -26.5t27 -68.5q0 -44 -27 -69zM414 523l95 189h248l-261 -452v-260h-224v260l-261 452
h250l91 -189l31 -81z" />
    <glyph glyph-name="Zdotaccent.ss01" horiz-adv-x="715" 
d="M427 813q-27 -27 -69 -27t-69 27q-27 25 -27 69q0 42 27 68.5t69 26.5t69 -26.5t27 -68.5q0 -44 -27 -69zM651 553l-325 -361h347v-192h-631v184l310 336h-286v192h585v-159z" />
    <glyph glyph-name="G.ss03" horiz-adv-x="809" 
d="M413 401h348q3 -26 3 -53q0 -166 -96 -267t-255 -101q-165 0 -266 104q-102 104 -102 276q0 168 96 269q96 100 265 100q136 0 225 -66q87 -65 116 -173h-220q-31 60 -113 60q-147 0 -147 -195q0 -198 155 -198q104 0 131 89h-140v155z" />
    <glyph glyph-name="uni01F4.ss03" horiz-adv-x="809" 
d="M420 989h238l-172 -182h-183zM413 401h348q3 -26 3 -53q0 -166 -96 -267t-255 -101q-165 0 -266 104q-102 104 -102 276q0 168 96 269q96 100 265 100q136 0 225 -66q87 -65 116 -173h-220q-31 60 -113 60q-147 0 -147 -195q0 -198 155 -198q104 0 131 89h-140v155z" />
    <glyph glyph-name="Gbreve.ss03" horiz-adv-x="809" 
d="M571 841q-49 -42 -165 -42t-165 42t-49 141h118q0 -42 22.5 -60t73.5 -18t73.5 18t22.5 60h118q0 -99 -49 -141zM413 401h348q3 -26 3 -53q0 -166 -96 -267t-255 -101q-165 0 -266 104q-102 104 -102 276q0 168 96 269q96 100 265 100q136 0 225 -66q87 -65 116 -173
h-220q-31 60 -113 60q-147 0 -147 -195q0 -198 155 -198q104 0 131 89h-140v155z" />
    <glyph glyph-name="Gcircumflex.ss03" horiz-adv-x="809" 
d="M492 802l-86 96l-85 -96h-164l159 179h181l159 -179h-164zM413 401h348q3 -26 3 -53q0 -166 -96 -267t-255 -101q-165 0 -266 104q-102 104 -102 276q0 168 96 269q96 100 265 100q136 0 225 -66q87 -65 116 -173h-220q-31 60 -113 60q-147 0 -147 -195q0 -198 155 -198
q104 0 131 89h-140v155z" />
    <glyph glyph-name="uni0122.ss03" horiz-adv-x="809" 
d="M413 401h348q3 -26 3 -53q0 -166 -96 -267t-255 -101q-165 0 -266 104q-102 104 -102 276q0 168 96 269q96 100 265 100q136 0 225 -66q87 -65 116 -173h-220q-31 60 -113 60q-147 0 -147 -195q0 -198 155 -198q104 0 131 89h-140v155zM433 -201l-140 -13v129h225v-136
q0 -137 -145 -137h-80v77h72q68 0 68 60v20z" />
    <glyph glyph-name="Gdotaccent.ss03" horiz-adv-x="809" 
d="M309 959h195v-143h-195v143zM413 401h348q3 -26 3 -53q0 -166 -96 -267t-255 -101q-165 0 -266 104q-102 104 -102 276q0 168 96 269q96 100 265 100q136 0 225 -66q87 -65 116 -173h-220q-31 60 -113 60q-147 0 -147 -195q0 -198 155 -198q104 0 131 89h-140v155z" />
    <glyph glyph-name="uni0122.ss01.ss03" horiz-adv-x="809" 
d="M413 401h348q3 -26 3 -53q0 -166 -96 -267t-255 -101q-165 0 -266 104q-102 104 -102 276q0 168 96 269q96 100 265 100q136 0 225 -66q87 -65 116 -173h-220q-31 60 -113 60q-147 0 -147 -195q0 -198 155 -198q104 0 131 89h-140v155zM393 -75q66 0 100.5 -32t34.5 -92
v-21q0 -138 -155 -138h-70v66h70q73 0 74 58q-15 -4 -47 -4q-117 0 -117 79q0 40 28.5 62t81.5 22z" />
    <glyph glyph-name="Gdotaccent.ss01.ss03" horiz-adv-x="809" 
d="M475 813q-27 -27 -69 -27t-69 27q-27 25 -27 69q0 42 27 68.5t69 26.5t69 -26.5t27 -68.5q0 -44 -27 -69zM413 401h348q3 -26 3 -53q0 -166 -96 -267t-255 -101q-165 0 -266 104q-102 104 -102 276q0 168 96 269q96 100 265 100q136 0 225 -66q87 -65 116 -173h-220
q-31 60 -113 60q-147 0 -147 -195q0 -198 155 -198q104 0 131 89h-140v155z" />
    <glyph glyph-name="R.ss04" horiz-adv-x="718" 
d="M713 0h-244l-132 240h-53v-240h-224v712h342q126 0 199.5 -60.5t73.5 -167.5q0 -71 -33 -123t-94 -79zM379 542h-95v-136h95q33 0 53.5 18.5t20.5 49.5t-20.5 49.5t-53.5 18.5z" />
    <glyph glyph-name="Racute.ss04" horiz-adv-x="718" 
d="M371 989h238l-172 -182h-183zM713 0h-244l-132 240h-53v-240h-224v712h342q126 0 199.5 -60.5t73.5 -167.5q0 -71 -33 -123t-94 -79zM379 542h-95v-136h95q33 0 53.5 18.5t20.5 49.5t-20.5 49.5t-53.5 18.5z" />
    <glyph glyph-name="Rcaron.ss04" horiz-adv-x="718" 
d="M607 981l-159 -179h-181l-159 179h164l85 -96l86 96h164zM713 0h-244l-132 240h-53v-240h-224v712h342q126 0 199.5 -60.5t73.5 -167.5q0 -71 -33 -123t-94 -79zM379 542h-95v-136h95q33 0 53.5 18.5t20.5 49.5t-20.5 49.5t-53.5 18.5z" />
    <glyph glyph-name="uni0156.ss04" horiz-adv-x="718" 
d="M337 240h-53v-240h-224v712h342q126 0 199.5 -60.5t73.5 -167.5q0 -71 -33 -123t-94 -79l165 -282h-244zM379 542h-95v-136h95q33 0 53.5 18.5t20.5 49.5t-20.5 49.5t-53.5 18.5zM385 -201l-140 -13v129h225v-136q0 -137 -145 -137h-80v77h72q68 0 68 60v20z" />
    <glyph glyph-name="uni0156.ss01.ss04" horiz-adv-x="718" 
d="M337 240h-53v-240h-224v712h342q126 0 199.5 -60.5t73.5 -167.5q0 -71 -33 -123t-94 -79l165 -282h-244zM379 542h-95v-136h95q33 0 53.5 18.5t20.5 49.5t-20.5 49.5t-53.5 18.5zM345 -75q66 0 100.5 -32t34.5 -92v-21q0 -138 -155 -138h-70v66h70q73 0 74 58
q-15 -4 -47 -4q-117 0 -117 79q0 40 28.5 62t81.5 22z" />
    <glyph glyph-name="i.loclTRK" horiz-adv-x="302" 
d="M252 581h-202v131h202v-131zM252 0h-202v516h202v-516z" />
    <glyph glyph-name="adieresis.ss01" horiz-adv-x="642" 
d="M245 600q-25 -25 -62 -25t-61 25q-25 24 -25 61t24 61t62 24t62 -24t24 -61t-24 -61zM501 600q-25 -25 -62 -25t-61 25q-25 24 -25 61t24 61t62 24t62 -24t24 -61t-24 -61zM607 0h-200q-15 32 -19 61q-51 -81 -166 -81q-87 0 -138 42.5t-51 116.5q0 63 38.5 101t123.5 52
l181 28v37q0 46 -65 46q-31 0 -46 -13t-17 -43l-192 7q11 93 73 136.5t190 43.5q131 0 195 -44.5t64 -141.5v-218q0 -80 29 -130zM292 107q41 0 66 22t25 66v23l-88 -16q-64 -10 -64 -50q0 -45 61 -45z" />
    <glyph glyph-name="cdotaccent.ss01" horiz-adv-x="612" 
d="M386 602q-27 -27 -69 -27t-69 27q-27 26 -27 69q0 42 27 68.5t69 26.5t69 -26.5t27 -68.5q0 -43 -27 -69zM315 -20q-135 0 -212 76q-78 75 -78 201q0 125 78 202q78 75 212 75q115 0 191 -59q74 -59 83 -155l-199 -10q-4 84 -73 84q-86 0 -86 -137t86 -137q34 0 51 20.5
t21 66.5l199 -10q-12 -99 -85 -157q-73 -60 -188 -60z" />
    <glyph glyph-name="edieresis.ss01" horiz-adv-x="624" 
d="M246 600q-24 -25 -62 -25t-62 25q-24 24 -24 61t24 61t62 24t62 -24t24 -61t-24 -61zM502 600q-24 -25 -62 -25t-62 25q-24 24 -24 61t24 61t62 24t62 -24t24 -61t-24 -61zM599 237v-29h-377q13 -88 95 -88q58 0 81 44l189 -12q-28 -82 -98.5 -127t-173.5 -45
q-135 0 -212 76q-78 75 -78 201q0 124 80 201q79 76 208 76q92 0 159 -43t98 -111q29 -67 29 -143zM311 394q-70 0 -87 -77h171q-11 77 -84 77z" />
    <glyph glyph-name="edotaccent.ss01" horiz-adv-x="624" 
d="M381 602q-27 -27 -69 -27t-69 27q-27 26 -27 69q0 42 27 68.5t69 26.5t69 -26.5t27 -68.5q0 -43 -27 -69zM599 237v-29h-377q13 -88 95 -88q58 0 81 44l189 -12q-28 -82 -98.5 -127t-173.5 -45q-135 0 -212 76q-78 75 -78 201q0 124 80 201q79 76 208 76q92 0 159 -43
t98 -111q29 -67 29 -143zM311 394q-70 0 -87 -77h171q-11 77 -84 77z" />
    <glyph glyph-name="uni0123.ss01" horiz-adv-x="646" 
d="M336 577q-66 0 -100.5 32t-34.5 92v21q0 138 155 138h70v-66h-70q-73 0 -74 -58q15 4 47 4q117 0 117 -79q0 -40 -28.5 -62t-81.5 -22zM401 466l7 50h188v-482q0 -118 -77.5 -184t-218.5 -66q-221 0 -262 167l192 17q20 -44 79 -44q45 0 65 19t20 58v68q-55 -61 -147 -61
q-101 0 -161 71q-61 70 -61 193q0 124 62 194q62 68 156 68q93 0 158 -68zM309 164q40 0 63.5 30t23.5 81q0 50 -23.5 81t-63.5 31q-78 0 -78 -112q0 -111 78 -111z" />
    <glyph glyph-name="gdotaccent.ss01" horiz-adv-x="646" 
d="M392 602q-27 -27 -69 -27t-69 27q-27 26 -27 69q0 42 27 68.5t69 26.5t69 -26.5t27 -68.5q0 -43 -27 -69zM401 466l7 50h188v-482q0 -118 -77.5 -184t-218.5 -66q-221 0 -262 167l192 17q20 -44 79 -44q45 0 65 19t20 58v68q-55 -61 -147 -61q-101 0 -161 71
q-61 70 -61 193q0 124 62 194q62 68 156 68q93 0 158 -68zM309 164q40 0 63.5 30t23.5 81q0 50 -23.5 81t-63.5 31q-78 0 -78 -112q0 -111 78 -111z" />
    <glyph glyph-name="i.ss01" horiz-adv-x="302" 
d="M228 600q-30 -30 -77 -30t-77 30t-30 78q0 47 30 76.5t77 29.5t77 -29.5t30 -76.5q0 -48 -30 -78zM252 0h-202v516h202v-516z" />
    <glyph glyph-name="idieresis.ss01" horiz-adv-x="302" 
d="M85 600q-25 -25 -62 -25t-62 25q-24 24 -24 61t24 61t62 24t62 -24t24 -61t-24 -61zM341 600q-25 -25 -62 -25t-61 25q-25 24 -25 61t24 61t62 24t62 -24t24 -61t-24 -61zM252 0h-202v516h202v-516z" />
    <glyph glyph-name="i.loclTRK.ss01" horiz-adv-x="302" 
d="M228 600q-30 -30 -77 -30t-77 30t-30 78q0 47 30 76.5t77 29.5t77 -29.5t30 -76.5q0 -48 -30 -78zM252 0h-202v516h202v-516z" />
    <glyph glyph-name="ij.ss01" horiz-adv-x="604" 
d="M228 600q-30 -30 -77 -30t-77 30t-30 78q0 47 30 76.5t77 29.5t77 -29.5t30 -76.5q0 -48 -30 -78zM530 600q-30 -30 -77 -30t-77 30t-30 78q0 47 30 76.5t77 29.5t77 -29.5t30 -76.5q0 -48 -30 -78zM252 0h-202v516h202v-516zM332 -215h-68v143h35q53 0 53 57v531h202
v-531q0 -104 -54 -152t-168 -48z" />
    <glyph glyph-name="iogonek.ss01" horiz-adv-x="302" 
d="M220 602q-27 -27 -69 -27t-69 27q-27 26 -27 69q0 42 27 68.5t69 26.5t69 -26.5t27 -68.5q0 -43 -27 -69zM252 0l-66 -60q-26 -23 -26 -45q0 -41 58 -41h34v-89h-85q-78 0 -119.5 28t-41.5 79q0 58 50 97l40 31h-46v516h202v-516z" />
    <glyph glyph-name="j.ss01" horiz-adv-x="302" 
d="M228 600q-30 -30 -77 -30t-77 30t-30 78q0 47 30 76.5t77 29.5t77 -29.5t30 -76.5q0 -48 -30 -78zM30 -215h-68v143h35q53 0 53 57v531h202v-531q0 -104 -54 -152t-168 -48z" />
    <glyph glyph-name="uni0137.ss01" horiz-adv-x="651" 
d="M282 186l-30 -30v-156h-202v712h202v-344l123 148h239l-198 -206l215 -310h-240zM298 -75q66 0 100.5 -32t34.5 -92v-21q0 -138 -155 -138h-70v66h70q73 0 74 58q-15 -4 -47 -4q-117 0 -117 79q0 40 28.5 62t81.5 22z" />
    <glyph glyph-name="uni013C.ss01" horiz-adv-x="302" 
d="M50 712h202v-712h-202v712zM137 -75q66 0 100.5 -32t34.5 -92v-21q0 -138 -155 -138h-70v66h70q73 0 74 58q-15 -4 -47 -4q-117 0 -117 79q0 40 28.5 62t81.5 22z" />
    <glyph glyph-name="ldot.ss01" horiz-adv-x="563" 
d="M252 0h-202v712h202v-712zM516 272q-34 -33 -87 -33t-87 33q-34 31 -34 83q0 51 34 84q35 32 87 32t87 -32q34 -33 34 -84q0 -52 -34 -83z" />
    <glyph glyph-name="napostrophe.ss01" horiz-adv-x="980" 
d="M181 729q60 0 93 -38.5t33 -112.5v-79q0 -186 -186 -186h-34v98h30q87 0 87 77v9h-23q-57 0 -91.5 32.5t-34.5 83.5t34.5 83.5t91.5 32.5zM735 531q93 0 144 -50t51 -142v-339h-202v290q0 36 -17.5 56t-48.5 20q-35 0 -56.5 -25.5t-21.5 -66.5v-274h-202v516h185l7 -65
q56 80 161 80z" />
    <glyph glyph-name="uni0146.ss01" horiz-adv-x="648" 
d="M403 531q93 0 144 -50t51 -142v-339h-202v290q0 36 -17.5 56t-48.5 20q-35 0 -56.5 -25.5t-21.5 -66.5v-274h-202v516h185l7 -65q56 80 161 80zM312 -75q66 0 100.5 -32t34.5 -92v-21q0 -138 -155 -138h-70v66h70q73 0 74 58q-15 -4 -47 -4q-117 0 -117 79q0 40 28.5 62
t81.5 22z" />
    <glyph glyph-name="odieresis.ss01" horiz-adv-x="630" 
d="M249 600q-25 -25 -62 -25t-61 25q-25 24 -25 61t24 61t62 24t62 -24t24 -61t-24 -61zM505 600q-25 -25 -62 -25t-61 25q-25 24 -25 61t24 61t62 24t62 -24t24 -61t-24 -61zM526 56q-79 -76 -211 -76q-131 0 -210 76q-80 77 -80 201t80 201q79 76 210 76q132 0 211 -76
t79 -201t-79 -201zM252 153q20 -33 63 -33t64 33q20 32 20 104q0 71 -20 105q-21 32 -64 32t-63 -32q-21 -33 -21 -105q0 -73 21 -104z" />
    <glyph glyph-name="uni0157.ss01" horiz-adv-x="465" 
d="M387 534q26 0 53 -7v-174q-24 3 -46 3q-142 0 -142 -126v-230h-202v516h188l6 -72q46 90 143 90zM139 -75q66 0 100.5 -32t34.5 -92v-21q0 -138 -155 -138h-70v66h70q73 0 74 58q-15 -4 -47 -4q-117 0 -117 79q0 40 28.5 62t81.5 22z" />
    <glyph glyph-name="uni0219.ss01" horiz-adv-x="606" 
d="M286 334l77 -8q208 -22 208 -162q0 -90 -71 -137t-199 -47q-119 0 -187.5 48t-78.5 134h190q9 -61 84 -61q35 0 54.5 14t19.5 38q0 40 -57 46l-78 7q-202 18 -202 155q0 83 66.5 128t187.5 45q230 0 255 -163h-184q-9 51 -78 51q-66 0 -66 -43q0 -39 59 -45zM289 -75
q66 0 100.5 -32t34.5 -92v-21q0 -138 -155 -138h-70v66h70q73 0 74 58q-15 -4 -47 -4q-117 0 -117 79q0 40 28.5 62t81.5 22z" />
    <glyph glyph-name="uni021B.ss01" horiz-adv-x="431" 
d="M391 396l-95 2v-191q0 -56 50 -56h45v-151h-117q-102 0 -141 39t-39 141v218l-79 -2v120l79 -2v158h202v-158l95 2v-120zM193 -75q66 0 100.5 -32t34.5 -92v-21q0 -138 -155 -138h-70v66h70q73 0 74 58q-15 -4 -47 -4q-117 0 -117 79q0 40 28.5 62t81.5 22z" />
    <glyph glyph-name="udieresis.ss01" horiz-adv-x="648" 
d="M258 600q-24 -25 -62 -25t-62 25q-24 24 -24 61t24 61t62 24t62 -24t24 -61t-24 -61zM514 600q-24 -25 -62 -25t-62 25q-24 24 -24 61t24 61t62 24t62 -24t24 -61t-24 -61zM396 242v274h202v-516h-185l-7 65q-56 -80 -161 -80q-93 0 -144 50t-51 142v339h202v-290
q0 -36 17.5 -56t48.5 -20q35 0 56.5 25.5t21.5 66.5z" />
    <glyph glyph-name="wdieresis.ss01" horiz-adv-x="893" 
d="M380 600q-24 -25 -62 -25t-62 25q-24 24 -24 61t24 61t62 24t62 -24t24 -61t-24 -61zM636 600q-24 -25 -62 -25t-62 25q-24 24 -24 61t24 61t62 24t62 -24t24 -61t-24 -61zM633 293l63 223h192l-170 -516h-196l-67 249l-8 37l-9 -38l-67 -248h-196l-170 516h204l64 -225
l15 -69l14 68l54 226h177l58 -221l20 -89z" />
    <glyph glyph-name="ydieresis.ss01" horiz-adv-x="604" 
d="M236 600q-24 -25 -62 -25t-62 25q-24 24 -24 61t24 61t62 24t62 -24t24 -61t-24 -61zM492 600q-24 -25 -62 -25t-62 25q-24 24 -24 61t24 61t62 24t62 -24t24 -61t-24 -61zM302 204l86 312h211l-205 -588q-25 -71 -70.5 -101.5t-125.5 -30.5h-118v159h71q43 0 57 35l5 13
l-208 513h215l62 -206z" />
    <glyph glyph-name="zdotaccent.ss01" horiz-adv-x="551" 
d="M345 602q-27 -27 -69 -27t-69 27q-27 26 -27 69q0 42 27 68.5t69 26.5t69 -26.5t27 -68.5q0 -43 -27 -69zM509 373l-229 -218h246v-155h-501v147l225 214h-207v155h466v-143z" />
    <glyph glyph-name="a.ss02" horiz-adv-x="646" 
d="M401 463l7 53h188v-516h-188l-6 55q-56 -75 -155 -75q-101 0 -161 75q-61 73 -61 203t62 204q61 72 156 72q93 0 158 -71zM309 144q40 0 63.5 31.5t23.5 85.5q0 53 -23.5 85.5t-63.5 32.5q-78 0 -78 -118q0 -117 78 -117z" />
    <glyph glyph-name="aacute.ss02" horiz-adv-x="646" 
d="M337 793h238l-172 -182h-183zM401 463l7 53h188v-516h-188l-6 55q-56 -75 -155 -75q-101 0 -161 75q-61 73 -61 203t62 204q61 72 156 72q93 0 158 -71zM309 144q40 0 63.5 31.5t23.5 85.5q0 53 -23.5 85.5t-63.5 32.5q-78 0 -78 -118q0 -117 78 -117z" />
    <glyph glyph-name="abreve.ss02" horiz-adv-x="646" 
d="M488 645q-50 -42 -165 -42t-165 42q-49 42 -49 141h118q0 -42 22.5 -60t73.5 -18t73.5 18t22.5 60h118q0 -99 -49 -141zM401 463l7 53h188v-516h-188l-6 55q-56 -75 -155 -75q-101 0 -161 75q-61 73 -61 203t62 204q61 72 156 72q93 0 158 -71zM309 144q40 0 63.5 31.5
t23.5 85.5q0 53 -23.5 85.5t-63.5 32.5q-78 0 -78 -118q0 -117 78 -117z" />
    <glyph glyph-name="acircumflex.ss02" horiz-adv-x="646" 
d="M409 606l-86 96l-85 -96h-164l159 179h181l159 -179h-164zM401 463l7 53h188v-516h-188l-6 55q-56 -75 -155 -75q-101 0 -161 75q-61 73 -61 203t62 204q61 72 156 72q93 0 158 -71zM309 144q40 0 63.5 31.5t23.5 85.5q0 53 -23.5 85.5t-63.5 32.5q-78 0 -78 -118
q0 -117 78 -117z" />
    <glyph glyph-name="adieresis.ss02" horiz-adv-x="646" 
d="M76 712h195v-132h-195v132zM375 712h195v-132h-195v132zM401 463l7 53h188v-516h-188l-6 55q-56 -75 -155 -75q-101 0 -161 75q-61 73 -61 203t62 204q61 72 156 72q93 0 158 -71zM309 144q40 0 63.5 31.5t23.5 85.5q0 53 -23.5 85.5t-63.5 32.5q-78 0 -78 -118
q0 -117 78 -117z" />
    <glyph glyph-name="agrave.ss02" horiz-adv-x="646" 
d="M309 793l117 -182h-183l-172 182h238zM401 463l7 53h188v-516h-188l-6 55q-56 -75 -155 -75q-101 0 -161 75q-61 73 -61 203t62 204q61 72 156 72q93 0 158 -71zM309 144q40 0 63.5 31.5t23.5 85.5q0 53 -23.5 85.5t-63.5 32.5q-78 0 -78 -118q0 -117 78 -117z" />
    <glyph glyph-name="amacron.ss02" horiz-adv-x="646" 
d="M134 732h378v-118h-378v118zM401 463l7 53h188v-516h-188l-6 55q-56 -75 -155 -75q-101 0 -161 75q-61 73 -61 203t62 204q61 72 156 72q93 0 158 -71zM309 144q40 0 63.5 31.5t23.5 85.5q0 53 -23.5 85.5t-63.5 32.5q-78 0 -78 -118q0 -117 78 -117z" />
    <glyph glyph-name="aogonek.ss02" horiz-adv-x="646" 
d="M596 0l-66 -60q-26 -23 -26 -45q0 -41 58 -41h34v-89h-85q-78 0 -119.5 28t-41.5 79q0 58 50 97l55 43l-42 65q-55 -87 -166 -87q-101 0 -161 73q-61 73 -61 195q0 130 62 204q61 72 156 72q93 0 158 -71l7 53h188v-516zM309 149q40 0 63.5 31t23.5 81q0 53 -23.5 85.5
t-63.5 32.5q-78 0 -78 -118q0 -55 20.5 -83.5t57.5 -28.5z" />
    <glyph glyph-name="aring.ss02" horiz-adv-x="646" 
d="M431 624q-43 -43 -108 -43t-108 43q-43 42 -43 106q0 66 43 109q43 42 108 42t108 -42q43 -43 43 -109q0 -64 -43 -106zM368 777q-27 28 -69 12t-38 -59q0 -28 17.5 -45.5t44.5 -17.5t44.5 17.5t17.5 45.5t-17 47zM401 463l7 53h188v-516h-188l-6 55q-56 -75 -155 -75
q-101 0 -161 75q-61 73 -61 203t62 204q61 72 156 72q93 0 158 -71zM309 144q40 0 63.5 31.5t23.5 85.5q0 53 -23.5 85.5t-63.5 32.5q-78 0 -78 -118q0 -117 78 -117z" />
    <glyph glyph-name="aringacute.ss02" horiz-adv-x="646" 
d="M337 1097h238l-172 -182h-183zM431 617q-43 -43 -108 -43t-108 43q-43 42 -43 106q0 66 43 109q43 42 108 42t108 -42q43 -43 43 -109q0 -64 -43 -106zM368 770q-27 28 -69 12t-38 -59q0 -28 17.5 -45.5t44.5 -17.5t44.5 17.5t17.5 45.5t-17 47zM401 463l7 53h188v-516
h-188l-6 55q-56 -75 -155 -75q-101 0 -161 75q-61 73 -61 203t62 204q61 72 156 72q93 0 158 -71zM309 144q40 0 63.5 31.5t23.5 85.5q0 53 -23.5 85.5t-63.5 32.5q-78 0 -78 -118q0 -117 78 -117z" />
    <glyph glyph-name="atilde.ss02" horiz-adv-x="646" 
d="M247 665q-41 0 -41 -64h-126q0 92 36 144t106 52q37 1 73 -18t62 -37.5t39 -17.5q41 0 41 64h126q0 -91 -37 -143.5t-107 -52.5q-33 0 -61 11.5t-44 25t-34 25t-33 11.5zM401 463l7 53h188v-516h-188l-6 55q-56 -75 -155 -75q-101 0 -161 75q-61 73 -61 203t62 204
q61 72 156 72q93 0 158 -71zM309 144q40 0 63.5 31.5t23.5 85.5q0 53 -23.5 85.5t-63.5 32.5q-78 0 -78 -118q0 -117 78 -117z" />
    <glyph glyph-name="adieresis.ss01.ss02" horiz-adv-x="646" 
d="M257 600q-25 -25 -62 -25t-61 25q-25 24 -25 61t24 61t62 24t62 -24t24 -61t-24 -61zM513 600q-25 -25 -62 -25t-61 25q-25 24 -25 61t24 61t62 24t62 -24t24 -61t-24 -61zM401 463l7 53h188v-516h-188l-6 55q-56 -75 -155 -75q-101 0 -161 75q-61 73 -61 203t62 204
q61 72 156 72q93 0 158 -71zM309 144q40 0 63.5 31.5t23.5 85.5q0 53 -23.5 85.5t-63.5 32.5q-78 0 -78 -118q0 -117 78 -117z" />
    <glyph glyph-name="uni021B.ss01.ss05" horiz-adv-x="406" 
d="M304 672v-158l87 2v-120l-87 2v-398h-202v398l-87 -2v120l87 -2v158h202zM191 -75q66 0 100.5 -32t34.5 -92v-21q0 -138 -155 -138h-70v66h70q73 0 74 58q-15 -4 -47 -4q-117 0 -117 79q0 40 28.5 62t81.5 22z" />
    <glyph glyph-name="udieresis.ss01.ss05" horiz-adv-x="648" 
d="M258 600q-24 -25 -62 -25t-62 25q-24 24 -24 61t24 61t62 24t62 -24t24 -61t-24 -61zM514 600q-24 -25 -62 -25t-62 25q-24 24 -24 61t24 61t62 24t62 -24t24 -61t-24 -61zM396 242v274h202v-516h-185l-7 65q-56 -80 -161 -80q-93 0 -144 50t-51 142v339h202v-290
q0 -36 17.5 -56t48.5 -20q35 0 56.5 25.5t21.5 66.5z" />
    <glyph glyph-name="t.ss05" horiz-adv-x="406" 
d="M304 514l87 2v-120l-87 2v-398h-202v398l-87 -2v120l87 -2v158h202v-158z" />
    <glyph glyph-name="tbar.ss05" horiz-adv-x="406" 
d="M304 316l88 2v-120l-88 2v-200h-202v200l-86 -2v120l86 -2v82l-87 -2v120l87 -2v158h202v-158l87 2v-120l-87 2v-82z" />
    <glyph glyph-name="tcaron.ss05" horiz-adv-x="540" 
d="M362 594l33 260h196l-90 -260h-139zM102 672h202v-158l87 2v-120l-87 2v-398h-202v398l-87 -2v120l87 -2v158z" />
    <glyph glyph-name="uni0163.ss05" horiz-adv-x="406" 
d="M304 398v-398h-50l-60 -62h21q125 0 125 -89q0 -108 -191 -108h-38v70h12q74 0 74 34q0 30 -43 30h-18l-40 49l67 76h-61v398l-87 -2v120l87 -2v158h202v-158l87 2v-120z" />
    <glyph glyph-name="uni021B.ss05" horiz-adv-x="406" 
d="M304 672v-158l87 2v-120l-87 2v-398h-202v398l-87 -2v120l87 -2v158h202zM231 -201l-140 -13v129h225v-136q0 -137 -145 -137h-80v77h72q68 0 68 60v20z" />
    <glyph glyph-name="udieresis.ss01.ss06" horiz-adv-x="648" 
d="M258 600q-24 -25 -62 -25t-62 25q-24 24 -24 61t24 61t62 24t62 -24t24 -61t-24 -61zM514 600q-24 -25 -62 -25t-62 25q-24 24 -24 61t24 61t62 24t62 -24t24 -61t-24 -61zM598 516v-319q0 -212 -274 -212t-274 212v319h202v-315q0 -76 72 -76t72 76v315h202z" />
    <glyph glyph-name="u.ss06" horiz-adv-x="648" 
d="M598 516v-319q0 -212 -274 -212t-274 212v319h202v-315q0 -76 72 -76t72 76v315h202z" />
    <glyph glyph-name="uacute.ss06" horiz-adv-x="648" 
d="M404 611h-183l117 182h238zM598 516v-319q0 -212 -274 -212t-274 212v319h202v-315q0 -76 72 -76t72 76v315h202z" />
    <glyph glyph-name="ubreve.ss06" horiz-adv-x="648" 
d="M489 645q-49 -42 -165 -42t-165 42t-49 141h118q0 -42 22.5 -60t73.5 -18t73.5 18t22.5 60h118q0 -99 -49 -141zM598 516v-319q0 -212 -274 -212t-274 212v319h202v-315q0 -76 72 -76t72 76v315h202z" />
    <glyph glyph-name="ucircumflex.ss06" horiz-adv-x="648" 
d="M239 606h-164l159 179h181l159 -179h-164l-86 96zM598 516v-319q0 -212 -274 -212t-274 212v319h202v-315q0 -76 72 -76t72 76v315h202z" />
    <glyph glyph-name="udieresis.ss06" horiz-adv-x="648" 
d="M272 580h-195v132h195v-132zM571 580h-195v132h195v-132zM598 516v-319q0 -212 -274 -212t-274 212v319h202v-315q0 -76 72 -76t72 76v315h202z" />
    <glyph glyph-name="ugrave.ss06" horiz-adv-x="648" 
d="M427 611h-183l-172 182h238zM598 516v-319q0 -212 -274 -212t-274 212v319h202v-315q0 -76 72 -76t72 76v315h202z" />
    <glyph glyph-name="uhungarumlaut.ss06" horiz-adv-x="648" 
d="M236 600h-173l101 190h215zM535 600h-172l110 190h214zM598 516v-319q0 -212 -274 -212t-274 212v319h202v-315q0 -76 72 -76t72 76v315h202z" />
    <glyph glyph-name="umacron.ss06" horiz-adv-x="648" 
d="M513 614h-378v118h378v-118zM598 516v-319q0 -212 -274 -212t-274 212v319h202v-315q0 -76 72 -76t72 76v315h202z" />
    <glyph glyph-name="uogonek.ss06" horiz-adv-x="648" 
d="M396 201v315h202v-319q0 -151 -136 -194l-105 -48q-36 -17 -36 -48q0 -47 58 -47h34v-89h-85q-78 0 -119.5 30.5t-41.5 84.5q0 69 70 105q-187 30 -187 206v319h202v-315q0 -76 72 -76t72 76z" />
    <glyph glyph-name="uring.ss06" horiz-adv-x="648" 
d="M432 624q-43 -43 -108 -43t-108 43q-43 42 -43 106q0 66 43 109q44 42 108 42t108 -42q43 -43 43 -109q0 -64 -43 -106zM280 685q26 -29 68 -13t38 58q0 29 -17.5 46.5t-44.5 17.5t-44.5 -17.5t-17.5 -46.5q0 -28 18 -45zM598 516v-319q0 -212 -274 -212t-274 212v319
h202v-315q0 -76 72 -76t72 76v315h202z" />
    <glyph glyph-name="utilde.ss06" horiz-adv-x="648" 
d="M207 601h-126q0 92 36 144t106 52q37 1 73 -18t62 -37.5t39 -17.5q41 0 41 64h126q0 -91 -37 -143.5t-107 -52.5q-33 0 -61 11.5t-44 25t-34 25t-33 11.5q-41 0 -41 -64zM598 516v-319q0 -212 -274 -212t-274 212v319h202v-315q0 -76 72 -76t72 76v315h202z" />
    <glyph glyph-name="ydieresis.ss01.ss07" horiz-adv-x="604" 
d="M236 600q-24 -25 -62 -25t-62 25q-24 24 -24 61t24 61t62 24t62 -24t24 -61t-24 -61zM492 600q-24 -25 -62 -25t-62 25q-24 24 -24 61t24 61t62 24t62 -24t24 -61t-24 -61zM307 221l81 295h211l-251 -720h-197l67 194l-213 526h215l62 -206q23 -79 25 -89z" />
    <glyph glyph-name="y.ss07" horiz-adv-x="604" 
d="M307 221l81 295h211l-251 -720h-197l67 194l-213 526h215l62 -206q23 -79 25 -89z" />
    <glyph glyph-name="yacute.ss07" horiz-adv-x="604" 
d="M316 793h238l-172 -182h-183zM307 221l81 295h211l-251 -720h-197l67 194l-213 526h215l62 -206q23 -79 25 -89z" />
    <glyph glyph-name="ycircumflex.ss07" horiz-adv-x="604" 
d="M388 606l-86 96l-85 -96h-164l159 179h181l159 -179h-164zM307 221l81 295h211l-251 -720h-197l67 194l-213 526h215l62 -206q23 -79 25 -89z" />
    <glyph glyph-name="ydieresis.ss07" horiz-adv-x="604" 
d="M55 712h195v-132h-195v132zM354 712h195v-132h-195v132zM307 221l81 295h211l-251 -720h-197l67 194l-213 526h215l62 -206q23 -79 25 -89z" />
    <glyph glyph-name="ygrave.ss07" horiz-adv-x="604" 
d="M288 793l117 -182h-183l-172 182h238zM307 221l81 295h211l-251 -720h-197l67 194l-213 526h215l62 -206q23 -79 25 -89z" />
    <glyph glyph-name="l.ss08" horiz-adv-x="357" 
d="M337 0h-107q-102 0 -141 39t-39 141v532h202v-505q0 -56 50 -56h35v-151z" />
    <glyph glyph-name="lacute.ss08" horiz-adv-x="357" 
d="M229 807h-183l117 182h238zM337 0h-107q-102 0 -141 39t-39 141v532h202v-505q0 -56 50 -56h35v-151z" />
    <glyph glyph-name="lcaron.ss08" horiz-adv-x="547" 
d="M337 0h-107q-102 0 -141 39t-39 141v532h202v-505q0 -56 50 -56h35v-151zM457 452h-139l33 260h196z" />
    <glyph glyph-name="uni013C.ss08" horiz-adv-x="357" 
d="M302 151h35v-151h-107q-102 0 -141 39t-39 141v532h202v-505q0 -56 50 -56zM177 -201l-140 -13v129h225v-136q0 -137 -145 -137h-80v77h72q68 0 68 60v20z" />
    <glyph glyph-name="ldot.ss08" horiz-adv-x="521" 
d="M337 0h-107q-102 0 -141 39t-39 141v532h202v-505q0 -56 50 -56h35v-151zM508 258h-199v194h199v-194z" />
    <glyph glyph-name="lslash.ss08" horiz-adv-x="436" 
d="M405 534v-158l-89 -31v-138q0 -56 50 -56h35v-151h-107q-102 0 -141 39t-39 141v76l-89 -45v158l89 33v310h202v-221z" />
    <glyph glyph-name="uni013C.ss01.ss08" horiz-adv-x="357" 
d="M302 151h35v-151h-107q-102 0 -141 39t-39 141v532h202v-505q0 -56 50 -56zM137 -75q66 0 100.5 -32t34.5 -92v-21q0 -138 -155 -138h-70v66h70q73 0 74 58q-15 -4 -47 -4q-117 0 -117 79q0 40 28.5 62t81.5 22z" />
    <glyph glyph-name="ldot.ss01.ss08" horiz-adv-x="563" 
d="M337 0h-107q-102 0 -141 39t-39 141v532h202v-505q0 -56 50 -56h35v-151zM516 272q-34 -33 -87 -33t-87 33q-34 31 -34 83q0 51 34 84q35 32 87 32t87 -32q34 -33 34 -84q0 -52 -34 -83z" />
    <glyph glyph-name="fi.ss01" horiz-adv-x="725" 
d="M652 600q-30 -30 -78 -30t-77 30q-30 30 -30 78q0 47 30 76.5t77 29.5t77 -29.5t30 -76.5t-29 -78zM97 514v22q0 79 44 128q43 48 162 48h100v-131h-56q-27 0 -37.5 -10t-10.5 -34v-23l104 2v-124l-104 2v-394h-202v394l-82 -2v124zM675 0h-202v516h202v-516z" />
    <glyph glyph-name="fl.ss08" horiz-adv-x="780" 
d="M97 514v22q0 79 44 128q43 48 162 48h100v-131h-56q-27 0 -37.5 -10t-10.5 -34v-23l104 2v-124l-104 2v-394h-202v394l-82 -2v124zM725 151h35v-151h-107q-102 0 -141 39t-39 141v532h202v-505q0 -56 50 -56z" />
    <glyph glyph-name="ordfeminine.ss02" horiz-adv-x="543" 
d="M340 676l6 36h147v-374h-147l-7 47q-40 -61 -127 -61q-86 0 -136.5 53.5t-50.5 147.5q0 96 51 148t138 52q86 0 126 -49zM259 455q77 0 77 72q0 73 -78 73q-35 0 -52.5 -16.5t-17.5 -55.5t17.5 -56t53.5 -17z" />
    <glyph glyph-name="t.sups.ss05" horiz-adv-x="371" 
d="M266 710l90 2v-100l-90 2v-276h-161v276l-90 -2v100l90 -2v116h161v-116z" />
    <glyph glyph-name="zero.ss09" horiz-adv-x="1028" 
d="M968 -88h-908v888h908v-888zM515 139q101 0 156 59t55 167t-55 167t-156 59q-102 0 -157.5 -59t-55.5 -167q0 -107 55.5 -166.5t157.5 -59.5zM515 247q-84 0 -84 118q0 117 84 117q83 0 83 -117q0 -118 -83 -118z" />
    <glyph glyph-name="one.ss09" horiz-adv-x="1028" 
d="M968 -88h-908v888h908v-888zM468 409v-254h126v427h-126v-10q0 -36 -22 -52.5t-70 -16.5h-20v-94h112z" />
    <glyph glyph-name="two.ss09" horiz-adv-x="1028" 
d="M60 -88v888h908v-888h-908zM304 155h410v103h-256q5 20 47 30l73 19q130 33 130 140q0 69 -51 106.5t-141 37.5q-174 0 -200 -141l117 -17q13 54 84 54q70 0 70 -46q0 -37 -57 -55l-89 -29q-137 -44 -137 -202z" />
    <glyph glyph-name="three.ss09" horiz-adv-x="1028" 
d="M968 -88h-908v888h908v-888zM500 139q98 0 152.5 36t54.5 100q0 76 -85 103v2q67 28 67 89q0 56 -51 89t-133 33q-79 0 -130.5 -31.5t-68.5 -90.5l116 -16q10 26 27.5 37t49.5 11q69 0 69 -43q0 -39 -66 -39h-51v-94h55q70 0 70 -42q0 -47 -74 -47q-34 0 -53 12.5
t-28 42.5l-118 -15q24 -137 197 -137z" />
    <glyph glyph-name="four.ss09" horiz-adv-x="1028" 
d="M968 -88h-908v888h908v-888zM522 251v-96h123v96l73 -10v101l-73 -11v251h-146l-209 -240v-101zM522 331l-113 7l111 124h2v-131z" />
    <glyph glyph-name="five.ss09" horiz-adv-x="1028" 
d="M60 -88v888h908v-888h-908zM505 138q96 0 149.5 42.5t53.5 114.5q0 66 -44.5 102.5t-127.5 36.5q-56 0 -97 -16l-2 1l15 67h233v95h-319l-48 -227l114 -30q29 19 74 19q79 0 79 -49q0 -24 -22 -38t-59 -14q-58 0 -80 34l-114 -53q58 -85 195 -85z" />
    <glyph glyph-name="six.ss09" horiz-adv-x="1028" 
d="M968 -88h-908v888h908v-888zM523 139q92 0 144.5 41.5t52.5 111.5q0 64 -44.5 100t-125.5 36q-72 0 -115 -30q4 53 26 76.5t68 23.5q45 0 74 -30l107 41q-61 82 -182 82q-115 0 -167 -64q-53 -65 -53 -168q0 -106 56 -163t159 -57zM522 231q-74 0 -85 75q26 44 86 44
q33 0 54 -15.5t21 -42.5q0 -28 -20.5 -44.5t-55.5 -16.5z" />
    <glyph glyph-name="seven.ss09" horiz-adv-x="1028" 
d="M968 -88h-908v888h908v-888zM413 145h126q2 110 40.5 184.5t121.5 138.5v104h-383v-103h237q-62 -59 -100.5 -145.5t-41.5 -178.5z" />
    <glyph glyph-name="eight.ss09" horiz-adv-x="1028" 
d="M968 -88h-908v888h908v-888zM514 139q96 0 153 34.5t57 98.5q0 39 -22.5 66.5t-61.5 37.5v2q69 26 69 93q0 57 -51.5 88.5t-143.5 31.5t-143 -31.5t-51 -88.5q0 -69 69 -93v-2q-40 -10 -62 -37.5t-22 -66.5q0 -64 56 -98.5t153 -34.5zM514 416q-75 0 -75 43q0 42 75 42
q76 0 76 -42q0 -43 -76 -43zM578 242q-23 -14 -64 -14t-64 14t-23 39q0 49 87 49t87 -49q0 -25 -23 -39z" />
    <glyph glyph-name="nine.ss09" horiz-adv-x="1028" 
d="M968 -88h-908v888h908v-888zM505 139q115 0 168 65q52 64 52 167q0 106 -56 163t-159 57q-92 0 -144.5 -41.5t-52.5 -111.5q0 -64 44.5 -100t125.5 -36q71 0 115 30q-4 -53 -26 -76.5t-68 -23.5t-74 30l-107 -41q61 -82 182 -82zM510 380q-33 0 -54 15.5t-21 42.5
q0 28 20.5 44.5t55.5 16.5q75 0 85 -75q-26 -44 -86 -44z" />
    <glyph glyph-name="zero.ss10" horiz-adv-x="1028" 
d="M968 -88h-908v888h908v-888zM220 646v-580h588v580h-588zM515 129q-102 0 -157.5 59.5t-55.5 166.5q0 108 55.5 167t157.5 59q101 0 156 -59t55 -167t-55 -167t-156 -59zM515 237q83 0 83 118q0 117 -83 117q-84 0 -84 -117q0 -118 84 -118z" />
    <glyph glyph-name="one.ss10" horiz-adv-x="1028" 
d="M968 -88h-908v888h908v-888zM220 646v-580h588v580h-588zM596 145h-126v254h-112v94h20q48 0 70 16.5t22 52.5v10h126v-427z" />
    <glyph glyph-name="two.ss10" horiz-adv-x="1028" 
d="M968 -88h-908v888h908v-888zM220 646v-580h588v580h-588zM716 145h-410q0 158 137 202l89 29q57 18 57 55q0 46 -70 46q-71 0 -84 -54l-117 17q26 141 200 141q90 0 141 -37.5t51 -106.5q0 -107 -130 -140l-73 -19q-42 -10 -47 -30h256v-103z" />
    <glyph glyph-name="three.ss10" horiz-adv-x="1028" 
d="M968 -88h-908v888h908v-888zM220 646v-580h588v580h-588zM509 129q-173 0 -197 137l118 15q16 -55 81 -55q74 0 74 47q0 42 -70 42h-55v94h51q66 0 66 39q0 43 -69 43q-32 0 -49.5 -11t-27.5 -37l-116 16q17 59 68.5 90.5t130.5 31.5q82 0 133 -33t51 -89q0 -61 -67 -89
v-2q85 -27 85 -103q0 -64 -54.5 -100t-152.5 -36z" />
    <glyph glyph-name="four.ss10" horiz-adv-x="1028" 
d="M968 -88h-908v888h908v-888zM220 646v-580h588v580h-588zM654 145h-123v96l-232 -10v101l209 240h146v-251l73 11v-101l-73 10v-96zM529 452l-111 -124l113 -7v131h-2z" />
    <glyph glyph-name="five.ss10" horiz-adv-x="1028" 
d="M968 -88h-908v888h908v-888zM220 646v-580h588v580h-588zM505 129q-137 0 -195 85l114 53q22 -34 80 -34q37 0 59 14t22 38q0 49 -79 49q-45 0 -74 -19l-114 30l48 227h319v-95h-233l-15 -67l2 -1q41 16 97 16q83 0 127.5 -36.5t44.5 -102.5q0 -72 -53.5 -114.5
t-149.5 -42.5z" />
    <glyph glyph-name="six.ss10" horiz-adv-x="1028" 
d="M968 -88h-908v888h908v-888zM220 646v-580h588v580h-588zM523 129q-103 0 -159 57t-56 163q0 103 53 168q52 64 167 64q121 0 182 -82l-107 -41q-29 30 -74 30q-46 0 -68 -23.5t-26 -76.5q43 30 115 30q81 0 125.5 -36t44.5 -100q0 -70 -52.5 -111.5t-144.5 -41.5z
M522 221q35 0 55.5 16.5t20.5 44.5q0 27 -21 42.5t-54 15.5q-60 0 -86 -44q11 -75 85 -75z" />
    <glyph glyph-name="seven.ss10" horiz-adv-x="1028" 
d="M968 -88h-908v888h908v-888zM220 646v-580h588v580h-588zM546 139h-126q3 92 41.5 178.5t100.5 145.5h-237v103h383v-104q-83 -64 -121.5 -138.5t-40.5 -184.5z" />
    <glyph glyph-name="eight.ss10" horiz-adv-x="1028" 
d="M968 -88h-908v888h908v-888zM220 646v-580h588v580h-588zM514 134q-97 0 -153 34.5t-56 98.5q0 39 22 66.5t62 37.5v2q-69 24 -69 93q0 57 51 88.5t143 31.5t143.5 -31.5t51.5 -88.5q0 -68 -69 -93v-2q39 -10 61.5 -37.5t22.5 -66.5q0 -64 -57 -98.5t-153 -34.5zM514 411
q76 0 76 43q0 42 -76 42q-75 0 -75 -42q0 -43 75 -43zM450 237q23 -14 64 -14t64 14t23 39q0 49 -87 49t-87 -49q0 -25 23 -39z" />
    <glyph glyph-name="nine.ss10" horiz-adv-x="1028" 
d="M968 -88h-908v888h908v-888zM220 646v-580h588v580h-588zM497 132q-121 0 -182 82l107 41q28 -30 74 -30t68 23.5t26 76.5q-44 -30 -115 -30q-81 0 -125.5 36t-44.5 100q0 70 52.5 111.5t144.5 41.5q103 0 159 -57t56 -163q0 -103 -52 -167q-53 -65 -168 -65zM502 373
q60 0 86 44q-10 75 -85 75q-35 0 -55.5 -16.5t-20.5 -44.5q0 -27 21 -42.5t54 -15.5z" />
    <glyph glyph-name="zero.zero" 
d="M379 728q144 0 235 -103t91 -269t-91 -269t-235 -103q-146 0 -237 103q-92 104 -92 269t92 269q91 103 237 103zM379 564q-63 0 -92.5 -50t-29.5 -158q0 -94 22 -142l146 341q-19 9 -46 9zM379 148q119 0 119 208q0 94 -23 146l-147 -343q25 -11 51 -11z" />
    <glyph glyph-name="zero.dnom" horiz-adv-x="514" 
d="M258 -16q-102 0 -157.5 59.5t-55.5 166.5q0 108 55.5 167t157.5 59q101 0 156 -59t55 -167t-55 -167t-156 -59zM258 92q83 0 83 118q0 117 -83 117q-84 0 -84 -117q0 -118 84 -118z" />
    <glyph glyph-name="one.dnom" horiz-adv-x="313" 
d="M263 0h-126v254h-112v94h20q48 0 70 16.5t22 52.5v10h126v-427z" />
    <glyph glyph-name="two.dnom" horiz-adv-x="510" 
d="M460 0h-410q0 158 137 202l89 29q57 18 57 55q0 46 -70 46q-71 0 -84 -54l-117 17q26 141 200 141q90 0 141 -37.5t51 -106.5q0 -107 -130 -140l-73 -19q-42 -10 -47 -30h256v-103z" />
    <glyph glyph-name="three.dnom" horiz-adv-x="504" 
d="M247 -16q-173 0 -197 137l118 15q16 -55 81 -55q74 0 74 47q0 42 -70 42h-55v94h51q66 0 66 39q0 43 -69 43q-32 0 -49.5 -11t-27.5 -37l-116 16q17 59 68.5 90.5t130.5 31.5q82 0 133 -33t51 -89q0 -61 -67 -89v-2q85 -27 85 -103q0 -64 -54.5 -100t-152.5 -36z" />
    <glyph glyph-name="four.dnom" horiz-adv-x="468" 
d="M375 0h-123v96l-232 -10v101l209 240h146v-251l73 11v-101l-73 10v-96zM250 307l-111 -124l113 -7v131h-2z" />
    <glyph glyph-name="five.dnom" horiz-adv-x="497" 
d="M244 -16q-137 0 -195 85l114 53q22 -34 80 -34q37 0 59 14t22 38q0 49 -79 49q-45 0 -74 -19l-114 30l48 227h319v-95h-233l-15 -67l2 -1q41 16 97 16q83 0 127.5 -36.5t44.5 -102.5q0 -72 -53.5 -114.5t-149.5 -42.5z" />
    <glyph glyph-name="six.dnom" horiz-adv-x="512" 
d="M265 -16q-103 0 -159 57t-56 163q0 103 53 168q52 64 167 64q121 0 182 -82l-107 -41q-29 30 -74 30q-46 0 -68 -23.5t-26 -76.5q43 30 115 30q81 0 125.5 -36t44.5 -100q0 -70 -52.5 -111.5t-144.5 -41.5zM264 76q35 0 55.5 16.5t20.5 44.5q0 27 -21 42.5t-54 15.5
q-60 0 -86 -44q11 -75 85 -75z" />
    <glyph glyph-name="seven.dnom" horiz-adv-x="423" 
d="M241 0h-126q3 92 41.5 178.5t100.5 145.5h-237v103h383v-104q-83 -64 -121.5 -138.5t-40.5 -184.5z" />
    <glyph glyph-name="eight.dnom" horiz-adv-x="519" 
d="M259 -16q-97 0 -153 34.5t-56 98.5q0 39 22 66.5t62 37.5v2q-69 24 -69 93q0 57 51 88.5t143 31.5t143.5 -31.5t51.5 -88.5q0 -68 -69 -93v-2q39 -10 61.5 -37.5t22.5 -66.5q0 -64 -57 -98.5t-153 -34.5zM259 261q76 0 76 43q0 42 -76 42q-75 0 -75 -42q0 -43 75 -43z
M195 87q23 -14 64 -14t64 14t23 39q0 49 -87 49t-87 -49q0 -25 23 -39z" />
    <glyph glyph-name="nine.dnom" horiz-adv-x="512" 
d="M242 -16q-121 0 -182 82l107 41q29 -30 74 -30q46 0 68 23.5t26 76.5q-43 -30 -115 -30q-81 0 -125.5 36t-44.5 100q0 70 52.5 111.5t144.5 41.5q103 0 159 -57t56 -163q0 -103 -52 -167q-53 -65 -168 -65zM247 225q60 0 86 44q-11 75 -85 75q-35 0 -55.5 -16.5
t-20.5 -44.5q0 -27 21 -42.5t54 -15.5z" />
    <glyph glyph-name="zero.numr" horiz-adv-x="514" 
d="M258 277q-102 0 -157.5 59.5t-55.5 166.5q0 108 55.5 167t157.5 59q101 0 156 -59t55 -167t-55 -167t-156 -59zM258 385q83 0 83 118q0 117 -83 117q-84 0 -84 -117q0 -118 84 -118z" />
    <glyph glyph-name="one.numr" horiz-adv-x="313" 
d="M263 285h-126v254h-112v94h20q48 0 70 16.5t22 52.5v10h126v-427z" />
    <glyph glyph-name="two.numr" horiz-adv-x="510" 
d="M460 285h-410q0 158 137 202l89 29q57 18 57 55q0 46 -70 46q-71 0 -84 -54l-117 17q26 141 200 141q90 0 141 -37.5t51 -106.5q0 -107 -130 -140l-73 -19q-42 -10 -47 -30h256v-103z" />
    <glyph glyph-name="three.numr" horiz-adv-x="504" 
d="M247 277q-173 0 -197 137l118 15q16 -55 81 -55q74 0 74 47q0 42 -70 42h-55v94h51q66 0 66 39q0 43 -69 43q-32 0 -49.5 -11t-27.5 -37l-116 16q17 59 68.5 90.5t130.5 31.5q82 0 133 -33t51 -89q0 -61 -67 -89v-2q85 -27 85 -103q0 -64 -54.5 -100t-152.5 -36z" />
    <glyph glyph-name="four.numr" horiz-adv-x="468" 
d="M375 284h-123v96l-232 -10v101l209 241h146v-252l73 11v-101l-73 10v-96zM250 592l-111 -125l113 -7v132h-2z" />
    <glyph glyph-name="five.numr" horiz-adv-x="497" 
d="M244 268q-137 0 -195 85l114 53q22 -34 80 -34q37 0 59 14t22 38q0 49 -79 49q-45 0 -74 -19l-114 30l48 228h319v-95h-233l-15 -68l2 -1q41 16 97 16q83 0 127.5 -36.5t44.5 -102.5q0 -72 -53.5 -114.5t-149.5 -42.5z" />
    <glyph glyph-name="six.numr" horiz-adv-x="512" 
d="M265 276q-103 0 -159 57t-56 163q0 103 53 168q52 64 167 64q121 0 182 -82l-107 -41q-29 30 -74 30q-46 0 -68 -23.5t-26 -76.5q43 30 115 30q81 0 125.5 -36t44.5 -100q0 -70 -52.5 -111.5t-144.5 -41.5zM264 368q35 0 55.5 16.5t20.5 44.5q0 27 -21 42.5t-54 15.5
q-60 0 -86 -44q11 -75 85 -75z" />
    <glyph glyph-name="seven.numr" horiz-adv-x="423" 
d="M241 285h-126q3 92 41.5 178.5t100.5 145.5h-237v103h383v-104q-83 -64 -121.5 -138.5t-40.5 -184.5z" />
    <glyph glyph-name="eight.numr" horiz-adv-x="519" 
d="M259 276q-97 0 -153 34.5t-56 98.5q0 39 22 66.5t62 37.5v2q-69 24 -69 93q0 57 51 88.5t143 31.5t143.5 -31.5t51.5 -88.5q0 -68 -69 -93v-2q39 -10 61.5 -37.5t22.5 -66.5q0 -64 -57 -98.5t-153 -34.5zM259 553q76 0 76 43q0 42 -76 42q-75 0 -75 -42q0 -43 75 -43z
M195 379q23 -14 64 -14t64 14t23 39q0 49 -87 49t-87 -49q0 -25 23 -39z" />
    <glyph glyph-name="nine.numr" horiz-adv-x="512" 
d="M242 277q-121 0 -182 82l107 41q29 -30 74 -30q46 0 68 23.5t26 76.5q-43 -30 -115 -30q-81 0 -125.5 36t-44.5 100q0 70 52.5 111.5t144.5 41.5q103 0 159 -57t56 -163q0 -103 -52 -167q-53 -65 -168 -65zM247 518q60 0 86 44q-11 75 -85 75q-35 0 -55.5 -16.5
t-20.5 -44.5q0 -27 21 -42.5t54 -15.5z" />
    <glyph glyph-name="zero.tf" 
d="M379 -16q-146 0 -237 103q-92 104 -92 269t92 269q91 103 237 103q144 0 235 -103t91 -269t-91 -269t-235 -103zM379 148q119 0 119 208q0 108 -29 158t-90 50q-63 0 -92.5 -50t-29.5 -158q0 -107 30 -157.5t92 -50.5z" />
    <glyph glyph-name="one.tf" 
d="M526 712v-530h162v-182h-558v182h172v225h-172v150h7q89 0 138 30q52 31 73 117l2 8h176z" />
    <glyph glyph-name="two.tf" 
d="M678 0h-602q0 107 46 169q46 63 186 154l84 55q43 29 60 51.5t17 49.5q0 36 -23 56t-65 20q-98 0 -98 -115v-9h-195v30q0 127 77.5 197.5t221.5 70.5q135 0 213 -60.5t78 -173.5q0 -72 -34 -121q-35 -51 -119 -103l-124 -77q-14 -9 -15 -13h292v-181z" />
    <glyph glyph-name="three.tf" 
d="M539 379q66 -13 104 -58.5t38 -111.5q0 -99 -78 -164q-79 -65 -218 -65q-144 0 -223.5 69.5t-87.5 195.5h196q6 -106 104 -106q46 0 72.5 20.5t26.5 58.5q0 76 -105 76h-48v137h59q89 0 89 73q0 72 -88 72q-41 0 -62 -18.5t-26 -61.5h-190q14 233 283 233q131 0 201 -55
q71 -56 71 -141q0 -55 -31 -97t-87 -57z" />
    <glyph glyph-name="four.tf" 
d="M594 713v-399l101 5v-163l-103 5v-162h-202v162l-329 -5v171l326 386h207zM220 314h171v194h-4z" />
    <glyph glyph-name="five.tf" 
d="M377 -20q-132 0 -212 57t-95 167l209 15q14 -73 96 -73q47 0 73.5 26t26.5 71q0 46 -26 72.5t-70 26.5q-57 0 -84 -42l-198 10l64 402h471v-167h-313l-21 -105l3 -3q55 43 147 43q110 0 173.5 -62.5t63.5 -172.5q0 -124 -81 -194.5t-227 -70.5z" />
    <glyph glyph-name="six.tf" 
d="M431 497q113 0 187 -65q73 -64 73 -180q0 -123 -83 -197q-84 -75 -220 -75q-121 0 -207 68q-117 94 -117 301q0 175 81 278q81 102 246 102q205 0 273 -167l-200 -21q-19 37 -76 37q-52 0 -79 -32t-35 -108q56 59 157 59zM378 143q50 0 77.5 28t27.5 74t-28.5 73.5
t-77.5 27.5q-48 0 -75 -28.5t-31 -80.5q1 -30 22 -55q32 -39 85 -39z" />
    <glyph glyph-name="seven.tf" 
d="M433 0h-232q0 128 65 279q64 149 168 244h-342v189h570v-166q-229 -229 -229 -546z" />
    <glyph glyph-name="eight.tf" 
d="M609 41q-86 -61 -232 -61t-231 61q-87 61 -87 169q0 67 37 109t106 53v3q-53 15 -82 55t-29 98q0 96 74.5 148.5t211.5 52.5q139 0 215 -52.5t76 -148.5q0 -119 -112 -153v-3q67 -13 103.5 -54.5t36.5 -107.5q0 -108 -87 -169zM301 452q26 -22 78 -22t78 22q27 21 27 60
q0 77 -105 77q-106 0 -106 -77q0 -39 28 -60zM379 132q54 0 83.5 23t29.5 64q0 42 -29.5 65t-83.5 23q-55 0 -85.5 -23t-30.5 -65q0 -41 30.5 -64t85.5 -23z" />
    <glyph glyph-name="nine.tf" 
d="M574 665q117 -94 117 -301q0 -175 -81 -277q-81 -103 -246 -103q-205 0 -273 167l200 21q19 -37 76 -37q52 0 79 32t35 108q-56 -59 -157 -59q-113 0 -187 65q-73 64 -73 180q0 123 84 198q83 74 219 74q121 0 207 -68zM378 367q48 0 75 28.5t31 80.5q-1 30 -22 55
q-32 39 -85 39q-50 0 -77.5 -28t-27.5 -74t28.5 -73.5t77.5 -27.5z" />
    <glyph glyph-name="zero.tf.zero" 
d="M379 728q144 0 235 -103t91 -269t-91 -269t-235 -103q-146 0 -237 103q-92 104 -92 269t92 269q91 103 237 103zM379 564q-63 0 -92.5 -50t-29.5 -158q0 -92 23 -144l147 342q-19 10 -48 10zM379 148q119 0 119 208q0 96 -22 144l-146 -342q19 -10 49 -10z" />
    <glyph glyph-name="period.ss01" horiz-adv-x="342" 
d="M258 13q-34 -33 -87 -33t-87 33q-34 31 -34 83q0 51 34 84q35 32 87 32t87 -32q34 -33 34 -84q0 -52 -34 -83z" />
    <glyph glyph-name="comma.ss01" horiz-adv-x="362" 
d="M181 212q60 0 93 -38.5t33 -112.5v-79q0 -186 -186 -186h-34v98h30q87 0 87 77v9h-23q-57 0 -91.5 32.5t-34.5 83.5t34.5 83.5t91.5 32.5z" />
    <glyph glyph-name="colon.ss01" horiz-adv-x="352" 
d="M263 335q-35 -33 -87 -33t-87 33q-34 31 -34 83q0 51 34 84q35 32 87 32t87 -32q34 -33 34 -84q0 -52 -34 -83zM263 13q-35 -33 -87 -33t-87 33q-34 31 -34 83q0 51 34 84q35 32 87 32t87 -32q34 -33 34 -84q0 -52 -34 -83z" />
    <glyph glyph-name="semicolon.ss01" horiz-adv-x="367" 
d="M263 335q-35 -33 -87 -33t-87 33q-34 31 -34 83q0 51 34 84q35 32 87 32t87 -32q34 -33 34 -84q0 -52 -34 -83zM186 212q60 0 93 -38.5t33 -112.5v-79q0 -186 -186 -186h-34v98h30q87 0 87 77v9h-23q-57 0 -91.5 32.5t-34.5 83.5t34.5 83.5t91.5 32.5z" />
    <glyph glyph-name="ellipsis.ss01" horiz-adv-x="1026" 
d="M258 13q-34 -33 -87 -33t-87 33q-34 31 -34 83q0 51 34 84q35 32 87 32t87 -32q34 -33 34 -84q0 -52 -34 -83zM600 13q-34 -33 -87 -33t-87 33q-34 31 -34 83q0 51 34 84q35 32 87 32t87 -32q34 -33 34 -84q0 -52 -34 -83zM942 13q-34 -33 -87 -33t-87 33q-34 31 -34 83
q0 51 34 84q35 32 87 32t87 -32q34 -33 34 -84q0 -52 -34 -83z" />
    <glyph glyph-name="exclam.ss01" horiz-adv-x="322" 
d="M209 256h-96l-53 261v195h202v-195zM241 10q-31 -30 -80 -30t-79 30q-31 28 -31 75t30.5 76.5t79.5 29.5t79.5 -29.5t30.5 -76.5t-30 -75z" />
    <glyph glyph-name="exclamdown.ss01" horiz-adv-x="322" 
d="M241 353q-31 -30 -80 -30t-79 30q-31 28 -31 76q0 46 30.5 75.5t79.5 29.5t79.5 -29.5t30.5 -75.5q0 -47 -30 -76zM262 -204h-202v195l53 261h96l53 -261v-195z" />
    <glyph glyph-name="question.ss01" horiz-adv-x="690" 
d="M417 240h-202v24q0 80 33.5 124t115.5 65q43 12 59 23.5t16 34.5q0 54 -98 54q-52 0 -76 -14.5t-29 -50.5h-200q13 229 306 229q148 0 225.5 -55t77.5 -155q0 -133 -133 -185l-31 -12q-37 -15 -50.5 -30t-13.5 -45v-7zM396 10q-32 -30 -80 -30q-49 0 -79 30
q-31 28 -31 75t30.5 76.5t79.5 29.5t79.5 -29.5t30.5 -76.5t-30 -75z" />
    <glyph glyph-name="questiondown.ss01" horiz-adv-x="690" 
d="M454 353q-32 -30 -80 -30q-49 0 -79 30q-31 28 -31 76q0 46 30.5 75.5t79.5 29.5t79.5 -29.5t30.5 -75.5q0 -47 -30 -76zM348 -219q-148 0 -225.5 55t-77.5 155q0 133 133 185l31 12q36 13 50 29t14 46v11h202v-28q0 -80 -33.5 -124t-115.5 -65q-43 -12 -59 -23.5
t-16 -34.5q0 -54 98 -54q52 0 76 14.5t29 50.5h200q-13 -229 -306 -229z" />
    <glyph glyph-name="periodcentered.ss01" horiz-adv-x="342" 
d="M258 267q-34 -33 -87 -33t-87 33q-34 31 -34 83q0 51 34 84q35 32 87 32t87 -32q34 -33 34 -84q0 -52 -34 -83z" />
    <glyph glyph-name="bullet.ss01" horiz-adv-x="519" 
d="M410 134q-58 -57 -151 -57q-91 0 -150 57q-59 56 -59 144q0 89 59 145t150 56q92 0 151 -56q59 -57 59 -145t-59 -144z" />
    <glyph glyph-name="uni203D.ss01" horiz-adv-x="729" 
d="M353 729q163 0 247 -55t84 -159q0 -119 -121 -167l-32 -13q-60 -24 -85 -44t-33 -51h-116l-23 161v114h162v-83q29 13 40.5 29t11.5 41q0 40 -30.5 56.5t-102.5 16.5t-100.5 -17.5t-31.5 -62.5h-187q5 120 82.5 177t234.5 57zM276 162q31 29 79 29t80 -29q30 -30 30 -77
q0 -46 -30.5 -75.5t-79.5 -29.5t-79.5 29.5t-30.5 75.5q0 47 31 77z" />
    <glyph glyph-name="uni2E18.ss01" horiz-adv-x="729" 
d="M454 353q-32 -30 -80 -30q-49 0 -79 30q-31 28 -31 76q0 46 30.5 75.5t79.5 29.5t79.5 -29.5t30.5 -75.5q0 -47 -30 -76zM506 21h187q-5 -120 -82.5 -177t-234.5 -57q-163 0 -247 55t-84 159q0 119 121 167l32 13q62 25 86.5 45t31.5 50h116l23 -161v-114h-162v83
q-29 -13 -40.5 -29t-11.5 -41q0 -40 30.5 -56.5t102.5 -16.5t100.5 17.5t31.5 62.5z" />
    <glyph glyph-name="period.tf.ss01" 
d="M465 13q-35 -33 -87 -33t-87 33q-34 31 -34 83q0 51 34 84q35 32 87 32t87 -32q34 -33 34 -84q0 -52 -34 -83z" />
    <glyph glyph-name="comma.tf.ss01" 
d="M378 212q60 0 93 -38.5t33 -112.5v-79q0 -186 -186 -186h-34v98h30q87 0 87 77v9h-23q-57 0 -91.5 32.5t-34.5 83.5t34.5 83.5t91.5 32.5z" />
    <glyph glyph-name="colon.tf.ss01" 
d="M465 335q-35 -33 -87 -33t-87 33q-34 31 -34 83q0 51 34 84q35 32 87 32t87 -32q34 -33 34 -84q0 -52 -34 -83zM465 13q-35 -33 -87 -33t-87 33q-34 31 -34 83q0 51 34 84q35 32 87 32t87 -32q34 -33 34 -84q0 -52 -34 -83z" />
    <glyph glyph-name="semicolon.tf.ss01" 
d="M457 335q-35 -33 -87 -33t-87 33q-34 31 -34 83q0 51 34 84q35 32 87 32t87 -32q34 -33 34 -84q0 -52 -34 -83zM380 212q60 0 93 -38.5t33 -112.5v-79q0 -186 -186 -186h-34v98h30q87 0 87 77v9h-23q-57 0 -91.5 32.5t-34.5 83.5t34.5 83.5t91.5 32.5z" />
    <glyph glyph-name="period.tf" 
d="M488 0h-220v192h220v-192z" />
    <glyph glyph-name="comma.tf" 
d="M302 -204h-34v98h25q87 0 87 77v29h-112v192h220v-220q0 -176 -186 -176z" />
    <glyph glyph-name="colon.tf" 
d="M488 318h-220v192h220v-192zM488 0h-220v192h220v-192z" />
    <glyph glyph-name="semicolon.tf" 
d="M488 318h-220v192h220v-192zM302 -204h-34v98h25q87 0 87 77v29h-112v192h220v-220q0 -176 -186 -176z" />
    <glyph glyph-name="parenleft.case" horiz-adv-x="379" 
d="M357 -35h-214q-108 180 -108 396q0 211 108 386h214q-89 -195 -89 -391q0 -198 89 -391z" />
    <glyph glyph-name="parenright.case" horiz-adv-x="379" 
d="M236 -35h-214q89 193 89 391q0 196 -89 391h214q108 -175 108 -386q0 -216 -108 -396z" />
    <glyph glyph-name="braceleft.case" horiz-adv-x="465" 
d="M443 -34h-143q-79 0 -117 29.5t-38 97.5v71q0 57 -25.5 77.5t-97.5 22.5v185q72 0 97.5 22t25.5 78v72q0 65 36 95.5t119 30.5h143v-183h-32q-34 0 -47 -11.5t-13 -43.5v-8q0 -66 -36 -103t-105 -42v-2q141 -11 141 -130v-19q0 -31 13.5 -43.5t49.5 -12.5h29v-183z" />
    <glyph glyph-name="braceright.case" horiz-adv-x="465" 
d="M165 -34h-143v183h29q36 0 49.5 12.5t13.5 43.5v19q0 119 141 130v2q-69 5 -105 42t-36 103v8q0 32 -13 43.5t-47 11.5h-32v183h143q83 0 119 -30.5t36 -95.5v-72q0 -56 25.5 -78t97.5 -22v-185q-72 -2 -97.5 -22.5t-25.5 -77.5v-71q0 -68 -38 -97.5t-117 -29.5z" />
    <glyph glyph-name="bracketleft.case" horiz-adv-x="425" 
d="M403 -35h-359v781h359v-183h-153v-415h153v-183z" />
    <glyph glyph-name="bracketright.case" horiz-adv-x="425" 
d="M381 -35h-359v183h153v415h-153v183h359v-781z" />
    <glyph glyph-name="hyphen.case" horiz-adv-x="347" 
d="M319 277h-291v153h291v-153z" />
    <glyph glyph-name="endash.case" horiz-adv-x="526" 
d="M498 277h-470v153h470v-153z" />
    <glyph glyph-name="emdash.case" horiz-adv-x="752" 
d="M724 277h-696v153h696v-153z" />
    <glyph glyph-name="hyphen.tf" 
d="M523 197h-291v153h291v-153z" />
    <glyph glyph-name="guillemotleft.case" horiz-adv-x="674" 
d="M308 245v-180l-258 173v197l258 173v-179l-144 -92zM624 245v-180l-258 173v197l258 173v-179l-144 -92z" />
    <glyph glyph-name="guillemotright.case" horiz-adv-x="673" 
d="M308 238l-258 -173v180l144 92l-144 92v179l258 -173v-197zM623 238l-258 -173v180l144 92l-144 92v179l258 -173v-197z" />
    <glyph glyph-name="guilsinglleft.case" horiz-adv-x="358" 
d="M308 245v-180l-258 173v197l258 173v-179l-144 -92z" />
    <glyph glyph-name="guilsinglright.case" horiz-adv-x="358" 
d="M308 238l-258 -173v180l144 92l-144 92v179l258 -173v-197z" />
    <glyph glyph-name="quotesinglbase.ss01" horiz-adv-x="362" 
d="M181 212q60 0 93 -38.5t33 -112.5v-79q0 -186 -186 -186h-34v98h30q87 0 87 77v9h-23q-57 0 -91.5 32.5t-34.5 83.5t34.5 83.5t91.5 32.5z" />
    <glyph glyph-name="quotedblbase.ss01" horiz-adv-x="688" 
d="M181 212q60 0 93 -38.5t33 -112.5v-79q0 -186 -186 -186h-34v98h30q87 0 87 77v9h-23q-57 0 -91.5 32.5t-34.5 83.5t34.5 83.5t91.5 32.5zM507 212q60 0 93 -38.5t33 -112.5v-79q0 -186 -186 -186h-34v98h30q87 0 87 77v9h-23q-57 0 -91.5 32.5t-34.5 83.5t34.5 83.5
t91.5 32.5z" />
    <glyph glyph-name="quotedblleft.ss01" horiz-adv-x="658" 
d="M143 533h23q57 0 91.5 -32.5t34.5 -83.5t-34.5 -83.5t-91.5 -32.5q-60 0 -93 38.5t-33 112.5v79q0 186 186 186h34v-98h-30q-87 0 -87 -77v-9zM469 533h23q57 0 91.5 -32.5t34.5 -83.5t-34.5 -83.5t-91.5 -32.5q-60 0 -93 38.5t-33 112.5v79q0 186 186 186h34v-98h-30
q-87 0 -87 -77v-9z" />
    <glyph glyph-name="quotedblright.ss01" horiz-adv-x="658" 
d="M166 729q60 0 93 -38.5t33 -112.5v-79q0 -186 -186 -186h-34v98h30q87 0 87 77v9h-23q-57 0 -91.5 32.5t-34.5 83.5t34.5 83.5t91.5 32.5zM492 729q60 0 93 -38.5t33 -112.5v-79q0 -186 -186 -186h-34v98h30q87 0 87 77v9h-23q-57 0 -91.5 32.5t-34.5 83.5t34.5 83.5
t91.5 32.5z" />
    <glyph glyph-name="quoteleft.ss01" horiz-adv-x="332" 
d="M143 532h23q57 0 91.5 -32.5t34.5 -83.5t-34.5 -83.5t-91.5 -32.5q-60 0 -93 38.5t-33 112.5v79q0 186 186 186h34v-98h-30q-87 0 -87 -77v-9z" />
    <glyph glyph-name="quoteright.ss01" horiz-adv-x="332" 
d="M166 729q60 0 93 -38.5t33 -112.5v-79q0 -186 -186 -186h-34v98h30q87 0 87 77v9h-23q-57 0 -91.5 32.5t-34.5 83.5t34.5 83.5t91.5 32.5z" />
    <glyph glyph-name="hyphen.dnom" horiz-adv-x="329" 
d="M286 151h-243v126h243v-126z" />
    <glyph glyph-name="parenleft.dnom" horiz-adv-x="355" 
d="M320 -148h-165q-117 161 -117 346q0 186 117 344h165q-109 -166 -109 -347q0 -177 109 -343z" />
    <glyph glyph-name="parenright.dnom" horiz-adv-x="355" 
d="M199 -148h-164q108 163 108 343q0 181 -108 347h164q118 -157 118 -344q0 -185 -118 -346z" />
    <glyph glyph-name="braceleft.dnom" horiz-adv-x="421" 
d="M386 -147h-128q-63 0 -96 29t-33 84v98q0 35 -21 51t-73 17v133q51 0 72.5 16.5t21.5 55.5v92q0 53 34.5 83t94.5 30h128v-138h-46q-52 0 -52 -50v-53q0 -97 -108 -102v-2q108 -6 108 -94v-62q0 -51 54 -51h44v-137z" />
    <glyph glyph-name="braceright.dnom" horiz-adv-x="413" 
d="M163 -147h-128v137h44q54 0 54 51v62q0 88 108 94v2q-108 5 -108 102v53q0 50 -52 50h-46v138h128q60 0 94.5 -30t34.5 -83v-92q0 -39 21.5 -55.5t72.5 -16.5v-133q-52 -1 -73 -17t-21 -51v-98q0 -55 -33 -84t-96 -29z" />
    <glyph glyph-name="bracketleft.dnom" horiz-adv-x="384" 
d="M349 -148h-290v689h290v-137h-131v-415h131v-137z" />
    <glyph glyph-name="bracketright.dnom" horiz-adv-x="384" 
d="M325 -148h-290v137h131v415h-131v137h290v-689z" />
    <glyph glyph-name="period.dnom" horiz-adv-x="284" 
d="M229 0h-174v158h174v-158z" />
    <glyph glyph-name="comma.dnom" horiz-adv-x="287" 
d="M87 -151h-32v77h24q68 0 68 60v22h-92v150h177v-172q0 -137 -145 -137z" />
    <glyph glyph-name="hyphen.numr" horiz-adv-x="329" 
d="M286 489h-243v126h243v-126z" />
    <glyph glyph-name="parenleft.numr" horiz-adv-x="355" 
d="M320 190h-165q-117 160 -117 346q0 187 117 344h165q-109 -166 -109 -347q0 -177 109 -343z" />
    <glyph glyph-name="parenright.numr" horiz-adv-x="355" 
d="M199 190h-164q108 163 108 343q0 181 -108 347h164q118 -157 118 -344q0 -185 -118 -346z" />
    <glyph glyph-name="braceleft.numr" horiz-adv-x="421" 
d="M386 191h-128q-63 0 -96 29t-33 84v98q0 35 -21 51t-73 17v133q51 0 72.5 16.5t21.5 55.5v92q0 53 34.5 83t94.5 30h128v-138h-46q-52 0 -52 -50v-53q0 -97 -108 -102v-2q108 -6 108 -94v-62q0 -51 54 -51h44v-137z" />
    <glyph glyph-name="braceright.numr" horiz-adv-x="413" 
d="M163 191h-128v137h44q54 0 54 51v62q0 88 108 94v2q-108 5 -108 102v53q0 50 -52 50h-46v138h128q60 0 94.5 -30t34.5 -83v-92q0 -39 21.5 -55.5t72.5 -16.5v-133q-52 -1 -73 -17t-21 -51v-98q0 -55 -33 -84t-96 -29z" />
    <glyph glyph-name="bracketleft.numr" horiz-adv-x="384" 
d="M349 190h-290v689h290v-137h-131v-415h131v-137z" />
    <glyph glyph-name="bracketright.numr" horiz-adv-x="384" 
d="M325 190h-290v137h131v415h-131v137h290v-689z" />
    <glyph glyph-name="period.numr" horiz-adv-x="284" 
d="M229 338h-174v158h174v-158z" />
    <glyph glyph-name="comma.numr" horiz-adv-x="287" 
d="M87 187h-32v77h24q68 0 68 60v22h-92v150h177v-172q0 -137 -145 -137z" />
    <glyph glyph-name="period.dnom.ss01" horiz-adv-x="297" 
d="M219 7q-29 -27 -71 -27q-43 0 -70 27q-28 25 -28 67t28 67q28 26 70 26t71 -26q28 -25 28 -67t-28 -67z" />
    <glyph glyph-name="comma.dnom.ss01" horiz-adv-x="296" 
d="M148 167q46 0 72 -30t26 -87v-61q0 -145 -145 -145h-26v76h23q68 0 68 60v7h-18q-44 0 -71 25t-27 65t27 65t71 25z" />
    <glyph glyph-name="period.numr.ss01" horiz-adv-x="297" 
d="M219 350q-29 -27 -71 -27q-43 0 -70 27q-28 25 -28 67t28 67q28 26 70 26t71 -26q28 -25 28 -67t-28 -67z" />
    <glyph glyph-name="comma.numr.ss01" horiz-adv-x="296" 
d="M148 510q46 0 72 -30t26 -87v-61q0 -145 -145 -145h-26v76h23q68 0 68 60v7h-18q-44 0 -71 25t-27 65t27 65t71 25z" />
    <glyph glyph-name="period.subs.ss01" horiz-adv-x="297" 
d="M219 -181q-29 -26 -71 -26t-70 26q-28 27 -28 68q0 42 28 67q28 26 70 26t71 -26q28 -25 28 -67q0 -41 -28 -68z" />
    <glyph glyph-name="comma.subs.ss01" horiz-adv-x="296" 
d="M148 -20q46 0 72 -30t26 -87v-61q0 -145 -145 -145h-26v76h23q68 0 68 60v7h-18q-44 0 -71 25t-27 65t27 65t71 25z" />
    <glyph glyph-name="period.sups.ss01" horiz-adv-x="297" 
d="M219 350q-29 -27 -71 -27q-43 0 -70 27q-28 25 -28 67t28 67q28 26 70 26t71 -26q28 -25 28 -67t-28 -67z" />
    <glyph glyph-name="comma.sups.ss01" horiz-adv-x="296" 
d="M148 510q46 0 72 -30t26 -87v-61q0 -145 -145 -145h-26v76h23q68 0 68 60v7h-18q-44 0 -71 25t-27 65t27 65t71 25z" />
    <glyph glyph-name="hyphen.subs" horiz-adv-x="329" 
d="M286 -41h-243v126h243v-126z" />
    <glyph glyph-name="braceleft.subs" horiz-adv-x="421" 
d="M386 -339h-128q-63 0 -96 29t-33 84v98q0 35 -21 51t-73 17v133q51 0 72.5 16.5t21.5 55.5v92q0 53 34.5 83t94.5 30h128v-138h-46q-52 0 -52 -50v-53q0 -97 -108 -102v-2q108 -6 108 -94v-62q0 -51 54 -51h44v-137z" />
    <glyph glyph-name="braceright.subs" horiz-adv-x="413" 
d="M163 -339h-128v137h44q54 0 54 51v62q0 88 108 94v2q-108 5 -108 102v53q0 50 -52 50h-46v138h128q60 0 94.5 -30t34.5 -83v-92q0 -39 21.5 -55.5t72.5 -16.5v-133q-52 -1 -73 -17t-21 -51v-98q0 -55 -33 -84t-96 -29z" />
    <glyph glyph-name="bracketleft.subs" horiz-adv-x="384" 
d="M349 -340h-290v689h290v-137h-131v-415h131v-137z" />
    <glyph glyph-name="bracketright.subs" horiz-adv-x="384" 
d="M325 -340h-290v137h131v415h-131v137h290v-689z" />
    <glyph glyph-name="period.subs" horiz-adv-x="284" 
d="M229 -192h-174v158h174v-158z" />
    <glyph glyph-name="comma.subs" horiz-adv-x="287" 
d="M87 -343h-32v77h24q68 0 68 60v22h-92v150h177v-172q0 -137 -145 -137z" />
    <glyph glyph-name="hyphen.sups" horiz-adv-x="329" 
d="M286 489h-243v126h243v-126z" />
    <glyph glyph-name="braceleft.sups" horiz-adv-x="421" 
d="M386 191h-128q-63 0 -96 29t-33 84v98q0 35 -21 51t-73 17v133q51 0 72.5 16.5t21.5 55.5v92q0 53 34.5 83t94.5 30h128v-138h-46q-52 0 -52 -50v-53q0 -97 -108 -102v-2q108 -6 108 -94v-62q0 -51 54 -51h44v-137z" />
    <glyph glyph-name="braceright.sups" horiz-adv-x="413" 
d="M163 191h-128v137h44q54 0 54 51v62q0 88 108 94v2q-108 5 -108 102v53q0 50 -52 50h-46v138h128q60 0 94.5 -30t34.5 -83v-92q0 -39 21.5 -55.5t72.5 -16.5v-133q-52 -1 -73 -17t-21 -51v-98q0 -55 -33 -84t-96 -29z" />
    <glyph glyph-name="bracketleft.sups" horiz-adv-x="384" 
d="M349 190h-290v689h290v-137h-131v-415h131v-137z" />
    <glyph glyph-name="bracketright.sups" horiz-adv-x="384" 
d="M325 190h-290v137h131v415h-131v137h290v-689z" />
    <glyph glyph-name="period.sups" horiz-adv-x="284" 
d="M229 338h-174v158h174v-158z" />
    <glyph glyph-name="comma.sups" horiz-adv-x="287" 
d="M87 187h-32v77h24q68 0 68 60v22h-92v150h177v-172q0 -137 -145 -137z" />
    <glyph glyph-name="Euro.micro" 
d="M556 574q-126 0 -164 -81h290v-96h-609v96h110q36 114 131 175t232 61q71 0 136 -13v-153q-71 11 -126 11zM183 219h-110v96h609v-96h-291q37 -84 160 -84q52 0 131 14v-152q-70 -14 -136 -14q-137 0 -232.5 61t-130.5 175z" />
    <glyph glyph-name="uni20BA.micro" 
d="M352 612l193 91v-110l-510 -241v110l94 44v206h223v-100zM520 321l200 -17q-17 -149 -105 -226.5t-239 -77.5h-247v205l-94 -44v110l510 241v-110l-193 -91v-131h14q68 0 105 34t49 107z" />
    <glyph glyph-name="uni20B9.micro" 
d="M681 712v-95h-177q27 -38 35 -82h142v-96h-146q-24 -91 -155 -126q84 -6 114 -30q30 -27 52 -100l55 -183h-234l-31 140q-15 66 -38 85q-23 18 -92 18h-131v115h112q60 0 89.5 18.5t37.5 62.5h-239v96h240q-3 43 -17 82h-223v95h606z" />
    <glyph glyph-name="sterling.micro" 
d="M449 146h239v-146h-620v146h226q-9 55 -51 124l-175 -19v138l108 -14l-10 15q-47 71 -47 134q0 92 72 148q71 55 194 55q125 0 196.5 -60.5t85.5 -177.5h-172q-19 88 -100 88q-43 0 -68.5 -23.5t-25.5 -63.5q0 -36 38 -95l18 -27l239 21v-138l-180 19q29 -63 33 -124z
" />
    <glyph glyph-name="yen.micro" 
d="M503 712h248l-197 -342h108v-110h-567v110h107l-197 342h250l91 -189l31 -81l31 81zM266 77h-171v110h567v-110h-172v-77h-224v77z" />
    <glyph glyph-name="equal.sups" horiz-adv-x="530" 
d="M500 581h-469v118h469v-118zM500 377h-469v119h469v-119z" />
    <glyph glyph-name="uni2219.ss01" horiz-adv-x="519" 
d="M410 134q-58 -57 -151 -57q-91 0 -150 57q-59 56 -59 144q0 89 59 145t150 56q92 0 151 -56q59 -57 59 -145t-59 -144z" />
    <glyph glyph-name="divide.ss01" 
d="M441 499q-25 -25 -65 -25t-65 25t-25 65t25 65t65 25t65 -25t25 -65t-25 -65zM664 250h-574v142h574v-142zM441 13q-25 -25 -65 -25t-65 25t-25 65t25 65t65 25t65 -25t25 -65t-25 -65z" />
    <glyph glyph-name="plus.tf" 
d="M452 392h203v-142h-203v-207h-151v207h-201v142h201v207h151v-207z" />
    <glyph glyph-name="minus.tf" 
d="M655 250h-556v142h556v-142z" />
    <glyph glyph-name="cent.dnom" horiz-adv-x="516" 
d="M267 70q53 0 62 57l131 -7q-7 -54 -46 -91t-102 -48v-85h-97v85q-73 12 -116.5 59.5t-43.5 116.5t43 116.5t117 60.5v90h97v-90q63 -11 103.5 -48t45.5 -90l-131 -7q-8 56 -62 56q-71 0 -71 -88q0 -87 70 -87z" />
    <glyph glyph-name="dollar.dnom" horiz-adv-x="469" 
d="M444 85q0 -59 -45.5 -95.5t-125.5 -43.5v-63h-82v65q-71 8 -114.5 43t-51.5 89l121 6q10 -48 101 -48q79 0 79 38q0 24 -54 32l-89 11q-63 7 -102.5 40t-39.5 86q0 54 39.5 89t110.5 43v67h82v-67q69 -8 111 -41.5t49 -84.5l-121 -5q-11 44 -88 44q-70 0 -70 -34
q0 -15 10.5 -22t44.5 -12l89 -12q146 -20 146 -125z" />
    <glyph glyph-name="Euro.dnom" horiz-adv-x="468" 
d="M346 335q-85 0 -107 -46h188v-60h-386v60h71q23 68 81.5 106t141.5 38q50 0 92 -7v-95q-43 4 -81 4zM113 124h-72v60h386v-60h-187q23 -44 107 -44q34 0 80 7v-96q-41 -7 -92 -7q-83 0 -141.5 36.5t-80.5 103.5z" />
    <glyph glyph-name="plus.dnom" horiz-adv-x="531" 
d="M332 261h169v-119h-169v-142h-133v142h-168v119h168v141h133v-141z" />
    <glyph glyph-name="minus.dnom" horiz-adv-x="530" 
d="M500 140h-469v119h469v-119z" />
    <glyph glyph-name="equal.dnom" horiz-adv-x="530" 
d="M500 243h-469v118h469v-118zM500 39h-469v119h469v-119z" />
    <glyph glyph-name="cent.numr" horiz-adv-x="516" 
d="M267 413q53 0 62 57l131 -7q-7 -54 -46 -91t-102 -48v-85h-97v85q-73 12 -116.5 59.5t-43.5 116.5t43 116.5t117 60.5v90h97v-90q63 -11 103.5 -48t45.5 -90l-131 -7q-8 56 -62 56q-71 0 -71 -88q0 -87 70 -87z" />
    <glyph glyph-name="dollar.numr" horiz-adv-x="503" 
d="M461 428q0 -59 -45.5 -95.5t-125.5 -43.5v-63h-82v65q-71 8 -114.5 43t-51.5 89l121 6q11 -48 101 -48q79 0 79 38q0 25 -54 32l-89 11q-63 7 -102.5 40t-39.5 86q0 54 39.5 89t110.5 43v67h82v-67q69 -8 111 -41.5t49 -84.5l-121 -5q-11 44 -88 44q-70 0 -70 -34
q0 -15 10.5 -22t44.5 -12l89 -12q146 -20 146 -125z" />
    <glyph glyph-name="Euro.numr" horiz-adv-x="468" 
d="M346 633q-85 0 -107 -46h188v-60h-386v60h71q23 68 81.5 106t141.5 38q50 0 92 -7v-95q-43 4 -81 4zM113 422h-72v60h386v-60h-187q23 -44 107 -44q34 0 80 7v-96q-41 -7 -92 -7q-83 0 -141.5 36.5t-80.5 103.5z" />
    <glyph glyph-name="plus.numr" horiz-adv-x="531" 
d="M332 630h169v-119h-169v-142h-133v142h-168v119h168v141h133v-141z" />
    <glyph glyph-name="minus.numr" horiz-adv-x="530" 
d="M500 509h-469v119h469v-119z" />
    <glyph glyph-name="equal.numr" horiz-adv-x="530" 
d="M500 612h-469v118h469v-118zM500 408h-469v119h469v-119z" />
    <glyph glyph-name="cent.subs" horiz-adv-x="516" 
d="M267 -117q53 0 62 57l131 -7q-7 -54 -46 -91t-102 -48v-85h-97v85q-73 12 -116.5 59.5t-43.5 116.5t43 116.5t117 60.5v90h97v-90q63 -11 103.5 -48t45.5 -90l-131 -7q-8 56 -62 56q-71 0 -71 -88q0 -87 70 -87z" />
    <glyph glyph-name="dollar.subs" horiz-adv-x="503" 
d="M461 -102q0 -59 -45.5 -95.5t-125.5 -43.5v-63h-82v65q-71 8 -114.5 43t-51.5 89l121 6q11 -48 101 -48q79 0 79 38q0 24 -54 32l-89 11q-63 7 -102.5 40t-39.5 86q0 54 39.5 89t110.5 43v67h82v-67q69 -8 111 -41.5t49 -84.5l-121 -5q-11 44 -88 44q-70 0 -70 -34
q0 -15 10.5 -22t44.5 -12l89 -12q146 -20 146 -125z" />
    <glyph glyph-name="Euro.subs" horiz-adv-x="468" 
d="M346 141q-85 0 -107 -46h188v-60h-386v60h71q23 68 81.5 106t141.5 38q50 0 92 -7v-95q-43 4 -81 4zM113 -70h-72v60h386v-60h-187q23 -44 107 -44q34 0 80 7v-96q-41 -7 -92 -7q-83 0 -141.5 36.5t-80.5 103.5z" />
    <glyph glyph-name="cent.sups" horiz-adv-x="516" 
d="M267 413q53 0 62 57l131 -7q-7 -54 -46 -91t-102 -48v-85h-97v85q-73 12 -116.5 59.5t-43.5 116.5t43 116.5t117 60.5v90h97v-90q63 -11 103.5 -48t45.5 -90l-131 -7q-8 56 -62 56q-71 0 -71 -88q0 -87 70 -87z" />
    <glyph glyph-name="dollar.sups" horiz-adv-x="503" 
d="M461 428q0 -59 -45.5 -95.5t-125.5 -43.5v-63h-82v65q-71 8 -114.5 43t-51.5 89l121 6q11 -48 101 -48q79 0 79 38q0 25 -54 32l-89 11q-63 7 -102.5 40t-39.5 86q0 54 39.5 89t110.5 43v67h82v-67q69 -8 111 -41.5t49 -84.5l-121 -5q-11 44 -88 44q-70 0 -70 -34
q0 -15 10.5 -22t44.5 -12l89 -12q146 -20 146 -125z" />
    <glyph glyph-name="Euro.sups" horiz-adv-x="468" 
d="M346 633q-85 0 -107 -46h188v-60h-386v60h71q23 68 81.5 106t141.5 38q50 0 92 -7v-95q-43 4 -81 4zM113 422h-72v60h386v-60h-187q23 -44 107 -44q34 0 80 7v-96q-41 -7 -92 -7q-83 0 -141.5 36.5t-80.5 103.5z" />
    <glyph glyph-name="caron.alt" horiz-adv-x="500" 
d="M274 452h-139l33 260h196z" />
    <glyph glyph-name="uni0308.case" horiz-adv-x="0" 
d="M-52 816h-195v143h195v-143zM247 816h-195v143h195v-143z" />
    <glyph glyph-name="uni0307.case" horiz-adv-x="0" 
d="M98 816h-195v143h195v-143z" />
    <glyph glyph-name="gravecomb.case" horiz-adv-x="0" 
d="M103 807h-183l-172 182h238z" />
    <glyph glyph-name="acutecomb.case" horiz-adv-x="0" 
d="M80 807h-183l117 182h238z" />
    <glyph glyph-name="uni030B.case" horiz-adv-x="0" 
d="M-88 796h-173l101 190h215zM211 796h-172l110 190h214z" />
    <glyph glyph-name="uni0302.case" horiz-adv-x="0" 
d="M-85 802h-164l159 179h181l159 -179h-164l-86 96z" />
    <glyph glyph-name="uni030C.case" horiz-adv-x="0" 
d="M91 802h-181l-159 179h164l85 -96l86 96h164z" />
    <glyph glyph-name="uni0306.case" horiz-adv-x="0" 
d="M165 841q-49 -42 -165 -42t-165 42t-49 141h118q0 -42 22.5 -60t73.5 -18t73.5 18t22.5 60h118q0 -99 -49 -141z" />
    <glyph glyph-name="uni030A.case" horiz-adv-x="0" 
d="M108 820q-43 -43 -108 -43t-108 43q-43 42 -43 106q0 66 43 109q44 42 108 42t108 -42q43 -43 43 -109q0 -64 -43 -106zM-45 881q27 -29 69 -13t38 58q0 29 -17.5 46.5t-44.5 17.5t-44.5 -17.5t-17.5 -46.5q0 -28 17 -45z" />
    <glyph glyph-name="tildecomb.case" horiz-adv-x="0" 
d="M-117 797h-126q0 92 36 144t106 52q37 1 73 -18t62 -37.5t39 -17.5q41 0 41 64h126q0 -91 -37 -143.5t-107 -52.5q-33 0 -61 11.5t-44 25t-34 25t-33 11.5q-41 0 -41 -64z" />
    <glyph glyph-name="uni0304.case" horiz-adv-x="0" 
d="M189 810h-378v118h378v-118z" />
    <glyph glyph-name="uni0328.case" horiz-adv-x="0" 
d="M-55 -235h-85q-78 0 -119.5 30.5t-41.5 84.5q0 69 70 105l67 34l164 -19l-111 -51q-36 -17 -36 -48q0 -47 58 -47h34v-89z" />
    <glyph glyph-name="uni0308.narrow.case" horiz-adv-x="0" 
d="M-47 816h-175v143h175v-143zM222 816h-175v143h175v-143z" />
    <glyph glyph-name="uni0327.micro" horiz-adv-x="0" 
d="M-54 -259h-38v70h12q74 0 74 34q0 30 -43 30h-43v63h104q125 0 125 -89q0 -108 -191 -108z" />
    <glyph glyph-name="uni0308.narrow" horiz-adv-x="0" 
d="M-47 580h-175v132h175v-132zM222 580h-175v132h175v-132z" />
    <glyph glyph-name="acutecomb.narrow" horiz-adv-x="0" 
d="M93 611h-192l112 182h236z" />
    <glyph glyph-name="uni0302.narrow" horiz-adv-x="0" 
d="M-76 606h-159l146 179h179l146 -179h-159l-77 96z" />
    <glyph glyph-name="uni030C.narrow" horiz-adv-x="0" 
d="M90 606h-179l-146 179h159l76 -96l77 96h159z" />
    </font>
</defs>
</svg>
