<?xml version="1.0" encoding="UTF-8" standalone="no"?>
<svg
   xmlns:osb="http://www.openswatchbook.org/uri/2009/osb"
   xmlns:dc="http://purl.org/dc/elements/1.1/"
   xmlns:cc="http://creativecommons.org/ns#"
   xmlns:rdf="http://www.w3.org/1999/02/22-rdf-syntax-ns#"
   xmlns:svg="http://www.w3.org/2000/svg"
   xmlns="http://www.w3.org/2000/svg"
   width="508.1897mm"
   height="115.86013mm"
   viewBox="0 0 508.1897 115.86013"
   version="1.1"
   id="svg8">
  <defs
     id="defs2">
    <linearGradient
       id="linearGradient2800"
       osb:paint="solid">
      <stop
         style="stop-color:#008000;stop-opacity:1;"
         offset="0"
         id="stop2798" />
    </linearGradient>
    <filter
       style="color-interpolation-filters:sRGB"
       id="filter2832">
      <feGaussianBlur
         stdDeviation="34.8689 2"
         result="blur"
         id="feGaussianBlur2830" />
    </filter>
  </defs>
  <metadata
     id="metadata5">
    <rdf:RDF>
      <cc:Work
         rdf:about="">
        <dc:format>image/svg+xml</dc:format>
        <dc:type
           rdf:resource="http://purl.org/dc/dcmitype/StillImage" />
        <dc:title></dc:title>
      </cc:Work>
    </rdf:RDF>
  </metadata>
  <g
     id="layer1"
     transform="translate(119.63704,-70.263669)"
     style="fill:#e6e6e6;fill-opacity:1;fill-rule:evenodd;stroke:none;stroke-opacity:1">
    <path
       style="fill:#e6e6e6;stroke:none;stroke-width:0.26458300000000001px;stroke-linecap:butt;stroke-linejoin:miter;stroke-opacity:1;fill-opacity:1;fill-rule:evenodd"
       d="M -119.50447,185.99151 H 388.49554 L 263.26438,126.02605 172.22066,136.78984 128.717,110.32886 81.625416,126.92303 30.048918,105.84394 l -58.30387,0.89698 -30.945901,-36.327786 -60.097837,16.145687 z"
       id="path911" />
  </g>
  <g
     id="layer1-3-0"
     transform="translate(160.55653,256.71563)"
     style="fill:#000000;fill-opacity:1;fill-rule:evenodd;stroke:#000000;stroke-opacity:1">
    <path
       style="fill:#000000;fill-opacity:1;fill-rule:evenodd;stroke:#000000;stroke-width:0.264583px;stroke-linecap:butt;stroke-linejoin:miter;stroke-opacity:1"
       d="m -119.27852,97.193851 57.116961,-15.533941 30.90697,35.98226 61.320975,-1.89232 50.927356,22.51009 47.312188,-16.8049 44.14891,27.48096 90.04891,-13.105 106.76909,50.16051 h 19.2227 L 263.26438,126.02605 172.22066,136.78984 128.717,110.32886 81.625416,126.92303 30.048918,105.84394 l -58.30387,0.89698 -30.945901,-36.327786 -60.097837,16.145687 z"
       id="path911-9-5" />
  </g>
  <g
     id="layer1-3-5"
     transform="translate(826.46931,-42.453094)"
     style="fill:#ffffff;fill-opacity:1;fill-rule:evenodd;stroke:#000000;stroke-opacity:1">
    <path
       style="fill:#ffffff;fill-opacity:1;fill-rule:evenodd;stroke:#000000;stroke-width:0.264583px;stroke-linecap:butt;stroke-linejoin:miter;stroke-opacity:1"
       d="m -118.63944,91.442148 57.116959,-15.533941 30.90697,35.982263 61.320975,-1.89232 50.927356,22.51009 47.31219,-16.8049 44.14891,27.48096 90.04891,-13.105 115.07711,55.59267 10.2756,0.31954 -125.23116,-59.96546 -91.04372,10.76379 -43.50366,-26.46098 -47.091584,16.59417 -51.576498,-21.07909 -58.30387,0.89698 -30.945901,-36.327786 -60.097837,16.145687 z"
       id="path911-9-7" />
  </g>
</svg>
