<?xml version="1.0" encoding="UTF-8"?>
<svg width="23px" height="23px" viewBox="0 0 23 23" version="1.1" xmlns="http://www.w3.org/2000/svg" xmlns:xlink="http://www.w3.org/1999/xlink">
    <defs>
        <path d="M22.9583333,14.5 L22.9583333,22.9583333 L6.04166667,22.9583333 L6.04166667,14.5 L3.625,14.5 L3.625,22.9583333 C3.625,24.2875 4.7125,25.375 6.04166667,25.375 L22.9583333,25.375 C24.2875,25.375 25.375,24.2875 25.375,22.9583333 L25.375,14.5 L22.9583333,14.5 Z M15.7083333,15.3095833 L18.8379167,12.1920833 L20.5416667,13.8958333 L14.5,19.9375 L8.45833333,13.8958333 L10.1620833,12.1920833 L13.2916667,15.3095833 L13.2916667,3.625 L15.7083333,3.625 L15.7083333,15.3095833 Z" id="path-1"></path>
    </defs>
    <g id="Page-1" stroke="none" stroke-width="1" fill="none" fill-rule="evenodd">
        <g id="Landingpage" transform="translate(-329.000000, -1214.000000)">
            <g id="icon/content/save_alt_24px" transform="translate(326.000000, 1211.000000)">
                <mask id="mask-2" fill="white">
                    <use xlink:href="#path-1"></use>
                </mask>
                <g fill-rule="nonzero"></g>
                <g id="Color-/-Highlight" mask="url(#mask-2)" fill="#cc1719" fill-rule="evenodd">
                    <polygon id="Color" points="0 0 29 0 29 29 0 29"></polygon>
                </g>
            </g>
        </g>
    </g>
</svg>