<?xml version="1.0" encoding="UTF-8"?>
<svg width="87px" height="104px" viewBox="0 0 87 104" version="1.1" xmlns="http://www.w3.org/2000/svg" xmlns:xlink="http://www.w3.org/1999/xlink">
    <!-- Generator: Sketch 61.2 (89653) - https://sketch.com -->
    <title>Group 3</title>
    <desc>Created with Sketch.</desc>
    <defs>
        <polygon id="path-1" points="0.000795614187 0.0185024967 86.3277273 0.0185024967 86.3277273 103.839612 0.000795614187 103.839612"></polygon>
    </defs>
    <g id="Symbols" stroke="none" stroke-width="1" fill="none" fill-rule="evenodd">
        <g id="Mitmachen-2" transform="translate(-295.000000, -256.000000)">
            <g id="Group-6" transform="translate(295.000000, 256.000000)">
                <g id="Group-3">
                    <mask id="mask-2" fill="white">
                        <use xlink:href="#path-1"></use>
                    </mask>
                    <g id="Clip-2"></g>
                    <path d="M64.6839516,50.3832669 C65.8915644,50.795117 67.0991771,51.2049774 68.3067898,51.6168274 C69.6099971,48.4294662 72.2612825,45.0252371 71.8145244,42.1144322 C71.4184898,39.5339031 67.5830025,37.4985283 65.2672735,35.2263894 C64.4556953,35.8869411 63.646068,36.5494825 62.8344898,37.2100343 C63.4509771,41.6011118 64.0674644,45.9921894 64.6839516,50.3832669 M56.9056771,14.2857047 C47.3462225,30.8890314 54.3714462,47.2655422 58.0762225,63.5366034 C58.9404753,67.3228384 62.2921371,70.5201477 64.4986153,73.9880444 C64.847828,73.5244644 65.1950898,73.0588948 65.5404007,72.5953148 C62.6628098,53.1607677 59.783268,33.7222414 56.9056771,14.2857047 M36.5908607,29.0028776 C42.6679425,23.1832573 48.7606316,17.3775644 54.8143025,11.5340688 C56.3847844,10.0179832 57.7718807,8.3009465 59.3579698,6.80475696 C61.9565807,4.34758398 65.8837607,-0.53492816 67.0757662,0.0699144196 C70.7785916,1.9481098 73.4591407,5.92335807 75.1310698,10.173173 C71.6486971,7.90700298 68.1682753,5.64481215 64.6859025,3.37864208 C63.4802407,7.93684718 61.907808,12.4313846 61.1489044,17.0632055 C59.7422989,25.6384407 60.1832044,32.4389405 70.7981007,36.0043283 C79.1518935,38.8116733 76.9649244,48.0215954 66.049588,55.9800504 C68.8881607,65.1481905 68.8374371,75.8284372 80.0688207,83.844591 C88.1221735,61.8991513 81.8948716,41.9433254 80.3536535,21.5139714 C81.5846771,26.1079896 83.4790098,30.6363505 83.9160135,35.3079635 C85.1158225,48.0972007 86.779948,60.993877 86.2141844,73.7552596 C85.685488,85.6710564 80.4336407,86.5783202 70.5795989,80.4125072 C60.6494716,74.1969539 49.4629589,70.0645261 38.8266025,65.0188657 C37.9233316,65.8306281 37.0200607,66.6404009 36.1187407,67.4521633 C37.5058371,73.4826825 39.5855062,79.4574926 40.0673807,85.5656068 C40.4712189,90.6908519 40.3600171,96.8288103 37.8843135,100.861757 C36.3528498,103.354743 28.3619262,104.838995 26.1203316,103.056301 C22.464328,100.145496 19.4911425,94.30598 19.1711935,89.4990732 C18.515688,79.6027344 15.7980716,72.0640879 7.65107527,65.8007839 C3.64585891,62.7208618 -0.205235636,56.1810014 0.00936436364,51.3979699 C0.344920727,43.8374377 4.69739891,37.6278532 13.8354571,36.0520791 C21.6937189,34.6971521 29.2125225,31.2849645 36.8698407,28.7879993 C29.5734407,32.2399791 22.5794316,36.9115922 14.9260153,38.7937668 C7.08726255,40.7236922 3.41565164,45.9862205 3.25372618,52.3052338 C3.150328,56.3182847 8.05686436,60.5800374 10.983228,64.5214622 C12.850248,67.036334 16.2448298,68.8190279 17.1363953,71.5467884 C19.3350698,78.2696932 20.8567789,85.2870609 21.9395335,92.2984598 C22.8525589,98.2275087 25.5175007,101.72326 31.4385098,100.975165 C37.4804753,100.211154 39.7923025,95.6788135 38.1867044,90.1198327 C36.842528,85.4661262 34.202948,81.1685605 31.9028262,76.8431402 C29.6982989,72.6947955 27.1933316,68.7135784 24.8190753,64.6607352 L26.4949062,61.8971617 C36.0348516,63.4271747 45.5786989,64.955198 54.5158135,66.3897095 C52.1591153,52.4703717 49.804368,38.5709301 47.4476698,24.6615404 C43.6765625,26.1696676 40.1337116,27.5862726 36.5908607,29.0028776" id="Fill-1" fill="#FFFFFF" mask="url(#mask-2)"></path>
                </g>
            </g>
        </g>
    </g>
</svg>