<?xml version="1.0" encoding="UTF-8" standalone="no"?>
<svg
   xmlns:dc="http://purl.org/dc/elements/1.1/"
   xmlns:cc="http://creativecommons.org/ns#"
   xmlns:rdf="http://www.w3.org/1999/02/22-rdf-syntax-ns#"
   xmlns:svg="http://www.w3.org/2000/svg"
   xmlns="http://www.w3.org/2000/svg"
   xmlns:xlink="http://www.w3.org/1999/xlink"
   id="svg18"
   version="1.1"
   viewBox="0 0 87 104"
   height="104px"
   width="87px">
  <metadata
     id="metadata22">
    <rdf:RDF>
      <cc:Work
         rdf:about="">
        <dc:format>image/svg+xml</dc:format>
        <dc:type
           rdf:resource="http://purl.org/dc/dcmitype/StillImage" />
        <dc:title>Group 3</dc:title>
      </cc:Work>
    </rdf:RDF>
  </metadata>
  <!-- Generator: Sketch 61.2 (89653) - https://sketch.com -->
  <title
     id="title2">Group 3</title>
  <desc
     id="desc4">Created with Sketch.</desc>
  <defs
     id="defs7">
    <polygon
       points="0.000795614187 0.0185024967 86.3277273 0.0185024967 86.3277273 103.839612 0.000795614187 103.839612"
       id="path-1" />
    <polygon
       id="path-1-2"
       points="0 0 87 0 87 88 0 88" />
  </defs>
  <g
     transform="translate(7.9561755e-4,8.8284692)"
     style="fill:#ffffff;fill-rule:evenodd;stroke:none;stroke-width:1"
     id="Symbols-9">
    <g
       style="fill:#ffffff"
       id="Mitmachen-2-1"
       transform="translate(-683,-272)">
      <g
         style="fill:#ffffff"
         id="Group-7"
         transform="translate(572,272)">
        <g
           style="fill:#ffffff"
           id="Group-2"
           transform="translate(22)">
          <g
             style="fill:#ffffff"
             id="Group-3-2"
             transform="translate(89)">
            <mask
               id="mask-2-7"
               fill="white">
              <use
                 height="100%"
                 width="100%"
                 y="0"
                 x="0"
                 xlink:href="#path-1-2"
                 id="use186" />
            </mask>
            <g
               style="fill:#ffffff"
               id="Clip-2-0" />
            <path
               style="fill:#ffffff"
               d="m 3.3045166,11.170251 c 2.5355054,0 4.7707178,0.212495 6.9529374,-0.03564 C 20.717433,9.939153 31.159747,8.579187 41.618367,7.3700236 44.545205,7.0300322 47.506012,6.9998716 50.451873,6.8285049 50.551064,6.1841662 50.650256,5.5398275 50.749448,4.8954888 48.923232,4.1414754 47.106527,2.7623163 45.269441,2.7321558 33.109614,2.5347413 20.944351,2.603288 8.7818061,2.6334485 3.7637882,2.6471579 1.8682737,5.1847557 3.3045166,11.170251 Z m -0.2242007,62.62287 c -1.0272465,10.893437 -0.4687831,11.547372 9.2044551,11.559711 9.927333,0.01365 19.854665,0.02331 29.780639,-0.0027 9.091675,-0.02468 10.209961,-1.529962 8.31037,-11.556969 z M 50.833693,51.220701 c -7.810335,4.266345 -14.8217,8.096733 -22.955428,12.539929 2.089822,-4.779074 3.588569,-8.207779 5.388968,-12.326063 -7.125504,-0.294751 -7.944855,-4.678996 -7.664944,-9.970799 0.192949,-3.643941 0.14675,-7.307075 0.04348,-10.957871 C 25.084589,10.39019 29.405547,14.22332 8.1934493,13.628335 3.5654046,13.498096 2.4498366,15.459902 2.5082646,19.734472 2.6957779,33.431469 2.5748454,47.133949 2.5721278,60.835058 V 70.06144 H 50.833693 Z M 35.48614,55.026413 c 0.38318,0.481197 0.766359,0.961024 1.148179,1.440851 10.325459,-10.144908 23.066849,-8.25302 35.433213,-8.226972 2.490665,0.0041 5.215042,0.622404 7.401338,-0.202898 1.968889,-0.744417 4.67832,-3.011941 4.763924,-4.725608 0.468783,-9.340169 0.172567,-18.717354 0.259529,-28.079459 0.03805,-3.957885 -1.985194,-5.029955 -5.538435,-5.00802 -15.165474,0.08911 -30.332308,0.100078 -45.499141,-0.0086 -3.788312,-0.02706 -5.253089,1.500164 -5.181073,5.28394 0.142673,7.533279 0.324751,15.088494 -0.05979,22.605322 -0.345133,6.739509 0.04484,12.197195 9.533283,10.066764 -0.914467,2.770657 -1.587069,4.813348 -2.26103,6.854668 z M 0.02846968,44.205635 C 0.03390485,32.565039 -0.05034024,20.924443 0.06515706,9.2852177 0.13989061,1.6271834 1.6970659,0.15891365 9.4109267,0.11915658 21.173987,0.05746457 32.950635,-0.20164185 44.690596,0.31794193 c 3.023311,0.13435148 5.918896,2.89129867 8.896009,4.39521267 1.828934,0.9226382 3.671455,2.4196976 5.560176,2.5060664 6.773577,0.3098309 13.568894,0.2248331 20.353342,0.1041909 5.005788,-0.089111 7.583416,1.8726951 7.497812,7.2412711 -0.156261,9.81177 -0.156261,19.629025 -0.0082,29.440796 0.07609,5.083421 -2.330328,6.891682 -7.075229,6.798459 -6.783088,-0.132981 -13.575688,0.131609 -20.357418,-0.05347 -4.016588,-0.111045 -5.694696,1.280452 -5.556099,5.520749 0.244582,7.523683 -0.02446,15.062446 0.0856,22.592984 0.08968,6.269278 -2.701279,9.205818 -9.012866,9.134529 C 33.086514,87.860269 21.095177,88.0522 9.1065573,87.934299 1.5910802,87.860269 0.11135598,86.272728 0.04885156,78.440585 -0.04490507,67.030306 0.02439331,55.617285 0.02846968,44.205635 Z"
               id="Fill-1-9"
               mask="url(#mask-2-7)" />
          </g>
        </g>
      </g>
    </g>
  </g>
</svg>
