<?xml version="1.0" encoding="UTF-8"?>
<svg width="78px" height="82px" viewBox="0 0 78 82" version="1.1" xmlns="http://www.w3.org/2000/svg" xmlns:xlink="http://www.w3.org/1999/xlink">
    <title>Group</title>
    <g id="Page-1" stroke="none" stroke-width="1" fill="none" fill-rule="evenodd">
        <g id="Group" transform="translate(0.595483, 0.920000)" fill-rule="nonzero">
            <path d="M2.26451732,0 C0.928801826,0.106519355 -0.0759809114,1.2624641 0.00451732098,2.6 L0.00451732098,77.6 C-0.0759809114,78.9375359 0.928801826,80.0934806 2.26451732,80.2 L74.5445173,80.2 C75.8802328,80.0934806 76.8850156,78.9375359 76.8045173,77.6 L76.8045173,2.6 C76.8850156,1.2624641 75.8802328,0.106519355 74.5445173,0 L2.26451732,0 Z" id="Path" fill="#CD1719"></path>
            <path d="M7.80451732,20.62 C7.70130387,20.6367897 7.59624083,20.6036667 7.52131936,20.5307168 C7.44639788,20.457767 7.41048549,20.3536244 7.42451732,20.25 L7.42451732,8.67 C7.41048549,8.5663756 7.44639788,8.46223303 7.52131936,8.38928317 C7.59624083,8.31633331 7.70130387,8.28321033 7.80451732,8.3 L10.4045173,8.3 C10.6645173,8.3 10.7845173,8.42 10.7845173,8.67 L10.7845173,20.25 C10.7845173,20.5 10.6645173,20.62 10.4045173,20.62 L7.80451732,20.62 Z" id="Path" fill="#FFFFFF"></path>
            <path d="M12.1845173,20.62 C11.9545173,20.62 11.8345173,20.49 11.8345173,20.23 L11.8345173,10.42 C11.8345173,10.16 11.9545173,10.03 12.1845173,10.03 L13.8245173,10.03 C13.9410611,10.0217202 14.0578471,10.0423295 14.1645173,10.09 C14.246894,10.1708421 14.3086285,10.2703033 14.3445173,10.38 L14.6845173,11.45 C14.8961781,11.0022314 15.203382,10.6062797 15.5845173,10.29 C15.9496155,9.9874013 16.4103539,9.82437077 16.8845173,9.83 C17.6555403,9.78764802 18.3998464,10.1188642 18.8845173,10.72 C19.3609753,11.4632483 19.5886203,12.3388059 19.5345173,13.22 L19.5345173,20.22 C19.5345173,20.47 19.4245173,20.6 19.1945173,20.6 L16.5245173,20.6 C16.2945173,20.6 16.1845173,20.47 16.1845173,20.22 L16.1845173,13.22 C16.1845173,12.92 16.0145173,12.78 15.7645173,12.77 C15.5793745,12.7623252 15.4041362,12.8537539 15.3045173,13.01 C15.212139,13.1492533 15.1633945,13.3128953 15.1645173,13.48 L15.1645173,20.25 C15.1614424,20.3668552 15.0967765,20.4733638 14.9945173,20.53 C14.8949871,20.6003488 14.7763926,20.6387176 14.6545173,20.64 L12.1845173,20.62 Z" id="Path" fill="#FFFFFF"></path>
            <path d="M21.1545173,9.45 C20.6845173,9.45 20.4445173,9.25 20.4445173,8.85 L20.4445173,7.44 C20.4202589,7.24693918 20.4880416,7.05368867 20.627581,6.91807999 C20.7671203,6.7824713 20.9622282,6.72023659 21.1545173,6.75 L23.3145173,6.75 C23.7545173,6.75 23.9745173,6.98 23.9745173,7.44 L23.9745173,8.84 C23.9905991,9.0153282 23.9325797,9.18938652 23.8145173,9.32 C23.6671302,9.41814497 23.4910433,9.46392755 23.3145173,9.45 L21.1545173,9.45 Z M20.9145173,20.62 C20.6545173,20.62 20.5245173,20.5 20.5245173,20.25 L20.5245173,10.39 C20.5196944,10.2889442 20.5644873,10.1918929 20.6445173,10.13 C20.7184681,10.0634488 20.8150569,10.0276752 20.9145173,10.03 L23.4945173,10.03 C23.5934108,10.0244973 23.6902028,10.0599823 23.7621058,10.128101 C23.8340089,10.1962197 23.8746703,10.2909536 23.8745173,10.39 L23.8745173,20.25 C23.8885492,20.3536244 23.8526368,20.457767 23.7777153,20.5307168 C23.7027938,20.6036667 23.5977308,20.6367897 23.4945173,20.62 L20.9145173,20.62 Z" id="Shape" fill="#FFFFFF"></path>
            <path d="M25.7145173,20.62 C25.5145173,20.62 25.4145173,20.5 25.4145173,20.25 L25.4145173,12.96 L24.9145173,12.96 C24.8203328,12.9592848 24.7289882,12.9276656 24.6545173,12.87 C24.5746843,12.8124302 24.5295007,12.7182977 24.5345173,12.62 L24.5345173,10.36 C24.53482,10.2659204 24.5840723,10.1787818 24.6645173,10.13 C24.7317786,10.0655842 24.8213862,10.0297412 24.9145173,10.03 L25.4145173,10.03 L25.4145173,8.55 C25.4055909,8.44193904 25.430023,8.33374015 25.4845173,8.24 C25.5581781,8.14908002 25.6603516,8.08566199 25.7745173,8.06 L28.1445173,7.32 C28.2888668,7.26684541 28.450232,7.28936147 28.5745173,7.38 C28.7064114,7.48578876 28.7744482,7.65210102 28.7545173,7.82 L28.7545173,10.08 L29.6445173,10.08 C29.7372628,10.0817025 29.8261826,10.1172704 29.8945173,10.18 C29.9722848,10.2313293 30.0206511,10.3169004 30.0245173,10.41 L30.0245173,12.67 C30.0277436,12.7679296 29.9829433,12.8612635 29.9045173,12.92 C29.8316621,12.9805897 29.7392397,13.012582 29.6445173,13.01 L28.7545173,13.01 L28.7545173,20.3 C28.7545173,20.55 28.6545173,20.67 28.4345173,20.67 L25.7145173,20.62 Z" id="Path" fill="#FFFFFF"></path>
            <path d="M31.3045173,9.45 C30.8345173,9.45 30.5945173,9.25 30.5945173,8.85 L30.5945173,7.44 C30.5702589,7.24693918 30.6380416,7.05368867 30.777581,6.91807999 C30.9171203,6.7824713 31.1122282,6.72023659 31.3045173,6.75 L33.4645173,6.75 C33.9045173,6.75 34.1245173,6.98 34.1245173,7.44 L34.1245173,8.84 C34.1433675,9.01747695 34.0808673,9.19394811 33.9545173,9.32 C33.8115847,9.41967415 33.6380623,9.46571069 33.4645173,9.45 L31.3045173,9.45 Z M31.0545173,20.62 C30.9513039,20.6367897 30.8462408,20.6036667 30.7713194,20.5307168 C30.6963979,20.457767 30.6604855,20.3536244 30.6745173,20.25 L30.6745173,10.39 C30.6696944,10.2889442 30.7144873,10.1918929 30.7945173,10.13 C30.8659182,10.0657959 30.9584953,10.0301893 31.0545173,10.03 L33.6445173,10.03 C33.7434108,10.0244973 33.8402028,10.0599823 33.9121058,10.128101 C33.9840089,10.1962197 34.0246703,10.2909536 34.0245173,10.39 L34.0245173,20.25 C34.0385492,20.3536244 34.0026368,20.457767 33.9277153,20.5307168 C33.8527938,20.6036667 33.7477308,20.6367897 33.6445173,20.62 L31.0545173,20.62 Z" id="Shape" fill="#FFFFFF"></path>
            <path d="M38.1845173,20.83 C37.2332427,20.8923627 36.3089534,20.4988901 35.6945173,19.77 C35.1586376,19.0880698 34.8853966,18.2364095 34.9245173,17.37 L34.9245173,13.37 C34.8788211,12.4440756 35.1661615,11.5323905 35.7345173,10.8 C36.3410104,10.1193074 37.224128,9.75134167 38.1345173,9.8 C38.8917015,9.81590555 39.5790969,10.2460077 39.9245173,10.92 L40.0945173,10.38 C40.1219373,10.2631293 40.180713,10.1559502 40.2645173,10.07 C40.3651522,10.0144861 40.4800114,9.99012202 40.5945173,10 L42.2445173,10 C42.4845173,10 42.6045173,10.13 42.6045173,10.39 L42.6045173,20.2 C42.6045173,20.46 42.4845173,20.59 42.2445173,20.59 L40.4745173,20.59 C40.3850829,20.5974062 40.2970296,20.5643862 40.2345173,20.5 C40.1684117,20.4102773 40.1208209,20.308297 40.0945173,20.2 L39.9245173,19.66 C39.6118249,20.3471435 38.9388529,20.7996591 38.1845173,20.83 L38.1845173,20.83 Z M38.6845173,17.89 C38.8767384,17.9064581 39.060727,17.8085918 39.1545173,17.64 C39.2337206,17.4930929 39.2684663,17.3263138 39.2545173,17.16 L39.2545173,13.39 C39.2529233,13.240341 39.2077482,13.0943905 39.1245173,12.97 C39.0294325,12.8213714 38.8604711,12.7368906 38.6845173,12.75 C38.4045173,12.75 38.2645173,12.92 38.2645173,13.25 L38.2645173,17.4 C38.2645173,17.72 38.4045173,17.89 38.6845173,17.89 Z" id="Shape" fill="#FFFFFF"></path>
            <path d="M44.4045173,20.62 C44.2045173,20.62 44.1045173,20.5 44.1045173,20.25 L44.1045173,12.96 L43.6045173,12.96 C43.5103328,12.9592848 43.4189882,12.9276656 43.3445173,12.87 C43.2646843,12.8124302 43.2195007,12.7182977 43.2245173,12.62 L43.2245173,10.36 C43.2244461,10.2683099 43.2692716,10.1823943 43.3445173,10.13 C43.4159182,10.0657959 43.5084953,10.0301893 43.6045173,10.03 L44.1045173,10.03 L44.1045173,8.55 C44.0955909,8.44193904 44.120023,8.33374015 44.1745173,8.24 C44.2481781,8.14908002 44.3503516,8.08566199 44.4645173,8.06 L46.8345173,7.32 C46.9788668,7.26684541 47.140232,7.28936147 47.2645173,7.38 C47.3964114,7.48578876 47.4644482,7.65210102 47.4445173,7.82 L47.4445173,10.08 L48.4045173,10.08 C48.4972628,10.0817025 48.5861826,10.1172704 48.6545173,10.18 C48.7289539,10.2343653 48.7763321,10.3181883 48.7845173,10.41 L48.7845173,12.67 C48.7877436,12.7679296 48.7429433,12.8612635 48.6645173,12.92 C48.5916621,12.9805897 48.4992397,13.012582 48.4045173,13.01 L47.5145173,13.01 L47.5145173,20.3 C47.5145173,20.55 47.4045173,20.67 47.1945173,20.67 L44.4045173,20.62 Z" id="Path" fill="#FFFFFF"></path>
            <path d="M50.0245173,9.45 C49.5545173,9.45 49.3145173,9.25 49.3145173,8.85 L49.3145173,7.44 C49.2902589,7.24693918 49.3580416,7.05368867 49.497581,6.91807999 C49.6371203,6.7824713 49.8322282,6.72023659 50.0245173,6.75 L52.1845173,6.75 C52.6245173,6.75 52.8445173,6.98 52.8445173,7.44 L52.8445173,8.84 C52.8633675,9.01747695 52.8008673,9.19394811 52.6745173,9.32 C52.5312243,9.41889449 52.3579887,9.46485496 52.1845173,9.45 L50.0245173,9.45 Z M49.7745173,20.62 C49.6713039,20.6367897 49.5662408,20.6036667 49.4913194,20.5307168 C49.4163979,20.457767 49.3804855,20.3536244 49.3945173,20.25 L49.3945173,10.39 C49.3896944,10.2889442 49.4344873,10.1918929 49.5145173,10.13 C49.5859182,10.0657959 49.6784953,10.0301893 49.7745173,10.03 L52.4045173,10.03 C52.5034108,10.0244973 52.6002028,10.0599823 52.6721058,10.128101 C52.7440089,10.1962197 52.7846703,10.2909536 52.7845173,10.39 L52.7845173,20.25 C52.7985492,20.3536244 52.7626368,20.457767 52.6877153,20.5307168 C52.6127938,20.6036667 52.5077308,20.6367897 52.4045173,20.62 L49.7745173,20.62 Z" id="Shape" fill="#FFFFFF"></path>
            <path d="M56.3345173,20.62 C56.1104062,20.6285271 55.914226,20.47073 55.8745173,20.25 L53.4045173,10.68 C53.3570018,10.5201224 53.3570018,10.3498776 53.4045173,10.19 C53.4545173,10.08 53.5545173,10.03 53.7245173,10.03 L56.4045173,10.03 C56.5156253,10.0188107 56.6263522,10.0545767 56.7099201,10.1286482 C56.7934879,10.2027197 56.8422876,10.3083523 56.8445173,10.42 L57.5345173,15.93 L57.6845173,17.93 L57.8545173,15.93 L58.5745173,10.39 C58.5844771,10.2817469 58.6380685,10.1822104 58.722957,10.1142996 C58.8078455,10.0463888 58.9167183,10.015954 59.0245173,10.03 L61.6945173,10.03 C62.0245173,10.03 62.1345173,10.25 62.0045173,10.68 L59.4845173,20.25 C59.4536447,20.4716373 59.2579424,20.6325481 59.0345173,20.62 L56.3345173,20.62 Z" id="Path" fill="#FFFFFF"></path>
            <path d="M66.2445173,20.83 C65.2471609,20.8517682 64.2786773,20.4943942 63.5345173,19.83 C62.8250168,19.2495496 62.4198357,18.3765687 62.4345173,17.46 L62.4345173,13.19 C62.42694,12.2721129 62.8304837,11.3989912 63.5345173,10.81 C64.2754756,10.1402969 65.2461467,9.78211564 66.2445173,9.81 C67.2173089,9.77433485 68.1628804,10.13524 68.8645173,10.81 C69.5236364,11.4232857 69.8877985,12.2899915 69.8645173,13.19 L69.8645173,15.69 C69.8708558,15.8117115 69.8275549,15.9307889 69.7445173,16.02 C69.6442633,16.0963895 69.5204462,16.1353034 69.3945173,16.13 L65.7745173,16.13 L65.7745173,17.55 C65.7781517,17.6671463 65.8329809,17.7768047 65.9245173,17.85 C66.020558,17.9360157 66.1456126,17.9824645 66.2745173,17.98 C66.4043153,17.9880904 66.5314726,17.9408605 66.6245173,17.85 C66.7096558,17.7655113 66.7566119,17.6499271 66.7545173,17.53 L66.7545173,17.21 C66.7554113,17.1464993 66.7804386,17.0857188 66.8245173,17.04 C66.8787835,16.9828972 66.9560126,16.9534766 67.0345173,16.96 L69.5645173,16.96 C69.7545173,16.96 69.8445173,17.05 69.8445173,17.23 L69.8445173,17.47 C69.8610933,18.3658214 69.4978026,19.2268205 68.8445173,19.84 C68.1480108,20.5090035 67.2095911,20.8663248 66.2445173,20.83 L66.2445173,20.83 Z M65.7745173,13.93 L66.7745173,13.93 L66.7745173,13.08 C66.7724417,12.9618167 66.721808,12.8496991 66.6345173,12.77 C66.54455,12.6807172 66.4211013,12.6335162 66.2945173,12.64 C66.1656126,12.6375355 66.040558,12.6839843 65.9445173,12.77 C65.8529809,12.8431953 65.7981517,12.9528537 65.7945173,13.07 L65.7745173,13.93 Z" id="Shape" fill="#FFFFFF"></path>
            <path d="M8.23451732,35.08 C8.06451732,35.08 7.97451732,34.98 7.97451732,34.78 L7.97451732,28.78 L7.49451732,28.78 C7.41417548,28.7793748 7.33649476,28.7511273 7.27451732,28.7 C7.20722483,28.651908 7.16943764,28.5725549 7.17451732,28.49 L7.17451732,26.58 C7.17892256,26.505218 7.21536893,26.4359699 7.27451732,26.39 C7.33511463,26.3365044 7.41371202,26.3079236 7.49451732,26.31 L7.97451732,26.31 L7.97451732,25.81 C7.87684369,24.9528725 8.28684078,24.1172594 9.02451732,23.67 C9.80772857,23.3436337 10.6632144,23.2297989 11.5045173,23.34 C11.6209911,23.336756 11.7358176,23.3680724 11.8345173,23.43 C11.9036368,23.5177245 11.9359135,23.6288999 11.9245173,23.74 L11.9245173,25.26 C11.9245173,25.41 11.9245173,25.51 11.8145173,25.56 C11.703998,25.6188347 11.579553,25.6464891 11.4545173,25.64 C11.2894918,25.6255349 11.12322,25.6425014 10.9645173,25.69 C10.81495,25.7685978 10.7308991,25.9326974 10.7545173,26.1 L10.7545173,26.31 L14.2145173,26.31 C14.3317274,26.3202317 14.4288173,26.4051854 14.4545173,26.52 L14.4545173,26.58 L14.4545173,34.78 C14.4545173,34.98 14.3445173,35.08 14.1345173,35.08 L11.9945173,35.08 C11.7845173,35.08 11.6845173,34.98 11.6845173,34.78 L11.6845173,28.78 L10.6845173,28.78 L10.6845173,34.78 C10.6845173,34.98 10.6045173,35.08 10.4345173,35.08 L8.23451732,35.08 Z" id="Path" fill="#FFFFFF"></path>
            <path d="M18.2845173,35.25 C17.3368009,35.3517083 16.3925497,35.0296381 15.7045173,34.37 C15.2966859,33.8239923 15.0980112,33.1499177 15.1445173,32.47 L15.1445173,32.47 C15.1445173,32.3 15.3145173,32.22 15.6345173,32.22 L17.5545173,32.22 C17.7145173,32.22 17.7945173,32.31 17.7945173,32.48 L17.7945173,32.6 C17.7945173,32.83 17.9145173,32.94 18.1645173,32.95 C18.4145173,32.96 18.5845173,32.82 18.5845173,32.58 C18.5845173,32.34 18.3545173,32.15 17.8845173,31.93 L17.2545173,31.67 C17.0471687,31.5893392 16.8465403,31.4923689 16.6545173,31.38 C15.7427655,30.8948672 15.1876368,29.9321264 15.2245173,28.9 C15.2104831,28.1609032 15.5255741,27.4537804 16.0845173,26.97 C17.3749785,25.942533 19.2040562,25.942533 20.4945173,26.97 C21.0011371,27.5093871 21.2680445,28.2307585 21.2345173,28.97 L21.2345173,29.02 C21.2345173,29.12 21.2345173,29.17 21.1645173,29.2 C21.0652544,29.2171711 20.9637802,29.2171711 20.8645173,29.2 L18.9945173,29.2 C18.9145296,29.2093922 18.8343708,29.1838871 18.7745173,29.13 C18.7197765,29.0747069 18.6939005,28.997079 18.7045173,28.92 L18.7045173,28.92 C18.7045173,28.68 18.5945173,28.56 18.3745173,28.56 C18.1345173,28.56 18.0245173,28.7 18.0245173,28.98 C18.0201545,29.0687158 18.0447198,29.1564491 18.0945173,29.23 C18.1627386,29.3086035 18.2483343,29.3702324 18.3445173,29.41 C18.4905693,29.4911476 18.6407754,29.5645818 18.7945173,29.63 C19.0306578,29.7228934 19.2610646,29.8297487 19.4845173,29.95 C20.0511417,30.2008516 20.5461257,30.5892765 20.9245173,31.08 C21.2314161,31.516153 21.3956136,32.0366941 21.3945173,32.57 C21.4279604,33.3308587 21.1155135,34.0660279 20.5445173,34.57 C19.9007657,35.0675106 19.0959183,35.3096771 18.2845173,35.25 Z" id="Path" fill="#FFFFFF"></path>
            <path d="M25.0545173,35.25 C24.2397284,35.2812153 23.4420875,35.0105871 22.8145173,34.49 C22.2112877,34.0044121 21.8707096,33.264025 21.8945173,32.49 L21.8945173,28.92 C21.8798625,28.1478603 22.2186751,27.4113111 22.8145173,26.92 C23.4301998,26.3736048 24.2317635,26.0837536 25.0545173,26.11 C25.8656077,26.0816079 26.6554868,26.3724271 27.2545173,26.92 C27.8151143,27.4314067 28.1253906,28.1614685 28.1045173,28.92 L28.1045173,29.7 C28.1045173,29.81 28.1045173,29.88 28.1045173,29.92 C28.1045173,29.96 28.0045173,29.98 27.8945173,29.98 L25.8945173,29.98 C25.7940097,29.9897427 25.6929075,29.968825 25.6045173,29.92 C25.5547828,29.8501849 25.5301138,29.7656053 25.5345173,29.68 L25.5345173,28.94 C25.5386439,28.8412322 25.4982757,28.7458165 25.4245173,28.68 C25.3535405,28.600536 25.2510098,28.5565942 25.1445173,28.56 C25.0345859,28.5596413 24.9281607,28.5986639 24.8445173,28.67 C24.7697456,28.7316678 24.7258639,28.8230881 24.7245173,28.92 L24.7245173,32.47 C24.7283902,32.566301 24.7718024,32.6567432 24.8445173,32.72 C24.9291265,32.7885291 25.0357125,32.8240578 25.1445173,32.82 C25.2498773,32.8288647 25.3533648,32.7882089 25.4245173,32.71 C25.4982757,32.6441835 25.5386439,32.5487678 25.5345173,32.45 L25.5345173,31.92 C25.5252531,31.838542 25.5466418,31.756552 25.5945173,31.69 C25.5945173,31.64 25.7045173,31.62 25.8145173,31.62 L27.9145173,31.62 C27.9867445,31.6098688 28.0597944,31.6317838 28.1145173,31.68 C28.1391387,31.7443934 28.1391387,31.8156066 28.1145173,31.88 L28.1145173,32.47 C28.1394629,33.2292972 27.8284918,33.9609938 27.2645173,34.47 C26.6588545,35.0101133 25.8650275,35.2902876 25.0545173,35.25 L25.0545173,35.25 Z" id="Path" fill="#FFFFFF"></path>
            <path d="M31.4045173,35.25 C30.6137947,35.3027854 29.8451658,34.9760253 29.3345173,34.37 C28.8872085,33.8022046 28.6599424,33.0919982 28.6945173,32.37 L28.6945173,29.08 C28.657535,28.312927 28.8950714,27.5577739 29.3645173,26.95 C29.8698457,26.3839808 30.607289,26.0816291 31.3645173,26.13 C31.9886861,26.1446683 32.5539209,26.5022658 32.8345173,27.06 L32.9845173,26.61 C33.0063347,26.5150003 33.0549191,26.4282425 33.1245173,26.36 C33.2068882,26.3144872 33.3006229,26.2936572 33.3945173,26.3 L34.7645173,26.3 C34.9645173,26.3 35.0545173,26.4 35.0545173,26.62 L35.0545173,34.75 C35.0545173,34.96 34.9645173,35.07 34.7645173,35.07 L33.2945173,35.07 C33.22211,35.0747995 33.1516842,35.0451465 33.1045173,34.99 C33.0429655,34.9227239 33.0014071,34.8396072 32.9845173,34.75 L32.8345173,34.3 C32.5713189,34.8577068 32.0206425,35.2235408 31.4045173,35.25 Z M31.8145173,32.82 C31.9749474,32.8349367 32.1286773,32.7521591 32.2045173,32.61 C32.2727529,32.4884593 32.3007576,32.3484358 32.2845173,32.21 L32.2845173,29.08 C32.2800276,28.9569553 32.24571,28.8368438 32.1845173,28.73 C32.1010327,28.6095588 31.9608074,28.5413411 31.8145173,28.55 C31.5845173,28.55 31.4645173,28.69 31.4645173,28.96 L31.4645173,32.4 C31.4045173,32.68 31.5445173,32.82 31.7745173,32.82 L31.8145173,32.82 Z" id="Shape" fill="#FFFFFF"></path>
            <path d="M36.2245173,35.08 C36.0145173,35.08 35.9045173,34.98 35.9045173,34.78 L35.9045173,24.08 C35.8941641,23.9932028 35.9249406,23.9065504 35.9877238,23.8457292 C36.0505069,23.784908 36.1380924,23.7568972 36.2245173,23.77 L38.4045173,23.77 C38.4893388,23.7602999 38.5739516,23.7898282 38.6343204,23.850197 C38.6946892,23.9105657 38.7242174,23.9951785 38.7145173,24.08 L38.7145173,34.78 C38.7145173,34.98 38.6145173,35.08 38.4045173,35.08 L36.2245173,35.08 Z" id="Path" fill="#FFFFFF"></path>
            <path d="M42.5845173,35.25 C41.7605748,35.2724866 40.9592077,34.979129 40.3445173,34.43 C39.7425465,33.943432 39.402273,33.203707 39.4245173,32.43 L39.4245173,28.92 C39.4098625,28.1478603 39.7486751,27.4113111 40.3445173,26.92 C40.959132,26.3718114 41.7614373,26.081692 42.5845173,26.11 C43.3871183,26.0786172 44.1687842,26.3703911 44.7545173,26.92 C45.305528,27.4365607 45.607864,28.165081 45.5845173,28.92 L45.5845173,31 C45.5863489,31.1012618 45.5465916,31.198848 45.4745173,31.27 C45.3955262,31.3335954 45.2957692,31.3656602 45.1945173,31.36 L42.1945173,31.36 L42.1945173,32.54 C42.1983902,32.636301 42.2418024,32.7267432 42.3145173,32.79 C42.3946278,32.8606514 42.4977033,32.899749 42.6045173,32.9 C42.712044,32.9038288 42.8165792,32.8641775 42.8945173,32.79 C42.9638454,32.7170433 43.0031234,32.6206335 43.0045173,32.52 L43.0045173,32.25 C43.0079669,32.2026768 43.0253664,32.157438 43.0545173,32.12 C43.099592,32.0688238 43.1667105,32.0427222 43.2345173,32.05 L45.3345173,32.05 C45.3961982,32.0402377 45.4588988,32.0598468 45.5040269,32.1030128 C45.5491549,32.1461787 45.57153,32.2079463 45.5645173,32.27 L45.5645173,32.47 C45.589144,33.2231423 45.2907579,33.9509133 44.7445173,34.47 C44.156471,35.0061991 43.3794733,35.2867816 42.5845173,35.25 Z M42.1945173,29.54 L43.0045173,29.54 L43.0045173,28.86 C43.0047793,28.7619714 42.965054,28.6680753 42.8945173,28.6 C42.8144319,28.5303976 42.7104819,28.4945528 42.6045173,28.5 C42.4988439,28.4965467 42.3956024,28.5321472 42.3145173,28.6 C42.2397456,28.6616678 42.1958639,28.7530881 42.1945173,28.85 L42.1945173,29.54 Z" id="Shape" fill="#FFFFFF"></path>
            <path d="M52.4045173,35.25 C51.8232258,35.273255 51.2504341,35.1045801 50.7745173,34.77 C50.4006973,34.4776265 50.1279127,34.0754441 49.9945173,33.62 C49.8551302,33.1666454 49.787645,32.6942488 49.7945173,32.22 L49.7945173,29.08 C49.7690704,28.3684716 49.9723466,27.6675193 50.3745173,27.08 C50.7998748,26.5012847 51.4871731,26.1745363 52.2045173,26.21 C52.6750257,26.2316576 53.1097519,26.4674413 53.3845173,26.85 L53.3845173,24.08 C53.371306,23.9962286 53.3982221,23.9111176 53.4571985,23.8501753 C53.5161749,23.789233 53.6003579,23.7595417 53.6845173,23.77 L55.8245173,23.77 C56.0445173,23.77 56.1545173,23.88 56.1545173,24.08 L56.1545173,34.78 C56.1545173,34.98 56.0445173,35.08 55.8245173,35.08 L54.4045173,35.08 C54.3023596,35.0786734 54.2112886,35.0153196 54.1745173,34.92 C54.1308817,34.8446927 54.0972643,34.7640109 54.0745173,34.68 L53.9245173,34.23 C53.7526327,34.5369052 53.5090339,34.7976589 53.2145173,34.99 C52.9786336,35.1598019 52.6951601,35.2507934 52.4045173,35.25 L52.4045173,35.25 Z M52.9045173,32.82 C53.0727441,32.8327768 53.2301129,32.7359345 53.2945173,32.58 C53.3546231,32.4449507 53.3820317,32.2976298 53.3745173,32.15 L53.3745173,29.15 C53.3847794,29.0182866 53.3570129,28.886396 53.2945173,28.77 C53.2117992,28.6348978 53.0628419,28.5546901 52.9045173,28.56 C52.6845173,28.56 52.5645173,28.7 52.5645173,28.97 L52.5645173,32.41 C52.6045173,32.68 52.7245173,32.82 52.9445173,32.82 L52.9045173,32.82 Z" id="Shape" fill="#FFFFFF"></path>
            <path d="M60.0945173,35.25 C59.2674835,35.2730225 58.4628033,34.9797612 57.8445173,34.43 C57.2498687,33.9377707 56.9113364,33.2018309 56.9245173,32.43 L56.9245173,28.92 C56.9142422,28.1487823 57.2522251,27.4140367 57.8445173,26.92 C58.4612505,26.3753744 59.2620877,26.0857859 60.0845173,26.11 C60.8905353,26.0759021 61.6763188,26.3678676 62.2645173,26.92 C62.8129381,27.4375925 63.1117457,28.1663914 63.0845173,28.92 L63.0845173,31 C63.0901925,31.0999919 63.0539568,31.1978283 62.9845173,31.27 C62.9024573,31.3351162 62.7990252,31.3672158 62.6945173,31.36 L59.6945173,31.36 L59.6945173,32.54 C59.7020825,32.6375353 59.7490158,32.7277916 59.8245173,32.79 C59.9046278,32.8606514 60.0077033,32.899749 60.1145173,32.9 C60.222044,32.9038288 60.3265792,32.8641775 60.4045173,32.79 C60.4738454,32.7170433 60.5131234,32.6206335 60.5145173,32.52 L60.5145173,32.25 C60.4983228,32.2081797 60.4983228,32.1618203 60.5145173,32.12 C60.5585291,32.0673234 60.6264804,32.0408979 60.6945173,32.05 L62.7945173,32.05 C62.8545949,32.0436207 62.9143366,32.0647405 62.9570567,32.1074606 C62.9997768,32.1501807 63.0208966,32.2099224 63.0145173,32.27 L63.0145173,32.47 C63.0430218,33.2218375 62.7481632,33.9498834 62.2045173,34.47 C61.6289781,34.9938379 60.8723979,35.2735215 60.0945173,35.25 Z M59.6945173,29.54 L60.5145173,29.54 L60.5145173,28.86 C60.5147439,28.7598936 60.4708429,28.6647747 60.3945173,28.6 C60.31805,28.5310017 60.2173936,28.495053 60.1145173,28.5 C60.0088439,28.4965467 59.9056024,28.5321472 59.8245173,28.6 C59.7470664,28.6606096 59.6996541,28.751787 59.6945173,28.85 L59.6945173,29.54 Z" id="Shape" fill="#FFFFFF"></path>
            <path d="M66.7345173,35.25 C65.7895174,35.3543007 64.8472446,35.0316547 64.1645173,34.37 C63.7566859,33.8239923 63.5580112,33.1499177 63.6045173,32.47 L63.6045173,32.47 C63.6045173,32.3 63.7645173,32.22 64.0845173,32.22 L66.0145173,32.22 C66.1745173,32.22 66.2445173,32.31 66.2445173,32.48 L66.2445173,32.6 C66.2445173,32.83 66.3745173,32.94 66.6245173,32.95 C66.8745173,32.96 67.0445173,32.82 67.0445173,32.58 C67.0445173,32.34 66.8045173,32.15 66.3445173,31.93 L65.7145173,31.67 C65.5071687,31.5893392 65.3065403,31.4923689 65.1145173,31.38 C64.2027655,30.8948672 63.6476368,29.9321264 63.6845173,28.9 C63.6720949,28.1633435 63.9826742,27.4581458 64.5345173,26.97 C65.8281602,25.9409345 67.6608745,25.9409345 68.9545173,26.97 C69.4611371,27.5093871 69.7280445,28.2307585 69.6945173,28.97 L69.6945173,29.02 C69.6945173,29.12 69.6945173,29.17 69.6245173,29.2 C69.5218122,29.216114 69.4172224,29.216114 69.3145173,29.2 L67.4545173,29.2 C67.3742775,29.2122896 67.2929022,29.1863974 67.2345173,29.13 C67.1797765,29.0747069 67.1539005,28.997079 67.1645173,28.92 L67.1645173,28.92 C67.1645173,28.68 67.0545173,28.56 66.8345173,28.56 C66.6145173,28.56 66.4945173,28.7 66.4745173,28.98 C66.4749486,29.0681113 66.4991307,29.1544761 66.5445173,29.23 C66.6167742,29.308526 66.7055826,29.3700088 66.8045173,29.41 C66.9484597,29.495125 67.0989323,29.5686893 67.2545173,29.63 C67.4345173,29.7 67.6645173,29.81 67.9445173,29.95 C68.5209022,30.1937513 69.0240221,30.5831523 69.4045173,31.08 C70.1514385,32.1632316 69.9941553,33.6297907 69.0345173,34.53 C68.385101,35.0496212 67.5643053,35.306566 66.7345173,35.25 Z" id="Path" fill="#FFFFFF"></path>
            <path d="M8.08451732,44.35 C7.83083633,44.3548538 7.57889297,44.3071888 7.34451732,44.21 C7.08393196,44.1091997 6.85091121,43.9481412 6.66451732,43.74 C6.63098046,43.6954277 6.60713666,43.6443338 6.59451732,43.59 C6.55930675,43.538803 6.55930675,43.471197 6.59451732,43.42 L7.24451732,42.66 C7.34451732,42.54 7.44451732,42.54 7.56451732,42.66 C7.66297429,42.7877051 7.81335105,42.8647273 7.97451732,42.87 C8.05770072,42.8810414 8.14158879,42.8555103 8.20451732,42.8 C8.23991688,42.7468508 8.25743313,42.6837923 8.25451732,42.62 L8.25451732,38.43 C8.2481644,38.370877 8.2751234,38.3131078 8.32451732,38.28 C8.35039899,38.2708494 8.37863565,38.2708494 8.40451732,38.28 L9.69451732,38.28 C9.74281234,38.2615339 9.7962223,38.2615339 9.84451732,38.28 C9.86437551,38.3349269 9.86437551,38.3950731 9.84451732,38.45 L9.84451732,42.71 C9.8638656,43.168483 9.67228191,43.6105992 9.32451732,43.91 C8.97548032,44.1973805 8.5366288,44.3531021 8.08451732,44.35 L8.08451732,44.35 Z" id="Path" fill="#FFFFFF"></path>
            <path d="M12.1645173,44.35 C11.682946,44.3609128 11.2150344,44.1894643 10.8545173,43.87 C10.5035083,43.5930569 10.3034325,43.1669697 10.3145173,42.72 L10.3145173,40.64 C10.3108799,40.1917942 10.5092045,39.7657634 10.8545173,39.48 C11.2139879,39.1587867 11.6826148,38.9870761 12.1645173,39 C12.6382478,38.9821296 13.0993475,39.155042 13.4445173,39.48 C13.7630873,39.7802004 13.9378207,40.2024727 13.9245173,40.64 L13.9245173,41.85 C13.9281016,41.9094272 13.9062932,41.9675829 13.8645173,42.01 C13.8190229,42.0533653 13.7571531,42.0752017 13.6945173,42.07 L11.9345173,42.07 L11.9345173,42.76 C11.9390776,42.8162291 11.968389,42.8675241 12.0145173,42.9 C12.0595498,42.9451891 12.120721,42.9705893 12.1845173,42.9705893 C12.2483137,42.9705893 12.3094849,42.9451891 12.3545173,42.9 C12.3947203,42.8606617 12.4165,42.8062126 12.4145173,42.75 L12.4145173,42.59 C12.4061082,42.5639963 12.4061082,42.5360037 12.4145173,42.51 C12.4468694,42.4985618 12.4821652,42.4985618 12.5145173,42.51 L13.7545173,42.51 C13.7898528,42.5069092 13.8247452,42.5196094 13.8498266,42.5446907 C13.8749079,42.5697721 13.8876081,42.6046646 13.8845173,42.64 L13.8845173,42.76 C13.8924425,43.1936034 13.7183516,43.6106962 13.4045173,43.91 C13.064707,44.213314 12.6195089,44.3712875 12.1645173,44.35 Z M11.9345173,41 L12.4045173,41 L12.4045173,40.6 C12.4069217,40.5416004 12.3808205,40.4856694 12.3345173,40.45 C12.2918673,40.4074014 12.2347489,40.3824121 12.1745173,40.38 C12.1108056,40.3798438 12.0496464,40.405027 12.0045173,40.45 C11.958389,40.4824759 11.9290776,40.5337709 11.9245173,40.59 L11.9345173,41 Z" id="Shape" fill="#FFFFFF"></path>
            <path d="M15.6245173,44.35 C15.2367602,44.3909316 14.8563098,44.2235334 14.6245173,43.91 C14.3807304,43.5556453 14.2643886,43.129059 14.2945173,42.7 L14.2945173,39.28 C14.2945173,39.16 14.3545173,39.1 14.4545173,39.1 L15.7545173,39.1 C15.8645173,39.1 15.9245173,39.16 15.9245173,39.28 L15.9245173,42.68 C15.9030856,42.7380862 15.9030856,42.8019138 15.9245173,42.86 C15.9661921,42.9029241 16.0248944,42.9249375 16.0845173,42.92 C16.1740517,42.9222959 16.2579736,42.8765203 16.3045173,42.8 C16.3451921,42.7376319 16.3661033,42.6644426 16.3645173,42.59 L16.3645173,39.29 C16.3659753,39.2301746 16.4006966,39.1761636 16.4545173,39.15 C16.5068672,39.1355155 16.5621674,39.1355155 16.6145173,39.15 L17.8245173,39.15 C17.9345173,39.15 17.9945173,39.21 17.9945173,39.34 L17.9945173,44.08 C17.9945173,44.21 17.9345173,44.27 17.8245173,44.27 L17.0345173,44.27 C16.9787649,44.2843952 16.9202698,44.2843952 16.8645173,44.27 C16.8236881,44.2329905 16.7956738,44.1839654 16.7845173,44.13 L16.6045173,43.61 C16.5055604,43.8268929 16.358509,44.0184017 16.1745173,44.17 C16.0129316,44.2828961 15.8215843,44.3455188 15.6245173,44.35 L15.6245173,44.35 Z" id="Path" fill="#FFFFFF"></path>
            <path d="M18.7945173,44.25 C18.6745173,44.25 18.6245173,44.19 18.6245173,44.06 L18.6245173,39.29 C18.6245173,39.16 18.6745173,39.1 18.7945173,39.1 L19.5845173,39.1 C19.6404159,39.0868055 19.6986187,39.0868055 19.7545173,39.1 C19.7953465,39.1370095 19.8233609,39.1860346 19.8345173,39.24 L20.0045173,39.76 C20.1081133,39.5431828 20.2583659,39.3519522 20.4445173,39.2 C20.6190933,39.0484775 20.8433805,38.9665948 21.0745173,38.97 C21.458001,38.9418416 21.8311539,39.1022973 22.0745173,39.4 C22.3099774,39.7615082 22.422228,40.1894634 22.3945173,40.62 L22.3945173,44.08 C22.3945173,44.21 22.3345173,44.27 22.2245173,44.27 L20.9245173,44.27 C20.8145173,44.27 20.7645173,44.21 20.7645173,44.08 L20.7645173,40.64 C20.7645173,40.5 20.6845173,40.43 20.5545173,40.42 C20.464983,40.4177041 20.381061,40.4634797 20.3345173,40.54 C20.2907569,40.6088995 20.2665599,40.6884038 20.2645173,40.77 L20.2645173,44.08 C20.2673333,44.1382504 20.2361319,44.1928528 20.1845173,44.22 C20.1332663,44.2514 20.0746074,44.2686526 20.0145173,44.27 L18.7945173,44.25 Z" id="Path" fill="#FFFFFF"></path>
            <path d="M24.6345173,44.35 C24.1496855,44.3624586 23.6781012,44.1909733 23.3145173,43.87 C22.9707721,43.5873508 22.7724625,43.1650248 22.7745173,42.72 L22.7745173,40.64 C22.7708799,40.1917942 22.9692045,39.7657634 23.3145173,39.48 C23.6781012,39.1590267 24.1496855,38.9875414 24.6345173,39 C25.1053829,38.9814265 25.5636467,39.1546286 25.9045173,39.48 C26.2256981,39.7791683 26.4039585,40.2011725 26.3945173,40.64 L26.3945173,41.85 C26.3981016,41.9094272 26.3762932,41.9675829 26.3345173,42.01 C26.2878007,42.0513315 26.2268279,42.0728513 26.1645173,42.07 L24.4045173,42.07 L24.4045173,42.76 C24.4037014,42.815272 24.4298102,42.8674896 24.4745173,42.9 C24.5189889,42.9459514 24.5805835,42.9713139 24.6445173,42.97 C24.7089298,42.974029 24.7716176,42.9482164 24.8145173,42.9 C24.8574035,42.8616928 24.8827051,42.8074751 24.8845173,42.75 L24.8845173,42.59 C24.8844003,42.5563632 24.8984064,42.5242215 24.923123,42.5014061 C24.9478396,42.4785908 24.9809973,42.4671967 25.0145173,42.47 L26.2445173,42.47 C26.2814554,42.4635701 26.3192758,42.4747745 26.3467508,42.500287 C26.3742258,42.5257995 26.3881972,42.5626875 26.3845173,42.6 L26.3845173,42.72 C26.3924425,43.1536034 26.2183516,43.5706962 25.9045173,43.87 C25.5636467,44.1953714 25.1053829,44.3685735 24.6345173,44.35 L24.6345173,44.35 Z M24.4045173,41 L24.8845173,41 L24.8845173,40.6 C24.8827051,40.5425249 24.8574035,40.4883072 24.8145173,40.45 C24.7682665,40.4067421 24.7078179,40.3818514 24.644508,40.38 C24.5815872,40.3835344 24.5216901,40.4081978 24.4745173,40.45 C24.4298102,40.4825104 24.4037014,40.534728 24.4045173,40.59 L24.4045173,41 Z" id="Shape" fill="#FFFFFF"></path>
            <path d="M28.5545173,44.35 C27.9958884,44.4099256 27.4393811,44.2195415 27.0345173,43.83 C26.8007788,43.5090743 26.6874894,43.1161016 26.7145173,42.72 L26.7145173,42.72 C26.7145173,42.62 26.8045173,42.57 26.9945173,42.57 L28.1245173,42.57 C28.2145173,42.57 28.2645173,42.57 28.2645173,42.73 L28.2645173,42.79 C28.2645173,42.93 28.3345173,43 28.4845173,43 C28.6345173,43 28.7345173,42.93 28.7345173,42.78 C28.7345173,42.63 28.5945173,42.53 28.3245173,42.4 L27.9445173,42.25 C27.8250528,42.1992844 27.7082362,42.1425449 27.5945173,42.08 C27.0585623,41.7938006 26.7325654,41.227187 26.7545173,40.62 C26.7468035,40.1859828 26.9339437,39.7713388 27.2645173,39.49 C27.607331,39.1763569 28.0602628,39.0110009 28.5245173,39.03 C29.0100487,38.9971949 29.4886511,39.159128 29.8545173,39.48 C30.1552699,39.8007344 30.3107803,40.2311004 30.2845173,40.67 L30.2845173,40.67 C30.2845173,40.73 30.2845173,40.76 30.2845173,40.78 L30.1045173,40.78 L29.0145173,40.78 C28.972697,40.7961945 28.9263376,40.7961945 28.8845173,40.78 C28.8672944,40.738378 28.8672944,40.691622 28.8845173,40.65 L28.8845173,40.65 C28.8845173,40.51 28.8145173,40.43 28.6845173,40.43 C28.5545173,40.43 28.4745173,40.52 28.4745173,40.69 C28.4606037,40.7356296 28.4606037,40.7843704 28.4745173,40.83 C28.5133922,40.8756248 28.5609903,40.9130234 28.6145173,40.94 L28.8845173,41.06 L29.2845173,41.25 C29.6181795,41.4053884 29.909676,41.6385855 30.1345173,41.93 C30.3115505,42.1892254 30.4057032,42.4960937 30.4045173,42.81 C30.421845,43.2474073 30.241993,43.6695089 29.9145173,43.96 C29.523843,44.2513592 29.0402263,44.3900434 28.5545173,44.35 Z" id="Path" fill="#FFFFFF"></path>
            <path d="M34.6545173,44.35 C34.0958884,44.4099256 33.5393811,44.2195415 33.1345173,43.83 C32.9007788,43.5090743 32.7874894,43.1161016 32.8145173,42.72 L32.8145173,42.72 C32.8145173,42.62 32.9045173,42.57 33.0945173,42.57 L34.2245173,42.57 C34.3145173,42.57 34.3645173,42.57 34.3645173,42.73 L34.3645173,42.79 C34.3645173,42.93 34.4345173,43 34.5845173,43 C34.7345173,43 34.8245173,42.93 34.8245173,42.78 C34.8245173,42.63 34.6945173,42.53 34.4145173,42.4 L34.0445173,42.25 C33.9250528,42.1992844 33.8082362,42.1425449 33.6945173,42.08 C33.1585623,41.7938006 32.8325654,41.227187 32.8545173,40.62 C32.847092,40.1881715 33.0299438,39.7749263 33.3545173,39.49 C33.7020875,39.1776209 34.1575215,39.0126606 34.6245173,39.03 C35.1100487,38.9971949 35.5886511,39.159128 35.9545173,39.48 C36.2512604,39.8031782 36.4061347,40.231784 36.3845173,40.67 L36.3845173,40.67 C36.3845173,40.73 36.3845173,40.76 36.3845173,40.78 L36.2045173,40.78 L35.1045173,40.78 C35.0576728,40.7868028 35.0103657,40.7710947 34.9768942,40.7376231 C34.9434227,40.7041516 34.9277145,40.6568445 34.9345173,40.61 L34.9345173,40.61 C34.9345173,40.47 34.8745173,40.39 34.7445173,40.39 C34.6145173,40.39 34.5345173,40.48 34.5345173,40.65 C34.5245044,40.6961296 34.5245044,40.7438704 34.5345173,40.79 C34.5796221,40.8329129 34.6300313,40.8698796 34.6845173,40.9 L34.9545173,41.02 L35.3545173,41.21 C35.6871548,41.3625681 35.9760316,41.5964208 36.1945173,41.89 C36.3786903,42.1462782 36.4767341,42.454416 36.4745173,42.77 C36.4922736,43.209586 36.3081056,43.6331725 35.9745173,43.92 C35.6030834,44.2220983 35.1326216,44.3753548 34.6545173,44.35 L34.6545173,44.35 Z" id="Path" fill="#FFFFFF"></path>
            <path d="M38.6545173,44.35 C38.1726362,44.3684728 37.7003067,44.2122135 37.3245173,43.91 C36.9721097,43.6167073 36.7731907,43.1783486 36.7845173,42.72 L36.7845173,40.64 C36.7779667,40.1911667 36.9768489,39.7639382 37.3245173,39.48 C37.6886137,39.1598905 38.1598476,38.9885327 38.6445173,39 C39.127665,38.9843399 39.6001349,39.1441981 39.9745173,39.45 C40.3318767,39.7403738 40.5349072,40.179658 40.5245173,40.64 L40.5245173,42.72 C40.5319139,43.179714 40.3294588,43.6177532 39.9745173,43.91 C39.6013616,44.2099268 39.132998,44.366048 38.6545173,44.35 Z M38.6545173,42.92 C38.7205016,42.9282305 38.7866682,42.906175 38.8345173,42.86 C38.8722002,42.8230739 38.8937659,42.7727539 38.8945173,42.72 L38.8945173,40.64 C38.8969217,40.5816004 38.8708205,40.5256694 38.8245173,40.49 C38.7807836,40.4429728 38.7186847,40.4174027 38.6545173,40.42 C38.5905835,40.4186861 38.5289889,40.4440486 38.4845173,40.49 C38.4382141,40.5256694 38.412113,40.5816004 38.4145173,40.64 L38.4145173,42.72 C38.4137014,42.775272 38.4398102,42.8274896 38.4845173,42.86 C38.5300118,42.9033653 38.5918816,42.9252017 38.6545173,42.92 L38.6545173,42.92 Z" id="Shape" fill="#FFFFFF"></path>
            <path d="M42.7445173,44.35 C42.2660367,44.366048 41.797673,44.2099268 41.4245173,43.91 C41.0721097,43.6167073 40.8731907,43.1783486 40.8845173,42.72 L40.8845173,40.64 C40.8759324,40.1950825 41.0666591,39.7696154 41.4045173,39.48 C41.7681012,39.1590267 42.2396855,38.9875414 42.7245173,39 C43.200949,38.9838819 43.6645044,39.1563676 44.0145173,39.48 C44.3383275,39.7781346 44.5201142,40.1998796 44.5145173,40.64 L44.5145173,41.08 C44.5282676,41.1222425 44.5282676,41.1677575 44.5145173,41.21 C44.5145173,41.21 44.4545173,41.21 44.3845173,41.21 L43.2045173,41.21 C43.1464311,41.2314317 43.0826035,41.2314317 43.0245173,41.21 C43.0099694,41.1644671 43.0099694,41.1155329 43.0245173,41.07 L43.0245173,40.63 C43.0245795,40.5698777 43.0000333,40.5123493 42.9565864,40.4707914 C42.9131395,40.4292335 42.8545775,40.4072671 42.7945173,40.41 C42.7305835,40.4086861 42.6689889,40.4340486 42.6245173,40.48 C42.5782141,40.5156694 42.552113,40.5716004 42.5545173,40.63 L42.5545173,42.71 C42.5537014,42.765272 42.5798102,42.8174896 42.6245173,42.85 C42.6726363,42.8888861 42.7326501,42.9100674 42.7945173,42.91 C42.8568279,42.9128513 42.9178007,42.8913315 42.9645173,42.85 C43.0047203,42.8106617 43.0265,42.7562126 43.0245173,42.7 L43.0245173,42.39 C43.0245173,42.32 43.0245173,42.27 43.0245173,42.25 C43.0245173,42.23 43.0845173,42.25 43.1545173,42.25 L44.4045173,42.25 C44.4645173,42.25 44.5045173,42.25 44.5245173,42.25 C44.5375176,42.2855143 44.5375176,42.3244857 44.5245173,42.36 L44.5245173,42.71 C44.5298114,43.1471643 44.3478349,43.5657103 44.0245173,43.86 C43.6768734,44.1820765 43.2183652,44.3575992 42.7445173,44.35 Z" id="Path" fill="#FFFFFF"></path>
            <path d="M45.2645173,38.82 C45.0345173,38.82 44.9145173,38.72 44.9145173,38.52 L44.9145173,37.84 C44.904432,37.7452842 44.9384494,37.6511899 45.0067712,37.5848201 C45.075093,37.5184504 45.1701335,37.4871741 45.2645173,37.5 L46.2645173,37.5 C46.3549379,37.4931091 46.4436232,37.527488 46.5057739,37.5935232 C46.5679247,37.6595584 46.5968705,37.7501626 46.5845173,37.84 L46.5845173,38.52 C46.5928907,38.6046912 46.5636404,38.6887858 46.5045173,38.75 C46.4367938,38.8039061 46.3506017,38.8290454 46.2645173,38.82 L45.2645173,38.82 Z M45.1445173,44.25 C45.0942843,44.2560631 45.0439612,44.2394351 45.0072297,44.2046369 C44.9704983,44.1698387 44.9511764,44.1204872 44.9545173,44.07 L44.9545173,39.28 C44.9512108,39.2293018 44.9737921,39.1803758 45.0145173,39.15 C45.0567599,39.1362497 45.1022748,39.1362497 45.1445173,39.15 L46.4045173,39.15 C46.4467599,39.1362497 46.4922748,39.1362497 46.5345173,39.15 C46.5689857,39.1842036 46.5871821,39.2315144 46.5845173,39.28 L46.5845173,44.08 C46.5912105,44.1294902 46.5744113,44.1792671 46.5390979,44.2145805 C46.5037845,44.2498939 46.4540075,44.2666931 46.4045173,44.26 L45.1445173,44.25 Z" id="Shape" fill="#FFFFFF"></path>
            <path d="M48.6245173,44.35 C48.1609052,44.3820682 47.710314,44.1884257 47.4145173,43.83 C47.1535259,43.5010458 47.0187476,43.0896173 47.0345173,42.67 L47.0345173,40.73 C47.0096651,40.27833 47.1520643,39.8333324 47.4345173,39.48 C47.7322453,39.1518459 48.1621076,38.9754922 48.6045173,39 C48.9702186,39.0121875 49.3000634,39.2231348 49.4645173,39.55 L49.5545173,39.28 C49.5656738,39.2260346 49.5936881,39.1770095 49.6345173,39.14 C49.6864106,39.1224725 49.742624,39.1224725 49.7945173,39.14 L50.6045173,39.14 C50.7145173,39.14 50.7745173,39.2 50.7745173,39.33 L50.7745173,44.08 C50.7745173,44.21 50.7145173,44.27 50.6045173,44.27 L49.7345173,44.27 C49.699003,44.2830003 49.6600317,44.2830003 49.6245173,44.27 C49.589526,44.2263163 49.5655214,44.1748778 49.5545173,44.12 L49.4645173,43.86 C49.2881369,44.1576487 48.9704298,44.3429777 48.6245173,44.35 Z M48.8745173,42.92 C48.9662969,42.932933 49.0557014,42.8841669 49.0945173,42.8 C49.1344732,42.7303123 49.1519353,42.6499864 49.1445173,42.57 L49.1445173,40.73 C49.1430675,40.659119 49.122324,40.5899739 49.0845173,40.53 C49.0374574,40.4603653 48.9585572,40.4190366 48.8745173,40.4199835 C48.7345173,40.4199835 48.6645173,40.5 48.6645173,40.66 L48.6645173,42.66 C48.6645173,42.8333333 48.7345173,42.92 48.8745173,42.92 Z" id="Shape" fill="#FFFFFF"></path>
            <path d="M51.4945173,44.25 C51.4442843,44.2560631 51.3939612,44.2394351 51.3572297,44.2046369 C51.3204983,44.1698387 51.3011764,44.1204872 51.3045173,44.07 L51.3045173,37.78 C51.2979188,37.7278637 51.3158037,37.6756065 51.3529638,37.6384464 C51.3901238,37.6012864 51.442381,37.5834015 51.4945173,37.59 L52.7545173,37.59 C52.8745173,37.59 52.9345173,37.65 52.9345173,37.78 L52.9345173,44.08 C52.9412105,44.1294902 52.9244113,44.1792671 52.8890979,44.2145805 C52.8537845,44.2498939 52.8040075,44.2666931 52.7545173,44.26 L51.4945173,44.25 Z" id="Path" fill="#FFFFFF"></path>
            <path d="M53.7745173,38.82 C53.5545173,38.82 53.4345173,38.72 53.4345173,38.52 L53.4345173,37.84 C53.4250068,37.7472358 53.4577597,37.6551185 53.5236977,37.5891804 C53.5896358,37.5232424 53.6817531,37.4904895 53.7745173,37.5 L54.8345173,37.5 C54.9249379,37.4931091 55.0136232,37.527488 55.0757739,37.5935232 C55.1379247,37.6595584 55.1668705,37.7501626 55.1545173,37.84 L55.1545173,38.52 C55.1628907,38.6046912 55.1336404,38.6887858 55.0745173,38.75 C55.0054479,38.8012538 54.9203107,38.8260855 54.8345173,38.82 L53.7745173,38.82 Z M53.6645173,44.25 C53.5345173,44.25 53.4745173,44.19 53.4745173,44.07 L53.4745173,39.28 C53.4712108,39.2293018 53.4937921,39.1803758 53.5345173,39.15 C53.5767599,39.1362497 53.6222748,39.1362497 53.6645173,39.15 L54.9145173,39.15 C54.959939,39.1347554 55.0090956,39.1347554 55.0545173,39.15 C55.0717403,39.191622 55.0717403,39.238378 55.0545173,39.28 L55.0545173,44.08 C55.0545173,44.2 54.9945173,44.26 54.8645173,44.26 L53.6645173,44.25 Z" id="Shape" fill="#FFFFFF"></path>
            <path d="M57.4045173,44.35 C56.8485961,44.4125676 56.2940385,44.2215942 55.8945173,43.83 C55.6532012,43.5124377 55.5358818,43.1178182 55.5645173,42.72 L55.5645173,42.72 C55.5645173,42.62 55.6545173,42.57 55.8445173,42.57 L56.9745173,42.57 C57.0745173,42.57 57.1145173,42.57 57.1145173,42.73 L57.1145173,42.79 C57.1145173,42.93 57.1845173,43 57.3345173,43 C57.4845173,43 57.5845173,42.93 57.5845173,42.78 C57.5845173,42.63 57.4445173,42.53 57.1745173,42.4 L56.8045173,42.25 C56.6661168,42.2060865 56.5321856,42.1491657 56.4045173,42.08 C55.8685623,41.7938006 55.5425654,41.227187 55.5645173,40.62 C55.5528908,40.1873318 55.7364969,39.7723819 56.0645173,39.49 C56.407331,39.1763569 56.8602628,39.0110009 57.3245173,39.03 C57.8100487,38.9971949 58.2886511,39.159128 58.6545173,39.48 C58.9552699,39.8007344 59.1107803,40.2311004 59.0845173,40.67 L59.0845173,40.67 C59.0845173,40.73 59.0845173,40.76 59.0845173,40.78 C59.0249562,40.7902632 58.9640784,40.7902632 58.9045173,40.78 L57.8145173,40.78 C57.772393,40.7944763 57.7266416,40.7944763 57.6845173,40.78 C57.6672944,40.738378 57.6672944,40.691622 57.6845173,40.65 L57.6845173,40.65 C57.6845173,40.51 57.6145173,40.43 57.4845173,40.43 C57.3545173,40.43 57.2745173,40.52 57.2745173,40.69 C57.2759465,40.7407824 57.2934533,40.7898015 57.3245173,40.83 C57.3633922,40.8756248 57.4109903,40.9130234 57.4645173,40.94 L57.7345173,41.06 L58.1345173,41.25 C58.4681795,41.4053884 58.759676,41.6385855 58.9845173,41.93 C59.1615505,42.1892254 59.2557032,42.4960937 59.2545173,42.81 C59.271845,43.2474073 59.091993,43.6695089 58.7645173,43.96 C58.373843,44.2513592 57.8902263,44.3900434 57.4045173,44.35 L57.4045173,44.35 Z" id="Path" fill="#FFFFFF"></path>
            <path d="M59.9445173,44.25 C59.8445173,44.25 59.7945173,44.19 59.7945173,44.07 L59.7945173,40.53 L59.5545173,40.53 C59.5096853,40.5288641 59.466892,40.5110335 59.4345173,40.48 C59.3954053,40.4528118 59.3728007,40.4076025 59.3745173,40.36 L59.3745173,39.26 C59.3760772,39.2159302 59.3983095,39.1751709 59.4345173,39.15 C59.4736659,39.1383282 59.5153688,39.1383282 59.5545173,39.15 L59.7945173,39.15 L59.7945173,38.38 C59.7803497,38.3310036 59.7803497,38.2789964 59.7945173,38.23 C59.7945173,38.23 59.8645173,38.17 59.9345173,38.14 L61.0845173,37.78 C61.1511238,37.7491747 61.2279109,37.7491747 61.2945173,37.78 C61.3596221,37.8290969 61.3938642,37.9089952 61.3845173,37.99 L61.3845173,39.08 L61.8145173,39.08 C61.8570255,39.0680404 61.9020092,39.0680404 61.9445173,39.08 C61.9807252,39.1051709 62.0029575,39.1459302 62.0045173,39.19 L62.0045173,40.29 C62.006234,40.3376025 61.9836293,40.3828118 61.9445173,40.41 C61.9081339,40.4409704 61.8622769,40.4586077 61.8145173,40.46 L61.4045173,40.46 L61.4045173,44.08 C61.4045173,44.2 61.3545173,44.26 61.2445173,44.26 L59.9445173,44.25 Z" id="Path" fill="#FFFFFF"></path>
            <path d="M64.1445173,44.35 C63.6598476,44.3614673 63.1886137,44.1901095 62.8245173,43.87 C62.4797458,43.5890764 62.2841219,43.1646093 62.2945173,42.72 L62.2945173,40.64 C62.2912145,40.1940389 62.4852181,39.7694274 62.8245173,39.48 C63.1886137,39.1598905 63.6598476,38.9885327 64.1445173,39 C64.6182478,38.9821296 65.0793475,39.155042 65.4245173,39.48 C65.7388733,39.7830887 65.912798,40.2034065 65.9045173,40.64 L65.9045173,41.85 C65.9081016,41.9094272 65.8862932,41.9675829 65.8445173,42.01 C65.7978007,42.0513315 65.7368279,42.0728513 65.6745173,42.07 L63.9145173,42.07 L63.9145173,42.76 C63.9189373,42.8139437 63.9440144,42.8640978 63.9845173,42.9 C64.0320673,42.9475105 64.0973621,42.9729029 64.1645173,42.97 C64.2286847,42.9725973 64.2907836,42.9470272 64.3345173,42.9 C64.3747203,42.8606617 64.3965,42.8062126 64.3945173,42.75 L64.3945173,42.59 C64.3861082,42.5639963 64.3861082,42.5360037 64.3945173,42.51 C64.4268694,42.4985618 64.4621652,42.4985618 64.4945173,42.51 L65.7345173,42.51 C65.7698528,42.5069092 65.8047452,42.5196094 65.8298266,42.5446907 C65.8549079,42.5697721 65.8676081,42.6046646 65.8645173,42.64 L65.8645173,42.76 C65.8724425,43.1936034 65.6983516,43.6106962 65.3845173,43.91 C65.044707,44.213314 64.5995089,44.3712875 64.1445173,44.35 Z M63.9145173,41 L64.4045173,41 L64.4045173,40.6 C64.4069217,40.5416004 64.3808205,40.4856694 64.3345173,40.45 C64.2918673,40.4074014 64.2347489,40.3824121 64.1745173,40.38 C64.1082818,40.382082 64.0447571,40.406786 63.9945173,40.45 C63.9540144,40.4859022 63.9289373,40.5360563 63.9245173,40.59 L63.9145173,41 Z" id="Shape" fill="#FFFFFF"></path>
            <path d="M68.0645173,44.35 C67.5085961,44.4125676 66.9540385,44.2215942 66.5545173,43.83 C66.3132012,43.5124377 66.1958818,43.1178182 66.2245173,42.72 L66.2245173,42.72 C66.2245173,42.62 66.3145173,42.57 66.5045173,42.57 L67.6445173,42.57 C67.7345173,42.57 67.7745173,42.57 67.7745173,42.73 L67.7745173,42.79 C67.7673977,42.8494194 67.7886888,42.9087206 67.8319775,42.9500417 C67.8752663,42.9913628 67.9354931,43.0098741 67.9945173,43 C68.1645173,43 68.2445173,42.93 68.2445173,42.78 C68.2445173,42.63 68.1045173,42.53 67.8345173,42.4 L67.4645173,42.25 C67.3441517,42.2012882 67.2272182,42.144492 67.1145173,42.08 C66.5785623,41.7938006 66.2525654,41.227187 66.2745173,40.62 C66.2628908,40.1873318 66.4464969,39.7723819 66.7745173,39.49 C67.5312233,38.8831888 68.6078113,38.8831888 69.3645173,39.49 C69.6652699,39.8107344 69.8207803,40.2411004 69.7945173,40.68 L69.7945173,40.68 C69.7945173,40.74 69.7945173,40.77 69.7945173,40.79 C69.7349562,40.8002632 69.6740784,40.8002632 69.6145173,40.79 L68.5245173,40.79 C68.482393,40.8044763 68.4366416,40.8044763 68.3945173,40.79 C68.3772944,40.748378 68.3772944,40.701622 68.3945173,40.66 L68.3945173,40.66 C68.3945173,40.52 68.3245173,40.44 68.2045173,40.44 C68.0845173,40.44 67.9945173,40.53 67.9945173,40.7 C67.9799694,40.7455329 67.9799694,40.7944671 67.9945173,40.84 C68.0374995,40.8853842 68.0883123,40.9226469 68.1445173,40.95 C68.226462,40.9995251 68.3136658,41.039773 68.4045173,41.07 L68.8145173,41.26 C69.1453908,41.4153972 69.4336318,41.6487352 69.6545173,41.94 C69.8315505,42.1992254 69.9257032,42.5060937 69.9245173,42.82 C69.941845,43.2574073 69.761993,43.6795089 69.4345173,43.97 C69.0398042,44.2601833 68.5523119,44.3954001 68.0645173,44.35 L68.0645173,44.35 Z" id="Path" fill="#FFFFFF"></path>
            <path d="M7.84451732,73.08 C7.62942104,73.1124236 7.41147504,73.0430083 7.25475019,72.8921607 C7.09802534,72.741313 7.02033465,72.5261779 7.04451732,72.31 L7.04451732,48.08 C7.01691604,47.8621965 7.09309866,47.6440605 7.25029325,47.4907958 C7.40748784,47.3375311 7.62748222,47.2668944 7.84451732,47.3 L12.9245173,47.3 C13.0299073,47.2766609 13.1391273,47.2766609 13.2445173,47.3 C13.6197594,47.37588 13.9187465,47.6593353 14.0145173,48.03 L17.3245173,58.14 L17.8845173,60.63 L17.7645173,58.41 L17.4045173,48.08 C17.3888673,47.874505 17.4658926,47.672772 17.6145173,47.53 C17.7667907,47.368808 17.9833238,47.2843968 18.2045173,47.3 L23.3345173,47.3 C23.8445173,47.3 24.1045173,47.54 24.1045173,48.04 L24.1045173,72.33 C24.1045173,72.84 23.8045173,73.1 23.2145173,73.1 L18.0845173,73.1 C17.5730135,73.1521689 17.0989724,72.8262656 16.9645173,72.33 L13.9645173,63.33 L13.2745173,60.92 L13.4545173,63.35 L13.7445173,72.28 C13.7445173,72.79 13.4945173,73.05 12.9345173,73.05 L7.84451732,73.08 Z" id="Path" fill="#FFFFFF"></path>
            <path d="M33.8845173,73.54 C31.7949818,73.6157932 29.7442548,72.961682 28.0845173,71.69 C26.4909007,70.4571921 25.5868055,68.5336644 25.6545173,66.52 L25.6545173,53.83 C25.5688485,51.7958335 26.4746254,49.846363 28.0845173,48.6 C31.5685555,46.2141943 36.1604791,46.2141943 39.6445173,48.6 C41.2581648,49.8442461 42.1678277,51.7940565 42.0845173,53.83 L42.0845173,66.52 C42.1677362,68.5587369 41.2584218,70.5115267 39.6445173,71.76 C37.9862489,72.9978805 35.9520568,73.6265024 33.8845173,73.54 L33.8845173,73.54 Z M33.8845173,67.15 C34.2086418,67.1769295 34.5288357,67.0641339 34.7645173,66.84 C34.9517331,66.6391635 35.0554283,66.3745619 35.0545233,66.1 L35.0545233,54.26 C35.0479439,53.9840657 34.9329852,53.7218162 34.7345173,53.53 C34.511527,53.3033335 34.202038,53.183179 33.8845173,53.2 C33.561173,53.1837736 33.24576,53.303413 33.0145173,53.53 C32.8112942,53.7184718 32.6954089,53.9828349 32.6945173,54.26 L32.6945173,66.08 C32.6847982,66.3561384 32.7897675,66.6239913 32.9845173,66.82 C33.2229114,67.0546086 33.5509711,67.1748972 33.8845173,67.15 L33.8845173,67.15 Z" id="Shape" fill="#FFFFFF"></path>
            <path d="M44.4045173,73.08 C43.8645173,73.08 43.6045173,72.82 43.6045173,72.31 L43.6045173,48.08 C43.576916,47.8621965 43.6530987,47.6440605 43.8102933,47.4907958 C43.9674878,47.3375311 44.1874822,47.2668944 44.4045173,47.3 L49.4845173,47.3 C49.5899073,47.2766609 49.6991273,47.2766609 49.8045173,47.3 C50.175913,47.3792829 50.4703492,47.6620966 50.5645173,48.03 L53.8845173,58.14 L54.4445173,60.63 L54.4045173,58.42 L54.0045173,48.08 C53.9888673,47.874505 54.0658926,47.672772 54.2145173,47.53 C54.3667907,47.368808 54.5833238,47.2843968 54.8045173,47.3 L59.9345173,47.3 C60.4445173,47.3 60.7045173,47.54 60.7045173,48.04 L60.7045173,72.33 C60.7045173,72.84 60.4045173,73.1 59.8145173,73.1 L54.6845173,73.1 C54.1730135,73.1521689 53.6989724,72.8262656 53.5645173,72.33 L50.5645173,63.33 L49.8745173,60.92 L50.0545173,63.35 L50.3445173,72.28 C50.3445173,72.79 50.0945173,73.05 49.5345173,73.05 L44.4045173,73.08 Z" id="Path" fill="#FFFFFF"></path>
            <path d="M63.7545173,65.08 C63.2145173,65.08 62.9545173,64.84 62.9545173,64.34 L62.9545173,48.08 C62.926916,47.8621965 63.0030987,47.6440605 63.1602933,47.4907958 C63.3174878,47.3375311 63.5374822,47.2668944 63.7545173,47.3 L68.6245173,47.3 C68.8415524,47.2668944 69.0615468,47.3375311 69.2187414,47.4907958 C69.375936,47.6440605 69.4521186,47.8621965 69.4245173,48.08 L69.4245173,64.3 C69.4245173,64.81 69.1545173,65.06 68.6245173,65.04 L63.7545173,65.08 Z M63.6345173,73.08 C63.4958402,73.0773405 63.3607021,73.0357595 63.2445173,72.96 C63.0463931,72.8366568 62.9343173,72.6125053 62.9545173,72.38 L62.9545173,68.08 C62.9428446,67.8817999 63.0113069,67.6872227 63.1445173,67.54 C63.2548944,67.4250404 63.405301,67.3569993 63.5645173,67.35 L68.7945173,67.35 C69.0164826,67.330989 69.2311587,67.4344936 69.3545173,67.62 C69.4181412,67.7585801 69.4554418,67.9077828 69.4645173,68.06 L69.4645173,72.36 C69.4640874,72.592861 69.3478896,72.8102633 69.1545173,72.94 C69.0782266,72.9767192 68.9975814,73.003601 68.9145173,73.02 L68.7845173,73.02 L63.6345173,73.08 Z" id="Shape" fill="#FFFFFF"></path>
        </g>
    </g>
</svg>