<?xml version="1.0" encoding="UTF-8" standalone="no"?>
<svg
        xmlns:dc="http://purl.org/dc/elements/1.1/"
        xmlns:cc="http://creativecommons.org/ns#"
        xmlns:rdf="http://www.w3.org/1999/02/22-rdf-syntax-ns#"
        xmlns:svg="http://www.w3.org/2000/svg"
        xmlns="http://www.w3.org/2000/svg"
        width="77.269997"
        height="80.139999"
        viewBox="0 0 77.269997 80.139999"
        version="1.1"
        id="svg59">
    <metadata
            id="metadata65">
        <rdf:RDF>
            <cc:Work
                    rdf:about="">
                <dc:format>image/svg+xml</dc:format>
                <dc:type
                        rdf:resource="http://purl.org/dc/dcmitype/StillImage" />
                <dc:title>Group 2</dc:title>
            </cc:Work>
        </rdf:RDF>
    </metadata>
    <defs
            id="defs63" />
    <title
            id="title10">Group 2</title>
    <g
            id="Page-1"
            stroke="none"
            stroke-width="1"
            fill="none"
            fill-rule="evenodd"
            transform="translate(-0.37,-4.92)">
        <g
                id="Group-2"
                transform="translate(0.37,0.8295)"
                fill-rule="nonzero">
            <g
                    id="Group">
                <path
                        d="m 2.27,4.0905 c -1.26,0 -2.27,1.16 -2.27,2.59 v 74.96 c 0,1.43 1.02,2.59 2.27,2.59 H 75 c 1.26,0 2.27,-1.16 2.27,-2.59 v -74.95 c 0,-1.43 -1.02,-2.59 -2.27,-2.59 H 2.27 Z"
                        id="Path"
                        fill="#cc1719" />
                <g
                        transform="translate(6.9303,35.9316)"
                        fill="#ffffff"
                        id="g23">
                    <path
                            d="m 5.1941313,13 c 0.115151,0 0.1727265,-0.07608 0.1727265,-0.228246 v 0 -1.782783 c 0,-0.152164 -0.057576,-0.228246 -0.1727265,-0.228246 v 0 H 2.7081041 L 2.8869994,10.513973 5.1817937,5.8812024 c 0.020563,-0.037013 0.0329,-0.080194 0.037013,-0.1295449 v 0 -1.3139548 c 0,-0.1562763 -0.063744,-0.2344145 -0.1912329,-0.2344145 v 0 H 0.47499776 c -0.11926351,0 -0.17889526,0.078138 -0.17889526,0.2344145 v 0 1.622395 c 0,0.1562763 0.0596317,0.2344144 0.17889526,0.2344144 v 0 H 2.5908969 L 2.4366768,6.5289266 0.25908969,11.229554 c -0.0370128,0.07402 -0.0596318,0.145995 -0.0678568,0.215908 v 0 1.326292 C 0.19123286,12.923918 0.25497715,13 0.38246573,13 v 0 z"
                            id="Z" />
                    <path
                            d="m 8.9605779,13.148051 c 0.7649314,0 1.4229371,-0.233386 1.9740161,-0.700159 0.55108,-0.466772 0.82662,-1.029162 0.82662,-1.687167 v 0 -6.2921783 c 0,-0.069913 -0.02262,-0.1316011 -0.06786,-0.185064 -0.04524,-0.053463 -0.106926,-0.080195 -0.185064,-0.080195 v 0 H 9.5959645 c -0.065801,0 -0.1213198,0.025703 -0.1665577,0.07711 -0.045238,0.051407 -0.067857,0.1141234 -0.067857,0.188149 v 0 6.1502953 c 0,0.0987 -0.031872,0.183008 -0.095616,0.252921 -0.063744,0.06991 -0.1634733,0.10487 -0.2991869,0.10487 -0.1357137,0 -0.2374989,-0.03496 -0.3053557,-0.10487 -0.067857,-0.06991 -0.1017853,-0.15422 -0.1017853,-0.252921 v 0 -6.1502953 c 0,-0.176839 -0.071969,-0.2652585 -0.2159081,-0.2652585 v 0 H 6.351175 c -0.053463,0 -0.098701,0.026731 -0.1357137,0.080195 -0.037013,0.053463 -0.055519,0.1151509 -0.055519,0.185064 v 0 6.2921788 c 0,0.658004 0.2755398,1.220394 0.8266195,1.687167 0.5510796,0.466773 1.2090852,0.700158 1.9740161,0.700158 z"
                            id="U" />
                    <path
                            d="m 14.865267,13 c 0.176839,0 0.265259,-0.08636 0.265259,-0.25909 v 0 -2.492196 h 0.30844 l 0.505842,2.504534 c 0.01234,0.0987 0.03393,0.164501 0.06477,0.197402 C 16.040424,12.98355 16.099028,13 16.185391,13 v 0 h 2.035705 c 0.0658,0 0.111038,-0.02776 0.135713,-0.08328 0.02468,-0.05552 0.02673,-0.114123 0.0062,-0.175811 v 0 L 17.462333,9.5269644 C 18.001075,9.0663605 18.270446,8.470043 18.270446,7.7380118 v 0 -1.0857091 c 0,-0.6662307 -0.267315,-1.2409574 -0.801944,-1.7241802 C 16.933872,4.4448996 16.29026,4.2032882 15.537667,4.2032882 v 0 h -2.529209 c -0.180952,0 -0.271428,0.088419 -0.271428,0.2652585 v 0 8.2723633 c 0,0.172727 0.09048,0.25909 0.271428,0.25909 v 0 z m 0.6724,-4.9227041 H 15.130526 V 6.3747066 h 0.400972 c 0.09459,0 0.174783,0.023647 0.240583,0.070941 0.0658,0.047294 0.0987,0.1161791 0.0987,0.2066549 v 0 1.1535659 c 0,0.078138 -0.03187,0.1429106 -0.09562,0.1943173 -0.06375,0.051407 -0.142911,0.07711 -0.237499,0.07711 z"
                            id="R" />
                    <path
                            d="m 25.562736,13.148051 c 0.838957,0 1.514441,-0.229274 2.026452,-0.687821 0.51201,-0.458548 0.768016,-1.025049 0.768016,-1.699505 0,-0.316665 -0.04832,-0.617908 -0.144967,-0.9037297 C 28.115592,9.5711742 27.996329,9.3223658 27.854446,9.1105703 27.712564,8.8987747 27.523387,8.6828667 27.286916,8.4628461 27.050446,8.2428255 26.831453,8.0608458 26.629939,7.9169071 26.428425,7.7729684 26.179616,7.6043544 25.883514,7.4110653 25.719013,7.3041394 25.592552,7.2157199 25.504133,7.1458068 25.415713,7.0758937 25.350941,7.0049525 25.309815,6.9329831 c -0.04113,-0.071969 -0.0658,-0.1326292 -0.07402,-0.1819796 -0.0082,-0.04935 -0.01234,-0.1254323 -0.01234,-0.2282457 0,-0.082251 0.02673,-0.1521638 0.08019,-0.2097393 0.05346,-0.057575 0.133657,-0.086363 0.240583,-0.086363 0.213852,0 0.320777,0.1336574 0.320777,0.4009722 v 0 0.3269465 c 0,0.1110384 0.01337,0.1830077 0.0401,0.215908 0.02673,0.0329 0.08945,0.04935 0.188148,0.04935 v 0 h 1.788953 c 0.135714,0 0.222077,-0.01645 0.259089,-0.04935 0.03701,-0.0329 0.05552,-0.1028133 0.05552,-0.2097392 v 0 -0.345453 c 0,-0.8019442 -0.250865,-1.4291058 -0.752594,-1.8814846 -0.501729,-0.4523788 -1.15151,-0.6785682 -1.949342,-0.6785682 -0.259089,0 -0.515095,0.0329 -0.768015,0.098701 -0.252921,0.065801 -0.493505,0.1665577 -0.72175,0.3022713 -0.228246,0.1357137 -0.42976,0.2971307 -0.604543,0.484251 -0.174783,0.1871203 -0.313581,0.4112535 -0.416394,0.6723994 -0.102813,0.261146 -0.15422,0.5418264 -0.15422,0.8420415 0,0.5222919 0.07814,0.945883 0.234414,1.2707732 0.156277,0.3125527 0.452379,0.645668 0.888308,0.999346 0.06991,0.057575 0.493504,0.3762969 1.270773,0.9561643 0.271427,0.2015142 0.46266,0.3701281 0.573699,0.5058411 0.111038,0.135714 0.166557,0.281709 0.166557,0.437985 0,0.115151 -0.03598,0.202543 -0.107954,0.262174 -0.07197,0.05963 -0.157304,0.08945 -0.256005,0.08945 -0.271427,0 -0.407141,-0.139826 -0.407141,-0.419479 v 0 -0.271427 c 0,-0.123376 -0.01645,-0.204598 -0.04935,-0.243668 -0.0329,-0.03907 -0.108983,-0.058603 -0.228246,-0.058603 v 0 h -1.825965 c -0.111039,0 -0.18198,0.023647 -0.212824,0.070941 -0.03084,0.04729 -0.04627,0.147023 -0.04627,0.299187 v 0 0.345453 c 0,0.230302 0.02776,0.456491 0.08328,0.678568 0.05552,0.222077 0.152164,0.441069 0.289933,0.656978 0.13777,0.215908 0.307412,0.405084 0.508927,0.567529 0.201514,0.162445 0.461632,0.294047 0.780353,0.394804 0.318721,0.100757 0.675484,0.151135 1.070287,0.151135 z"
                            id="S" />
                    <path
                            d="m 32.67885,13 c 0.148051,0 0.222077,-0.08636 0.222077,-0.25909 v 0 -6.3662034 h 1.239929 c 0.148051,0 0.222077,-0.088419 0.222077,-0.2652585 v 0 -1.6409014 c 0,-0.176839 -0.07403,-0.2652585 -0.222077,-0.2652585 v 0 h -4.89186 c -0.139826,0 -0.209739,0.088419 -0.209739,0.2652585 v 0 1.6409014 c 0,0.176839 0.06991,0.2652585 0.209739,0.2652585 v 0 h 1.252267 V 12.74091 c 0,0.172727 0.07197,0.25909 0.215908,0.25909 v 0 z"
                            id="T" />
                    <path
                            d="m 39.58075,13 c 0.143938,0 0.215908,-0.08636 0.215908,-0.25909 v 0 -1.653239 c 0,-0.172726 -0.07197,-0.259089 -0.215908,-0.259089 v 0 H 37.551214 V 9.6873533 h 1.474343 c 0.156277,0 0.234415,-0.086363 0.234415,-0.2590897 v 0 -1.6347326 c 0,-0.1809515 -0.07814,-0.2714272 -0.234415,-0.2714272 v 0 H 37.551214 V 6.3747066 h 1.980185 c 0.131601,0 0.197402,-0.086363 0.197402,-0.2590897 v 0 -1.6470702 c 0,-0.176839 -0.0658,-0.2652585 -0.197402,-0.2652585 v 0 h -4.102253 c -0.180952,0 -0.271427,0.088419 -0.271427,0.2652585 v 0 8.2723633 c 0,0.172727 0.09047,0.25909 0.271427,0.25909 v 0 z"
                            id="E" />
                    <path
                            d="m 43.38931,13.148051 c 0.764931,0 1.422937,-0.233386 1.974016,-0.700159 0.55108,-0.466772 0.82662,-1.029162 0.82662,-1.687167 v 0 -6.2921783 c 0,-0.069913 -0.02262,-0.1316011 -0.06786,-0.185064 -0.04524,-0.053463 -0.106926,-0.080195 -0.185064,-0.080195 v 0 h -1.912329 c -0.0658,0 -0.121319,0.025703 -0.166557,0.07711 -0.04524,0.051407 -0.06786,0.1141228 -0.06786,0.1881484 v 0 6.1502949 c 0,0.0987 -0.03187,0.183008 -0.09562,0.252921 -0.06374,0.06991 -0.163474,0.10487 -0.299187,0.10487 -0.135714,0 -0.237499,-0.03496 -0.305356,-0.10487 -0.06786,-0.06991 -0.101785,-0.15422 -0.101785,-0.252921 v 0 -6.1502949 c 0,-0.176839 -0.07197,-0.2652585 -0.215908,-0.2652585 v 0 h -1.992523 c -0.05346,0 -0.0987,0.026731 -0.135714,0.080195 -0.03701,0.053463 -0.05552,0.1151509 -0.05552,0.185064 v 0 6.2921784 c 0,0.658005 0.275539,1.220395 0.826619,1.687167 0.55108,0.466773 1.209085,0.700159 1.974017,0.700159 z"
                            id="path19" />
                    <path
                            d="m 51.588794,13 c 0.143938,0 0.215908,-0.08636 0.215908,-0.25909 v 0 -1.653239 c 0,-0.172726 -0.07197,-0.259089 -0.215908,-0.259089 v 0 H 49.559258 V 9.6873533 h 1.474343 c 0.156277,0 0.234415,-0.086363 0.234415,-0.2590897 v 0 -1.6347326 c 0,-0.1809515 -0.07814,-0.2714272 -0.234415,-0.2714272 v 0 H 49.559258 V 6.3747066 h 1.980185 c 0.131601,0 0.197402,-0.086363 0.197402,-0.2590897 v 0 -1.6470702 c 0,-0.176839 -0.0658,-0.2652585 -0.197402,-0.2652585 v 0 H 47.43719 c -0.180952,0 -0.271428,0.088419 -0.271428,0.2652585 v 0 8.2723633 c 0,0.172727 0.09048,0.25909 0.271428,0.25909 v 0 z m 2.961025,0 c 0.176839,0 0.265258,-0.08636 0.265258,-0.25909 v 0 -2.492196 h 0.30844 l 0.505842,2.504534 c 0.01234,0.0987 0.03393,0.164501 0.06477,0.197402 C 55.724975,12.98355 55.783579,13 55.869942,13 v 0 h 2.035705 c 0.0658,0 0.111038,-0.02776 0.135714,-0.08328 0.02467,-0.05552 0.02673,-0.114123 0.0062,-0.175811 v 0 L 57.146884,9.5269644 C 57.685626,9.0663605 57.954997,8.470043 57.954997,7.7380118 v 0 -1.0857091 c 0,-0.6662307 -0.267314,-1.2409574 -0.801944,-1.7241802 C 56.618424,4.4448996 55.974812,4.2032882 55.222218,4.2032882 v 0 h -2.529209 c -0.180951,0 -0.271427,0.088419 -0.271427,0.2652585 v 0 8.2723633 c 0,0.172727 0.09048,0.25909 0.271427,0.25909 v 0 z M 55.222218,8.0772959 H 54.815077 V 6.3747066 h 0.400972 c 0.09459,0 0.174783,0.023647 0.240583,0.070941 0.0658,0.047294 0.0987,0.1161791 0.0987,0.2066549 v 0 1.1535659 c 0,0.078138 -0.03187,0.1429106 -0.09562,0.1943173 -0.06374,0.051407 -0.142911,0.07711 -0.237499,0.07711 z"
                            id="ER" />
                    <path
                            d="m 62.575793,10.304234 c 0.04524,0 0.0915,-0.01748 0.138798,-0.05243 0.04729,-0.03496 0.07094,-0.07917 0.07094,-0.13263 v 0 -1.3509672 c 0,-0.053463 -0.01953,-0.097673 -0.0586,-0.1326293 -0.03907,-0.034956 -0.08534,-0.052435 -0.138798,-0.052435 v 0 h -3.466867 c -0.04112,0 -0.08328,0.019535 -0.12646,0.058604 -0.04318,0.039069 -0.06477,0.085335 -0.06477,0.1387981 v 0 1.3386294 c 0,0.05758 0.02262,0.102814 0.06786,0.135714 0.04524,0.0329 0.08225,0.04935 0.111039,0.04935 v 0 z"
                            id="-" />
                </g>
                <g
                        transform="translate(6.9303,47.3554)"
                        fill="#ffffff"
                        id="g36">
                    <path
                            d="M 3.2233552,16 C 3.4556691,16 3.571826,15.889123 3.571826,15.667369 v 0 -10.6204409 c 0,-0.227034 -0.1161569,-0.340551 -0.3484708,-0.340551 v 0 H 0.84741771 c -0.23231389,0 -0.34847083,0.113517 -0.34847083,0.340551 v 0 10.6204409 C 0.49894688,15.889123 0.61510382,16 0.84741771,16 v 0 z m 3.9123771,0 c 0.1214368,0 0.2125144,-0.02772 0.2732328,-0.08316 0.060718,-0.05544 0.088438,-0.138596 0.083158,-0.249473 v 0 L 7.3654065,11.76291 7.2862085,10.701657 7.5871606,11.75499 8.901846,15.667367 C 8.970484,15.889123 9.1341597,16 9.3928729,16 v 0 h 2.2413011 c 0.258713,0 0.38807,-0.110877 0.38807,-0.332631 v 0 -10.6362805 c 0,-0.2164743 -0.110877,-0.3247114 -0.332631,-0.3247114 v 0 H 9.4483115 c -0.1108771,0 -0.1979948,0.032999 -0.2613532,0.098997 -0.063358,0.065998 -0.092398,0.1465161 -0.087118,0.2415536 v 0 L 9.2503167,9.5849688 9.3057552,10.559103 9.0602417,9.4661719 7.6109198,5.0469281 C 7.5528413,4.8779726 7.4419642,4.7723753 7.2782885,4.7301365 7.2413295,4.7142969 7.1938108,4.7063771 7.1357323,4.7063771 v 0 H 4.9181906 c -0.2323139,0 -0.3484708,0.113517 -0.3484708,0.340551 v 0 10.6204409 C 4.5697198,15.889123 4.6858767,16 4.9181906,16 v 0 z"
                            id="IN" />
                    <path
                            d="m 15.986555,16 c 0.232314,0 0.348471,-0.110877 0.348471,-0.332631 v 0 -10.6204409 c 0,-0.227034 -0.116157,-0.340551 -0.348471,-0.340551 v 0 h -2.375937 c -0.232314,0 -0.348471,0.113517 -0.348471,0.340551 v 0 10.6204409 C 13.262147,15.889123 13.378304,16 13.610618,16 v 0 z"
                            id="I" />
                    <path
                            d="m 21.763814,16 c 0.190075,0 0.285112,-0.110877 0.285112,-0.332631 v 0 -8.1732253 h 1.591878 c 0.190075,0 0.285113,-0.113517 0.285113,-0.340551 v 0 -2.1066646 c 0,-0.227034 -0.09504,-0.340551 -0.285113,-0.340551 v 0 H 17.36041 c -0.179516,0 -0.269273,0.113517 -0.269273,0.340551 v 0 2.1066646 c 0,0.227034 0.08976,0.340551 0.269273,0.340551 v 0 h 1.607717 v 8.1732253 c 0,0.221754 0.0924,0.332631 0.277193,0.332631 v 0 z"
                            id="path27" />
                    <path
                            d="m 27.611703,16 c 0.232314,0 0.348471,-0.110877 0.348471,-0.332631 v 0 -10.6204409 c 0,-0.227034 -0.116157,-0.340551 -0.348471,-0.340551 v 0 h -2.375937 c -0.232314,0 -0.348471,0.113517 -0.348471,0.340551 v 0 10.6204409 C 24.887295,15.889123 25.003452,16 25.235766,16 v 0 z"
                            id="path29" />
                    <path
                            d="m 31.341367,16 c 0.253434,0 0.39599,-0.110877 0.427669,-0.332631 v 0 l 0.102957,-0.910776 h 1.488921 l 0.102957,0.910776 C 33.50083,15.889123 33.646027,16 33.89946,16 v 0 h 2.597692 c 0.163675,0 0.216474,-0.110877 0.158395,-0.332631 v 0 L 34.192492,5.0469281 c -0.06336,-0.227034 -0.203274,-0.340551 -0.419749,-0.340551 v 0 h -2.312579 c -0.216474,0 -0.353751,0.113517 -0.411829,0.340551 v 0 L 28.58528,15.667369 C 28.532481,15.889123 28.58528,16 28.743676,16 v 0 z m 1.718595,-3.849019 h -0.887017 l 0.324712,-2.7560872 0.118797,-1.4493219 0.126716,1.4493219 z"
                            id="A" />
                    <path
                            d="m 40.961794,16 c 0.190075,0 0.285112,-0.110877 0.285112,-0.332631 v 0 -8.1732253 h 1.591878 c 0.190075,0 0.285113,-0.113517 0.285113,-0.340551 v 0 -2.1066646 c 0,-0.227034 -0.09504,-0.340551 -0.285113,-0.340551 v 0 H 36.55839 c -0.179516,0 -0.269273,0.113517 -0.269273,0.340551 v 0 2.1066646 c 0,0.227034 0.08976,0.340551 0.269273,0.340551 v 0 h 1.607717 V 15.667369 C 38.166107,15.889123 38.258505,16 38.4433,16 v 0 z m 5.512175,0 c 0.232314,0 0.348471,-0.110877 0.348471,-0.332631 v 0 -10.6204409 c 0,-0.227034 -0.116157,-0.340551 -0.348471,-0.340551 v 0 h -2.375938 c -0.232314,0 -0.348471,0.113517 -0.348471,0.340551 v 0 10.6204409 C 43.74956,15.889123 43.865717,16 44.098031,16 v 0 z"
                            id="TI" />
                    <path
                            d="m 53.009407,16 c 0.216474,0 0.35639,-0.113517 0.419749,-0.340551 v 0 L 55.971409,5.0390083 c 0.0264,-0.1055972 0.01716,-0.187435 -0.02772,-0.2455135 -0.04488,-0.058079 -0.114837,-0.087118 -0.209875,-0.087118 v 0 h -2.431376 c -0.253433,0 -0.398629,0.1108771 -0.435588,0.3326312 v 0 l -0.839498,5.955684 -0.08712,1.11669 -0.0792,-1.11669 L 51.0057,5.0390083 C 50.974021,4.8172542 50.831464,4.7063771 50.578031,4.7063771 v 0 h -2.431376 c -0.09504,0 -0.166316,0.029039 -0.213835,0.087118 -0.04752,0.058078 -0.05544,0.1399163 -0.02376,0.2455135 v 0 L 50.451314,15.659449 C 50.509393,15.886483 50.646669,16 50.863143,16 v 0 z"
                            id="V" />
                    <path
                            d="m 62.654598,16 c 0.184795,0 0.277192,-0.110877 0.277192,-0.332631 v 0 -2.122504 c 0,-0.221755 -0.0924,-0.332632 -0.277192,-0.332632 v 0 h -2.605612 v -1.465161 h 1.89283 c 0.200635,0 0.300952,-0.110877 0.300952,-0.332631 v 0 -2.0987452 c 0,-0.2323139 -0.100317,-0.3484708 -0.300952,-0.3484708 v 0 h -1.89283 V 7.4941437 h 2.542253 c 0.168956,0 0.253434,-0.110877 0.253434,-0.3326312 v 0 -2.1145844 c 0,-0.227034 -0.08448,-0.340551 -0.253434,-0.340551 v 0 h -5.266661 c -0.232314,0 -0.348471,0.113517 -0.348471,0.340551 v 0 10.6204409 C 56.976107,15.889123 57.092264,16 57.324578,16 v 0 z"
                            id="path34" />
                </g>
                <g
                        transform="translate(5.7931)"
                        fill="#ffffff"
                        id="g45">
                    <path
                            d="m 7.0843172,37 c 0.2806878,0 0.4912037,-0.06407 0.6315476,-0.19221 0.140344,-0.12814 0.204414,-0.32035 0.1922102,-0.576631 v 0 L 7.6151833,27.206435 7.432126,24.753467 l 0.6956178,2.434662 3.0387512,9.04303 C 11.325144,36.74372 11.703463,37 12.30145,37 v 0 h 5.180521 c 0.597987,0 0.896981,-0.25628 0.896981,-0.768841 v 0 -24.584594 c 0,-0.500356 -0.25628,-0.750535 -0.768841,-0.750535 v 0 H 12.42959 c -0.25628,0 -0.457643,0.07627 -0.604089,0.228822 -0.146446,0.152548 -0.213567,0.338656 -0.201363,0.558325 v 0 l 0.347809,10.489182 0.12814,2.251605 L 11.532609,21.897773 8.1826609,11.683177 C 8.0484189,11.292654 7.7921387,11.048578 7.4138203,10.950947 7.3283936,10.914336 7.2185592,10.89603 7.0843172,10.89603 v 0 H 1.958713 c -0.536968,0 -0.8054521,0.262382 -0.8054521,0.787147 v 0 24.547982 C 1.1532609,36.74372 1.421745,37 1.958713,37 v 0 z"
                            id="N" />
                    <path
                            d="m 34.231605,37 c 0.427133,0 0.6407,-0.25628 0.6407,-0.768841 v 0 -4.905935 c 0,-0.512561 -0.213567,-0.768841 -0.6407,-0.768841 v 0 H 28.20902 v -3.38656 h 4.375069 c 0.463745,0 0.695618,-0.25628 0.695618,-0.76884 v 0 -4.851018 c 0,-0.536969 -0.231873,-0.805453 -0.695618,-0.805453 v 0 H 28.20902 v -3.404865 h 5.876139 c 0.390522,0 0.585783,-0.25628 0.585783,-0.768841 v 0 -4.887629 c 0,-0.524765 -0.195261,-0.787147 -0.585783,-0.787147 v 0 h -12.17331 c -0.536968,0 -0.805452,0.262382 -0.805452,0.787147 v 0 24.547982 C 21.106397,36.74372 21.374881,37 21.911849,37 v 0 z"
                            id="path39" />
                    <path
                            d="m 43.304388,37 c 0.536968,0 0.805452,-0.25628 0.805452,-0.768841 v 0 -24.547982 c 0,-0.524765 -0.268484,-0.787147 -0.805452,-0.787147 v 0 h -5.491719 c -0.536968,0 -0.805452,0.262382 -0.805452,0.787147 v 0 24.547982 C 37.007217,36.74372 37.275701,37 37.812669,37 v 0 z"
                            id="path41" />
                    <path
                            d="m 52.117141,37 c 0.280688,0 0.491204,-0.06407 0.631548,-0.19221 0.140344,-0.12814 0.204414,-0.32035 0.19221,-0.576631 v 0 l -0.292892,-9.024724 -0.183057,-2.452968 0.695618,2.434662 3.038751,9.04303 C 56.357968,36.74372 56.736287,37 57.334274,37 v 0 h 5.180521 c 0.597988,0 0.896981,-0.25628 0.896981,-0.768841 v 0 -24.584594 c 0,-0.500356 -0.25628,-0.750535 -0.768841,-0.750535 v 0 h -5.180521 c -0.25628,0 -0.457643,0.07627 -0.604089,0.228822 -0.146446,0.152548 -0.213567,0.338656 -0.201363,0.558325 v 0 l 0.347809,10.489182 0.12814,2.251605 -0.567478,-2.526191 -3.349948,-10.214596 c -0.134242,-0.390523 -0.390522,-0.634599 -0.768841,-0.73223 -0.08543,-0.03661 -0.195261,-0.05492 -0.329503,-0.05492 v 0 h -5.125604 c -0.536968,0 -0.805452,0.262382 -0.805452,0.787147 v 0 24.547982 C 46.186085,36.74372 46.454569,37 46.991537,37 v 0 z"
                            id="path43" />
                </g>
                <g
                        transform="translate(6.8615,60.7002)"
                        fill="#ffffff"
                        id="g54">
                    <path
                            d="m 4.3343152,17 c 1.05569,-0.0054 1.9168393,-0.276166 2.5834477,-0.812174 0.6666084,-0.536008 0.9999126,-1.318252 0.9999126,-2.346734 v 0 -5.3219836 c 0,-0.5278451 -0.093869,-0.9958314 -0.281608,-1.403959 C 7.4483288,6.7070218 7.1884875,6.3764385 6.8565437,6.1233993 6.5246,5.8703602 6.1423204,5.6799007 5.7097052,5.5520207 5.2770899,5.4241407 4.8023015,5.3602007 4.2853398,5.3602007 v 0 H 0.87339307 c -0.23943486,0 -0.35915229,0.1169966 -0.35915229,0.3509898 v 0 10.9459825 C 0.51424078,16.885724 0.63395821,17 0.87339307,17 v 0 z m 0,-2.873218 H 3.681311 V 8.2334191 h 0.6530042 c 0.1360425,0.00544 0.2394348,0.035371 0.3101769,0.089788 0.070742,0.054417 0.1061132,0.1659719 0.1061132,0.3346647 v 0 5.0771072 c 0,0.103392 -0.039452,0.19182 -0.118357,0.265283 -0.078905,0.07346 -0.1782157,0.115636 -0.2979331,0.12652 z"
                            id="D" />
                    <path
                            d="m 15.301031,17 c 0.190459,0 0.285689,-0.114276 0.285689,-0.342827 v 0 -2.187564 c 0,-0.228552 -0.09523,-0.342827 -0.285689,-0.342827 v 0 h -2.68548 V 12.61671 h 1.95085 c 0.206785,0 0.310177,-0.114276 0.310177,-0.342828 v 0 -2.163076 c 0,-0.2394348 -0.103392,-0.3591523 -0.310177,-0.3591523 v 0 h -1.95085 V 8.2334191 h 2.620179 c 0.174135,0 0.261202,-0.1142758 0.261202,-0.3428272 v 0 -2.1794014 c 0,-0.2339932 -0.08707,-0.3509898 -0.261202,-0.3509898 v 0 H 9.8076331 c -0.2394349,0 -0.3591523,0.1169966 -0.3591523,0.3509898 v 0 10.9459825 C 9.4484808,16.885724 9.5681982,17 9.8076331,17 v 0 z m 3.918025,0 c 0.233993,0 0.350989,-0.114276 0.350989,-0.342827 v 0 -3.297671 h 0.408128 l 0.669329,3.313996 c 0.01633,0.130601 0.04489,0.217668 0.08571,0.261202 C 20.774022,16.97823 20.851569,17 20.965845,17 v 0 h 2.693642 c 0.08707,0 0.146926,-0.03673 0.179576,-0.110194 0.03265,-0.07346 0.03537,-0.151008 0.0082,-0.232633 v 0 l -1.191733,-4.25269 c 0.712863,-0.60947 1.069294,-1.398517 1.069294,-2.36714 v 0 -1.4366091 c 0,-0.8815556 -0.35371,-1.6420334 -1.061131,-2.2814333 C 21.956231,5.6799007 21.104605,5.3602007 20.108774,5.3602007 v 0 h -3.346647 c -0.239434,0 -0.359152,0.1169966 -0.359152,0.3509898 v 0 10.9459825 C 16.402975,16.885724 16.522693,17 16.762127,17 v 0 z m 0.889718,-6.513717 H 19.570045 V 8.2334191 h 0.530566 c 0.125159,0 0.231273,0.03129 0.31834,0.093869 0.08707,0.06258 0.130601,0.1537281 0.130601,0.2734455 v 0 1.5263974 c 0,0.103393 -0.04217,0.189099 -0.12652,0.257121 -0.08435,0.06802 -0.189099,0.102031 -0.314258,0.102031 z"
                            id="path48" />
                    <path
                            d="m 28.07658,17.195901 c 1.033924,0 1.881469,-0.280247 2.542635,-0.840743 0.661167,-0.560495 0.99175,-1.330496 0.99175,-2.310002 v 0 -8.2768277 c 0,-0.1523676 -0.03129,-0.2584808 -0.09387,-0.3183395 -0.06258,-0.059859 -0.15917,-0.089788 -0.28977,-0.089788 v 0 h -2.505904 c -0.03265,0 -0.0653,0.00544 -0.09795,0.016325 -0.03265,0.010883 -0.07074,0.043534 -0.114275,0.097951 -0.04353,0.054417 -0.0653,0.1278799 -0.0653,0.2203889 v 0 8.1380643 c 0,0.152367 -0.03809,0.272085 -0.114275,0.359152 -0.07618,0.08707 -0.220389,0.130601 -0.432616,0.130601 -0.282968,0 -0.552332,-0.138763 -0.808092,-0.41629 -0.09795,-0.108834 -0.201343,-0.163251 -0.310177,-0.163251 -0.103393,0 -0.204064,0.05442 -0.302015,0.163251 v 0 l -1.265195,1.477422 c -0.0653,0.05986 -0.08979,0.136042 -0.07346,0.228551 0.01632,0.09251 0.04081,0.168693 0.07346,0.228552 0.03265,0.05986 0.06802,0.114275 0.106113,0.163251 0.691096,0.794488 1.610743,1.191732 2.758942,1.191732 z m 8.097252,0 c 1.012157,0 1.882829,-0.308816 2.612017,-0.926449 0.729188,-0.617634 1.093782,-1.361786 1.093782,-2.232458 v 0 -8.3258035 c 0,-0.092509 -0.02993,-0.1741345 -0.08979,-0.2448766 -0.05986,-0.070742 -0.141485,-0.1061132 -0.244877,-0.1061132 v 0 h -2.530391 c -0.08707,0 -0.16053,0.034011 -0.220389,0.1020319 -0.05986,0.068021 -0.08979,0.1510072 -0.08979,0.2489579 v 0 8.1380645 c 0,0.130601 -0.04217,0.242156 -0.12652,0.334665 -0.08435,0.09251 -0.216307,0.138763 -0.395883,0.138763 -0.179577,0 -0.314259,-0.04625 -0.404047,-0.138763 -0.08979,-0.09251 -0.134682,-0.204064 -0.134682,-0.334665 v 0 -8.1380645 c 0,-0.2339932 -0.09523,-0.3509898 -0.285689,-0.3509898 v 0 h -2.636504 c -0.07074,0 -0.130601,0.035371 -0.179577,0.1061132 -0.04897,0.070742 -0.07346,0.1523676 -0.07346,0.2448766 v 0 8.3258035 c 0,0.870672 0.364594,1.614824 1.093783,2.232458 0.729188,0.617633 1.59986,0.926449 2.612017,0.926449 z"
                            id="JU" />
                    <path
                            d="m 50.254626,17.195901 c 1.110107,0 2.003906,-0.303375 2.681398,-0.910124 0.677492,-0.60675 1.016238,-1.356344 1.016238,-2.248783 0,-0.419011 -0.06394,-0.817616 -0.19182,-1.195814 -0.12788,-0.378198 -0.28569,-0.707421 -0.473428,-0.987669 C 53.099275,11.573263 52.848957,11.287574 52.536059,10.996443 52.223161,10.705312 51.93339,10.464517 51.666747,10.274057 51.400104,10.083598 51.070881,9.8604878 50.679078,9.6047278 50.46141,9.4632436 50.294078,9.346247 50.177081,9.2537381 50.060085,9.1612292 49.974378,9.0673598 49.919961,8.97213 49.865541,8.8769 49.832891,8.7966352 49.822011,8.7313347 c -0.01088,-0.0653 -0.01633,-0.1659718 -0.01633,-0.3020144 0,-0.108834 0.03537,-0.2013429 0.106113,-0.2775268 0.07074,-0.076184 0.176856,-0.1142757 0.31834,-0.1142757 0.282968,0 0.424452,0.1768553 0.424452,0.5305659 v 0 0.4326153 c 0,0.1469259 0.01769,0.2421557 0.05306,0.2856893 0.03537,0.043534 0.118357,0.0653 0.248958,0.0653 v 0 h 2.36714 c 0.179576,0 0.293852,-0.021767 0.342827,-0.0653 0.04898,-0.043534 0.07346,-0.1360425 0.07346,-0.2775268 v 0 -0.4571029 c 0,-1.0611318 -0.331944,-1.8909912 -0.995831,-2.4895784 -0.663888,-0.5985871 -1.523676,-0.8978807 -2.579367,-0.8978807 -0.342827,0 -0.681573,0.043534 -1.016237,0.1306008 -0.334665,0.087067 -0.653005,0.2203889 -0.955019,0.3999651 -0.302014,0.1795761 -0.568658,0.3931629 -0.79993,0.6407603 -0.231272,0.2475974 -0.41493,0.5441701 -0.550972,0.8897182 -0.136043,0.345548 -0.204064,0.7169441 -0.204064,1.1141883 0,0.6910961 0.103392,1.2515914 0.310177,1.6814858 0.206785,0.413569 0.598587,0.854347 1.175407,1.322333 0.09251,0.07618 0.653005,0.497916 1.681486,1.265196 0.359152,0.266643 0.612191,0.489753 0.759117,0.669329 0.146926,0.179576 0.220389,0.372757 0.220389,0.579541 0,0.152368 -0.04761,0.268004 -0.142844,0.346909 -0.09523,0.07891 -0.208145,0.118357 -0.338746,0.118357 -0.359153,0 -0.538729,-0.185018 -0.538729,-0.555054 v 0 -0.359152 c 0,-0.163251 -0.02177,-0.270725 -0.0653,-0.322421 -0.04353,-0.0517 -0.144205,-0.07754 -0.302015,-0.07754 v 0 h -2.416115 c -0.146926,0 -0.240795,0.03129 -0.281608,0.09387 -0.04081,0.06258 -0.06122,0.194541 -0.06122,0.395884 v 0 0.457103 c 0,0.304735 0.03673,0.604029 0.110194,0.897881 0.07346,0.293852 0.201343,0.583622 0.38364,0.869312 0.182297,0.285689 0.406768,0.536007 0.673411,0.750954 0.266643,0.214948 0.610831,0.389082 1.032563,0.522404 0.421732,0.133321 0.893799,0.199982 1.416203,0.199982 z"
                            id="path51" />
                    <path
                            d="m 58.983566,17.195901 c 0.680212,0 1.295125,-0.115636 1.844737,-0.346908 0.549611,-0.231273 0.995831,-0.590425 1.338658,-1.077457 0.342827,-0.487032 0.514241,-1.065213 0.514241,-1.734542 v 0 -5.7137869 c 0,-0.9958313 -0.353711,-1.7712738 -1.061132,-2.3263273 -0.707421,-0.5550536 -1.588977,-0.8325803 -2.644667,-0.8325803 -0.680212,0 -1.296485,0.1169966 -1.848818,0.3509897 -0.552333,0.2339932 -0.998552,0.5945059 -1.338658,1.0815382 -0.340107,0.4870322 -0.51016,1.0624922 -0.51016,1.7263797 v 0 5.7137869 c 0,0.647562 0.170053,1.213499 0.51016,1.69781 0.340106,0.484312 0.787686,0.848906 1.342739,1.093782 0.555054,0.244877 1.172687,0.367315 1.8529,0.367315 z m 0,-2.873218 c -0.185018,0 -0.32106,-0.04762 -0.408128,-0.142845 -0.08707,-0.09523 -0.130601,-0.205424 -0.130601,-0.330583 v 0 -5.3383092 c 0,-0.1197174 0.04898,-0.2285514 0.146926,-0.326502 0.09795,-0.097951 0.228552,-0.146926 0.391803,-0.146926 0.163251,0 0.292491,0.048975 0.387721,0.146926 0.09523,0.097951 0.142845,0.2067846 0.142845,0.326502 v 0 5.3383092 c 0,0.125159 -0.04353,0.235354 -0.130601,0.330583 -0.08707,0.09523 -0.220389,0.142845 -0.399965,0.142845 z"
                            id="O" />
                </g>
            </g>
        </g>
    </g>
</svg>
