<?xml version="1.0" encoding="UTF-8"?>
<svg width="88px" height="80px" viewBox="0 0 88 80" version="1.1" xmlns="http://www.w3.org/2000/svg" xmlns:xlink="http://www.w3.org/1999/xlink">
    <title>Group</title>
    <g id="Page-1" stroke="none" stroke-width="1" fill="none" fill-rule="evenodd">
        <g id="Group" transform="translate(0.759919, 0.000000)" fill-rule="nonzero">
            <path d="M2.54008086,0 C1.12460998,0.0164805116 -0.0110311679,1.1744768 7.10542736e-15,2.59 L7.10542736e-15,77.25 C-0.00524424426,77.9289604 0.259375441,78.5822255 0.735722299,79.0660739 C1.21206916,79.5499223 1.86112013,79.8247163 2.54008086,79.83 L83.9400809,79.83 C84.6190416,79.8247163 85.2680926,79.5499223 85.7444394,79.0660739 C86.2207863,78.5822255 86.485406,77.9289604 86.4801617,77.25 L86.4801617,2.59 C86.4911929,1.1744768 85.3555517,0.0164805116 83.9400809,0 L2.54008086,0 Z" id="Path" fill="#CD1719"></path>
            <path d="M9.88008086,60.05 C8.81008086,60.05 8.27008086,59.54 8.27008086,58.51 L8.27008086,9.56 C8.21841448,9.12337557 8.37338052,8.68764064 8.68913905,8.38168827 C9.00489759,8.0757359 9.44530307,7.93458911 9.88008086,8 L20.1100809,8 C20.331277,7.98910366 20.5523886,8.02312082 20.7600809,8.1 C21.513233,8.25337751 22.1118578,8.82479202 22.3000809,9.57 L28.9800809,29.94 L30.1100809,34.94 L29.8700809,30.46 L29.1500809,9.54 C29.1200727,9.12815772 29.2695598,8.72344859 29.5600809,8.43 C29.8775329,8.11464243 30.3131731,7.94764704 30.7600809,7.97 L41.1000809,7.97 C41.5173616,7.9074555 41.939886,8.04360875 42.2421437,8.33801552 C42.5444013,8.63242229 42.6916245,9.05121812 42.6400809,9.47 L42.6400809,58.47 C42.6400809,59.47 42.0400809,60.01 40.8600809,60.01 L30.5200809,60.01 C29.4954936,60.1349751 28.5308901,59.5003675 28.2400809,58.51 L22.1800809,40.51 L20.7800809,35.65 L21.1500809,40.54 L21.7400809,58.54 C21.7400809,59.54 21.2300809,60.08 20.0900809,60.08 L9.88008086,60.05 Z" id="Path" fill="#FFFFFF"></path>
            <path d="M62.3400809,60.94 C58.1312502,61.0942253 54.0005049,59.7750746 50.6600809,57.21 C47.454351,54.725488 45.6355524,50.8535671 45.7700809,46.8 L45.7700809,21.23 C45.5964055,17.1319563 47.4188942,13.2037292 50.6600809,10.69 C54.0192258,8.20504239 58.1248103,6.93880111 62.3000809,7.1 C67.0267475,7.1 70.9067475,8.29666667 73.9400809,10.69 C77.1949434,13.1963432 79.0326299,17.1251901 78.8700809,21.23 L78.8700809,46.8 C79.0325388,50.9076013 77.1952016,54.8394284 73.9400809,57.35 C70.5995185,59.8415148 66.5040264,61.1089989 62.3400809,60.94 Z M62.3400809,48.07 C62.9960689,48.123157 63.6435851,47.8939799 64.1200809,47.44 C64.4995656,47.0374945 64.7075695,46.5031395 64.7000809,45.95 L64.7000809,22.09 C64.690649,21.5393354 64.4642439,21.0146504 64.0700809,20.63 C63.6062866,20.1882826 62.9793119,19.9599623 62.3400809,20 C61.6920204,19.9657361 61.0586402,20.2009916 60.5900809,20.65 C60.1773904,21.02755 59.941659,21.5606656 59.9400809,22.12 L59.9400809,46 C59.9325922,46.5531395 60.1405961,47.0874945 60.5200809,47.49 C61.0191448,47.9289869 61.6790406,48.1392834 62.3400809,48.07 L62.3400809,48.07 Z" id="Shape" fill="#FFFFFF"></path>
            <path d="M9.82008086,72.05 C9.27544894,72.0868077 8.74539221,71.8644063 8.39008086,71.45 C8.08818165,71.0585947 7.93254464,70.5739977 7.95008086,70.08 L7.95008086,67.8 C7.92740428,67.2713639 8.09010999,66.7514131 8.41008086,66.33 C8.75859873,65.9397846 9.26819668,65.7329913 9.79008086,65.77 C10.214279,65.787893 10.5961609,66.0322974 10.7900809,66.41 L10.8900809,66.1 C10.9057107,66.0317465 10.9403871,65.9693291 10.9900809,65.92 C11.0489913,65.9038292 11.1111704,65.9038292 11.1700809,65.92 L12.1100809,65.92 C12.2500809,65.92 12.3200809,66 12.3200809,66.15 L12.3200809,71.75 C12.3200809,71.9 12.2500809,71.97 12.1100809,71.97 L11.1100809,71.97 C11.0609432,71.9776011 11.0114606,71.9585694 10.9800809,71.92 C10.9396049,71.8709229 10.9120975,71.8124697 10.9000809,71.75 L10.8000809,71.44 C10.6065141,71.8044307 10.2325301,72.0372166 9.82008086,72.05 Z M10.1000809,70.38 C10.2114359,70.3860739 10.3164089,70.3277556 10.3700809,70.23 C10.4131814,70.146735 10.4338597,70.0536827 10.4300809,69.96 L10.4300809,67.8 C10.4248815,67.7143766 10.3972954,67.6316183 10.3500809,67.56 C10.2937974,67.478645 10.1987615,67.4330277 10.1000809,67.44 C9.94008086,67.44 9.86008086,67.53 9.86008086,67.72 L9.86008086,70.09 C9.86008086,70.28 9.94008086,70.37 10.1000809,70.38 Z" id="Shape" fill="#FFFFFF"></path>
            <path d="M13.2400809,71.93 C13.0900809,71.93 13.0200809,71.86 13.0200809,71.72 L13.0200809,64.33 C13.0200809,64.19 13.0900809,64.12 13.2400809,64.12 L14.7100809,64.12 C14.8600809,64.12 14.9300809,64.19 14.9300809,64.33 L14.9300809,71.72 C14.9300809,71.86 14.8600809,71.93 14.7100809,71.93 L13.2400809,71.93 Z" id="Path" fill="#FFFFFF"></path>
            <path d="M15.7300809,71.93 C15.6710567,71.9398741 15.6108299,71.9213628 15.5675411,71.8800417 C15.5242523,71.8387206 15.5029612,71.7794194 15.5100809,71.72 L15.5100809,64.33 C15.5029612,64.2705806 15.5242523,64.2112794 15.5675411,64.1699583 C15.6108299,64.1286372 15.6710567,64.1101259 15.7300809,64.12 L17.2400809,64.12 C17.2975109,64.1135564 17.3547519,64.133601 17.3956159,64.174465 C17.4364799,64.215329 17.4565244,64.2725699 17.4500809,64.33 L17.4500809,71.72 C17.4565244,71.7774301 17.4364799,71.834671 17.3956159,71.875535 C17.3547519,71.916399 17.2975109,71.9364436 17.2400809,71.93 L15.7300809,71.93 Z" id="Path" fill="#FFFFFF"></path>
            <path d="M18.6900809,67.51 C18.6310213,67.5112895 18.5737299,67.4898052 18.5300809,67.45 C18.4807045,67.4123166 18.4542454,67.3518386 18.4600809,67.29 L18.4600809,67 C18.4600809,66.86 18.5400809,66.8 18.7200809,66.8 C18.9000809,66.8 18.8900809,66.72 18.9000809,66.57 C18.9100809,66.42 18.9000809,66.46 18.8300809,66.46 L18.3100809,66.46 C18.2513557,66.4594138 18.1947113,66.4381722 18.1500809,66.4 C18.1082687,66.3457406 18.0870133,66.2784319 18.0900809,66.21 L18.0900809,65.21 C18.0900809,65.02 18.1700809,64.92 18.3400809,64.92 L19.5900809,64.92 C19.7700809,64.92 19.8600809,65.01 19.8600809,65.2 L19.8600809,66.58 C19.8631114,66.8443686 19.7497462,67.0966977 19.5500809,67.27 C19.3007384,67.449022 18.9960917,67.5340397 18.6900809,67.51 Z" id="Path" fill="#FFFFFF"></path>
            <path d="M20.8700809,65.55 C20.6000809,65.55 20.4600809,65.44 20.4600809,65.21 L20.4600809,64.4 C20.4600809,64.14 20.6000809,64.01 20.8700809,64.01 L22.1000809,64.01 C22.2063436,63.9960878 22.3129459,64.033091 22.3877358,64.109849 C22.4625257,64.186607 22.4967479,64.2941344 22.4800809,64.4 L22.4800809,65.2 C22.4947625,65.3040931 22.4573822,65.408758 22.3800809,65.48 C22.2975994,65.5348947 22.1986914,65.5596217 22.1000809,65.55 L20.8700809,65.55 Z M20.7300809,71.93 C20.5800809,71.93 20.5100809,71.86 20.5100809,71.72 L20.5100809,66.09 C20.5076765,66.0316004 20.5337777,65.9756694 20.5800809,65.94 C20.6194192,65.899797 20.6738683,65.8780174 20.7300809,65.88 L22.2400809,65.88 C22.299508,65.8764157 22.3576637,65.8982241 22.4000809,65.94 C22.4402839,65.9793383 22.4620635,66.0337874 22.4600809,66.09 L22.4600809,71.72 C22.4600809,71.86 22.3900809,71.93 22.2400809,71.93 L20.7300809,71.93 Z" id="Shape" fill="#FFFFFF"></path>
            <path d="M23.2400809,71.93 C23.1100809,71.93 23.0500809,71.86 23.0500809,71.71 L23.0500809,66.11 C23.0500809,65.96 23.1100809,65.88 23.2400809,65.88 L24.2400809,65.88 C24.3023924,65.8639112 24.3677693,65.8639112 24.4300809,65.88 C24.4782044,65.9244768 24.515786,65.9791409 24.5400809,66.04 L24.7300809,66.66 C24.8566479,66.4096232 25.0297299,66.1856347 25.2400809,66 C25.4504129,65.8254873 25.7168651,65.7331172 25.9900809,65.74 C26.4334195,65.7135467 26.8620742,65.9036458 27.1400809,66.25 C27.4180831,66.6730187 27.551418,67.1747792 27.5200809,67.68 L27.5200809,71.68 C27.5200809,71.83 27.4500809,71.9 27.3200809,71.9 L25.7400809,71.9 C25.6100809,71.9 25.5500809,71.83 25.5500809,71.68 L25.5500809,67.68 C25.5500809,67.52 25.4500809,67.43 25.3100809,67.43 C25.2038499,67.423459 25.1030957,67.4777112 25.0500809,67.57 C24.9922441,67.6438254 24.9637502,67.7364307 24.9700809,67.83 L24.9700809,71.7 C24.9655801,71.7666934 24.9280577,71.8267291 24.8700809,71.86 C24.8144424,71.8990988 24.7480835,71.9200542 24.6800809,71.92 L23.2400809,71.93 Z" id="Path" fill="#FFFFFF"></path>
            <path d="M28.4000809,65.55 C28.1300809,65.55 27.9900809,65.44 27.9900809,65.21 L27.9900809,64.4 C27.9900809,64.14 28.1300809,64.01 28.4000809,64.01 L29.6300809,64.01 C29.7363436,63.9960878 29.8429459,64.033091 29.9177358,64.109849 C29.9925257,64.186607 30.0267479,64.2941344 30.0100809,64.4 L30.0100809,65.2 C30.0247625,65.3040931 29.9873822,65.408758 29.9100809,65.48 C29.8275994,65.5348947 29.7286914,65.5596217 29.6300809,65.55 L28.4000809,65.55 Z M28.2400809,71.93 C28.0900809,71.93 28.0200809,71.86 28.0200809,71.72 L28.0200809,66.09 C28.0176765,66.0316004 28.0437777,65.9756694 28.0900809,65.94 C28.1294192,65.899797 28.1838683,65.8780174 28.2400809,65.88 L29.7100809,65.88 C29.769508,65.8764157 29.8276637,65.8982241 29.8700809,65.94 C29.9102839,65.9793383 29.9320635,66.0337874 29.9300809,66.09 L29.9300809,71.72 C29.9300809,71.86 29.8600809,71.93 29.7100809,71.93 L28.2400809,71.93 Z" id="Shape" fill="#FFFFFF"></path>
            <path d="M30.5600809,71.94 C30.4800809,71.94 30.4400809,71.88 30.4400809,71.76 L30.4400809,70.84 C30.4359658,70.8168481 30.4359658,70.7931519 30.4400809,70.77 C30.4596286,70.6928133 30.4899247,70.618756 30.5300809,70.55 L32.0700809,67.73 L32.2100809,67.56 L30.6400809,67.56 C30.5980162,67.5607692 30.5591973,67.5374778 30.5400809,67.5 C30.5297993,67.4640541 30.5297993,67.4259459 30.5400809,67.39 L30.5400809,66.06 C30.5400809,65.95 30.5400809,65.89 30.6700809,65.88 L34.2000809,65.88 C34.2800809,65.88 34.3200809,65.94 34.3200809,66.06 L34.3200809,67.13 C34.3391579,67.2020926 34.3391579,67.2779074 34.3200809,67.35 L34.3200809,67.35 L32.7300809,70.06 L32.5900809,70.26 L34.2400809,70.26 C34.2823234,70.2462497 34.3278383,70.2462497 34.3700809,70.26 C34.4056866,70.2900827 34.4273781,70.3334658 34.4300809,70.38 L34.4300809,71.69 C34.4317975,71.7376025 34.4091929,71.7828118 34.3700809,71.81 C34.3386129,71.8493546 34.2904445,71.8715862 34.2400809,71.87 L30.5600809,71.94 Z" id="Path" fill="#FFFFFF"></path>
            <path d="M35.2400809,65.55 C34.9700809,65.55 34.8300809,65.44 34.8300809,65.21 L34.8300809,64.4 C34.8300809,64.14 34.9700809,64.01 35.2400809,64.01 L36.4700809,64.01 C36.5763436,63.9960878 36.6829459,64.033091 36.7577358,64.109849 C36.8325257,64.186607 36.8667479,64.2941344 36.8500809,64.4 L36.8500809,65.2 C36.8647625,65.3040931 36.8273822,65.408758 36.7500809,65.48 C36.6675994,65.5348947 36.5686914,65.5596217 36.4700809,65.55 L35.2400809,65.55 Z M35.1000809,71.93 C34.9500809,71.93 34.8800809,71.86 34.8800809,71.72 L34.8800809,66.09 C34.8776765,66.0316004 34.9037777,65.9756694 34.9500809,65.94 C34.9894192,65.899797 35.0438683,65.8780174 35.1000809,65.88 L36.5700809,65.88 C36.629508,65.8764157 36.6876637,65.8982241 36.7300809,65.94 C36.7702839,65.9793383 36.7920635,66.0337874 36.7900809,66.09 L36.7900809,71.72 C36.7900809,71.86 36.7200809,71.93 36.5700809,71.93 L35.1000809,71.93 Z" id="Shape" fill="#FFFFFF"></path>
            <path d="M39.1800809,72.05 C38.6357151,72.0852154 38.1063419,71.8631008 37.7500809,71.45 C37.4481816,71.0585947 37.2925446,70.5739977 37.3100809,70.08 L37.3100809,67.8 C37.2859049,67.2695599 37.4526548,66.7480232 37.7800809,66.33 C38.1236594,65.9388186 38.6308638,65.7314942 39.1500809,65.77 C39.574279,65.787893 39.9561609,66.0322974 40.1500809,66.41 L40.2500809,66.1 C40.254759,66.0323045 40.2878755,65.9697531 40.3412327,65.9278296 C40.3945898,65.8859061 40.4632005,65.8685291 40.5300809,65.88 L41.4800809,65.88 C41.6100809,65.88 41.6800809,65.96 41.6800809,66.11 L41.6800809,71.71 C41.6800809,71.86 41.6100809,71.93 41.4800809,71.93 L40.4800809,71.93 C40.4309432,71.9376011 40.3814606,71.9185694 40.3500809,71.88 C40.3096049,71.8309229 40.2820975,71.7724697 40.2700809,71.71 L40.1700809,71.4 C39.9891443,71.7860947 39.6062851,72.0374669 39.1800809,72.05 Z M39.4700809,70.38 C39.5778957,70.3822301 39.6780443,70.3244521 39.7300809,70.23 C39.7731814,70.146735 39.7938597,70.0536827 39.7900809,69.96 L39.7900809,67.8 C39.783567,67.7160252 39.7597332,67.6343094 39.7200809,67.56 C39.662511,67.480167 39.5683785,67.4349834 39.4700809,67.44 C39.3000809,67.44 39.2200809,67.53 39.2200809,67.72 L39.2200809,70.09 C39.2400809,70.28 39.3000809,70.37 39.4700809,70.38 Z" id="Shape" fill="#FFFFFF"></path>
            <path d="M42.7600809,71.93 C42.6500809,71.93 42.5900809,71.86 42.5900809,71.72 L42.5900809,67.56 L42.3100809,67.56 C42.2608875,67.5727017 42.2092742,67.5727017 42.1600809,67.56 C42.1161803,67.5224552 42.0906572,67.4677627 42.0900809,67.41 L42.0900809,66.07 C42.0949345,66.0190018 42.1201761,65.9721245 42.1600809,65.94 C42.2016447,65.9032667 42.2546495,65.8820647 42.3100809,65.88 L42.5900809,65.88 L42.5900809,65 C42.5764055,64.9407792 42.5764055,64.8792208 42.5900809,64.82 C42.6369586,64.7722855 42.6956006,64.7377903 42.7600809,64.72 L44.1100809,64.3 C44.1883948,64.2590959 44.2817669,64.2590959 44.3600809,64.3 C44.4376616,64.3585864 44.479301,64.4532213 44.4700809,64.55 L44.4700809,65.81 L44.9700809,65.81 C45.0228347,65.8107514 45.0731548,65.8323171 45.1100809,65.87 C45.1537471,65.9002455 45.1827585,65.947389 45.1900809,66 L45.1900809,67.29 C45.1948757,67.3461065 45.1678429,67.400172 45.1200809,67.43 C45.0807425,67.470203 45.0262935,67.4919826 44.9700809,67.49 L44.4700809,67.49 L44.4700809,71.65 C44.4700809,71.79 44.4000809,71.86 44.2800809,71.86 L42.7600809,71.93 Z" id="Path" fill="#FFFFFF"></path>
            <path d="M45.9800809,65.55 C45.7100809,65.55 45.5700809,65.44 45.5700809,65.21 L45.5700809,64.4 C45.5700809,64.14 45.7100809,64.01 45.9800809,64.01 L47.2400809,64.01 C47.3463436,63.9960878 47.4529459,64.033091 47.5277358,64.109849 C47.6025257,64.186607 47.6367479,64.2941344 47.6200809,64.4 L47.6200809,65.2 C47.6347625,65.3040931 47.5973822,65.408758 47.5200809,65.48 C47.4375994,65.5348947 47.3386914,65.5596217 47.2400809,65.55 L45.9800809,65.55 Z M45.8400809,71.93 C45.6900809,71.93 45.6200809,71.86 45.6200809,71.72 L45.6200809,66.09 C45.6176765,66.0316004 45.6437777,65.9756694 45.6900809,65.94 C45.7294192,65.899797 45.7838683,65.8780174 45.8400809,65.88 L47.3100809,65.88 C47.369508,65.8764157 47.4276637,65.8982241 47.4700809,65.94 C47.5102839,65.9793383 47.5320635,66.0337874 47.5300809,66.09 L47.5300809,71.72 C47.5300809,71.86 47.4600809,71.93 47.3100809,71.93 L45.8400809,71.93 Z" id="Shape" fill="#FFFFFF"></path>
            <path d="M49.6000809,71.93 C49.4739432,71.9323505 49.3643204,71.843809 49.3400809,71.72 L47.9200809,66.25 C47.8916338,66.1588343 47.8916338,66.0611657 47.9200809,65.97 C47.95614,65.9061282 48.027348,65.8705242 48.1000809,65.88 L49.6500809,65.88 C49.7137474,65.8772919 49.7758773,65.9000149 49.8227739,65.9431597 C49.8696705,65.9863046 49.8974833,66.0463288 49.9000809,66.11 L50.2900809,69.25 L50.3800809,70.39 L50.4800809,69.25 L50.8900809,66.09 C50.8923224,66.0278172 50.9207912,65.9694917 50.9684358,65.9294702 C51.0160804,65.8894487 51.0784444,65.8714746 51.1400809,65.88 L52.6700809,65.88 C52.8600809,65.88 52.9200809,66.01 52.8400809,66.26 L51.4100809,71.72 C51.3898142,71.8461573 51.2776783,71.9367285 51.1500809,71.93 L49.6000809,71.93 Z" id="Path" fill="#FFFFFF"></path>
            <path d="M54.9700809,72.05 C54.4257151,72.0852154 53.8963419,71.8631008 53.5400809,71.45 C53.2381816,71.0585947 53.0825446,70.5739977 53.1000809,70.08 L53.1000809,67.8 C53.0759049,67.2695599 53.2426548,66.7480232 53.5700809,66.33 C53.9136594,65.9388186 54.4208638,65.7314942 54.9400809,65.77 C55.364279,65.787893 55.7461609,66.0322974 55.9400809,66.41 L56.0400809,66.1 C56.044759,66.0323045 56.0778755,65.9697531 56.1312327,65.9278296 C56.1845898,65.8859061 56.2532005,65.8685291 56.3200809,65.88 L57.3200809,65.88 C57.4500809,65.88 57.5200809,65.96 57.5200809,66.11 L57.5200809,71.71 C57.5200809,71.86 57.4500809,71.93 57.3200809,71.93 L56.3200809,71.93 C56.2709432,71.9376011 56.2214606,71.9185694 56.1900809,71.88 C56.1496049,71.8309229 56.1220975,71.7724697 56.1100809,71.71 L56.0100809,71.4 C55.8213736,71.8023068 55.4143969,72.0566673 54.9700809,72.05 Z M55.2500809,70.38 C55.3614359,70.3860739 55.4664089,70.3277556 55.5200809,70.23 C55.5631814,70.146735 55.5838597,70.0536827 55.5800809,69.96 L55.5800809,67.8 C55.5748815,67.7143766 55.5472954,67.6316183 55.5000809,67.56 C55.4452235,67.476992 55.3491591,67.4308811 55.2500809,67.44 C55.0900809,67.44 55.0100809,67.53 55.0100809,67.72 L55.0100809,70.09 C55.0100809,70.28 55.0900809,70.37 55.2400809,70.38 L55.2500809,70.38 Z" id="Shape" fill="#FFFFFF"></path>
            <path d="M62.7300809,72.05 C62.1446693,72.079103 61.5731359,71.8656823 61.1500809,71.46 C60.7677998,71.0565825 60.5656981,70.5152386 60.5900809,69.96 C60.5693925,69.8949384 60.5693925,69.8250616 60.5900809,69.76 C60.6404372,69.6954687 60.7182423,69.6584186 60.8000809,69.66 L62.2500809,69.66 C62.317663,69.6543421 62.3840774,69.68017 62.4300809,69.73 C62.4692441,69.7963399 62.4867236,69.8732497 62.4800809,69.95 L62.4800809,70.09 C62.4681247,70.1841379 62.497272,70.2788668 62.5600809,70.35 C62.6017029,70.367223 62.6484589,70.367223 62.6900809,70.35 C62.7685856,70.3565234 62.8458147,70.3271028 62.9000809,70.27 C62.9545087,70.1510802 62.9785615,70.0205082 62.9700809,69.89 L62.9700809,69.1 C62.7840698,69.224402 62.5637366,69.2873543 62.3400809,69.28 C61.8368508,69.3191969 61.3391468,69.1532956 60.9600809,68.82 C60.6352933,68.4248374 60.4742553,67.9202519 60.5100809,67.41 L60.5100809,66.68 C60.4984864,66.1265017 60.7603256,65.6028234 61.2100809,65.28 C61.6290212,64.9429291 62.1524262,64.7625666 62.6900809,64.77 C63.232954,64.7595543 63.7615893,64.9440445 64.1800809,65.29 C64.6268954,65.6108008 64.8883682,66.1300112 64.8800809,66.68 L64.8800809,70.15 C64.8913476,70.6175069 64.7106581,71.0692307 64.3800809,71.4 C63.9484835,71.8428689 63.3477685,72.0795142 62.7300809,72.05 L62.7300809,72.05 Z M62.7300809,67.66 C62.8031906,67.6627298 62.8746306,67.6377258 62.9300809,67.59 C62.9797319,67.5473055 63.0088304,67.4854713 63.0100809,67.42 L63.0100809,66.68 C63.0085989,66.6174076 62.9792656,66.558741 62.9300809,66.52 C62.8776973,66.4737818 62.8099289,66.4488145 62.7400809,66.45 C62.6669711,66.4472702 62.5955311,66.4722742 62.5400809,66.52 C62.4908961,66.558741 62.4615628,66.6174076 62.4600809,66.68 L62.4600809,67.42 C62.4613313,67.4854713 62.4904298,67.5473055 62.5400809,67.59 C62.5907078,67.639085 62.6597096,67.6645067 62.7300809,67.66 L62.7300809,67.66 Z" id="Shape" fill="#FFFFFF"></path>
            <path d="M67.5600809,72.05 C66.9742964,72.0815239 66.4018308,71.8677551 65.9800809,71.46 C65.595147,71.0575952 65.3895271,70.5164901 65.4100809,69.96 C65.4042287,69.889643 65.421808,69.8193257 65.4600809,69.76 C65.5061985,69.6957492 65.5810097,69.6583436 65.6600809,69.66 L67.1200809,69.66 C67.187663,69.6543421 67.2540774,69.68017 67.3000809,69.73 C67.3211932,69.8018138 67.3211932,69.8781862 67.3000809,69.95 L67.3000809,70.09 C67.2907983,70.1856363 67.3236596,70.2805689 67.3900809,70.35 C67.4317029,70.367223 67.4784589,70.367223 67.5200809,70.35 C67.5985856,70.3565234 67.6758147,70.3271028 67.7300809,70.27 C67.7799315,70.1498834 67.8004974,70.0196324 67.7900809,69.89 L67.7900809,69.1 C67.6089987,69.2268967 67.3909643,69.290197 67.1700809,69.28 C66.6664243,69.3227251 66.167371,69.156374 65.7900809,68.82 C65.4652933,68.4248374 65.3042553,67.9202519 65.3400809,67.41 L65.3400809,66.68 C65.3296019,66.1290877 65.5867853,65.6072663 66.0300809,65.28 C66.4529048,64.942953 66.9794071,64.7627408 67.5200809,64.77 C68.0626714,64.761316 68.5907144,64.9455995 69.0100809,65.29 C69.4529562,65.6141527 69.7133299,66.1311804 69.7100809,66.68 L69.7100809,70.15 C69.7167674,70.6166704 69.5367645,71.0666777 69.2100809,71.4 C68.7777581,71.8417767 68.1775541,72.0782207 67.5600809,72.05 L67.5600809,72.05 Z M67.5600809,67.66 C67.6304521,67.6645067 67.699454,67.639085 67.7500809,67.59 C67.8033612,67.5501651 67.833347,67.4864451 67.8300809,67.42 L67.8300809,66.68 C67.8336787,66.6162527 67.8032374,66.5553701 67.7500809,66.52 C67.699454,66.470915 67.6304521,66.4454933 67.5600809,66.45 C67.4898905,66.4466998 67.421353,66.4719505 67.3700809,66.52 C67.3208961,66.558741 67.2915628,66.6174076 67.2900809,66.68 L67.2900809,67.42 C67.2913313,67.4854713 67.3204298,67.5473055 67.3700809,67.59 C67.4199892,67.6402157 67.4895229,67.6658333 67.5600809,67.66 Z" id="Shape" fill="#FFFFFF"></path>
            <path d="M71.7700809,69 C71.3894595,69.0128467 71.0168699,68.8886502 70.7200809,68.65 C70.4483003,68.4614745 70.2873252,68.1507551 70.2900809,67.82 L70.2900809,65.82 C70.2839827,65.4857236 70.4453402,65.1705136 70.7200809,64.98 C71.34655,64.5262528 72.1936117,64.5262528 72.8200809,64.98 C73.0986198,65.1682397 73.2639345,65.4838404 73.2600809,65.82 L73.2600809,67.82 C73.260582,68.1526261 73.0956597,68.4637296 72.8200809,68.65 C72.5232918,68.8886502 72.1507022,69.0128467 71.7700809,69 Z M71.7700809,67.87 C71.9000809,67.87 71.9600809,67.81 71.9600809,67.67 L71.9600809,65.94 C71.9600809,65.81 71.9000809,65.74 71.7700809,65.74 C71.7197172,65.7384138 71.6715488,65.7606454 71.6400809,65.8 C71.5991241,65.834595 71.5768864,65.8864831 71.5800809,65.94 L71.5800809,67.65 C71.5780982,67.7062126 71.5998778,67.7606617 71.6400809,67.8 C71.6725802,67.8369947 71.7211673,67.8556821 71.7700809,67.85 L71.7700809,67.87 Z M72.9200809,72.11 L72.1500809,71.84 C72.0930103,71.8251056 72.0499657,71.7781479 72.0400809,71.72 C72.016119,71.6658664 72.016119,71.6041336 72.0400809,71.55 L74.8600809,65.09 C74.8903778,65.0211255 74.9433022,64.9646728 75.0100809,64.93 C75.0732585,64.8994975 75.1469032,64.8994975 75.2100809,64.93 L75.9300809,65.19 C75.9947191,65.2143466 76.0457342,65.2653617 76.0700809,65.33 C76.0956826,65.3942087 76.0956826,65.4657913 76.0700809,65.53 L73.2600809,71.96 C73.2292424,72.0342688 73.1723461,72.0947212 73.1000809,72.13 C73.037209,72.1391048 72.9731792,72.1248759 72.9200809,72.09 L72.9200809,72.11 Z M76.4700809,72.2400071 C76.1065369,72.2410866 75.7535991,72.1175584 75.4700809,71.89 C75.1915419,71.7017603 75.0262272,71.3861596 75.0300809,71.05 L75.0300809,69 C75.0295797,68.6673739 75.194502,68.3562704 75.4700809,68.17 C75.7523768,67.9402473 76.106124,67.8164358 76.4700809,67.82 C76.8517859,67.8095762 77.2256544,67.9294963 77.5300809,68.16 C77.8048215,68.3505136 77.966179,68.6657236 77.9600809,69 L77.9600809,71 C77.9561601,71.3318782 77.7970177,71.642761 77.5300809,71.84 C77.2305768,72.0841173 76.8564651,72.2182328 76.4700809,72.22 L76.4700809,72.2400071 Z M76.4700809,71.11 C76.5248638,71.1165161 76.5796095,71.0975496 76.61862,71.0585391 C76.6576305,71.0195287 76.6765969,70.964783 76.6700809,70.91 L76.6700809,69.18 C76.6800818,69.1236335 76.6626743,69.0658709 76.6231937,69.0244163 C76.5837132,68.9829617 76.5268679,68.9627589 76.4700809,68.97 C76.4197172,68.9684138 76.3715488,68.9906454 76.3400809,69.03 C76.3168295,69.0772969 76.3168295,69.1327031 76.3400809,69.18 L76.3400809,70.89 C76.3206208,70.9381065 76.3206208,70.9918935 76.3400809,71.04 C76.3755227,71.0725217 76.4219806,71.0903901 76.4700809,71.09 L76.4700809,71.11 Z" id="Shape" fill="#FFFFFF"></path>
        </g>
    </g>
</svg>