<?xml version="1.0" encoding="UTF-8"?>
<svg width="72px" height="76px" viewBox="0 0 72 76" version="1.1" xmlns="http://www.w3.org/2000/svg" xmlns:xlink="http://www.w3.org/1999/xlink">
    <title>Group</title>
    <g id="Page-1" stroke="none" stroke-width="1" fill="none" fill-rule="evenodd">
        <g id="Group" transform="translate(0.275242, 0.920000)" fill-rule="nonzero">
            <path d="M2.10475845,0 C0.86344038,0.0855134433 -0.075261594,1.1583157 0.00475845434,2.4 L0.00475845434,71.71 C-0.0696925995,72.9497872 0.866059976,74.0192187 2.10475845,74.11 L69.3447585,74.11 C70.5834569,74.0192187 71.5192095,72.9497872 71.4447585,71.71 L71.4447585,2.4 C71.5247785,1.1583157 70.5860765,0.0855134433 69.3447585,0 L2.10475845,0 Z" id="Path" fill="#CC1719"></path>
            <path d="M6.79475845,41.46 C6.66475845,41.46 6.60475845,41.39 6.60475845,41.25 L6.60475845,40.02 C6.61583095,39.9496552 6.63954669,39.881896 6.67475845,39.82 L8.80475845,35.47 L8.96475845,35.26 L6.88475845,35.26 C6.76475845,35.26 6.70475845,35.18 6.70475845,35.04 L6.70475845,33.54 C6.70475845,33.39 6.76475845,33.32 6.88475845,33.32 L11.3547585,33.32 C11.4847585,33.32 11.5447585,33.39 11.5447585,33.54 L11.5447585,34.75 C11.5495759,34.789855 11.5495759,34.830145 11.5447585,34.87 L9.28475845,39.16 L9.10475845,39.39 L11.5547585,39.39 C11.6647585,39.39 11.7247585,39.46 11.7247585,39.59 L11.7247585,41.25 C11.7247585,41.39 11.6647585,41.46 11.5547585,41.46 L6.79475845,41.46 Z" id="Path" fill="#FFFFFF"></path>
            <path d="M14.8847585,41.59 C14.1831335,41.6101884 13.4966415,41.3837168 12.9447585,40.95 C12.434817,40.5935703 12.1291953,40.0121436 12.1247585,39.39 L12.1247585,33.57 C12.1229199,33.5078434 12.144312,33.4472325 12.1847585,33.4 C12.2117586,33.3530494 12.260678,33.3229451 12.3147585,33.32 L14.3147585,33.32 C14.3775641,33.3134223 14.4399954,33.3354569 14.4847585,33.38 C14.5028141,33.4420465 14.5028141,33.5079535 14.4847585,33.57 L14.4847585,39.25 C14.4838442,39.3403138 14.5199866,39.4270554 14.5847585,39.49 C14.670755,39.5549559 14.7772076,39.5868917 14.8847585,39.58 C14.9925169,39.5887816 15.0996289,39.556648 15.1847585,39.49 C15.243187,39.423751 15.275219,39.3383324 15.2747585,39.25 L15.2747585,33.57 C15.2732005,33.5048457 15.2944195,33.4411887 15.3347585,33.39 C15.3798875,33.345027 15.4410468,33.3198438 15.5047585,33.32 L17.3847585,33.32 C17.4517128,33.3182798 17.5165575,33.3434972 17.5647585,33.39 C17.612269,33.43755 17.6376614,33.5028448 17.6347585,33.57 L17.6347585,39.39 C17.6303216,40.0121436 17.3246999,40.5935703 16.8147585,40.95 C16.265541,41.3814962 15.5829781,41.6078383 14.8847585,41.59 Z" id="Path" fill="#FFFFFF"></path>
            <path d="M18.4847585,41.46 C18.3047585,41.46 18.2147585,41.37 18.2147585,41.21 L18.2147585,33.57 C18.2147585,33.4 18.3047585,33.32 18.4847585,33.32 L20.9647585,33.32 C21.659982,33.3064217 22.3360286,33.5483752 22.8647585,34 C23.3590142,34.3755338 23.6508849,34.9592751 23.6547585,35.58 L23.6547585,36.58 C23.6707907,37.2270478 23.3727045,37.8418507 22.8547585,38.23 L23.7447585,41.23 C23.7646166,41.2849269 23.7646166,41.3450731 23.7447585,41.4 C23.719675,41.4535617 23.6636386,41.4855825 23.6047585,41.48 L21.6047585,41.48 C21.5436882,41.4867074 21.4824728,41.4687029 21.4347585,41.43 C21.3964371,41.3777457 21.375454,41.3147963 21.3747585,41.25 L20.8647585,38.93 L20.5647585,38.93 L20.5647585,41.23 C20.5647585,41.39 20.4847585,41.48 20.3047585,41.48 L18.4847585,41.46 Z" id="Path" fill="#FFFFFF"></path>
            <path d="M20.5647585,36.9 L20.9647585,36.9 C21.0505518,36.9060855 21.135689,36.8812538 21.2047585,36.83 C21.264959,36.7905629 21.2993291,36.7218227 21.2947585,36.65 L21.2947585,35.58 C21.2966912,35.5035961 21.258832,35.4316637 21.1947585,35.39 C21.1256984,35.3477275 21.0456678,35.3268499 20.9647585,35.33 L20.5647585,35.33 L20.5647585,36.9 Z" id="Path" fill="#FFFFFF"></path>
            <path d="M30.2347585,41.59 C29.6824374,41.6106648 29.1343115,41.4865608 28.6447585,41.23 C28.2835914,41.02786 27.9884457,40.7257697 27.7947585,40.36 C27.6289613,40.0532845 27.5462261,39.7085546 27.5547585,39.36 L27.5547585,39.04 C27.5330479,38.9479292 27.5330479,38.8520708 27.5547585,38.76 C27.6108337,38.7065454 27.6878255,38.6808815 27.7647585,38.69 L29.5547585,38.69 C29.6747585,38.69 29.7547585,38.69 29.7847585,38.75 C29.8247143,38.8196877 29.8421765,38.9000136 29.8347585,38.98 L29.8347585,39.23 C29.8234451,39.3435851 29.8682314,39.455551 29.9547585,39.53 C30.0351584,39.5900301 30.1347803,39.6184936 30.2347585,39.61 C30.3251902,39.6157469 30.4144632,39.5871796 30.4847585,39.53 C30.5578254,39.4722961 30.5987438,39.3830195 30.5947585,39.29 C30.5912037,39.1339538 30.5307451,38.9845857 30.4247585,38.87 C30.2528417,38.7025161 30.0653239,38.5518321 29.8647585,38.42 L29.0947585,37.88 C28.7322909,37.6328447 28.39708,37.3479154 28.0947585,37.03 C27.8436737,36.7485907 27.6772731,36.4019229 27.6147585,36.03 C27.5871402,35.8142134 27.5871402,35.5957866 27.6147585,35.38 C27.6079891,34.7257053 27.9217057,34.1094762 28.4547585,33.73 C28.9671509,33.3453158 29.5942211,33.1445124 30.2347585,33.16 C30.9225443,33.1277814 31.5983538,33.3483087 32.1347585,33.78 C32.6373003,34.2193455 32.9131923,34.8630935 32.8847585,35.53 L32.8847585,35.85 C32.8847585,35.96 32.8847585,36.02 32.8847585,36.05 C32.799673,36.0734127 32.7098439,36.0734127 32.6247585,36.05 L30.7247585,36.05 C30.6347585,36.05 30.5647585,36.05 30.5447585,36 C30.5247585,35.95 30.5447585,35.91 30.5447585,35.81 L30.5447585,35.5 C30.5447585,35.26 30.4447585,35.13 30.2247585,35.13 C30.1405448,35.1253135 30.0578862,35.1540643 29.9947585,35.21 C29.9442519,35.2644641 29.9157462,35.3357284 29.9147585,35.41 C29.905875,35.5396642 29.9373114,35.6689026 30.0047585,35.78 C30.1578811,35.9675322 30.3486605,36.1208371 30.5647585,36.23 C31.1745332,36.5752249 31.7388861,36.9951303 32.2447585,37.48 C32.7272564,37.9747359 32.9965281,38.6389394 32.9947671,39.33 C32.9937981,39.931674 32.7220168,40.5009456 32.2547585,40.88 C31.6916775,41.3570738 30.9725019,41.6098533 30.2347585,41.59 L30.2347585,41.59 Z" id="Path" fill="#FFFFFF"></path>
            <path d="M34.9247585,41.46 C34.7847585,41.46 34.7147585,41.37 34.7147585,41.21 L34.7147585,35.33 L33.4747585,35.33 C33.3347585,35.33 33.2747585,35.25 33.2747585,35.09 L33.2747585,33.57 C33.2747585,33.4 33.3347585,33.32 33.4747585,33.32 L38.2847585,33.32 C38.4347585,33.32 38.5047585,33.4 38.5047585,33.57 L38.5047585,35.08 C38.5047585,35.24 38.4347585,35.32 38.2847585,35.32 L37.0647585,35.32 L37.0647585,41.2 C37.0647585,41.36 36.9947585,41.45 36.8447585,41.45 L34.9247585,41.46 Z" id="Path" fill="#FFFFFF"></path>
            <path d="M39.2147585,41.46 C39.0347585,41.46 38.9447585,41.37 38.9447585,41.21 L38.9447585,33.57 C38.9447585,33.4 39.0347585,33.32 39.2147585,33.32 L43.2147585,33.32 C43.3447585,33.32 43.4147585,33.4 43.4147585,33.57 L43.4147585,35.08 C43.4147585,35.24 43.3447585,35.32 43.2147585,35.32 L41.2747585,35.32 L41.2747585,36.38 L42.7247585,36.38 C42.8747585,36.38 42.9547585,36.47 42.9547585,36.63 L42.9547585,38.14 C42.9644213,38.2043368 42.9437195,38.2695192 42.8987052,38.3164906 C42.8536909,38.3634621 42.7894481,38.3869176 42.7247585,38.38 L41.2747585,38.38 L41.2747585,39.44 L43.2747585,39.44 C43.4147585,39.44 43.4847585,39.52 43.4847585,39.68 L43.4847585,41.2 C43.4847585,41.36 43.4147585,41.45 43.2747585,41.45 L39.2147585,41.46 Z" id="Path" fill="#FFFFFF"></path>
            <path d="M46.7247585,41.59 C46.0231335,41.6101884 45.3366415,41.3837168 44.7847585,40.95 C44.2798895,40.5902646 43.9785513,40.0099095 43.9747585,39.39 L43.9747585,33.57 C43.9549003,33.5150731 43.9549003,33.4549269 43.9747585,33.4 C44.0072344,33.3538717 44.0585294,33.3245603 44.1147585,33.32 L46.1147585,33.32 C46.1947585,33.32 46.2547585,33.32 46.2747585,33.38 C46.293385,33.4419638 46.293385,33.5080362 46.2747585,33.57 L46.2747585,39.25 C46.2738442,39.3403138 46.3099866,39.4270554 46.3747585,39.49 C46.460755,39.5549559 46.5672076,39.5868917 46.6747585,39.58 C46.779497,39.5892826 46.8836785,39.5569504 46.9647585,39.49 C47.0295303,39.4270554 47.0656727,39.3403138 47.0647585,39.25 L47.0647585,33.57 C47.0632005,33.5048457 47.0844195,33.4411887 47.1247585,33.39 C47.1698875,33.345027 47.2310468,33.3197821 47.2947585,33.32 L49.1747585,33.32 C49.2418988,33.317139 49.3071632,33.3425583 49.3546817,33.3900768 C49.4022002,33.4375953 49.4276194,33.5028596 49.4247585,33.57 L49.4247585,39.39 C49.407619,40.008891 49.104818,40.5849516 48.6047585,40.95 C48.0689248,41.3705834 47.4059108,41.5962903 46.7247585,41.59 Z" id="Path" fill="#FFFFFF"></path>
            <path d="M50.3147585,41.46 C50.1347585,41.46 50.0447585,41.37 50.0447585,41.21 L50.0447585,33.57 C50.0447585,33.4 50.1347585,33.32 50.3147585,33.32 L54.3147585,33.32 C54.4447585,33.32 54.5147585,33.4 54.5147585,33.57 L54.5147585,35.08 C54.5147585,35.24 54.4547585,35.32 54.3147585,35.32 L52.3747585,35.32 L52.3747585,36.38 L53.8247585,36.38 C53.9847585,36.38 54.0547585,36.47 54.0547585,36.63 L54.0547585,38.14 C54.0547585,38.3 53.9847585,38.38 53.8247585,38.38 L52.3747585,38.38 L52.3747585,39.44 L54.3747585,39.44 C54.5147585,39.44 54.5847585,39.52 54.5847585,39.68 L54.5847585,41.2 C54.5847585,41.36 54.5147585,41.45 54.3747585,41.45 L50.3147585,41.46 Z" id="Path" fill="#FFFFFF"></path>
            <path d="M55.3747585,41.46 C55.1947585,41.46 55.1047585,41.37 55.1047585,41.21 L55.1047585,33.57 C55.1047585,33.4 55.1947585,33.32 55.3747585,33.32 L57.8647585,33.32 C58.5596778,33.3082744 59.2350882,33.5500002 59.7647585,34 C60.2590142,34.3755338 60.5508849,34.9592751 60.5547585,35.58 L60.5547585,36.58 C60.5707907,37.2270478 60.2727045,37.8418507 59.7547585,38.23 L60.6447585,41.23 C60.6646166,41.2849269 60.6646166,41.3450731 60.6447585,41.4 C60.6159222,41.4499512 60.5624333,41.4805163 60.5047585,41.48 L58.5047585,41.48 C58.4438877,41.4846487 58.3834196,41.466864 58.3347585,41.43 C58.2964371,41.3777457 58.275454,41.3147963 58.2747585,41.25 L57.7747585,38.93 L57.4747585,38.93 L57.4747585,41.23 C57.4815148,41.2999656 57.4559065,41.3691798 57.4052384,41.4178992 C57.3545703,41.4666185 57.2844054,41.4894939 57.2147585,41.48 L55.3747585,41.46 Z" id="Path" fill="#FFFFFF"></path>
            <path d="M57.4647585,36.9 L57.8647585,36.9 C57.9505518,36.9060855 58.035689,36.8812538 58.1047585,36.83 C58.164959,36.7905629 58.1993291,36.7218227 58.1947585,36.65 L58.1947585,35.58 C58.1931928,35.5044561 58.1561425,35.4340605 58.0947585,35.39 C58.022363,35.3469223 57.9389087,35.3260587 57.8547585,35.33 L57.4647585,35.33 L57.4647585,36.9 Z" id="Path" fill="#FFFFFF"></path>
            <path d="M61.1047585,38.96 C61.0687431,38.9697738 61.0307738,38.9697738 60.9947585,38.96 C60.9516307,38.9306665 60.9255078,38.8821526 60.9247585,38.83 L60.9247585,37.55 C60.9259222,37.5002343 60.947643,37.4531726 60.9847585,37.42 C61.0221965,37.3908491 61.0674353,37.3734495 61.1147585,37.37 L64.5147585,37.37 C64.5600514,37.3539865 64.6094655,37.3539865 64.6547585,37.37 C64.6918739,37.4031726 64.7135947,37.4502343 64.7147585,37.5 L64.7147585,38.75 C64.712471,38.7990457 64.6863252,38.8438672 64.6447585,38.87 C64.6062495,38.9040356 64.556116,38.9219404 64.5047585,38.92 L61.1047585,38.96 Z" id="Path" fill="#FFFFFF"></path>
            <path d="M7.24475845,54.79 C7.01475845,54.79 6.90475845,54.69 6.90475845,54.48 L6.90475845,44.66 C6.90475845,44.45 7.01475845,44.35 7.24475845,44.35 L9.58475845,44.35 C9.81475845,44.35 9.92475845,44.45 9.92475845,44.66 L9.92475845,54.48 C9.92475845,54.69 9.81475845,54.79 9.58475845,54.79 L7.24475845,54.79 Z" id="Path" fill="#FFFFFF"></path>
            <path d="M10.9947585,54.79 C10.7647585,54.79 10.6547585,54.69 10.6547585,54.48 L10.6547585,44.66 C10.6547585,44.45 10.7647585,44.35 10.9947585,44.35 L13.1747585,44.35 L13.3147585,44.35 C13.4705761,44.3768446 13.5981142,44.4889236 13.6447585,44.64 L15.0647585,48.73 L15.3047585,49.73 L15.3047585,48.83 L15.1547585,44.63 C15.1491285,44.5466956 15.1823559,44.4654729 15.2447585,44.41 C15.313022,44.3483048 15.4028346,44.3159723 15.4947585,44.32 L17.7047585,44.32 C17.9247585,44.32 18.0347585,44.42 18.0347585,44.62 L18.0347585,54.48 C18.0347585,54.69 17.9047585,54.79 17.6547585,54.79 L15.4447585,54.79 C15.2312625,54.8145368 15.0302113,54.6846913 14.9647585,54.48 L13.6747585,50.86 L13.3747585,49.86 L13.4547585,50.86 L13.5747585,54.47 C13.5747585,54.68 13.4747585,54.78 13.2247585,54.78 L10.9947585,54.79 Z" id="Path" fill="#FFFFFF"></path>
            <path d="M19.0547585,54.79 C18.8247585,54.79 18.7047585,54.69 18.7047585,54.48 L18.7047585,44.66 C18.7047585,44.45 18.8247585,44.35 19.0547585,44.35 L21.3847585,44.35 C21.6147585,44.35 21.7247585,44.45 21.7247585,44.66 L21.7247585,54.48 C21.7247585,54.69 21.6147585,54.79 21.3847585,54.79 L19.0547585,54.79 Z" id="Path" fill="#FFFFFF"></path>
            <path d="M24.3447585,54.79 C24.1647585,54.79 24.0747585,54.69 24.0747585,54.48 L24.0747585,46.92 L22.4847585,46.92 C22.3147585,46.92 22.2247585,46.82 22.2247585,46.61 L22.2247585,44.61 C22.2247585,44.4 22.3147585,44.3 22.4847585,44.3 L28.6647585,44.3 C28.8447585,44.3 28.9447585,44.4 28.9447585,44.61 L28.9447585,46.61 C28.9447585,46.83 28.8547585,46.93 28.6647585,46.92 L27.1047585,46.92 L27.1047585,54.48 C27.1047585,54.69 27.0047585,54.79 26.8147585,54.79 L24.3447585,54.79 Z" id="Path" fill="#FFFFFF"></path>
            <path d="M29.7947585,54.79 C29.5647585,54.79 29.4547585,54.69 29.4547585,54.48 L29.4547585,44.66 C29.4547585,44.45 29.5647585,44.35 29.7947585,44.35 L32.1247585,44.35 C32.3547585,44.35 32.4747585,44.45 32.4747585,44.66 L32.4747585,54.48 C32.4747585,54.69 32.3547585,54.79 32.1247585,54.79 L29.7947585,54.79 Z" id="Path" fill="#FFFFFF"></path>
            <path d="M32.9947585,54.79 C32.8347585,54.79 32.7847585,54.69 32.8347585,54.48 L35.2647585,44.66 C35.2955333,44.4673837 35.4705556,44.3317414 35.6647585,44.35 L37.9347585,44.35 C38.1309532,44.3393463 38.3071246,44.4693776 38.3547585,44.66 L40.7747585,54.48 C40.8347585,54.69 40.7747585,54.79 40.6147585,54.79 L38.0647585,54.79 C37.8147585,54.79 37.6747585,54.69 37.6347585,54.48 L37.5347585,53.64 L36.0647585,53.64 L35.9747585,54.48 C35.9747585,54.69 35.8047585,54.79 35.5447585,54.79 L32.9947585,54.79 Z" id="Path" fill="#FFFFFF"></path>
            <polygon id="Path" fill="#FFFFFF" points="36.3647585 51.24 37.2347585 51.24 36.9247585 48.68 36.8047585 47.34 36.7247585 48.68"></polygon>
            <path d="M42.0947585,54.79 C41.9147585,54.79 41.8247585,54.69 41.8247585,54.48 L41.8247585,46.92 L40.2347585,46.92 C40.0647585,46.92 39.9747585,46.82 39.9747585,46.61 L39.9747585,44.61 C39.9747585,44.4 40.0647585,44.3 40.2347585,44.3 L46.4147585,44.3 C46.6047585,44.3 46.6947585,44.4 46.7047585,44.61 L46.7047585,46.61 C46.7047585,46.83 46.6047585,46.93 46.4147585,46.92 L44.8547585,46.92 L44.8547585,54.48 C44.8547585,54.69 44.7547585,54.79 44.5647585,54.79 L42.0947585,54.79 Z" id="Path" fill="#FFFFFF"></path>
            <path d="M47.5447585,54.79 C47.3147585,54.79 47.2047585,54.69 47.2047585,54.48 L47.2047585,44.66 C47.2047585,44.45 47.3147585,44.35 47.5447585,44.35 L49.8847585,44.35 C50.1147585,44.35 50.2247585,44.45 50.2247585,44.66 L50.2247585,54.48 C50.2247585,54.69 50.1147585,54.79 49.8847585,54.79 L47.5447585,54.79 Z" id="Path" fill="#FFFFFF"></path>
            <path d="M53.6247585,54.79 C53.4283339,54.8087889 53.2502105,54.6741102 53.2147585,54.48 L50.7247585,44.66 C50.6836729,44.5888378 50.6836729,44.5011622 50.7247585,44.43 C50.7811615,44.3761932 50.8568514,44.347359 50.9347585,44.35 L53.3247585,44.35 C53.5262161,44.3201323 53.7139346,44.4586865 53.7447585,44.66 L54.5847585,50.16 L54.6647585,51.16 L54.7547585,50.16 L55.5747585,44.66 C55.5747585,44.45 55.7547585,44.35 56.0047585,44.35 L58.3947585,44.35 C58.4726655,44.347359 58.5483554,44.3761932 58.6047585,44.43 C58.6421188,44.5021152 58.6421188,44.5878848 58.6047585,44.66 L56.1047585,54.48 C56.0651493,54.6715164 55.8898203,54.8040823 55.6947585,54.79 L53.6247585,54.79 Z" id="Path" fill="#FFFFFF"></path>
            <path d="M59.4747585,54.79 C59.2447585,54.79 59.1347585,54.69 59.1347585,54.48 L59.1347585,44.66 C59.1347585,44.45 59.2447585,44.35 59.4747585,44.35 L64.6547585,44.35 C64.8147585,44.35 64.9047585,44.45 64.9047585,44.66 L64.9047585,46.66 C64.9047585,46.87 64.8247585,46.97 64.6547585,46.96 L62.1547585,46.96 L62.1547585,48.33 L64.0147585,48.33 C64.2147585,48.33 64.3147585,48.44 64.3147585,48.65 L64.3147585,50.59 C64.3279697,50.6737714 64.3010537,50.7588824 64.2420773,50.8198247 C64.1831009,50.880767 64.0989179,50.9104583 64.0147585,50.9 L62.1547585,50.9 L62.1547585,52.26 L64.7247585,52.26 C64.9047585,52.26 64.9947585,52.36 64.9947585,52.56 L64.9947585,54.56 C64.9947585,54.77 64.9047585,54.87 64.7247585,54.87 L59.4747585,54.79 Z" id="Path" fill="#FFFFFF"></path>
            <path d="M7.28475845,30.42 C6.75475845,30.42 6.49475845,30.18 6.49475845,29.71 L6.49475845,7.02 C6.49475845,6.53 6.75475845,6.29 7.28475845,6.29 L12.2847585,6.29 C12.3907336,6.27282269 12.4987833,6.27282269 12.6047585,6.29 C12.9658185,6.36251152 13.2578042,6.62760379 13.3647585,6.98 L16.7247585,16.46 L17.2847585,18.79 L17.1647585,16.71 L16.8047585,7.02 C16.7925387,6.82383142 16.8697392,6.63266819 17.0147585,6.5 C17.1747165,6.35273245 17.387726,6.27711701 17.6047585,6.29 L22.7247585,6.29 C23.2347585,6.29 23.4847585,6.52 23.4847585,6.98 L23.4847585,29.71 C23.4847585,30.18 23.1947585,30.42 22.6147585,30.42 L17.5147585,30.42 C17.0190986,30.495012 16.5444926,30.1914352 16.4047585,29.71 L13.4047585,21.35 L12.7247585,19.08 L12.9047585,21.35 L13.1947585,29.7 C13.1947585,30.17 12.9447585,30.41 12.3847585,30.41 L7.28475845,30.42 Z" id="Path" fill="#FFFFFF"></path>
            <path d="M25.7247585,30.42 C25.1947585,30.42 24.9347585,30.18 24.9347585,29.71 L24.9347585,7.02 C24.9347585,6.53 25.1947585,6.29 25.7247585,6.29 L37.7247585,6.29 C38.1047585,6.29 38.2947585,6.53 38.3147585,7.02 L38.3147585,11.54 C38.3147585,12.02 38.1147585,12.25 37.7247585,12.24 L31.9247585,12.24 L31.9247585,15.39 L36.2347585,15.39 C36.6947585,15.39 36.9247585,15.64 36.9247585,16.14 L36.9247585,20.62 C36.9545219,20.8122891 36.8922872,21.007397 36.7566785,21.1469364 C36.6210698,21.2864757 36.4278193,21.3542584 36.2347585,21.33 L31.9247585,21.33 L31.9247585,24.47 L37.8547585,24.47 C38.2647585,24.47 38.4747585,24.7 38.4747585,25.17 L38.4747585,29.71 C38.4747585,30.18 38.2647585,30.42 37.8547585,30.42 L25.7247585,30.42 Z" id="Path" fill="#FFFFFF"></path>
            <path d="M40.4347585,30.42 C39.9047585,30.42 39.6447585,30.18 39.6447585,29.71 L39.6447585,7.02 C39.6447585,6.53 39.9047585,6.29 40.4347585,6.29 L45.8347585,6.29 C46.3647585,6.29 46.6347585,6.53 46.6347585,7.02 L46.6347585,29.71 C46.6347585,30.18 46.3647585,30.42 45.8347585,30.42 L40.4347585,30.42 Z" id="Path" fill="#FFFFFF"></path>
            <path d="M48.9247585,30.42 C48.3947585,30.42 48.1347585,30.18 48.1347585,29.71 L48.1347585,7.02 C48.1347585,6.53 48.3947585,6.29 48.9247585,6.29 L53.9747585,6.29 C54.0807336,6.27282269 54.1887833,6.27282269 54.2947585,6.29 C54.6558185,6.36251152 54.9478042,6.62760379 55.0547585,6.98 L58.3447585,16.42 L58.8947585,18.75 L58.7847585,16.67 L58.4247585,6.98 C58.4125387,6.78383142 58.4897392,6.59266819 58.6347585,6.46 C58.7947165,6.31273245 59.007726,6.23691549 59.2247585,6.25 L64.3147585,6.25 C64.8247585,6.25 65.0747585,6.48 65.0747585,6.94 L65.0747585,29.71 C65.0747585,30.18 64.7847585,30.42 64.1947585,30.42 L59.1047585,30.42 C58.6056219,30.5004896 58.1249299,30.1957652 57.9847585,29.71 L54.9847585,21.35 L54.2847585,19.09 L54.4747585,21.36 L54.7647585,29.71 C54.7647585,30.18 54.5147585,30.42 53.9547585,30.42 L48.9247585,30.42 Z" id="Path" fill="#FFFFFF"></path>
            <path d="M7.20475845,68.08 C6.97475845,68.08 6.85475845,67.98 6.85475845,67.77 L6.85475845,57.62 C6.85475845,57.4 6.97475845,57.29 7.20475845,57.29 L10.5647585,57.29 C11.465697,57.2478023 12.3562884,57.4967471 13.1047585,58 C13.7809646,58.527611 14.1547936,59.3537731 14.1047585,60.21 L14.1047585,65.13 C14.1547936,65.9862269 13.7809646,66.812389 13.1047585,67.34 C12.3764307,67.8461852 11.5005203,68.0959428 10.6147585,68.05 L7.20475845,68.08 Z" id="Path" fill="#FFFFFF"></path>
            <path d="M9.97475845,65.43 L10.6147585,65.43 C10.7197345,65.420844 10.8201178,65.3827676 10.9047585,65.32 C10.9834677,65.2570641 11.0279308,65.1607274 11.0247585,65.06 L11.0247585,60.34 C11.0376878,60.2203492 10.9931742,60.1016464 10.9047585,60.02 C10.8179807,59.9664564 10.7164064,59.9419385 10.6147585,59.95 L9.97475845,59.95 L9.97475845,65.43 Z" id="Path" fill="#FFFFFF"></path>
            <path d="M15.4647585,68.08 C15.2347585,68.08 15.1147585,67.98 15.1147585,67.77 L15.1147585,57.62 C15.1147585,57.4 15.2347585,57.29 15.4647585,57.29 L20.8047585,57.29 C20.9747585,57.29 21.0647585,57.4 21.0647585,57.62 L21.0647585,59.62 C21.0647585,59.84 20.9747585,59.94 20.8047585,59.94 L18.2347585,59.94 L18.2347585,61.34 L20.1447585,61.34 C20.3547585,61.34 20.4547585,61.45 20.4547585,61.68 L20.4547585,63.68 C20.4678612,63.7664249 20.4398504,63.8540104 20.3790292,63.9167936 C20.318208,63.9795767 20.2315557,64.0103532 20.1447585,64 L18.2347585,64 L18.2347585,65.4 L20.8747585,65.4 C21.0547585,65.4 21.1547585,65.5 21.1547585,65.71 L21.1547585,67.71 C21.1547585,67.92 21.0547585,68.02 20.8747585,68.02 L15.4647585,68.08 Z" id="Path" fill="#FFFFFF"></path>
            <path d="M22.4247585,68.08 C22.1847585,68.08 22.0747585,67.98 22.0747585,67.77 L22.0747585,57.62 C22.0747585,57.4 22.1847585,57.29 22.4247585,57.29 L25.7247585,57.29 C26.6416877,57.2723572 27.5337599,57.5886697 28.2347585,58.18 C28.8930342,58.6824437 29.2809117,59.4618926 29.2847585,60.29 L29.2847585,61.62 C29.3039636,62.4751539 28.9092158,63.2869939 28.2247585,63.8 L29.4047585,67.74 C29.4342851,67.8068863 29.4342851,67.8831137 29.4047585,67.95 C29.3662022,68.0173851 29.2921327,68.056369 29.2147585,68.05 L26.5647585,68.05 C26.4547585,68.05 26.3847585,68.05 26.3447585,67.99 C26.2926255,67.9201429 26.2614136,67.8369113 26.2547585,67.75 L25.5947585,64.69 L25.1947585,64.69 L25.1947585,67.69 C25.1947585,67.9 25.0847585,68 24.8547585,68 L22.4247585,68.08 Z" id="Path" fill="#FFFFFF"></path>
            <path d="M25.1847585,62.08 L25.7247585,62.08 C25.8383165,62.0850924 25.9505032,62.0535399 26.0447585,61.99 C26.1215895,61.9344292 26.1664004,61.8448073 26.1647585,61.75 L26.1647585,60.29 C26.1655607,60.1875161 26.1172269,60.0908485 26.0347585,60.03 C25.9370895,59.9753873 25.826637,59.9477742 25.7147585,59.95 L25.1947585,59.95 L25.1847585,62.08 Z" id="Path" fill="#FFFFFF"></path>
            <path d="M36.7247585,68.24 C36.2366653,68.2466605 35.7516407,68.1618659 35.2947585,67.99 C34.8011331,67.8126765 34.3582976,67.5174528 34.0047585,67.13 C33.9379181,67.0596866 33.8897827,66.9737304 33.8647585,66.88 C33.7978018,66.7838408 33.7978018,66.6561592 33.8647585,66.56 L35.1047585,65.2 C35.1714573,65.0994477 35.2840957,65.0389975 35.4047585,65.0389975 C35.5254212,65.0389975 35.6380596,65.0994477 35.7047585,65.2 C35.9093121,65.4293098 36.1977759,65.5663301 36.5047585,65.58 C36.6581912,65.5967976 36.8121956,65.5538196 36.9347585,65.46 C37.0120558,65.3640864 37.0512262,65.2430141 37.0447585,65.12 L37.0447585,57.6 C37.0324742,57.4948427 37.0784719,57.391348 37.1647585,57.33 C37.2143534,57.3209991 37.2651635,57.3209991 37.3147585,57.33 L39.7847585,57.33 C39.8845556,57.3232493 39.9835702,57.3515795 40.0647585,57.41 C40.1332777,57.4941491 40.165642,57.6020301 40.1547585,57.71 L40.1547585,65.36 C40.1833568,66.1951293 39.8118778,66.9938092 39.1547585,67.51 C38.4512283,68.0223613 37.5941734,68.2798304 36.7247585,68.24 L36.7247585,68.24 Z" id="Path" fill="#FFFFFF"></path>
            <path d="M44.8647585,68.24 C43.9360805,68.2589992 43.0289681,67.9589815 42.2947585,67.39 C41.6227475,66.9138927 41.2208313,66.1435533 41.2147585,65.32 L41.2147585,57.62 C41.2118388,57.5376787 41.2364732,57.4567372 41.2847585,57.39 C41.3266846,57.3313134 41.3927806,57.2945934 41.4647585,57.29 L44.0547585,57.29 C44.1368176,57.2785643 44.219212,57.3085259 44.2747585,57.37 C44.3192019,57.4455014 44.340094,57.5325517 44.3347585,57.62 L44.3347585,65.14 C44.3299901,65.2596169 44.3818671,65.3744875 44.4747585,65.45 C44.580763,65.5461292 44.7222773,65.5933007 44.8647585,65.58 C45.0073842,65.5945849 45.1494088,65.5472434 45.2547585,65.45 C45.3374123,65.3679447 45.3841614,65.2564662 45.3847585,65.14 L45.3847585,57.62 C45.378936,57.5356306 45.4078354,57.4525449 45.4647585,57.39 C45.5172043,57.3225409 45.5994482,57.2851573 45.6847585,57.29 L48.1747585,57.29 C48.2657974,57.2851342 48.3541091,57.3219307 48.4147585,57.39 C48.4743281,57.4515339 48.5067457,57.5343787 48.5047585,57.62 L48.5047585,65.32 C48.4954868,66.1400137 48.0939271,66.9059517 47.4247585,67.38 C46.6969256,67.9547721 45.7919861,68.2587752 44.8647585,68.24 Z" id="Path" fill="#FFFFFF"></path>
            <path d="M53.0547585,68.24 C52.3231008,68.2719901 51.5967025,68.1024972 50.9547585,67.75 C50.4737898,67.493262 50.0829442,67.095437 49.8347585,66.61 C49.6145625,66.1871224 49.5012634,65.7167593 49.5047585,65.24 L49.5047585,64.81 C49.4935079,64.6868385 49.5141718,64.5628553 49.5647585,64.45 C49.5647585,64.39 49.7047585,64.36 49.8447585,64.36 L52.2147585,64.36 C52.3747585,64.36 52.4747585,64.36 52.5147585,64.44 C52.5656128,64.5312745 52.5865954,64.6361872 52.5747585,64.74 L52.5747585,65.08 C52.5626701,65.2331 52.6261434,65.382449 52.7447585,65.48 C52.8519152,65.5578357 52.9824834,65.5966533 53.1147585,65.59 C53.2341244,65.5923033 53.3506477,65.5534623 53.4447585,65.48 C53.5435113,65.4046331 53.5964294,65.2836773 53.5847585,65.16 C53.5821523,64.9527541 53.5039138,64.7536015 53.3647585,64.6 C53.1332677,64.3819767 52.8859223,64.1814264 52.6247585,64 L51.6247585,63.29 C51.1184987,62.9694467 50.6519251,62.5901458 50.2347585,62.16 C49.9119994,61.8130019 49.6906311,61.3841008 49.5947585,60.92 C49.5433524,60.6329452 49.5199093,60.3415811 49.5247585,60.05 C49.5104669,59.1845917 49.9310686,58.369676 50.6447585,57.88 C52.1103966,56.8451945 54.0750596,56.8693998 55.5147585,57.94 C56.1787136,58.5202917 56.5460124,59.368752 56.5147585,60.25 L56.5147585,60.68 C56.5239413,60.7723055 56.4990438,60.8647821 56.4447585,60.94 C56.3359223,60.9920985 56.2147327,61.0128739 56.0947585,61 L53.7247585,61 C53.6355328,61.0095789 53.5460365,60.9845199 53.4747585,60.93 C53.4345494,60.8495634 53.4172513,60.7596128 53.4247585,60.67 L53.4247585,60.27 C53.4247585,59.94 53.2847585,59.78 53.0047585,59.78 C52.8920496,59.7690947 52.779849,59.8052884 52.6947585,59.88 C52.6288271,59.9503301 52.5929481,60.0436154 52.5947585,60.14 C52.5836279,60.3105062 52.621815,60.4806124 52.7047585,60.63 C52.9144961,60.8757013 53.1690099,61.0793124 53.4547585,61.23 C54.2764441,61.6805156 55.0389545,62.2314042 55.7247585,62.87 C56.3640604,63.5255188 56.7227686,64.4043538 56.7247585,65.32 C56.7326467,66.1226355 56.3621573,66.8821387 55.7247585,67.37 C54.9691466,67.9731449 54.0206528,68.2822047 53.0547585,68.24 L53.0547585,68.24 Z" id="Path" fill="#FFFFFF"></path>
            <path d="M61.1347585,68.24 C60.2166604,68.2734438 59.3132152,68.0027618 58.5647585,67.47 C57.8694259,66.9776943 57.4645696,66.1717304 57.4847585,65.32 L57.4847585,60.08 C57.4544097,59.2177701 57.8604099,58.3982514 58.5647585,57.9 C60.1289538,56.9137931 62.1205631,56.9137931 63.6847585,57.9 C64.3739885,58.4071759 64.7642318,59.2251858 64.7247585,60.08 L64.7247585,65.37 C64.7534546,66.1995213 64.3813093,66.9921909 63.7247585,67.5 C62.9657627,68.0236521 62.0558352,68.2836314 61.1347585,68.24 L61.1347585,68.24 Z" id="Path" fill="#FFFFFF"></path>
            <path d="M61.1347585,65.58 C61.2769541,65.5909024 61.4175433,65.5440393 61.5247585,65.45 C61.6028575,65.3657694 61.6457895,65.2548616 61.6447585,65.14 L61.6447585,60.21 C61.6448971,60.0963003 61.5978147,59.9876485 61.5147585,59.91 C61.2891945,59.7313045 60.9703225,59.7313045 60.7447585,59.91 C60.6574678,59.9896991 60.606834,60.1018167 60.6047585,60.22 L60.6047585,65.15 C60.6030467,65.266925 60.6501591,65.3792699 60.7347585,65.46 C60.8448526,65.5552586 60.9904091,65.5989255 61.1347585,65.58 L61.1347585,65.58 Z" id="Path" fill="#FFFFFF"></path>
        </g>
    </g>
</svg>