<?xml version="1.0" encoding="UTF-8" standalone="no"?>
<svg
        xmlns:dc="http://purl.org/dc/elements/1.1/"
        xmlns:cc="http://creativecommons.org/ns#"
        xmlns:rdf="http://www.w3.org/1999/02/22-rdf-syntax-ns#"
        xmlns:svg="http://www.w3.org/2000/svg"
        xmlns="http://www.w3.org/2000/svg"
        width="71.440002"
        height="74.110001"
        viewBox="0 0 71.440002 74.110001"
        version="1.1"
        id="svg59">
    <metadata
            id="metadata65">
        <rdf:RDF>
            <cc:Work
                    rdf:about="">
                <dc:format>image/svg+xml</dc:format>
                <dc:type
                        rdf:resource="http://purl.org/dc/dcmitype/StillImage" />
                <dc:title>Group 3</dc:title>
            </cc:Work>
        </rdf:RDF>
    </metadata>
    <defs
            id="defs63" />
    <title
            id="title10">Group 3</title>
    <g
            id="Page-1"
            stroke="none"
            stroke-width="1"
            fill="none"
            fill-rule="evenodd"
            transform="translate(-0.28,-4.92)">
        <g
                id="Group-3"
                transform="translate(0.28,0.3418)"
                fill-rule="nonzero">
            <g
                    id="Group">
                <path
                        d="m 2.1,4.5782 c -1.16,0 -2.1,1.07 -2.1,2.4 v 69.31 c 0,1.33 0.94,2.4 2.1,2.4 h 67.24 c 1.16,0 2.1,-1.07 2.1,-2.4 v -69.31 c 0,-1.33 -0.94,-2.4 -2.1,-2.4 z"
                        id="Path"
                        fill="#cc1719" />
                <g
                        transform="translate(6.4099,34.0332)"
                        fill="#ffffff"
                        id="g23">
                    <path
                            d="m 4.8026013,12 c 0.106471,0 0.1597065,-0.07035 0.1597065,-0.211041 v 0 -1.648399 c 0,-0.1406933 -0.053235,-0.2110402 -0.1597065,-0.2110402 v 0 H 2.5039691 L 2.6693794,9.7013678 4.7911937,5.4178124 c 0.019013,-0.034223 0.03042,-0.074149 0.034223,-0.1197799 v 0 -1.2149098 c 0,-0.1444963 -0.058939,-0.2167445 -0.1768179,-0.2167445 v 0 H 0.43919276 c -0.11027351,0 -0.16541026,0.072248 -0.16541026,0.2167445 v 0 1.5001 c 0,0.1444963 0.0551368,0.2167444 0.16541026,0.2167444 v 0 H 2.3955969 L 2.2530018,6.0167116 0.23955969,10.363009 c -0.0342228,0.06845 -0.0551368,0.13499 -0.0627418,0.199633 v 0 1.226317 C 0.17681786,11.929653 0.23575715,12 0.35363573,12 v 0 z"
                            id="Z" />
                    <path
                            d="m 8.2785758,12.136891 c 0.7072715,0 1.3156771,-0.215794 1.8252172,-0.647381 0.509539,-0.431588 0.764309,-0.951585 0.764309,-1.5599902 v 0 -5.8178781 c 0,-0.064643 -0.02091,-0.1216811 -0.06274,-0.171114 -0.04183,-0.049433 -0.09887,-0.074149 -0.171114,-0.074149 v 0 H 8.8660675 c -0.060841,0 -0.1121748,0.023766 -0.1540027,0.071298 -0.041828,0.047532 -0.062742,0.1055203 -0.062742,0.1739659 v 0 5.6866907 c 0,0.091261 -0.02947,0.1692128 -0.088409,0.2338557 -0.058939,0.06464 -0.1511508,0.09697 -0.2766344,0.09697 -0.1254837,0 -0.2195964,-0.03232 -0.2823382,-0.09697 -0.062742,-0.064643 -0.094113,-0.1425949 -0.094113,-0.2338557 v 0 -5.6866907 c 0,-0.163509 -0.066544,-0.2452635 -0.199633,-0.2452635 v 0 H 5.8658676 c -0.049433,0 -0.091261,0.024716 -0.1254837,0.074149 -0.034223,0.049433 -0.051334,0.1064709 -0.051334,0.171114 v 0 5.8178781 c 0,0.6084048 0.2547698,1.1284018 0.7643095,1.5599898 0.5095396,0.431587 1.1179452,0.647381 1.8252164,0.647381 z"
                            id="U" />
                    <path
                            d="m 13.739579,12 c 0.163509,0 0.245264,-0.07985 0.245264,-0.23956 v 0 -2.3043357 h 0.28519 l 0.467712,2.3157437 c 0.01141,0.09126 0.03137,0.152101 0.05989,0.182522 C 14.826154,11.98479 14.88034,12 14.960193,12 v 0 h 1.882255 c 0.06084,0 0.102668,-0.02567 0.125483,-0.077 0.02282,-0.05133 0.02472,-0.105521 0.0057,-0.162559 v 0 L 16.14088,8.7887594 C 16.639012,8.3628755 16.888078,7.811508 16.888078,7.1346568 v 0 -1.0038691 c 0,-0.6160107 -0.247165,-1.1474149 -0.741494,-1.5942127 -0.49433,-0.4467979 -1.089426,-0.6701968 -1.78529,-0.6701968 v 0 h -2.338559 c -0.167312,0 -0.250968,0.081754 -0.250968,0.2452635 v 0 7.6487983 c 0,0.159707 0.08366,0.23956 0.250968,0.23956 v 0 z M 14.361294,7.4483659 H 13.984843 V 5.8741166 h 0.370747 c 0.08746,0 0.161608,0.021865 0.222448,0.065594 0.06084,0.043729 0.09126,0.1074216 0.09126,0.1910774 v 0 1.0666109 c 0,0.072248 -0.02947,0.1321381 -0.08841,0.1796698 -0.05894,0.047532 -0.132138,0.071298 -0.219596,0.071298 z"
                            id="R" />
                    <path
                            d="m 23.639577,12.136891 c 0.775717,0 1.400284,-0.211991 1.873699,-0.635974 0.473416,-0.423982 0.710124,-0.947781 0.710124,-1.5713972 0,-0.2927951 -0.04468,-0.5713308 -0.13404,-0.835607 C 26.000001,8.8296367 25.889727,8.5995833 25.75854,8.4037528 25.627352,8.2079222 25.452436,8.0082892 25.23379,7.8048536 25.015144,7.601418 24.812659,7.4331558 24.626335,7.3000671 24.440011,7.1669784 24.209957,7.0110744 23.936175,6.8323553 23.784074,6.7334894 23.667146,6.6517349 23.585391,6.5870918 23.503637,6.5224487 23.443747,6.456855 23.405721,6.3903106 c -0.03803,-0.066544 -0.06084,-0.1226317 -0.06845,-0.1682621 -0.0076,-0.04563 -0.01141,-0.1159773 -0.01141,-0.2110407 0,-0.076051 0.02472,-0.1406938 0.07415,-0.1939293 0.04943,-0.053235 0.123582,-0.079853 0.222448,-0.079853 0.197732,0 0.296597,0.1235824 0.296597,0.3707471 v 0 0.3023016 c 0,0.1026684 0.01236,0.1692127 0.03707,0.199633 0.02472,0.03042 0.08271,0.04563 0.173966,0.04563 v 0 h 1.654103 c 0.125483,0 0.205337,-0.01521 0.239559,-0.04563 0.03422,-0.03042 0.05134,-0.095063 0.05134,-0.1939292 v 0 -0.319413 c 0,-0.7414942 -0.231955,-1.3213808 -0.695864,-1.7396596 -0.463909,-0.4182788 -1.06471,-0.6274182 -1.802402,-0.6274182 -0.239559,0 -0.476267,0.03042 -0.710123,0.091261 -0.233856,0.060841 -0.456304,0.1540027 -0.667345,0.2794863 -0.211041,0.1254837 -0.397365,0.2747331 -0.558972,0.4477485 -0.161608,0.1730153 -0.289944,0.3802534 -0.385007,0.6217144 -0.09506,0.241461 -0.142595,0.500984 -0.142595,0.778569 0,0.4829219 0.07225,0.874583 0.216744,1.1749832 0.144497,0.2889927 0.418279,0.596998 0.821348,0.924016 0.06464,0.053235 0.456304,0.3479319 1.174983,0.8840893 0.250967,0.1863242 0.427785,0.3422281 0.530454,0.4677118 0.102668,0.1254836 0.154002,0.2604736 0.154002,0.4049699 0,0.106471 -0.03327,0.1872748 -0.09982,0.2424114 -0.06655,0.05514 -0.145447,0.08271 -0.236708,0.08271 -0.250967,0 -0.376451,-0.1292859 -0.376451,-0.3878582 v 0 -0.2509673 c 0,-0.1140761 -0.01521,-0.1891761 -0.04563,-0.2253002 -0.03042,-0.036124 -0.100767,-0.054186 -0.211041,-0.054186 v 0 h -1.688325 c -0.102669,0 -0.168263,0.021865 -0.196782,0.065594 -0.02852,0.043729 -0.04278,0.1359406 -0.04278,0.2766344 v 0 0.3194129 c 0,0.2129424 0.02567,0.4220814 0.077,0.6274184 0.05133,0.205337 0.140694,0.407822 0.268079,0.607455 0.127385,0.199633 0.284239,0.37455 0.470564,0.52475 0.186324,0.1502 0.426834,0.271881 0.721531,0.365043 0.294696,0.09316 0.624566,0.139743 0.989609,0.139743 z"
                            id="S" />
                    <path
                            d="m 30.21668,12 c 0.136891,0 0.205337,-0.07985 0.205337,-0.23956 v 0 -5.8863234 h 1.146464 c 0.136891,0 0.205337,-0.081754 0.205337,-0.2452635 v 0 -1.5172114 c 0,-0.163509 -0.06845,-0.2452635 -0.205337,-0.2452635 v 0 h -4.523115 c -0.129286,0 -0.193929,0.081754 -0.193929,0.2452635 v 0 1.5172114 c 0,0.163509 0.06464,0.2452635 0.193929,0.2452635 v 0 h 1.157872 V 11.76044 c 0,0.159707 0.06654,0.23956 0.199633,0.23956 v 0 z"
                            id="T" />
                    <path
                            d="m 36.601594,12 c 0.133088,0 0.199633,-0.07985 0.199633,-0.23956 v 0 -1.528619 c 0,-0.159706 -0.06654,-0.2395593 -0.199633,-0.2395593 v 0 H 34.725043 V 8.9370583 h 1.363208 c 0.144497,0 0.216745,-0.079853 0.216745,-0.2395597 v 0 -1.5115076 c 0,-0.1673115 -0.07225,-0.2509673 -0.216745,-0.2509673 v 0 H 34.725043 V 5.8741166 h 1.83092 c 0.121681,0 0.182522,-0.079853 0.182522,-0.2395597 v 0 -1.5229152 c 0,-0.163509 -0.06084,-0.2452635 -0.182522,-0.2452635 v 0 h -3.793028 c -0.167312,0 -0.250968,0.081754 -0.250968,0.2452635 v 0 7.6487983 c 0,0.159707 0.08366,0.23956 0.250968,0.23956 v 0 z"
                            id="E" />
                    <path
                            d="m 40.12276,12.136891 c 0.707271,0 1.315677,-0.215794 1.825217,-0.647381 0.509539,-0.431588 0.764309,-0.951585 0.764309,-1.5599902 v 0 -5.8178781 c 0,-0.064643 -0.02091,-0.1216811 -0.06274,-0.171114 -0.04183,-0.049433 -0.09887,-0.074149 -0.171114,-0.074149 v 0 h -1.768179 c -0.06084,0 -0.112174,0.023766 -0.154002,0.071298 -0.04183,0.047532 -0.06274,0.1055203 -0.06274,0.1739659 v 0 5.6866907 c 0,0.091261 -0.02947,0.1692128 -0.08841,0.2338557 -0.05894,0.06464 -0.151151,0.09697 -0.276634,0.09697 -0.125484,0 -0.219597,-0.03232 -0.282339,-0.09697 -0.06274,-0.064643 -0.09411,-0.1425949 -0.09411,-0.2338557 v 0 -5.6866907 c 0,-0.163509 -0.06654,-0.2452635 -0.199633,-0.2452635 v 0 h -1.842328 c -0.04943,0 -0.09126,0.024716 -0.125484,0.074149 -0.03422,0.049433 -0.05133,0.1064709 -0.05133,0.171114 v 0 5.8178781 c 0,0.6084048 0.25477,1.1284018 0.764309,1.5599898 0.50954,0.431587 1.117945,0.647381 1.825217,0.647381 z"
                            id="path19" />
                    <path
                            d="m 47.705578,12 c 0.133088,0 0.199633,-0.07985 0.199633,-0.23956 v 0 -1.528619 c 0,-0.159706 -0.06654,-0.2395593 -0.199633,-0.2395593 v 0 H 45.829027 V 8.9370583 h 1.363208 c 0.144497,0 0.216745,-0.079853 0.216745,-0.2395597 v 0 -1.5115076 c 0,-0.1673115 -0.07225,-0.2509673 -0.216745,-0.2509673 v 0 H 45.829027 V 5.8741166 h 1.83092 c 0.121681,0 0.182522,-0.079853 0.182522,-0.2395597 v 0 -1.5229152 c 0,-0.163509 -0.06084,-0.2452635 -0.182522,-0.2452635 v 0 h -3.793028 c -0.167312,0 -0.250967,0.081754 -0.250967,0.2452635 v 0 7.6487983 c 0,0.159707 0.08366,0.23956 0.250967,0.23956 v 0 z m 2.737825,0 c 0.163509,0 0.245263,-0.07985 0.245263,-0.23956 v 0 -2.3043357 h 0.28519 l 0.467712,2.3157437 c 0.01141,0.09126 0.03137,0.152101 0.05989,0.182522 C 51.529977,11.98479 51.584163,12 51.664016,12 v 0 h 1.882255 c 0.06084,0 0.102668,-0.02567 0.125484,-0.077 0.02282,-0.05133 0.02472,-0.105521 0.0057,-0.162559 v 0 L 52.844703,8.7887594 C 53.342835,8.3628755 53.591901,7.811508 53.591901,7.1346568 v 0 -1.0038691 c 0,-0.6160107 -0.247164,-1.1474149 -0.741494,-1.5942127 -0.494329,-0.4467979 -1.089426,-0.6701968 -1.78529,-0.6701968 v 0 h -2.338559 c -0.167311,0 -0.250967,0.081754 -0.250967,0.2452635 v 0 7.6487983 c 0,0.159707 0.08366,0.23956 0.250967,0.23956 v 0 z M 51.065117,7.4483659 H 50.688666 V 5.8741166 h 0.370747 c 0.08746,0 0.161608,0.021865 0.222448,0.065594 0.06084,0.043729 0.09126,0.1074216 0.09126,0.1910774 v 0 1.0666109 c 0,0.072248 -0.02947,0.1321381 -0.08841,0.1796698 -0.05894,0.047532 -0.132138,0.071298 -0.219596,0.071298 z"
                            id="ER" />
                    <path
                            d="m 57.858267,9.5074385 c 0.04183,0 0.08461,-0.016161 0.128336,-0.048482 0.04373,-0.032322 0.06559,-0.073199 0.06559,-0.1226318 v 0 -1.2491326 c 0,-0.049433 -0.01806,-0.09031 -0.05419,-0.1226318 -0.03612,-0.032321 -0.0789,-0.048482 -0.128335,-0.048482 v 0 h -3.205537 c -0.03803,0 -0.077,0.018062 -0.116928,0.054186 -0.03993,0.036124 -0.05989,0.078903 -0.05989,0.1283356 v 0 1.237725 c 0,0.053235 0.02091,0.095063 0.06274,0.1254837 0.04183,0.03042 0.07605,0.04563 0.102668,0.04563 v 0 z"
                            id="-" />
                </g>
                <g
                        transform="translate(6.4099,44.3691)"
                        fill="#ffffff"
                        id="g36">
                    <path
                            d="m 2.9803847,15 c 0.2148025,0 0.3222037,-0.102519 0.3222037,-0.307558 v 0 -9.8198917 c 0,-0.2099206 -0.1074012,-0.3148809 -0.3222037,-0.3148809 v 0 H 0.78354094 c -0.2148025,0 -0.32220375,0.1049603 -0.32220375,0.3148809 v 0 9.8198917 C 0.46133719,14.897481 0.56873844,15 0.78354094,15 v 0 z m 3.6174694,0 c 0.1122831,0 0.1964954,-0.02563 0.252637,-0.07689 0.056142,-0.05126 0.081771,-0.12815 0.07689,-0.230669 v 0 l -0.117165,-3.610147 -0.073228,-0.981257 0.2782669,0.973934 1.2155868,3.61747 C 8.2943056,14.897481 8.4456438,15 8.6848556,15 v 0 h 2.0723564 c 0.239211,0 0.358817,-0.102519 0.358817,-0.307558 v 0 -9.8345373 c 0,-0.2001569 -0.102519,-0.3002353 -0.307558,-0.3002353 v 0 H 8.7361153 c -0.1025194,0 -0.1830703,0.030512 -0.2416528,0.091535 -0.058582,0.061024 -0.085433,0.1354721 -0.080551,0.2233458 v 0 L 8.553045,9.0685219 8.6043047,9.9692278 8.3772975,8.9586797 7.0372228,4.8725503 C 6.9835222,4.7163303 6.8810028,4.6186928 6.7296647,4.5796378 6.6954916,4.5649922 6.6515547,4.5576694 6.5978541,4.5576694 v 0 H 4.5474666 c -0.2148025,0 -0.3222038,0.1049603 -0.3222038,0.3148809 v 0 9.8198917 C 4.2252628,14.897481 4.3326641,15 4.5474666,15 v 0 z"
                            id="IN" />
                    <path
                            d="m 14.786345,15 c 0.214802,0 0.322203,-0.102519 0.322203,-0.307558 v 0 -9.8198917 c 0,-0.2099206 -0.107401,-0.3148809 -0.322203,-0.3148809 v 0 h -2.196844 c -0.214803,0 -0.322204,0.1049603 -0.322204,0.3148809 v 0 9.8198917 C 12.267297,14.897481 12.374698,15 12.589501,15 v 0 z"
                            id="I" />
                    <path
                            d="m 20.125724,15 c 0.175748,0 0.263622,-0.102519 0.263622,-0.307558 v 0 -7.5571426 h 1.471885 c 0.175747,0 0.263621,-0.1049603 0.263621,-0.314881 v 0 -1.9478681 c 0,-0.2099206 -0.08787,-0.3148809 -0.263621,-0.3148809 v 0 h -5.80699 c -0.165984,0 -0.248976,0.1049603 -0.248976,0.3148809 v 0 1.9478681 c 0,0.2099207 0.08299,0.314881 0.248976,0.314881 v 0 h 1.486531 V 14.692442 C 17.540772,14.897481 17.626204,15 17.79707,15 v 0 z"
                            id="path27" />
                    <path
                            d="m 25.528705,15 c 0.214802,0 0.322203,-0.102519 0.322203,-0.307558 v 0 -9.8198917 c 0,-0.2099206 -0.107401,-0.3148809 -0.322203,-0.3148809 v 0 h -2.196844 c -0.214803,0 -0.322204,0.1049603 -0.322204,0.3148809 v 0 9.8198917 C 23.009657,14.897481 23.117058,15 23.331861,15 v 0 z"
                            id="path29" />
                    <path
                            d="m 28.97462,15 c 0.23433,0 0.366141,-0.102519 0.395432,-0.307558 v 0 l 0.0952,-0.842124 h 1.376688 l 0.0952,0.842124 C 30.971307,14.897481 31.105559,15 31.339889,15 v 0 h 2.401882 c 0.151338,0 0.200157,-0.102519 0.146456,-0.307558 v 0 L 31.610833,4.8725503 C 31.55225,4.6626297 31.42288,4.5576694 31.222724,4.5576694 v 0 h -2.138262 c -0.200157,0 -0.327085,0.1049603 -0.380786,0.3148809 v 0 L 26.426281,14.692442 C 26.377463,14.897481 26.426281,15 26.572738,15 v 0 z m 1.58905,-3.558887 h -0.820155 l 0.300236,-2.5483386 0.109842,-1.3400747 0.117165,1.3400747 z"
                            id="A" />
                    <path
                            d="m 37.877208,15 c 0.175748,0 0.263622,-0.102519 0.263622,-0.307558 v 0 -7.5571426 h 1.471885 c 0.175747,0 0.263621,-0.1049603 0.263621,-0.314881 v 0 -1.9478681 c 0,-0.2099206 -0.08787,-0.3148809 -0.263621,-0.3148809 v 0 h -5.80699 c -0.165984,0 -0.248976,0.1049603 -0.248976,0.3148809 v 0 1.9478681 c 0,0.2099207 0.08299,0.314881 0.248976,0.314881 v 0 h 1.486531 v 7.5571426 c 0,0.205039 0.08543,0.307558 0.256298,0.307558 v 0 z m 5.096678,0 c 0.214802,0 0.322204,-0.102519 0.322204,-0.307558 v 0 -9.8198917 c 0,-0.2099206 -0.107402,-0.3148809 -0.322204,-0.3148809 v 0 h -2.196844 c -0.214802,0 -0.322204,0.1049603 -0.322204,0.3148809 v 0 9.8198917 C 40.454838,14.897481 40.56224,15 40.777042,15 v 0 z"
                            id="TI" />
                    <path
                            d="m 49.010991,15 c 0.200157,0 0.329526,-0.10496 0.388109,-0.314881 v 0 l 2.350622,-9.8198915 c 0.02441,-0.097637 0.01587,-0.1733066 -0.02563,-0.2270072 -0.0415,-0.053701 -0.106181,-0.080551 -0.194055,-0.080551 v 0 h -2.248103 c -0.23433,0 -0.368582,0.1025193 -0.402755,0.3075581 v 0 l -0.776218,5.5067556 -0.08055,1.032516 -0.07323,-1.032516 -0.790864,-5.5067556 c -0.02929,-0.2050387 -0.1611,-0.307558 -0.39543,-0.307558 v 0 h -2.248103 c -0.08787,0 -0.153779,0.02685 -0.197716,0.080551 -0.04394,0.053701 -0.05126,0.1293697 -0.02197,0.2270072 v 0 l 2.350623,9.8198914 C 46.699423,14.89504 46.826352,15 47.026508,15 v 0 z"
                            id="V" />
                    <path
                            d="m 57.934554,15 c 0.170865,0 0.256298,-0.102519 0.256298,-0.307558 v 0 -1.962514 c 0,-0.205039 -0.08543,-0.307558 -0.256298,-0.307558 v 0 h -2.409206 v -1.35472 h 1.750153 c 0.185511,0 0.278266,-0.10252 0.278266,-0.307558 v 0 -1.9405457 c 0,-0.2148025 -0.09276,-0.3222038 -0.278266,-0.3222038 v 0 H 55.525348 V 7.1352994 h 2.350623 c 0.15622,0 0.23433,-0.1025194 0.23433,-0.3075582 v 0 -1.9551909 c 0,-0.2099206 -0.07811,-0.3148809 -0.23433,-0.3148809 v 0 h -4.86967 c -0.214803,0 -0.322204,0.1049603 -0.322204,0.3148809 v 0 9.8198917 C 52.684097,14.897481 52.791498,15 53.006301,15 v 0 z"
                            id="path34" />
                </g>
                <g
                        transform="translate(5.3586)"
                        fill="#ffffff"
                        id="g45">
                    <path
                            d="m 6.5503177,35 c 0.2595302,0 0.4541779,-0.05924 0.583943,-0.177722 0.1297651,-0.118481 0.1890057,-0.296203 0.1777218,-0.533165 v 0 L 7.0411683,25.944651 6.8719095,23.676583 7.5150931,25.927725 10.32479,34.289113 C 10.471481,34.763038 10.821283,35 11.374195,35 v 0 h 4.790026 c 0.552912,0 0.829368,-0.236962 0.829368,-0.710887 v 0 -22.731464 c 0,-0.462641 -0.236962,-0.693962 -0.710887,-0.693962 v 0 h -4.790026 c -0.236962,0 -0.423147,0.07052 -0.558554,0.211574 -0.135407,0.141049 -0.197469,0.313129 -0.186185,0.51624 v 0 l 0.321592,9.698532 0.118481,2.081884 -0.524702,-2.335773 -3.0974372,-9.444643 C 7.4417476,11.230415 7.2047852,11.004736 6.8549836,10.914465 6.7759961,10.880613 6.6744408,10.863687 6.5503177,10.863687 v 0 h -4.739248 c -0.4964926,0 -0.7447389,0.242605 -0.7447389,0.727814 v 0 22.697612 C 1.0663308,34.763038 1.3145771,35 1.8110697,35 v 0 z"
                            id="N" />
                    <path
                            d="m 31.645015,35 c 0.394937,0 0.592406,-0.236962 0.592406,-0.710887 v 0 -4.536137 c 0,-0.473925 -0.197469,-0.710888 -0.592406,-0.710888 v 0 h -5.568617 v -3.131289 h 4.045287 c 0.428789,0 0.643184,-0.236962 0.643184,-0.710887 v 0 -4.485359 c 0,-0.496493 -0.214395,-0.744739 -0.643184,-0.744739 v 0 h -4.045287 v -3.148215 h 5.43321 c 0.361085,0 0.541628,-0.236962 0.541628,-0.710887 v 0 -4.519211 c 0,-0.485209 -0.180543,-0.727814 -0.541628,-0.727814 v 0 H 20.253894 c -0.496493,0 -0.744739,0.242605 -0.744739,0.727814 v 0 22.697612 C 19.509155,34.763038 19.757401,35 20.253894,35 v 0 z"
                            id="path39" />
                    <path
                            d="m 40.041247,35 c 0.496493,0 0.744739,-0.236962 0.744739,-0.710887 v 0 -22.697612 c 0,-0.485209 -0.248246,-0.727814 -0.744739,-0.727814 v 0 h -5.077765 c -0.496493,0 -0.744739,0.242605 -0.744739,0.727814 v 0 22.697612 C 34.218743,34.763038 34.466989,35 34.963482,35 v 0 z"
                            id="path41" />
                    <path
                            d="m 48.190258,35 c 0.25953,0 0.454178,-0.05924 0.583943,-0.177722 0.129765,-0.118481 0.189005,-0.296203 0.177722,-0.533165 v 0 l -0.270815,-8.344462 -0.169259,-2.268068 0.643184,2.251142 2.809697,8.361388 C 52.111421,34.763038 52.461223,35 53.014135,35 v 0 h 4.790026 c 0.552912,0 0.829368,-0.236962 0.829368,-0.710887 v 0 -22.731464 c 0,-0.462641 -0.236962,-0.693962 -0.710887,-0.693962 v 0 h -4.790026 c -0.236962,0 -0.423147,0.07052 -0.558554,0.211574 -0.135407,0.141049 -0.197469,0.313129 -0.186185,0.51624 v 0 l 0.321592,9.698532 0.118481,2.081884 -0.524702,-2.335773 -3.097437,-9.444643 c -0.124123,-0.361086 -0.361086,-0.586765 -0.710887,-0.677036 -0.07899,-0.03385 -0.180543,-0.05078 -0.304666,-0.05078 v 0 H 43.45101 c -0.496493,0 -0.744739,0.242605 -0.744739,0.727814 v 0 22.697612 C 42.706271,34.763038 42.954517,35 43.45101,35 v 0 z"
                            id="path43" />
                </g>
                <g
                        transform="translate(6.3464,57.6328)"
                        fill="#ffffff"
                        id="g54">
                    <path
                            d="m 4.0076119,15 c 0.9761164,-0.005 1.7723556,-0.25535 2.3887178,-0.750955 0.6163621,-0.495606 0.9245432,-1.218888 0.9245432,-2.169847 v 0 -4.920834 c 0,-0.4880582 -0.086794,-0.9207696 -0.2603815,-1.2981342 C 6.8869036,5.4828652 6.6466482,5.1771999 6.339725,4.9432339 6.0328018,4.7092678 5.679337,4.5331643 5.2793305,4.4149234 4.8793241,4.2966825 4.4403233,4.2375621 3.9623281,4.2375621 v 0 H 0.80756021 c -0.22138722,0 -0.33208084,0.1081778 -0.33208084,0.3245335 v 0 10.1209184 C 0.47547937,14.894338 0.58617299,15 0.80756021,15 v 0 z m 0,-2.656647 H 3.4038285 V 6.8942087 h 0.6037834 c 0.1257882,0.00503 0.2213872,0.032705 0.2867971,0.08302 0.06541,0.050315 0.098115,0.1534616 0.098115,0.3094389 v 0 4.6944154 c 0,0.0956 -0.036479,0.177362 -0.1094357,0.245287 -0.072957,0.06793 -0.1647825,0.10692 -0.2754764,0.116983 z"
                            id="D" />
                    <path
                            d="m 14.140424,15 c 0.176103,0 0.264155,-0.105662 0.264155,-0.316986 v 0 -2.022674 c 0,-0.211325 -0.08805,-0.316987 -0.264155,-0.316987 v 0 h -2.483059 v -1.396249 h 1.803802 c 0.191198,0 0.286797,-0.105662 0.286797,-0.316986 v 0 -2.0000322 c 0,-0.2213872 -0.0956,-0.3320808 -0.286797,-0.3320808 v 0 H 11.657365 V 6.8942087 h 2.42268 c 0.161009,0 0.241514,-0.105662 0.241514,-0.3169862 v 0 -2.0151269 c 0,-0.2163557 -0.08051,-0.3245335 -0.241514,-0.3245335 v 0 H 9.0610962 c -0.2213872,0 -0.3320808,0.1081778 -0.3320808,0.3245335 v 0 10.1209184 C 8.7290154,14.894338 8.839709,15 9.0610962,15 v 0 z m 3.622699,0 c 0.216356,0 0.324534,-0.105662 0.324534,-0.316986 v 0 -3.049106 h 0.377365 l 0.618877,3.0642 c 0.0151,0.120757 0.04151,0.201261 0.07925,0.241514 C 19.200883,14.979874 19.272582,15 19.378244,15 v 0 h 2.490606 c 0.08051,0 0.135851,-0.03396 0.166041,-0.101888 0.03019,-0.06793 0.0327,-0.139625 0.0075,-0.215098 v 0 l -1.101905,-3.932139 c 0.65913,-0.563531 0.988695,-1.2931028 0.988695,-2.1887148 v 0 -1.3283233 c 0,-0.8151075 -0.327049,-1.5182635 -0.981147,-2.1094681 C 20.293982,4.5331643 19.506548,4.2375621 18.585778,4.2375621 v 0 h -3.094389 c -0.221388,0 -0.332081,0.1081778 -0.332081,0.3245335 v 0 10.1209184 C 15.159308,14.894338 15.270001,15 15.491389,15 v 0 z M 18.585778,8.9772613 H 18.087657 V 6.8942087 h 0.490574 c 0.115725,0 0.21384,0.028931 0.294344,0.086794 0.0805,0.057863 0.120757,0.1421407 0.120757,0.2528343 v 0 1.4113435 c 0,0.095599 -0.03899,0.1748456 -0.116983,0.2377397 -0.07799,0.062894 -0.174846,0.094341 -0.290571,0.094341 z"
                            id="path48" />
                    <path
                            d="m 25.960472,15.181135 c 0.95599,0 1.73965,-0.259124 2.350981,-0.777371 0.611331,-0.518247 0.916996,-1.230209 0.916996,-2.135884 v 0 -7.6529533 c 0,-0.1408828 -0.02893,-0.2389976 -0.08679,-0.2943444 -0.05786,-0.055347 -0.147172,-0.08302 -0.267929,-0.08302 v 0 h -2.317018 c -0.03019,0 -0.06038,0.00503 -0.09057,0.015095 -0.03019,0.010063 -0.06541,0.040252 -0.105662,0.090567 -0.04025,0.050315 -0.06038,0.1182409 -0.06038,0.2037768 v 0 7.5246499 c 0,0.140883 -0.03522,0.251576 -0.105662,0.332081 -0.07044,0.0805 -0.203777,0.120756 -0.400007,0.120756 -0.261639,0 -0.5107,-0.128304 -0.747182,-0.384911 -0.09057,-0.100631 -0.186166,-0.150946 -0.286797,-0.150946 -0.0956,0 -0.188682,0.05031 -0.27925,0.150946 v 0 l -1.16983,1.366059 c -0.06038,0.05535 -0.08302,0.125788 -0.06792,0.211324 0.01509,0.08554 0.03774,0.155978 0.06792,0.211325 0.03019,0.05535 0.06289,0.105662 0.09811,0.150945 0.639004,0.734603 1.489332,1.101905 2.550985,1.101905 z m 7.486913,0 c 0.935864,0 1.740909,-0.285539 2.415133,-0.856618 0.674225,-0.571078 1.011337,-1.259139 1.011337,-2.064184 v 0 -7.6982374 c 0,-0.085536 -0.02767,-0.1610089 -0.08302,-0.2264187 -0.05535,-0.06541 -0.13082,-0.098115 -0.226419,-0.098115 v 0 h -2.33966 c -0.0805,0 -0.14843,0.031447 -0.203777,0.094341 -0.05535,0.062894 -0.08302,0.1396249 -0.08302,0.2301924 v 0 7.5246497 c 0,0.120757 -0.03899,0.223903 -0.116983,0.309439 -0.07799,0.08554 -0.200003,0.128304 -0.366044,0.128304 -0.16604,0 -0.290571,-0.04277 -0.373591,-0.128304 -0.08302,-0.08554 -0.12453,-0.188682 -0.12453,-0.309439 v 0 -7.5246497 c 0,-0.2163557 -0.08805,-0.3245335 -0.264155,-0.3245335 v 0 h -2.437775 c -0.06541,0 -0.120757,0.032705 -0.166041,0.098115 -0.04528,0.06541 -0.06793,0.1408827 -0.06793,0.2264187 v 0 7.6982375 c 0,0.805045 0.337113,1.493106 1.011338,2.064184 0.674224,0.571079 1.479269,0.856618 2.415133,0.856618 z"
                            id="JU" />
                    <path
                            d="m 46.469639,15.181135 c 1.026431,0 1.85286,-0.280508 2.479285,-0.841523 0.626425,-0.561015 0.939638,-1.254108 0.939638,-2.079279 0,-0.387427 -0.05912,-0.755987 -0.177362,-1.105678 C 49.592959,10.804964 49.447045,10.500556 49.273457,10.241433 49.09987,9.9823089 48.868419,9.7181537 48.579107,9.448967 48.289794,9.1797802 48.021865,8.9571351 47.77532,8.7810317 47.528775,8.6049282 47.224368,8.3986356 46.862098,8.1621538 46.660837,8.031334 46.506117,7.9231562 46.397939,7.8376202 46.289761,7.7520842 46.210515,7.6652904 46.1602,7.5772386 46.10988,7.4891866 46.07969,7.4149719 46.06963,7.3545935 46.05957,7.2942155 46.05454,7.2011319 46.05454,7.0753437 c 0,-0.1006305 0.0327,-0.1861665 0.09811,-0.2566079 0.06541,-0.070441 0.163525,-0.105662 0.294345,-0.105662 0.261639,0 0.392459,0.1635246 0.392459,0.4905739 v 0 0.4000065 c 0,0.1358512 0.01635,0.2239029 0.04906,0.2641552 0.0327,0.040252 0.109436,0.060378 0.230193,0.060378 v 0 h 2.188714 c 0.166041,0 0.271703,-0.020126 0.316986,-0.060378 0.04528,-0.040252 0.06793,-0.1257882 0.06793,-0.2566079 v 0 -0.4226484 c 0,-0.9811479 -0.306923,-1.7484559 -0.920769,-2.3019239 -0.613847,-0.5534681 -1.408828,-0.8302021 -2.384945,-0.8302021 -0.316986,0 -0.630199,0.040252 -0.939637,0.1207566 -0.309439,0.080504 -0.603784,0.2037769 -0.883034,0.3698173 -0.279249,0.1660405 -0.525794,0.3635279 -0.739634,0.5924624 -0.21384,0.2289346 -0.383654,0.5031528 -0.509442,0.8226548 -0.125789,0.319502 -0.188683,0.6629038 -0.188683,1.0302053 0,0.6390041 0.0956,1.1572514 0.286797,1.5547421 0.191198,0.3823961 0.553468,0.7899499 1.08681,1.2226613 0.08554,0.070441 0.603784,0.4603851 1.554743,1.1698301 0.33208,0.246545 0.566046,0.452838 0.701898,0.618878 0.135851,0.16604 0.203776,0.34466 0.203776,0.535858 0,0.140883 -0.04402,0.247802 -0.132077,0.32076 -0.08805,0.07296 -0.192456,0.109435 -0.313213,0.109435 -0.33208,0 -0.498121,-0.171072 -0.498121,-0.513215 v 0 -0.332081 c 0,-0.150946 -0.02013,-0.250319 -0.06038,-0.298118 -0.04025,-0.0478 -0.133336,-0.0717 -0.27925,-0.0717 v 0 h -2.233998 c -0.135852,0 -0.222646,0.02893 -0.260382,0.08679 -0.03774,0.05786 -0.0566,0.179877 -0.0566,0.366044 v 0 0.422648 c 0,0.281766 0.03396,0.5585 0.101889,0.830202 0.06793,0.271703 0.186166,0.539632 0.354722,0.803787 0.168557,0.264155 0.376107,0.495605 0.622652,0.694351 0.246545,0.198745 0.564789,0.359754 0.954732,0.483026 0.389944,0.123273 0.826429,0.184909 1.309456,0.184909 z"
                            id="path51" />
                    <path
                            d="m 54.540993,15.181135 c 0.628941,0 1.197503,-0.10692 1.705688,-0.32076 0.508184,-0.21384 0.920769,-0.545921 1.237755,-0.996242 0.316987,-0.450322 0.47548,-0.984922 0.47548,-1.6038 v 0 -5.283104 c 0,-0.9207696 -0.32705,-1.6377623 -0.981148,-2.1509782 -0.654099,-0.5132158 -1.469206,-0.7698237 -2.445323,-0.7698237 -0.628941,0 -1.198761,0.1081778 -1.709461,0.3245335 -0.5107,0.2163557 -0.923286,0.5496944 -1.237756,1.0000162 -0.314471,0.4503217 -0.471706,0.9824058 -0.471706,1.5962522 v 0 5.283104 c 0,0.598752 0.157235,1.122031 0.471706,1.569837 0.31447,0.447806 0.728314,0.784918 1.241529,1.011337 0.513216,0.226419 1.084295,0.339628 1.713236,0.339628 z m 0,-2.656647 c -0.171072,0 -0.296861,-0.04402 -0.377365,-0.132077 -0.0805,-0.08805 -0.120757,-0.18994 -0.120757,-0.305666 v 0 -4.9359283 c 0,-0.1106936 0.04528,-0.2113242 0.135852,-0.3018917 0.09057,-0.090568 0.211324,-0.1358512 0.36227,-0.1358512 0.150945,0 0.270444,0.045284 0.358496,0.1358512 0.08805,0.090567 0.132078,0.1911981 0.132078,0.3018917 v 0 4.9359283 c 0,0.115726 -0.04025,0.217614 -0.120757,0.305666 -0.0805,0.08805 -0.203777,0.132077 -0.369817,0.132077 z"
                            id="O" />
                </g>
            </g>
        </g>
    </g>
</svg>
