<?xml version="1.0" encoding="UTF-8"?>
<svg width="19px" height="19px" viewBox="0 0 19 19" version="1.1" xmlns="http://www.w3.org/2000/svg" xmlns:xlink="http://www.w3.org/1999/xlink">
    <!-- Generator: Sketch 61.2 (89653) - https://sketch.com -->
    <title>search</title>
    <desc>Created with Sketch.</desc>
    <g id="Desktop" stroke="none" stroke-width="1" fill="none" fill-rule="evenodd">
        <g id="Aktuell" transform="translate(-1262.000000, -717.000000)" fill="#FFFFFF" fill-rule="nonzero">
            <g id="search" transform="translate(1262.000000, 717.000000)">
                <path d="M18.8691958,17.3997363 L14.3643377,12.8948782 C14.2789903,12.8095308 14.1676676,12.7650017 14.0489234,12.7650017 L13.5591036,12.7650017 C14.7279918,11.4105757 15.4367463,9.64796641 15.4367463,7.71837313 C15.4367463,3.45471413 11.9820321,0 7.71837313,0 C3.45471413,0 0,3.45471413 0,7.71837313 C0,11.9820321 3.45471413,15.4367463 7.71837313,15.4367463 C9.64796641,15.4367463 11.4105757,14.7279918 12.7650017,13.5591036 L12.7650017,14.0489234 C12.7650017,14.1676676 12.8132415,14.2789903 12.8948782,14.3643377 L17.3997363,18.8691958 C17.5741419,19.0436014 17.8561594,19.0436014 18.0305649,18.8691958 L18.8691958,18.0305649 C19.0436014,17.8561594 19.0436014,17.5741419 18.8691958,17.3997363 Z M7.71837313,13.6555832 C4.43806455,13.6555832 1.78116303,10.9986817 1.78116303,7.71837313 C1.78116303,4.43806455 4.43806455,1.78116303 7.71837313,1.78116303 C10.9986817,1.78116303 13.6555832,4.43806455 13.6555832,7.71837313 C13.6555832,10.9986817 10.9986817,13.6555832 7.71837313,13.6555832 Z" id="Shape"></path>
            </g>
        </g>
    </g>
</svg>